/* XPM */
static char * lock_xpm[] = {
"22 22 19 1",
" 	c None",
".	c #161616",
"+	c #090909",
"@	c #E2E2E2",
"#	c #FFFFFF",
"$	c #212121",
"%	c #252525",
"&	c #2A2A2A",
"*	c #303030",
"=	c #131313",
"-	c #343434",
";	c #2B2B2B",
">	c #393939",
",	c #3F3F3F",
"'	c #444444",
")	c #484848",
"!	c #4E4E4E",
"~	c #7A7A7A",
"{	c #535353",
"                      ",
"                      ",
"                      ",
"                      ",
"        .++++.        ",
"        .@##@.        ",
"        $    $        ",
"        %    %        ",
"        &    &        ",
"      $.*====*.$      ",
"      &-------*;      ",
"      >>>>>>>>>>      ",
"      ,,,,,'',,,      ",
"      ''''''''''      ",
"      ))')))))')      ",
"      !!!!!!!!!!      ",
"      ~{{{{{{{{~      ",
"       ########       ",
"                      ",
"                      ",
"                      ",
"                      "};
