<?xml version="1.0" encoding="UTF-8" standalone="no"?>
<svg
   xmlns:dc="http://purl.org/dc/elements/1.1/"
   xmlns:cc="http://creativecommons.org/ns#"
   xmlns:rdf="http://www.w3.org/1999/02/22-rdf-syntax-ns#"
   xmlns:svg="http://www.w3.org/2000/svg"
   xmlns="http://www.w3.org/2000/svg"
   xmlns:xlink="http://www.w3.org/1999/xlink"
   id="svg2408"
   height="96"
   width="96"
   version="1.0">
  <defs
     id="defs2410">
    <linearGradient
       id="linearGradient4282">
      <stop
         offset="0"
         style="stop-color:#e8e8e8;stop-opacity:1"
         id="stop4284" />
      <stop
         offset="1"
         style="stop-color:#828282;stop-opacity:1"
         id="stop4286" />
    </linearGradient>
    <linearGradient
       gradientTransform="scale(1.0058652,0.994169)"
       gradientUnits="userSpaceOnUse"
       id="ButtonShadow"
       y2="7.0165396"
       x2="45.447727"
       y1="92.539597"
       x1="45.447727">
      <stop
         offset="0"
         style="stop-color:#000000;stop-opacity:1"
         id="stop3750" />
      <stop
         offset="1"
         style="stop-color:#000000;stop-opacity:0.58823532"
         id="stop3752" />
    </linearGradient>
    <linearGradient
       id="linearGradient3737">
      <stop
         offset="0"
         style="stop-color:#ffffff;stop-opacity:1"
         id="stop3739" />
      <stop
         offset="1"
         style="stop-color:#ffffff;stop-opacity:0"
         id="stop3741" />
    </linearGradient>
    <filter
       id="filter3174"
       color-interpolation-filters="sRGB">
      <feGaussianBlur
         stdDeviation="1.71"
         id="feGaussianBlur3176" />
    </filter>
    <filter
       id="filter3794"
       color-interpolation-filters="sRGB"
       height="1.3839999"
       width="1.3839999"
       y="-0.192"
       x="-0.192">
      <feGaussianBlur
         stdDeviation="5.28"
         id="feGaussianBlur3796" />
    </filter>
    <linearGradient
       gradientUnits="userSpaceOnUse"
       xlink:href="#linearGradient3737"
       id="linearGradient3613"
       y2="138.66119"
       x2="48"
       y1="20.220806"
       x1="48" />
    <clipPath
       id="clipPath3613">
      <rect
         style="fill:#ffffff;fill-opacity:1;fill-rule:nonzero;stroke:none"
         id="rect3615"
         y="6"
         x="6"
         ry="6"
         rx="6"
         height="84"
         width="84" />
    </clipPath>
    <radialGradient
       gradientTransform="matrix(1.1573129,0,0,0.99590774,-7.551021,0.1971319)"
       gradientUnits="userSpaceOnUse"
       xlink:href="#linearGradient3737-7"
       id="radialGradient2874"
       fy="90.171875"
       fx="48"
       r="42"
       cy="90.171875"
       cx="48" />
    <linearGradient
       id="linearGradient3737-7">
      <stop
         offset="0"
         style="stop-color:#ffffff;stop-opacity:1"
         id="stop3739-2" />
      <stop
         offset="1"
         style="stop-color:#ffffff;stop-opacity:0"
         id="stop3741-7" />
    </linearGradient>
    <linearGradient
       gradientTransform="matrix(1.0294118,0,0,-1.0294118,-1.411765,97.411765)"
       gradientUnits="userSpaceOnUse"
       xlink:href="#linearGradient3273"
       id="linearGradient3279"
       y2="83.294571"
       x2="43.17857"
       y1="13"
       x1="43.17857" />
    <linearGradient
       gradientUnits="userSpaceOnUse"
       xlink:href="#linearGradient3737-0"
       id="linearGradient3188-8"
       y2="63.893143"
       x2="36.357143"
       y1="6"
       x1="36.357143" />
    <linearGradient
       id="linearGradient3737-0">
      <stop
         offset="0"
         style="stop-color:#ffffff;stop-opacity:1"
         id="stop3739-4" />
      <stop
         offset="1"
         style="stop-color:#ffffff;stop-opacity:0"
         id="stop3741-76" />
    </linearGradient>
    <linearGradient
       gradientUnits="userSpaceOnUse"
       xlink:href="#linearGradient3187-9"
       id="linearGradient2912"
       y2="5.9877172"
       x2="48"
       y1="90"
       x1="48" />
    <linearGradient
       id="linearGradient3273">
      <stop
         offset="0"
         style="stop-color:#b2b2b2;stop-opacity:1"
         id="stop3275" />
      <stop
         offset="1"
         style="stop-color:#898989;stop-opacity:1"
         id="stop3277" />
    </linearGradient>
    <linearGradient
       id="linearGradient3187-9">
      <stop
         offset="0"
         style="stop-color:#656565;stop-opacity:1"
         id="stop3189-7" />
      <stop
         offset="1"
         style="stop-color:#dcdcdc;stop-opacity:1"
         id="stop3191-8" />
    </linearGradient>
    <linearGradient
       id="linearGradient3234">
      <stop
         offset="0"
         style="stop-color:#007151;stop-opacity:1"
         id="stop3236" />
      <stop
         offset="1"
         style="stop-color:#258665;stop-opacity:1"
         id="stop3238" />
    </linearGradient>
    <linearGradient
       gradientTransform="matrix(0.68606063,0,0,0.68375842,4.2424239,5.7272471)"
       gradientUnits="userSpaceOnUse"
       xlink:href="#linearGradient3234"
       id="linearGradient3880"
       y2="8.550745"
       x2="60.777386"
       y1="115.27915"
       x1="60.777386" />
    <clipPath
       id="clipPath3918">
      <rect
         style="fill:#ffffff;fill-opacity:1;stroke:none"
         id="rect3920"
         y="14"
         x="14"
         ry="3"
         rx="3"
         height="68"
         width="68" />
    </clipPath>
    <linearGradient
       id="linearGradient7450">
      <stop
         offset="0"
         style="stop-color:#e3e3e3;stop-opacity:1"
         id="stop7452" />
      <stop
         offset="1"
         style="stop-color:#939393;stop-opacity:1"
         id="stop7454" />
    </linearGradient>
    <linearGradient
       id="linearGradient3187-1">
      <stop
         offset="0"
         style="stop-color:#656565;stop-opacity:1"
         id="stop3189-0" />
      <stop
         offset="1"
         style="stop-color:#dcdcdc;stop-opacity:1"
         id="stop3191-1" />
    </linearGradient>
    <filter
       id="filter7809"
       color-interpolation-filters="sRGB">
      <feGaussianBlur
         stdDeviation="1.8596875"
         id="feGaussianBlur7811" />
    </filter>
    <filter
       id="filter7813"
       color-interpolation-filters="sRGB">
      <feGaussianBlur
         stdDeviation="1.4521875"
         id="feGaussianBlur7815" />
    </filter>
    <linearGradient
       id="linearGradient3298">
      <stop
         offset="0"
         style="stop-color:#f9f9f9;stop-opacity:1"
         id="stop3300" />
      <stop
         offset="1"
         style="stop-color:#3c3c3c;stop-opacity:1"
         id="stop3302" />
    </linearGradient>
    <filter
       id="filter7542"
       color-interpolation-filters="sRGB">
      <feGaussianBlur
         stdDeviation="0.063379309"
         id="feGaussianBlur7544" />
    </filter>
    <filter
       id="filter4244"
       color-interpolation-filters="sRGB">
      <feGaussianBlur
         stdDeviation="1.56844"
         id="feGaussianBlur4246" />
    </filter>
    <radialGradient
       gradientTransform="matrix(0.9999932,0.00368562,-0.00209882,0.5694577,0.00342469,0.4534116)"
       gradientUnits="userSpaceOnUse"
       xlink:href="#linearGradient7450"
       id="radialGradient4255"
       fy="1.4732536"
       fx="48.969208"
       r="83.476051"
       cy="1.4732536"
       cx="48.969208" />
    <linearGradient
       gradientUnits="userSpaceOnUse"
       xlink:href="#linearGradient3187-1"
       id="linearGradient4257"
       y2="19.183952"
       x2="49.625214"
       y1="34.162155"
       x1="73.194839" />
    <radialGradient
       gradientTransform="matrix(0.9999932,0.00368562,-0.00209882,0.5694577,0.00342469,0.4534116)"
       gradientUnits="userSpaceOnUse"
       xlink:href="#linearGradient7450"
       id="radialGradient4259"
       fy="1.4732536"
       fx="48.969208"
       r="83.476051"
       cy="1.4732536"
       cx="48.969208" />
    <linearGradient
       gradientUnits="userSpaceOnUse"
       xlink:href="#linearGradient7450"
       id="linearGradient4261"
       y2="37.810905"
       x2="77.519737"
       y1="18.784508"
       x1="39.291836" />
    <filter
       id="filter4278"
       color-interpolation-filters="sRGB">
      <feGaussianBlur
         stdDeviation="1.8909375"
         id="feGaussianBlur4280" />
    </filter>
    <clipPath
       id="clipPath4290">
      <path
         style="fill:#ffffff;fill-opacity:1;stroke:none"
         id="path4292"
         d="m 81.775868,33.016836 -1.698553,4.060937 -0.488099,2.909037 0.09754,1.112853 -4.392827,0.566188 -0.195242,-1.073807 -1.21047,-2.694274 -2.694273,-3.494749 -2.752856,0.741902 -0.585712,4.353794 0.292856,2.948084 0.370947,1.034757 -4.080463,1.698564 -0.468561,-0.995709 -1.874287,-2.284278 -3.514259,-2.674751 -2.459999,1.425232 0.566189,4.373317 1.034765,2.752847 0.624758,0.917615 -3.494751,2.694276 -0.722386,-0.839521 -2.401417,-1.737612 -4.080448,-1.659517 -2.010947,2.010945 1.679031,4.060937 1.718091,2.401418 0.839523,0.722379 -2.694273,3.514273 -0.898091,-0.62476 -2.772379,-1.054282 -4.353796,-0.566188 -1.425234,2.479514 2.655227,3.494748 2.303803,1.874279 0.976197,0.46857 -1.679046,4.080461 -1.03475,-0.370951 -2.948084,-0.292857 -4.353795,0.605237 -0.741909,2.733323 3.475227,2.694274 2.694273,1.229996 1.093334,0.195238 -0.585713,4.373317 -1.093333,-0.07809 -2.928561,0.468569 -4.060939,1.698567 0,2.850464 4.060939,1.698565 2.928561,0.488094 1.093333,-0.09763 0.585713,4.39284 -1.093334,0.195238 -2.694273,1.210471 -3.475227,2.694276 0.741909,2.752847 4.353795,0.585707 2.948084,-0.292851 1.03475,-0.370951 1.679046,4.080462 -0.976197,0.46857 -2.303803,1.87428 -2.655227,3.51428 1.425234,2.45998 4.353796,-0.56618 2.772379,-1.03476 0.898091,-0.62476 2.694273,3.49475 -0.839523,0.72237 -1.718091,2.40142 -1.679031,4.08046 2.010947,2.01094 4.080448,-1.67904 2.401417,-1.71808 0.722386,-0.83952 3.494751,2.69427 -0.624758,0.89809 -1.034765,2.77237 -0.566189,4.35379 2.459999,1.42524 3.514259,-2.65523 1.874287,-2.3038 0.468561,-0.97618 4.080463,1.67904 -0.370947,1.03475 -0.292856,2.94809 0.585712,4.35378 2.752856,0.74191 2.694273,-3.47522 1.21047,-2.69428 0.195242,-1.09333 4.392827,0.58571 -0.09754,1.09333 0.488099,2.92856 1.698553,4.06094 2.85047,0 1.698568,-4.06094 0.468576,-2.92856 -0.07803,-1.09333 4.373304,-0.58571 0.195242,1.09333 1.229993,2.69428 2.694288,3.47522 2.733318,-0.74191 0.605235,-4.35378 -0.292856,-2.94809 -0.370962,-1.03475 4.080456,-1.67904 0.46858,0.97618 1.87427,2.3038 3.49477,2.65523 2.47951,-1.42524 -0.56619,-4.35379 -1.05429,-2.77237 -0.62476,-0.89809 3.51427,-2.69427 0.72239,0.83952 2.40142,1.71808 4.06092,1.67904 2.01096,-2.01094 -1.65952,-4.08046 -1.73761,-2.40142 -0.83953,-0.72237 2.69428,-3.49475 0.91761,0.62476 2.75286,1.03476 4.3733,0.56618 1.42524,-2.45998 -2.67475,-3.51428 -2.28429,-1.87428 -0.9957,-0.46857 1.69857,-4.080462 1.03476,0.370951 2.94809,0.292851 4.35379,-0.585707 0.74188,-2.752847 -3.49473,-2.694276 -2.69428,-1.210471 -1.07381,-0.195238 0.56619,-4.39284 1.11284,0.09763 2.90906,-0.488094 4.06094,-1.698565 0,-2.850464 -4.06094,-1.698567 -2.90906,-0.468569 -1.11284,0.07809 -0.56619,-4.373317 1.07381,-0.195238 2.69428,-1.229996 3.49473,-2.694274 -0.74188,-2.733323 -4.35379,-0.605237 -2.94809,0.292857 -1.03476,0.370951 -1.69857,-4.080461 0.9957,-0.46857 2.28429,-1.874279 2.67475,-3.494748 -1.42524,-2.479514 -4.3733,0.566188 -2.75286,1.054282 -0.91761,0.62476 -2.69428,-3.514273 0.83953,-0.722379 1.7376,-2.401418 1.65952,-4.060937 -2.01095,-2.010945 -4.06094,1.659517 -2.4014,1.737612 -0.72239,0.839521 -3.51427,-2.694276 0.62476,-0.917615 1.05429,-2.752847 0.56619,-4.373317 -2.47953,-1.425232 -3.49475,2.674751 -1.87427,2.284278 -0.46858,0.995709 -4.080456,-1.698564 0.370962,-1.034757 0.292856,-2.948084 -0.605249,-4.353794 -2.733304,-0.741902 -2.694288,3.494749 -1.229993,2.694274 -0.195242,1.073807 -4.373304,-0.566188 0.07803,-1.112853 -0.468576,-2.909037 -1.698568,-4.060937 -2.85047,0 z m 1.425235,14.916135 c 4.750977,0 9.282836,0.915519 13.451857,2.557608 l -7.946159,15.404228 c -1.749348,-0.512444 -3.59136,-0.800473 -5.505698,-0.800473 -3.795817,0 -7.34471,1.097152 -10.347576,2.967607 L 61.061192,55.35199 c 6.162484,-4.653279 13.829225,-7.419019 22.139911,-7.419019 z m 20.109457,6.013309 c 10.02308,6.567441 16.65374,17.876539 16.65374,30.749883 0,0.961414 -0.0447,1.907509 -0.1172,2.850466 L 102.80294,84.46188 C 102.72986,78.338435 99.829872,72.896128 95.364385,69.350507 L 103.31056,53.94628 z m -47.755065,6.501404 11.792334,12.709953 c -2.365792,3.238888 -3.748546,7.223374 -3.748546,11.538526 0,1.593022 0.187454,3.144009 0.546652,4.627126 l -15.75566,7.223781 c -1.269446,-3.722349 -1.971887,-7.701628 -1.971887,-11.850907 0,-9.287001 3.449052,-17.776076 9.137107,-24.248479 z m 45.900295,31.374644 17.06376,3.104274 c -3.64624,12.612618 -13.8725,22.447098 -26.708484,25.537038 l -2.323311,-17.2004 c 5.478983,-1.8582 9.870965,-6.076523 11.968055,-11.440912 z m -34.186052,4.314745 c 3.350419,4.653757 8.698915,7.770707 14.779464,8.121867 l 2.323326,17.20041 c -0.389364,0.0122 -0.779091,0.0196 -1.171425,0.0196 -13.489301,0 -25.285027,-7.27633 -31.687025,-18.11802 l 15.75566,-7.223787 z" />
    </clipPath>
    <clipPath
       id="clipPath4300">
      <path
         style="fill:#ffffff;fill-opacity:1;stroke:none"
         id="path4302"
         d="m 81.882329,32.767073 -1.713399,4.09643 -0.492364,2.934461 0.09839,1.12258 -4.431221,0.571136 -0.196948,-1.083191 -1.22105,-2.717823 -2.717821,-3.525293 -2.776916,0.748386 -0.590831,4.391847 0.295416,2.97385 0.374189,1.043801 -4.116126,1.71341 -0.472656,-1.004412 -1.890669,-2.304242 -3.544973,-2.698129 -2.481501,1.437688 0.571138,4.41154 1.043809,2.776907 0.630218,0.925635 -3.525294,2.717824 -0.7287,-0.846858 -2.422406,-1.752799 -4.116111,-1.674021 -2.028522,2.028521 1.693705,4.096429 1.733107,2.422407 0.846861,0.728693 -2.717822,3.544988 -0.90594,-0.630221 -2.796609,-1.063497 -4.391848,-0.571136 -1.437692,2.501185 2.678434,3.525293 2.323939,1.89066 0.984729,0.472665 -1.693721,4.116124 -1.043794,-0.374193 -2.97385,-0.295416 -4.391848,0.610526 -0.748393,2.757212 3.505601,2.717823 2.717821,1.240746 1.102889,0.196944 -0.590831,4.41154 -1.102889,-0.07877 -2.954157,0.472665 -4.096432,1.713413 0,2.875377 4.096432,1.713411 2.954157,0.49236 1.102889,-0.09848 0.590831,4.431233 -1.102889,0.196944 -2.717821,1.221051 -3.505601,2.717824 0.748393,2.776908 4.391848,0.590831 2.97385,-0.29541 1.043794,-0.374199 1.693721,4.116129 -0.984729,0.47267 -2.323939,1.89065 -2.678434,3.545 1.437692,2.48148 4.391848,-0.57113 2.796609,-1.0438 0.90594,-0.63022 2.717822,3.52529 -0.846861,0.72869 -1.733107,2.4224 -1.693705,4.11613 2.028522,2.02852 4.116111,-1.69372 2.422406,-1.7331 0.7287,-0.84686 3.525294,2.71782 -0.630218,0.90594 -1.043809,2.7966 -0.571138,4.39185 2.481501,1.43769 3.544973,-2.67843 1.890669,-2.32394 0.472656,-0.98471 4.116126,1.69371 -0.374189,1.0438 -0.295416,2.97385 0.590831,4.39184 2.776916,0.74839 2.717821,-3.50559 1.22105,-2.71783 0.196948,-1.10289 4.431221,0.59083 -0.09839,1.10289 0.492364,2.95415 1.713399,4.09643 2.875383,0 1.713414,-4.09643 0.472671,-2.95415 -0.07872,-1.10289 4.411527,-0.59083 0.196949,1.10289 1.240742,2.71783 2.717836,3.50559 2.757208,-0.74839 0.610525,-4.39184 -0.295416,-2.97385 -0.374204,-1.0438 4.116116,-1.69371 0.47268,0.98471 1.89065,2.32394 3.52531,2.67843 2.50118,-1.43769 -0.57114,-4.39185 -1.0635,-2.7966 -0.63021,-0.90594 3.54498,-2.71782 0.72871,0.84686 2.42239,1.7331 4.09642,1.69372 2.02854,-2.02852 -1.67403,-4.11613 -1.75279,-2.4224 -0.84687,-0.72869 2.71783,-3.52529 0.92564,0.63022 2.77691,1.0438 4.41153,0.57113 1.43768,-2.48148 -2.69813,-3.545 -2.30424,-1.89065 -1.00441,-0.47267 1.71341,-4.116129 1.04381,0.374199 2.97385,0.29541 4.39185,-0.590831 0.74836,-2.776908 -3.52528,-2.717824 -2.71782,-1.221051 -1.08319,-0.196944 0.57114,-4.431233 1.12256,0.09848 2.93448,-0.49236 4.09643,-1.713411 0,-2.875377 -4.09643,-1.713413 -2.93448,-0.472665 -1.12256,0.07877 -0.57114,-4.41154 1.08319,-0.196944 2.71782,-1.240746 3.52528,-2.717823 -0.74836,-2.757212 -4.39185,-0.610526 -2.97385,0.295416 -1.04381,0.374193 -1.71341,-4.116124 1.00441,-0.472665 2.30424,-1.89066 2.69813,-3.525293 -1.43769,-2.501185 -4.41153,0.571136 -2.77691,1.063497 -0.92564,0.630221 -2.71782,-3.544988 0.84686,-0.728693 1.75279,-2.422407 1.67402,-4.096429 -2.02852,-2.028521 -4.09643,1.674021 -2.42239,1.752799 -0.7287,0.846858 -3.54499,-2.717824 0.63022,-0.925635 1.0635,-2.776907 0.57114,-4.41154 -2.5012,-1.437688 -3.52529,2.698129 -1.89065,2.304242 -0.47268,1.004412 -4.116116,-1.71341 0.374204,-1.043801 0.295416,-2.97385 -0.61054,-4.391847 -2.757193,-0.748386 -2.717836,3.525293 -1.240742,2.717823 -0.196949,1.083191 -4.411527,-0.571136 0.07872,-1.12258 -0.472671,-2.934461 -1.713414,-4.09643 -2.875383,0 z m 1.437692,15.046502 c 4.792501,0 9.363968,0.923521 13.569427,2.579962 l -8.01561,15.538862 C 87.109201,65.415476 85.25109,65.12493 83.320021,65.12493 c -3.828993,0 -7.408903,1.106741 -10.438015,2.993543 l -11.8954,-12.821036 c 6.216344,-4.693949 13.950092,-7.483862 22.333415,-7.483862 z m 20.285209,6.065866 c 10.11069,6.62484 16.7993,18.032781 16.7993,31.018638 0,0.969817 -0.0451,1.92418 -0.11822,2.875379 l -17.19313,-3.11171 c -0.0737,-6.176964 -2.99905,-11.666837 -7.50357,-15.243446 l 8.01562,-15.538861 z m -48.172441,6.558226 11.8954,12.821038 c -2.38647,3.267197 -3.781309,7.286508 -3.781309,11.639374 0,1.606945 0.189092,3.171488 0.55143,4.667568 l -15.893365,7.286917 c -1.280541,-3.754884 -1.989122,-7.768941 -1.989122,-11.954485 0,-9.36817 3.479197,-17.931439 9.216966,-24.460412 z m 46.301471,31.64886 17.21289,3.131405 C 115.26904,107.94079 104.9534,117.86122 92.005235,120.97817 l -2.343617,-17.35074 c 5.526869,-1.87444 9.957238,-6.129629 12.072652,-11.540903 z m -34.484845,4.352456 c 3.379701,4.694427 8.774943,7.838617 14.908637,8.192857 l 2.343631,17.35074 c -0.392766,0.0123 -0.7859,0.0198 -1.181662,0.0198 -13.607198,0 -25.50602,-7.33993 -31.963971,-18.27637 l 15.893365,-7.286927 z" />
    </clipPath>
    <filter
       id="filter4308"
       color-interpolation-filters="sRGB">
      <feGaussianBlur
         stdDeviation="1.8975"
         id="feGaussianBlur4310" />
    </filter>
    <filter
       id="filter4325"
       color-interpolation-filters="sRGB">
      <feGaussianBlur
         stdDeviation="1.439999"
         id="feGaussianBlur4327" />
    </filter>
    <radialGradient
       gradientTransform="matrix(0.62429531,-0.62429531,0.39740012,0.39740012,57.190344,56.707013)"
       gradientUnits="userSpaceOnUse"
       xlink:href="#linearGradient7450"
       id="radialGradient4338"
       fy="55.978848"
       fx="56.055019"
       r="52.251602"
       cy="55.978848"
       cx="56.055019" />
    <linearGradient
       gradientTransform="matrix(0.68606059,0,0,0.68606059,75.974088,5.5532361)"
       gradientUnits="userSpaceOnUse"
       xlink:href="#linearGradient4282"
       id="linearGradient4340"
       y2="130.51231"
       x2="113.84038"
       y1="42.239994"
       x1="50.760078" />
    <linearGradient
       gradientUnits="userSpaceOnUse"
       xlink:href="#linearGradient3298"
       id="linearGradient4342"
       y2="84.937546"
       x2="82.573708"
       y1="82.61515"
       x1="80.875443" />
    <linearGradient
       gradientUnits="userSpaceOnUse"
       xlink:href="#linearGradient3298"
       id="linearGradient4344"
       y2="82.651672"
       x2="81.312866"
       y1="85.362457"
       x1="82.312332" />
    <clipPath
       id="clipPath4350">
      <rect
         style="fill:#ffffff;fill-opacity:1;stroke:none"
         id="rect4352"
         y="14"
         x="84"
         ry="3"
         rx="3"
         height="68"
         width="68" />
    </clipPath>
    <clipPath
       id="clipPath4354">
      <rect
         style="fill:#ffffff;fill-opacity:1;stroke:none"
         id="rect4356"
         y="14"
         x="-36"
         ry="3"
         rx="3"
         height="68"
         width="68" />
    </clipPath>
    <filter
       id="filter3773"
       color-interpolation-filters="sRGB"
       height="1.336"
       width="1.336"
       y="-0.168"
       x="-0.168">
      <feGaussianBlur
         stdDeviation="5.04"
         id="feGaussianBlur3775" />
    </filter>
    <linearGradient
       gradientTransform="matrix(1.0058652,0,0,0.994169,100,0)"
       gradientUnits="userSpaceOnUse"
       id="ButtonShadow-0"
       y2="7.0165396"
       x2="45.447727"
       y1="92.539597"
       x1="45.447727">
      <stop
         offset="0"
         style="stop-color:#000000;stop-opacity:1"
         id="stop3750-8" />
      <stop
         offset="1"
         style="stop-color:#000000;stop-opacity:0.58823532"
         id="stop3752-5" />
    </linearGradient>
    <linearGradient
       gradientTransform="matrix(1.0238095,0,0,1.0119048,-1.1428571,-98.071429)"
       gradientUnits="userSpaceOnUse"
       xlink:href="#ButtonShadow-0"
       id="linearGradient3780"
       y2="90.238609"
       x2="32.251034"
       y1="6.1317081"
       x1="32.251034" />
    <linearGradient
       gradientTransform="matrix(1.0238095,0,0,1.0119048,-1.1428571,-98.071429)"
       gradientUnits="userSpaceOnUse"
       xlink:href="#ButtonShadow-0"
       id="linearGradient3772"
       y2="90.238609"
       x2="32.251034"
       y1="6.1317081"
       x1="32.251034" />
    <linearGradient
       gradientTransform="matrix(1.0238095,0,0,1.0119048,-1.1428571,-98.071429)"
       gradientUnits="userSpaceOnUse"
       xlink:href="#ButtonShadow-0"
       id="linearGradient3725"
       y2="90.238609"
       x2="32.251034"
       y1="6.1317081"
       x1="32.251034" />
    <linearGradient
       gradientTransform="translate(0,-97)"
       gradientUnits="userSpaceOnUse"
       xlink:href="#ButtonShadow-0"
       id="linearGradient3721"
       y2="90.238609"
       x2="32.251034"
       y1="6.1317081"
       x1="32.251034" />
    <linearGradient
       gradientTransform="matrix(1.0238095,0,0,1.0119048,-1.1428571,-98.071429)"
       gradientUnits="userSpaceOnUse"
       xlink:href="#ButtonShadow-0"
       id="linearGradient3811"
       y2="90.238609"
       x2="32.251034"
       y1="6.1317081"
       x1="32.251034" />
    <linearGradient
       gradientTransform="matrix(-1.3393504,0,0,1.3393504,150.87582,1.899251)"
       gradientUnits="userSpaceOnUse"
       xlink:href="#linearGradient3907"
       id="linearGradient3913"
       y2="28.781588"
       x2="48"
       y1="67.218414"
       x1="48" />
    <linearGradient
       id="linearGradient3907">
      <stop
         offset="0"
         style="stop-color:#e1e1e1;stop-opacity:1"
         id="stop3909" />
      <stop
         offset="1"
         style="stop-color:#ffffff;stop-opacity:1"
         id="stop3911" />
    </linearGradient>
  </defs>
  <metadata
     id="metadata2413">
    <rdf:RDF>
      <cc:Work
         rdf:about="">
        <dc:format>image/svg+xml</dc:format>
        <dc:type
           rdf:resource="http://purl.org/dc/dcmitype/StillImage" />
        <dc:title></dc:title>
      </cc:Work>
    </rdf:RDF>
  </metadata>
  <g
     style="display:none"
     id="layer2">
    <rect
       style="opacity:0.9;fill:url(#ButtonShadow);fill-opacity:1;fill-rule:nonzero;stroke:none;filter:url(#filter3174)"
       id="rect3745"
       y="7"
       x="5"
       ry="6"
       rx="6"
       height="85"
       width="86" />
  </g>
  <g
     style="display:inline"
     id="layer6">
    <path
       style="opacity:0.07999998;fill:url(#linearGradient3811);fill-opacity:1;fill-rule:nonzero;stroke:none;display:inline"
       id="path3786"
       transform="scale(1,-1)"
       d="m 12,-95.03125 c -5.5110903,0 -10.03125,4.52016 -10.03125,10.03125 l 0,71 c 0,5.5110902 4.5201598,10.03125 10.03125,10.03125 l 72,0 c 5.51109,0 10.03125,-4.5201597 10.03125,-10.03125 l 0,-71 c 0,-5.51109 -4.52016,-10.03125 -10.03125,-10.03125 l -72,0 z" />
    <path
       style="opacity:0.1;fill:url(#linearGradient3780);fill-opacity:1;fill-rule:nonzero;stroke:none;display:inline"
       id="path3778"
       transform="scale(1,-1)"
       d="m 12,-94.03125 c -4.971633,0 -9.03125,4.059617 -9.03125,9.03125 l 0,71 c 0,4.9716329 4.0596171,9.03125 9.03125,9.03125 l 72,0 c 4.971633,0 9.03125,-4.059617 9.03125,-9.03125 l 0,-71 c 0,-4.971633 -4.059617,-9.03125 -9.03125,-9.03125 l -72,0 z" />
    <path
       style="opacity:0.2;fill:url(#linearGradient3772);fill-opacity:1;fill-rule:nonzero;stroke:none;display:inline"
       id="path3770"
       transform="scale(1,-1)"
       d="m 12,-93 c -4.4091333,0 -8,3.590867 -8,8 l 0,71 c 0,4.4091333 3.5908667,8 8,8 l 72,0 c 4.409133,0 8,-3.5908667 8,-8 l 0,-71 c 0,-4.409133 -3.590867,-8 -8,-8 l -72,0 z" />
    <rect
       style="opacity:0.3;fill:url(#linearGradient3725);fill-opacity:1;fill-rule:nonzero;stroke:none;display:inline"
       id="rect3723"
       transform="scale(1,-1)"
       y="-92"
       x="5"
       ry="7"
       rx="7"
       height="85"
       width="86" />
    <rect
       style="opacity:0.45;fill:url(#linearGradient3721);fill-opacity:1;fill-rule:nonzero;stroke:none;display:inline"
       id="rect3716"
       transform="scale(1,-1)"
       y="-91"
       x="6"
       ry="6"
       rx="6"
       height="84"
       width="84" />
  </g>
  <g
     style="display:inline"
     id="layer3">
    <rect
       style="fill:url(#linearGradient3880);fill-opacity:1;fill-rule:evenodd;stroke:none;display:inline"
       id="rect3232"
       y="14"
       x="12"
       ry="7.5213428"
       rx="7.5466671"
       height="72"
       width="72" />
    <g
       id="g4248"
       clip-path="url(#clipPath4354)"
       transform="translate(50,0)">
      <path
         style="fill:#000000;fill-opacity:1;stroke:none;filter:url(#filter4244)"
         id="path4226"
         d="m -35.40625,-27.28125 -0.3125,0.03125 -0.125,0.28125 -1.28125,3.03125 0,0.0625 -0.0312,0.0625 -0.34375,2.1875 0,0.0625 0,0.0625 0.0312,0.34375 -2.34375,0.3125 -0.0625,-0.34375 0,-0.0625 -0.0312,-0.0625 -0.9375,-2 0,-0.0625 -0.0625,-0.03125 -2,-2.59375 -0.1875,-0.28125 -0.34375,0.09375 -2.0625,0.5625 -0.3125,0.09375 -0.0625,0.3125 -0.40625,3.28125 -0.0312,0.0625 0.0312,0.0625 0.21875,2.1875 0,0.0625 0.0312,0.03125 0.125,0.375 -2.15625,0.875 -0.15625,-0.3125 -0.0312,-0.03125 -0.0625,-0.0625 -1.40625,-1.71875 -0.0312,-0.03125 -0.0625,-0.03125 -2.625,-1.96875 -0.25,-0.21875 -0.28125,0.1875 -1.84375,1.0625 -0.3125,0.15625 0.0625,0.34375 0.40625,3.25 0.0312,0.0625 0,0.0625 0.8125,2.0625 0.0312,0.0625 0.0312,0.03125 0.1875,0.28125 -1.875,1.46875 -0.21875,-0.28125 -0.0312,-0.03125 L -55.75,-14 l -1.8125,-1.28125 -0.0312,-0.03125 -0.0625,0 -3.0625,-1.25 -0.28125,-0.125 -0.25,0.21875 -1.5,1.53125 -0.25,0.25 0.125,0.28125 1.28125,3.0625 0.0312,0.03125 0.0312,0.0625 1.28125,1.8125 0.0312,0.03125 0.0625,0.03125 0.25,0.21875 -1.4375,1.90625 -0.28125,-0.1875 -0.0312,-0.0625 -0.0625,0 -2.0625,-0.8125 -0.0625,0 -0.0625,-0.03125 -3.25,-0.375 -0.34375,-0.0625 -0.15625,0.3125 -1.0625,1.84375 -0.15625,0.28125 0.1875,0.28125 2,2.59375 0.0312,0.0625 0.0625,0.03125 1.71875,1.40625 0.0312,0.03125 0.0625,0.03125 0.3125,0.15625 -0.875,2.15625 -0.34375,-0.125 -0.0625,0 -0.0625,0 -2.1875,-0.21875 -0.0625,-0.03125 -0.0625,0.03125 -3.28125,0.46875 -0.34375,0.03125 -0.0625,0.3125 -0.53125,2.09375 -0.0937,0.3125 0.25,0.1875 2.625,2 0.0312,0.03125 0.0625,0.03125 2.03125,0.90625 0.0625,0.03125 0.0312,0 0.375,0.0625 -0.3125,2.34375 -0.34375,-0.03125 -0.0625,0 -0.0625,0 -2.1875,0.375 -0.0625,0 -0.0312,0.03125 -3.03125,1.28125 -0.3125,0.125 0,0.34375 0,2.125 0,0.34375 0.3125,0.125 3.03125,1.25 0.0625,0.03125 0.0625,0 2.1875,0.34375 0.0625,0.03125 0.0625,0 0.34375,-0.03125 0.3125,2.3125 -0.3125,0.0625 -0.0625,0.03125 -0.0625,0.03125 -2.03125,0.90625 -0.0625,0.03125 -0.0625,0.03125 -2.59375,2.03125 -0.25,0.21875 0.0937,0.3125 0.5625,2.0625 0.0937,0.3125 0.3125,0.03125 3.28125,0.4375 0.0312,0 0.0625,0 2.21875,-0.21875 0.0625,0 0.0625,-0.03125 0.3125,-0.125 0.90625,2.1875 -0.3125,0.15625 -0.0625,0.03125 -0.0312,0.03125 -1.71875,1.40625 -0.0312,0.03125 -0.0312,0.0625 -2,2.625 -0.1875,0.25 0.15625,0.28125 1.0625,1.84375 0.15625,0.3125 0.34375,-0.0625 3.28125,-0.4375 0.0625,0 0.0312,-0.0312 2.09375,-0.78125 0.0625,0 0.0312,-0.0625 0.28125,-0.1875 1.46875,1.875 -0.28125,0.21875 -0.0312,0.0312 -0.0312,0.0625 -1.3125,1.78125 -0.0312,0.0625 -0.0312,0.0312 -1.21875,3.09375 -0.125,0.28125 0.25,0.25 1.5,1.5 0.21875,0.21875 0.3125,-0.125 3.0625,-1.28125 0.0312,0 0.0625,-0.0312 1.78125,-1.3125 0.0625,-0.0312 0.0312,-0.0312 0.21875,-0.28125 1.875,1.4375 -0.1875,0.28125 -0.0312,0.0625 -0.0312,0.0625 -0.75,2.0625 -0.0312,0.0625 0,0.0625 -0.40625,3.28125 -0.0625,0.3125 0.3125,0.1875 1.84375,1.03125 0.28125,0.1875 0.28125,-0.21875 2.59375,-2 0.0312,-0.0312 0.0312,-0.0625 1.40625,-1.71875 0.0625,-0.0312 0,-0.0625 0.15625,-0.3125 2.1875,0.875 -0.125,0.34375 0,0.0625 -0.0312,0.0625 -0.1875,2.1875 0,0.0625 0,0.0625 0.4375,3.25 0.0625,0.34375 0.3125,0.0937 2.0625,0.53125 0.3125,0.0937 0.21875,-0.25 2,-2.625 0.0312,-0.0625 0.0312,-0.0312 0.90625,-2.03125 0.0312,-0.0625 0,-0.0625 0.0625,-0.34375 2.34375,0.3125 -0.0312,0.34375 0,0.0625 0,0.0625 0.375,2.1875 0.0312,0.0625 0,0.0312 1.28125,3.0625 0.125,0.3125 0.34375,-0.0312 2.125,0 0.34375,0 0.125,-0.3125 1.25,-3.03125 0.0312,-0.0625 0,-0.0625 0.34375,-2.1875 0.0312,-0.0625 -0.0312,-0.0625 -0.0312,-0.34375 2.34375,-0.3125 0.0625,0.34375 0.0312,0.0625 0.0312,0.0625 0.90625,2 0.0312,0.0312 0.0312,0.0625 2.03125,2.625 0.1875,0.25 0.3125,-0.0937 2.0625,-0.53125 0.34375,-0.0937 0.0312,-0.34375 0.4375,-3.28125 0,-0.0625 0,-0.0625 -0.25,-2.1875 0,-0.0625 -0.0312,-0.0625 -0.125,-0.34375 2.1875,-0.875 0.15625,0.3125 0.0312,0.0312 0.0312,0.0625 1.4375,1.71875 0.03125,0.0312 0.03125,0.0312 2.625,1.96875 0.28125,0.21875 0.28125,-0.15625 1.84375,-1.09375 0.28125,-0.15625 -0.03125,-0.34375 -0.4375,-3.25 0,-0.0625 -0.03125,-0.0625 -0.78125,-2.0625 -0.03125,-0.0625 -0.03125,-0.0312 -0.1875,-0.3125 1.875,-1.40625 0.21875,0.25 0.03125,0.0625 0.0625,0.0312 1.78125,1.28125 0.0625,0.0312 0.0625,0 3.03125,1.25 0.3125,0.125 0.25,-0.21875 1.5,-1.53125 0.25,-0.21875 -0.15625,-0.3125 -1.25,-3.0625 -0.03125,-0.0312 -0.03125,-0.0625 -1.28125,-1.78125 -0.0625,-0.0625 -0.03125,-0.0312 -0.28125,-0.21875 1.4375,-1.875 0.28125,0.1875 0.0625,0.03125 0.0625,0 2.0625,0.78125 0.03125,0.0312 0.0625,0 3.28125,0.40625 0.34375,0.0625 0.15625,-0.3125 1.0625,-1.84375 0.15625,-0.28125 -0.1875,-0.28125 -2,-2.59375 L -1.6875,27.25 -1.75,27.21875 -3.46875,25.8125 -3.5,25.78125 -3.5625,25.75 -3.875,25.59375 -3,23.4375 l 0.34375,0.09375 0.0625,0.03125 0.03125,0 2.21875,0.21875 0.0625,0 0.03125,0 3.28125,-0.4375 L 3.375,23.3125 3.4375,22.96875 4,20.90625 4.09375,20.5625 3.8125,20.375 l -2.625,-2 -0.03125,-0.0625 -0.0625,0 -2,-0.90625 -0.0625,-0.03125 -0.0625,0 L -1.375,17.3125 -1.09375,14.96875 -0.75,15 l 0.0625,0 0.0625,0 2.1875,-0.375 0.0625,0 0.0625,-0.03125 3.03125,-1.28125 0.3125,-0.125 0,-0.34375 0,-2.125 0,-0.34375 L 4.71875,10.25 1.65625,9 1.625,8.96875 l -0.0625,0 L -0.625,8.625 -0.6875,8.59375 -0.75,8.625 -1.09375,8.65625 -1.40625,6.3125 -1.09375,6.25 -1.03125,6.21875 -0.96875,6.1875 1.0625,5.28125 1.125,5.25 1.15625,5.21875 3.75,3.1875 4,3 3.9375,2.6875 3.375,0.625 3.28125,0.28125 2.9375,0.25 l -3.25,-0.4375 -0.0625,0 -0.0625,0 -2.1875,0.21875 -0.0625,0 L -2.75,0.0625 -3.09375,0.1875 -4,-2 -3.65625,-2.15625 -3.625,-2.1875 -3.5625,-2.21875 -1.875,-3.625 l 0.03125,-0.03125 0.0625,-0.03125 2,-2.625 0.1875,-0.28125 L 0.25,-6.875 -0.84375,-8.71875 -1,-9 l -0.34375,0.03125 -3.25,0.4375 -0.0625,0 -0.0625,0.03125 -2.0625,0.78125 -0.0625,0.03125 -0.03125,0.03125 -0.28125,0.1875 -1.46875,-1.875 0.25,-0.21875 0.0625,-0.03125 0.03125,-0.0625 L -7,-11.4375 -6.96875,-11.5 l 0.03125,-0.0625 1.25,-3.03125 0.125,-0.3125 -0.25,-0.25 -1.5,-1.5 -0.125,-0.09375 -0.15625,-0.03125 -0.125,-0.03125 -0.125,0.0625 -3.0625,1.25 -0.0625,0.03125 -0.0625,0.03125 -1.78125,1.3125 -0.03125,0.03125 -0.03125,0.03125 -0.21875,0.28125 -1.875,-1.4375 0.1875,-0.28125 0.03125,-0.0625 0.03125,-0.0625 0.75,-2.0625 0.03125,-0.0625 0,-0.0625 0.40625,-3.25 0.03125,-0.34375 -0.28125,-0.15625 -1.84375,-1.0625 -0.28125,-0.1875 -0.28125,0.21875 -2.59375,2.03125 -0.0625,0.03125 -0.03125,0.03125 -1.40625,1.71875 -0.0312,0.03125 -0.0312,0.0625 -0.15625,0.3125 -2.1875,-0.875 0.125,-0.3125 0.0312,-0.0625 0,-0.0625 0.21875,-2.21875 0,-0.0625 0,-0.0625 -0.46875,-3.25 -0.0312,-0.34375 -0.34375,-0.09375 -2.0625,-0.53125 -0.3125,-0.0625 -0.1875,0.25 -2.03125,2.59375 -0.0312,0.0625 0,0.03125 -0.90625,2.0625 -0.0312,0.03125 -0.0312,0.0625 -0.0625,0.34375 -2.3125,-0.3125 0,-0.34375 0.0312,-0.0625 -0.0312,-0.0625 -0.375,-2.1875 0,-0.03125 -0.0312,-0.0625 -1.25,-3.03125 -0.125,-0.3125 -0.34375,0 -2.15625,0 z m 1.125,14.96875 c 6.19777,-0.02284 12.40862,2.318486 17.15625,7.03125 9.495264,9.425527 9.581411,24.786358 0.15625,34.28125 -9.42515,9.49489 -24.78599,9.51927 -34.28125,0.09375 -9.49526,-9.425528 -9.55052,-24.754737 -0.125,-34.25 4.71277,-4.747632 10.89598,-7.133407 17.09375,-7.15625 z" />
      <g
         style="fill:url(#radialGradient4259);fill-opacity:1;stroke:url(#linearGradient4261);stroke-width:1.45759726"
         id="g2645"
         transform="matrix(0.33201642,0.32957802,-0.32957802,0.33201642,-34.178641,9.9231531)">
        <path
           transform="matrix(1.4665021,0,0,1.4665021,-26.232091,-12.972501)"
           style="fill:url(#radialGradient4255);fill-opacity:1;stroke:url(#linearGradient4257);stroke-width:1.45759737"
           id="path2647"
           d="m 16.34375,-47.5625 -1.875,4.4375 -0.5,3.1875 0.09375,1.1875 -4.78125,0.625 -0.21875,-1.1875 -1.34375,-2.9375 -2.9375,-3.78125 -3,0.78125 -0.625,4.78125 0.3125,3.1875 0.40625,1.15625 -4.46875,1.84375 -0.5,-1.09375 -2.0625,-2.5 -3.8125,-2.90625 -2.6875,1.5625 0.59375,4.75 1.15625,3.03125 0.6875,0.96875 -3.84375,2.9375 -0.78125,-0.90625 -2.625,-1.875 -4.4375,-1.84375 -2.1875,2.21875 1.8125,4.4375 1.875,2.625 0.9375,0.78125 -2.9375,3.8125 -1,-0.6875 -3.03125,-1.125 -4.75,-0.625 L -31.75,-18 l 2.90625,3.8125 2.5,2.03125 1.09375,0.53125 -1.84375,4.4375 -1.125,-0.40625 -3.21875,-0.3125 -4.75,0.65625 -0.8125,3 3.78125,2.9375 L -30.25,0 -29.09375,0.21875 -29.71875,5 l -1.1875,-0.09375 -3.1875,0.53125 -4.4375,1.84375 0,3.125 4.4375,1.84375 3.1875,0.53125 1.1875,-0.09375 0.625,4.78125 L -30.25,17.6875 -33.21875,19 -37,21.9375 l 0.8125,3 4.75,0.65625 3.21875,-0.3125 1.125,-0.40625 1.84375,4.4375 -1.09375,0.53125 -2.5,2.03125 -2.90625,3.84375 1.5625,2.6875 4.75,-0.625 3.03125,-1.125 1,-0.6875 2.9375,3.8125 -0.9375,0.78125 -1.875,2.625 -1.8125,4.4375 2.1875,2.21875 4.4375,-1.84375 2.625,-1.875 0.78125,-0.90625 3.84375,2.9375 -0.6875,0.96875 -1.15625,3.03125 -0.59375,4.78125 2.6875,1.53125 3.8125,-2.90625 2.0625,-2.5 0.5,-1.09375 4.46875,1.875 -0.40625,1.125 -0.3125,3.21875 0.625,4.75 3,0.8125 2.9375,-3.8125 L 9.0625,57 l 0.21875,-1.1875 4.78125,0.625 -0.09375,1.1875 0.5,3.1875 1.875,4.4375 3.09375,0 1.84375,-4.4375 L 21.8125,57.625 21.71875,56.4375 26.5,55.8125 26.71875,57 28.0625,59.9375 31,63.75 l 3,-0.8125 0.625,-4.75 -0.3125,-3.21875 -0.40625,-1.125 4.46875,-1.875 0.5,1.09375 2.0625,2.5 L 44.75,58.46875 47.4375,56.9375 46.84375,52.15625 45.6875,49.125 45,48.15625 48.84375,45.21875 49.625,46.125 52.25,48 56.6875,49.84375 58.875,47.625 57.0625,43.1875 55.15625,40.5625 54.25,39.78125 l 2.9375,-3.8125 1,0.6875 3,1.125 4.78125,0.625 1.5625,-2.6875 -2.9375,-3.84375 -2.5,-2.03125 -1.0625,-0.53125 1.84375,-4.4375 1.125,0.40625 3.21875,0.3125 4.75,-0.65625 0.8125,-3 L 68.96875,19 66.03125,17.6875 64.84375,17.46875 65.5,12.6875 66.6875,12.78125 69.875,12.25 l 4.4375,-1.84375 0,-3.125 L 69.875,5.4375 66.6875,4.90625 65.5,5 64.84375,0.21875 66.03125,0 l 2.9375,-1.3125 3.8125,-2.9375 -0.8125,-3 -4.75,-0.65625 -3.21875,0.3125 -1.125,0.40625 -1.84375,-4.4375 1.0625,-0.53125 2.5,-2.03125 2.9375,-3.8125 -1.5625,-2.71875 -4.78125,0.625 -3,1.125 -1,0.6875 -2.9375,-3.8125 0.90625,-0.78125 1.90625,-2.625 1.8125,-4.4375 -2.1875,-2.21875 -4.4375,1.84375 -2.625,1.875 -0.78125,0.90625 -3.84375,-2.9375 0.6875,-0.96875 1.15625,-3.03125 0.59375,-4.75 -2.6875,-1.5625 -3.8125,2.90625 -2.0625,2.5 -0.5,1.09375 -4.46875,-1.84375 0.40625,-1.15625 0.3125,-3.1875 L 34,-45.25 31,-46.03125 28.0625,-42.25 26.71875,-39.3125 26.5,-38.125 l -4.78125,-0.625 0.09375,-1.1875 -0.53125,-3.1875 -1.84375,-4.4375 -3.09375,0 z m 1.53125,20.375 c 19.895406,0 36.0625,16.135844 36.0625,36.03125 C 53.937498,28.739156 37.770406,44.875 17.875,44.875 -2.0204065,44.874999 -18.15625,28.739156 -18.15625,8.84375 -18.156251,-11.051656 -2.0204063,-27.1875 17.875,-27.1875 z" />
      </g>
      <path
         style="opacity:0.2;fill:#000000;fill-opacity:1;fill-rule:nonzero;stroke:none;filter:url(#filter7809)"
         id="path7797"
         transform="matrix(0.48690276,0.48332687,-0.48332687,0.48690276,-38.612674,-3.0294512)"
         d="m 17.875,-29.21875 c 12.794439,0 24.064539,6.390407 30.96875,16.09375 L 55.375,-17.34375 52.65625,-20.875 c -0.648143,-0.846832 -0.524897,-2.051902 0.28125,-2.75 l 0.75,-0.625 1.59375,-2.21875 1.21875,-3 -0.28125,-0.28125 -2.9375,1.21875 -2.34375,1.65625 -0.5625,0.65625 c -0.698098,0.806147 -1.903168,0.929393 -2.75,0.28125 L 43.78125,-28.875 C 31.788135,-55.428895 -61.66477,-21.332002 17.875,-29.21875 z M 48.84375,30.8125 C 41.939539,40.515843 30.669439,46.90625 17.875,46.90625 L 37.59375,50.125 c 1.001456,-0.431143 2.164238,0.01182 2.625,1 L 40.625,52 l 1.75,2.15625 2.53125,1.90625 0.375,-0.21875 -0.40625,-3.21875 -0.96875,-2.5 -0.5625,-0.8125 c -0.612064,-0.886387 -0.419417,-2.097314 0.4375,-2.75 L 47.625,43.625 c 0.846832,-0.648143 2.051902,-0.524897 2.75,0.28125 l 0.5625,0.65625 2.34375,1.65625 2.9375,1.21875 0.28125,-0.28125 -1.21875,-3 -1.59375,-2.21875 -0.75,-0.625 c -0.806147,-0.698098 -0.929393,-1.903168 -0.28125,-2.75 L 55.375,35.03125 48.84375,30.8125 z" />
      <path
         style="opacity:0.5;fill:#ffffff;fill-opacity:1;fill-rule:nonzero;stroke:none;filter:url(#filter7813)"
         id="path7803"
         transform="matrix(0.48690276,0.48332687,-0.48332687,0.48690276,-38.612674,-3.0294512)"
         d="m 59.5,-9.5625 -6.5625,3.25 c 2.020989,4.6571765 3.21875,9.7663981 3.21875,15.15625 C 56.156249,14.233601 54.958489,19.342823 52.9375,24 l 6.5625,3.25 1.34375,-3.21875 c 0.446258,-1.090854 1.669216,-1.640498 2.78125,-1.25 l 0.96875,0.34375 2.53125,0.25 3.09375,-0.4375 0.0625,-0.15625 -2.40625,-1.8125 -2.5,-1.15625 -0.9375,-0.15625 c -1.169193,-0.219106 -1.955971,-1.323355 -1.78125,-2.5 L 63.3125,12.375 c 0.159005,-1.165761 1.202451,-2.003264 2.375,-1.90625 l 0.9375,0.0625 2.71875,-0.4375 2.75,-1.15625 0,-0.1875 -2.75,-1.15625 -2.71875,-0.4375 -0.9375,0.0625 C 64.514951,7.3157642 63.471505,6.4782615 63.3125,5.3125 L 62.65625,0.53125 c -0.174721,-1.17664491 0.612057,-2.2808942 1.78125,-2.5 l 0.9375,-0.15625 2.5,-1.15625 2.40625,-1.8125 -0.0625,-0.15625 -3.09375,-0.4375 -2.53125,0.25 -0.96875,0.34375 c -1.112034,0.3904983 -2.334992,-0.1591458 -2.78125,-1.25 L 59.5,-9.5625 z" />
    </g>
    <path
       style="font-size:medium;font-style:normal;font-variant:normal;font-weight:normal;font-stretch:normal;text-indent:0;text-align:start;text-decoration:none;line-height:normal;letter-spacing:normal;word-spacing:normal;text-transform:none;direction:ltr;block-progression:tb;writing-mode:lr-tb;text-anchor:start;color:#000000;fill:#000000;fill-opacity:1;stroke:none;stroke-width:2;marker:none;visibility:visible;display:inline;overflow:visible;filter:url(#filter3773);enable-background:accumulate;font-family:Abandoned Bitplane;-inkscape-font-specification:Abandoned Bitplane"
       id="rect3916"
       clip-path="url(#clipPath3918)"
       d="m 17,12 c -2.735406,0 -5,2.264594 -5,5 l 0,62 c 0,2.735406 2.264594,5 5,5 l 62,0 c 2.735406,0 5,-2.264594 5,-5 l 0,-62 c 0,-2.735406 -2.264594,-5 -5,-5 l -62,0 z m 0,4 62,0 c 0.588594,0 1,0.411406 1,1 l 0,62 c 0,0.588594 -0.411406,1 -1,1 l -62,0 c -0.588594,0 -1,-0.411406 -1,-1 l 0,-62 c 0,-0.588594 0.411406,-1 1,-1 z" />
    <path
       style="opacity:0.15;fill:#000000;fill-opacity:1;stroke:none"
       id="rect3784"
       d="m 17,14 c -1.662,0 -3,1.338 -3,3 l 0,62 c 0,1.662 1.338,3 3,3 l 62,0 c 1.662,0 3,-1.338 3,-3 l 0,-62 c 0,-1.662 -1.338,-3 -3,-3 l -62,0 z m 0,1.78125 62,0 c 0.703602,0 1.21875,0.515148 1.21875,1.21875 l 0,62 c 0,0.703602 -0.515148,1.21875 -1.21875,1.21875 l -62,0 c -0.703602,0 -1.21875,-0.515148 -1.21875,-1.21875 l 0,-62 c 0,-0.703602 0.515148,-1.21875 1.21875,-1.21875 z" />
    <path
       style="opacity:0.2;fill:#000000;fill-opacity:1;stroke:none"
       id="rect3777"
       d="m 17,14 c -1.662,0 -3,1.338 -3,3 l 0,62 c 0,1.662 1.338,3 3,3 l 62,0 c 1.662,0 3,-1.338 3,-3 l 0,-62 c 0,-1.662 -1.338,-3 -3,-3 l -62,0 z m 0,1 62,0 c 1.119848,0 2,0.880152 2,2 l 0,62 c 0,1.119848 -0.880152,2 -2,2 l -62,0 c -1.119848,0 -2,-0.880152 -2,-2 l 0,-62 c 0,-1.119848 0.880152,-2 2,-2 z" />
  </g>
  <g
     id="layer4" />
  <g
     id="layer1">
    <g
       style="opacity:0.776"
       id="g4705">
      <path
         style="opacity:0.05;fill:#000000;stroke-width:1.33935034"
         id="path3905"
         d="m 89.056428,37.517601 -1.674133,38.213362 c -2.778808,-0.0025 -4.485192,0.709993 -6.738607,2.971684 -0.522015,0.523929 -2.003913,2.035989 -2.971683,3.139102 -0.558238,0.636291 -1.092095,1.267884 -1.548624,1.757897 -0.174116,0.186888 -0.339579,0.337324 -0.585966,0.585966 -0.242385,0.244606 -0.540052,0.527166 -0.920803,0.79524 -0.483535,0.340413 -0.916742,0.477901 -1.046368,0.544111 -0.162002,0.08275 -0.536923,0.339616 -1.046367,0.585965 -0.813379,0.393321 -1.827569,0.868686 -2.84612,1.339351 -1.032942,0.477316 -2.021708,0.888846 -2.76241,1.213786 -0.310377,0.13616 -0.61606,0.303936 -1.004513,0.460402 -0.0866,0.03488 -0.253459,0.125109 -0.502256,0.209273 -0.07904,0.02675 -0.142412,0.02215 -0.209274,0.04185 -0.08805,0.03723 -0.09938,0.03334 -0.125564,0.04185 -0.07076,0.02301 -0.122376,0.03082 -0.167419,0.04185 -0.02162,0.0054 -0.05807,-0.006 -0.08371,0 -0.08068,0.01072 -0.201582,0.0418 -0.251128,0.04185 -0.04096,0.0075 -0.07922,0.03531 -0.125565,0.04185 -0.0898,0.01272 -0.137346,0.03607 -0.251128,0.04185 -0.06043,0.0029 -0.126274,1.11e-4 -0.209273,0 -0.199184,-2.67e-4 -0.483909,-0.01902 -0.837094,-0.08371 -0.541,-0.09909 -1.240478,-0.461642 -0.878949,-0.292983 -0.05803,-0.02707 -0.09241,-0.0431 -0.167419,-0.08371 -0.01875,-0.01018 -0.04605,-0.01875 -0.08371,-0.04186 -0.0083,-0.0051 -0.02384,-0.02893 -0.04186,-0.04185 -0.04603,-0.03304 -0.09128,-0.05785 -0.125564,-0.08371 -0.02984,-0.01789 -0.016,-0.02436 -0.04185,-0.04185 -0.04021,-0.02721 -0.05244,-0.01657 -0.08371,-0.04185 0.159338,0.09559 0.153425,0.108916 -0.167419,-0.08371 -0.02873,-0.01725 -0.01642,-0.02479 -0.04185,-0.04185 -0.128885,-0.07748 -0.06306,-0.03252 -0.125564,-0.08371 -0.02894,-0.02684 -0.05687,-0.05477 -0.08371,-0.08371 -0.02565,-0.03141 -0.127734,-0.07654 -0.125564,-0.08371 0,0 -0.007,-0.01879 -0.04186,-0.04185 -0.01421,-0.01369 -0.02816,-0.02764 -0.04185,-0.04185 -0.0055,-0.0037 -0.03355,0.0058 -0.04185,0 -0.0083,-0.0058 -0.01966,-0.02549 -0.04185,-0.04185 -0.01112,-0.0082 -0.05402,-0.01793 -0.08371,-0.04185 -0.01484,-0.01192 -0.04176,-0.04176 -0.04185,-0.04185 -2.9e-5,-2.7e-5 -0.01817,-0.0583 -0.04186,-0.08371 0.01656,0.0154 0.08271,0.158886 -0.167418,-0.167418 -0.01369,-0.01421 -0.02764,-0.02816 -0.04185,-0.04185 -0.01369,-0.01421 -0.02764,-0.02817 -0.04185,-0.04186 -0.0084,-0.01456 0.0091,-0.02612 0,-0.04185 0,0 -0.02633,-0.01479 -0.04186,-0.04185 -0.01393,-0.01891 0.01206,-0.02479 0,-0.04185 -0.01312,-0.02265 -0.03208,-0.02491 -0.04185,-0.04185 v -0.04185 l -0.04185,-0.04185 c -0.05332,-0.09193 -0.134097,-0.194546 -0.167419,-0.251128 0.0095,0.01611 -0.267548,-0.346824 -0.418547,-0.795239 -0.125778,-0.373512 -0.145177,-0.688023 -0.167419,-0.920804 -0.0031,-0.03259 0.0021,-0.05465 0,-0.08371 -0.0157,-0.04125 -0.02967,-0.08314 -0.04185,-0.125564 -9.16e-4,-0.02531 2.98e-4,-0.05965 0,-0.08371 -5.33e-4,-0.04295 0.01444,0.03505 0.04185,-0.209273 0.0025,-0.0229 -0.0063,-0.08928 0,-0.125564 0.0019,-0.01803 -0.002,-0.02459 0,-0.04186 0.03717,-0.314395 0.08334,-0.751794 0.08371,-0.753385 -0.05333,0.228574 0.07023,-0.333829 0.292983,-0.837094 0.197465,-0.446131 0.525325,-0.924434 0.376692,-0.669675 0.259444,-0.444698 0.47677,-0.743772 0.62782,-0.962658 1.120173,-1.623334 2.26195,-4.295042 2.553137,-5.60853 -0.01838,0.08287 0.07186,-0.863614 0.04186,-1.42306 -0.0052,-0.0973 0.0072,-0.159581 0,-0.251128 -0.164956,-0.0074 -0.317082,-0.0013 -0.502256,0 -0.824396,0.0062 -1.984091,0.05961 -3.306522,0.209274 -3.567455,0.403731 -5.866207,0.485509 -8.412795,0.292983 -5.507603,-0.416363 -9.686267,-1.395471 -13.937615,-3.47394 -1.054303,-0.515462 -2.009341,-1.029579 -2.929829,-1.841607 -1.079316,-0.952142 -1.655496,-2.099869 -2.009025,-3.055393 -0.283924,-0.767326 -0.500064,-1.55161 -0.627821,-2.302009 -0.05832,-0.342492 -0.149284,-0.796045 -0.125564,-1.33935 7.36e-4,-0.01684 -9.21e-4,-0.02486 0,-0.04186 0.0016,-0.03149 0.03797,-0.07812 0.04186,-0.125564 8.54e-4,-0.01045 -9.95e-4,-0.0307 0,-0.04185 0.01218,-0.04242 0.02615,-0.08431 0.04185,-0.125564 0.0076,-0.06678 -0.01313,-0.126676 0,-0.209273 0.0172,-0.107925 0.09521,-0.287871 0.125564,-0.418547 -0.08845,-0.136324 -0.161873,-0.256012 -0.251128,-0.460402 -0.249976,-0.572422 -0.376693,-1.171417 -0.376693,-1.757897 0,-0.382646 0.07908,-0.686108 0.125564,-0.920804 0.02324,-0.117354 0.02214,-0.218917 0.04186,-0.292983 -0.03265,0.141703 0.02271,-0.02175 0.04185,-0.125564 0.0046,-0.01497 -0.0096,-0.01286 0,-0.04186 0.0056,-0.0334 0.03453,-0.08667 0.04185,-0.125564 0.02373,-0.125952 0.0369,-0.247801 0.08371,-0.418547 0.152757,-0.557228 0.335439,-1.091456 0.502256,-1.632333 0.374101,-1.21296 0.808838,-2.511636 1.171932,-3.47394 0.825604,-2.188141 1.623708,-3.956132 2.804265,-5.482966 1.207211,-1.561306 2.745207,-2.708966 4.436598,-3.515795 3.219334,-1.535703 6.697621,-2.534367 12.4727,-3.850632 2.685571,-0.570226 5.558448,-1.213686 8.580214,-1.590479 0,0 0.205324,-0.04185 0.209274,-0.04185 2.5e-4,-1.8e-5 0.250876,4e-6 0.251128,0 0.01395,-1.85e-4 0.0279,-1.85e-4 0.04185,0 h 0.125564 c 0.01395,-1.85e-4 0.0279,-1.85e-4 0.04185,0 0.03138,-4e-6 0.209149,0.04184 0.209274,0.04185 0,0 0.03086,-0.0019 0.04185,0 0.01152,-2e-6 0.02616,6e-6 0.04185,0 0.0157,-5e-6 0.07158,0 0.08371,0 0,0 0.07649,0.03389 0.125565,0.04185 0.01803,0.0023 0.02742,-0.0017 0.04185,0 0.03636,0.0059 0.04301,-0.0066 0.08371,0 0.125524,0.02043 0.249168,0.0412 0.251128,0.04185 0.01205,0.004 0.02617,0.03662 0.04185,0.04186 0.04303,0.01286 0.101563,0.03386 0.125564,0.04185 0.03138,0.01045 0.04173,-3.7e-5 0.04185,0 0.02092,0.0052 0.02602,-0.004 0.04185,0 0.0079,0.002 0.03697,-0.0012 0.04185,0 0.0048,0.0012 0,0.04185 0,0.04185 1.19e-4,4.3e-5 0.136036,0.03139 0.167419,0.04185 0.03138,0.01045 0.209157,0.0418 0.209273,0.04185 0,0 0.372861,0.206722 0.376692,0.209274 0.01192,0.0079 0.02617,0.03139 0.04185,0.04185 0.02672,0.01662 0.05094,0.02119 0.08371,0.04185 0.02085,0.01313 0.03307,0.036 0.04185,0.04185 0.01859,0.01072 0.04189,2.7e-5 0.04185,0 0.07504,0.04802 0.334663,0.209139 0.334838,0.209273 0.006,0.004 0.03805,0.03932 0.04185,0.04185 0,0 0.210656,0.168261 0.334838,0.292983 l 0.08371,0.08371 c 1.86e-4,0.01395 1.86e-4,0.02791 0,0.04186 8.7e-5,9.1e-5 0.01045,0.01045 0.04185,0.04185 0.008,0.01205 -0.01045,0.02616 0,0.04185 0.02468,0.02544 0.09619,0.01085 0.125564,0.04185 -0.0084,-0.0083 -0.0092,0.03127 0,0.04185 0.01138,0.01205 0.04184,0.04183 0.04185,0.04186 0.02569,0.03328 0.0986,0.161965 0.167418,0.251128 0.0079,0.01031 -0.0062,0.0339 0,0.04186 0.01432,0.01855 0.08368,0.04181 0.08371,0.04185 0,0 0.07139,0.09992 0.125564,0.209274 0.02154,0.02754 0.03691,0.0763 0.04185,0.08371 0.01045,0.01568 0.03388,0.02989 0.04185,0.04185 0.0027,0.0055 -1.25e-4,0.04148 0,0.04185 0.0024,0.005 -0.0044,0.03283 0,0.04185 0.01313,-0.0036 0.02868,0.0036 0.04185,0 4.685491,-1.289149 9.272371,-2.342711 14.146889,-2.846119 2.071948,-0.214 5.544593,-0.29501 8.873196,-0.292983 z" />
      <path
         style="opacity:0.1;fill:#000000;stroke-width:1.33935034"
         id="path3901"
         d="m 89.056428,39.108079 -1.674084,35.032374 c -3.10718,-0.0028 -5.413334,0.967718 -7.868683,3.432086 -0.561999,0.564059 -2.005288,2.073556 -3.013539,3.222812 -0.547446,0.623989 -1.105165,1.240057 -1.548624,1.716042 -0.199106,0.213711 -0.341154,0.381151 -0.544111,0.585966 -0.159693,0.161156 -0.39692,0.364461 -0.71153,0.585966 -0.34497,0.242862 -0.601219,0.339924 -0.837094,0.460402 -0.275783,0.140862 -0.588699,0.343038 -1.004513,0.544111 -0.798834,0.386287 -1.833012,0.8712 -2.846119,1.33935 -1.012838,0.468027 -1.976172,0.887231 -2.720556,1.213786 -0.33111,0.145256 -0.620473,0.280717 -0.962658,0.418547 -0.134923,0.05435 -0.279629,0.120421 -0.418547,0.167419 -0.298865,0.101121 -0.325218,0.08153 -0.334837,0.08371 0.101067,-0.02288 -0.193601,0.07016 -0.460402,0.08371 0.179656,-0.0091 -0.270617,0.03123 -0.669675,-0.04186 -0.425288,-0.0779 -0.409996,-0.124372 -0.502257,-0.167419 -0.09225,-0.04305 -0.08341,-0.04172 -0.08371,-0.04185 0,0 -0.121961,-0.08155 -0.125564,-0.08371 -0.0036,-0.0021 -0.03599,0.0035 -0.04185,0 -0.01179,-0.0071 -0.02215,-0.03004 -0.04185,-0.04185 -0.03939,-0.02361 -0.07322,-0.0523 -0.125564,-0.08371 -0.05234,-0.03141 -0.128001,-0.06004 -0.167419,-0.08371 -0.01972,-0.01179 -0.03,-0.03473 -0.04185,-0.04185 l 0.669675,-1.130077 -0.920803,0.920804 c 0,0 -0.123047,-0.08048 -0.125564,-0.08371 -0.0025,-0.0032 0.0013,-0.0401 0,-0.04185 -0.006,-0.0079 -0.03265,-0.02971 -0.04186,-0.04185 -0.01842,-0.0243 -0.05625,-0.04645 -0.08371,-0.08371 -0.0549,-0.07452 -0.07348,-0.133452 -0.167418,-0.292982 -0.06221,-0.105635 -0.165907,-0.249176 -0.251129,-0.502257 -0.143238,-0.425372 -0.129126,-0.838465 -0.125564,-0.753384 -0.01479,-0.353088 0.08313,-0.709055 0.08371,-0.71153 0.02755,-0.118078 0.01313,-0.23742 0.167418,-0.585966 0.116549,-0.263316 0.248792,-0.426511 0.292983,-0.502257 0.209374,-0.358875 0.407325,-0.620081 0.585966,-0.878948 1.26659,-1.835521 2.437188,-4.496825 2.804265,-6.152641 0.07084,-0.31953 0.121278,-1.141203 0.08371,-1.841607 -0.01878,-0.350201 -0.05013,-0.676992 -0.08371,-0.920803 -0.03358,-0.243812 -0.142835,-0.48347 -0.04185,-0.251129 -0.01345,-0.03092 -0.153353,-0.207303 -0.292982,-0.334837 -0.13963,-0.127533 -0.313212,-0.240194 -0.209274,-0.209274 0.174615,0.05195 -0.06138,0.01651 -0.334838,0 -0.273457,-0.01651 -0.671137,-0.04528 -1.130076,-0.04185 -0.917879,0.0068 -2.117366,0.0976 -3.473941,0.251128 -3.519283,0.39828 -5.676465,0.477703 -8.119811,0.292983 -5.380853,-0.406781 -9.27872,-1.357135 -13.35165,-3.348376 -1.033876,-0.505475 -1.847411,-0.930985 -2.594991,-1.590479 -0.817623,-0.721283 -1.293399,-1.624621 -1.590479,-2.427572 -0.250835,-0.677902 -0.433987,-1.362194 -0.544111,-2.009026 -0.0545,-0.320077 -0.103974,-0.672493 -0.08371,-1.046368 -6.24e-4,0.01152 0.01394,-0.567077 0.251128,-1.088222 0.0418,-0.09185 0.08181,-0.09422 0.125564,-0.167419 -0.09196,-0.09634 -0.184489,-0.225071 -0.292983,-0.376692 0.07633,0.106666 -0.149463,-0.131752 -0.292983,-0.460402 -0.143519,-0.328648 -0.209273,-0.706428 -0.209273,-1.130076 0,-0.487449 0.1291,-0.894274 0.125564,-0.878949 0.01669,-0.0724 0.03812,-0.308856 0.125564,-0.627821 0.127024,-0.463357 0.322096,-1.006341 0.502256,-1.590478 0.368773,-1.195687 0.791064,-2.491745 1.130077,-3.390231 0.802258,-2.126264 1.557876,-3.723101 2.594992,-5.064419 1.047705,-1.355014 2.345434,-2.337382 3.850632,-3.055393 3.059304,-1.459364 6.396061,-2.416387 12.137863,-3.725068 2.704056,-0.574151 5.538069,-1.226802 8.45465,-1.590479 2.49e-4,-3.1e-5 0.125309,1.8e-5 0.125564,0 2.5e-4,-1.7e-5 0.167167,4e-6 0.167418,0 2.52e-4,-4e-6 0.12531,-8e-6 0.125564,0 2.52e-4,8e-6 0.12531,-2.1e-5 0.125565,0 2.5e-4,2.2e-5 0.167169,0.04181 0.167418,0.04186 2.5e-4,3.5e-5 0.125323,-4.8e-5 0.125564,0 2.47e-4,4.8e-5 0.125324,0.04179 0.125565,0.04185 2.43e-4,6e-5 0.125323,0.04179 0.125564,0.04185 2.41e-4,7.4e-5 0.167181,0.04178 0.167419,0.04185 2.37e-4,8.6e-5 0.125336,0.04176 0.125564,0.04185 2.31e-4,9.8e-5 0.125336,0.04175 0.125564,0.04186 2.26e-4,1.09e-4 0.12535,0.08359 0.125564,0.08371 2.21e-4,1.22e-4 0.12535,0.08357 0.125564,0.08371 2.14e-4,1.33e-4 0.08351,0.04171 0.08371,0.04185 2.07e-4,1.43e-4 0.125363,0.08355 0.125564,0.08371 2e-4,1.54e-4 0.125377,0.08355 0.125564,0.08371 1.91e-4,1.65e-4 0.08352,0.12539 0.08371,0.125564 1.82e-4,1.74e-4 0.08353,0.08352 0.08371,0.08371 1.73e-4,1.84e-4 0.125404,0.125377 0.125564,0.125564 1.64e-4,1.92e-4 0.08356,0.08351 0.08371,0.08371 1.52e-4,1.99e-4 0.08356,0.125363 0.08371,0.125564 1.42e-4,2.07e-4 0.04172,0.12535 0.04185,0.125564 1.31e-4,2.14e-4 0.08359,0.08349 0.08371,0.08371 1.2e-4,2.21e-4 0.0836,0.125337 0.08371,0.125564 1.08e-4,2.28e-4 0.04176,0.125337 0.04185,0.125565 9.7e-5,2.33e-4 0.04177,0.167181 0.04185,0.167418 8.4e-5,2.37e-4 0.04179,0.125323 0.04185,0.125564 7.1e-5,2.42e-4 0.0418,0.125324 0.04185,0.125565 5.8e-5,2.45e-4 0.04181,0.125323 0.04185,0.125564 4.6e-5,2.47e-4 -3.3e-5,0.167169 0,0.167419 3.4e-5,2.49e-4 0.04183,0.125309 0.04185,0.125564 2e-5,2.5e-4 -7e-6,0.125309 0,0.125564 5.169481,-1.477006 10.12991,-2.636437 15.402529,-3.180957 1.907297,-0.196995 5.395645,-0.253144 8.705778,-0.251129 z" />
      <path
         style="opacity:0.15;fill:#000000;stroke-width:1.33935034"
         id="path3897"
         d="m 89.056428,40.44743 c -0.01953,5.27e-4 -1.674188,32.353689 -1.674188,32.353689 -3.419552,-0.0031 -6.189786,1.199376 -8.831342,3.850632 -0.591605,0.593776 -2.013592,2.077171 -3.055393,3.264667 -0.540536,0.616113 -1.077013,1.21291 -1.506769,1.674188 -0.214877,0.230639 -0.386394,0.426805 -0.544111,0.585966 -0.157717,0.15916 -0.216116,0.217086 -0.502256,0.418547 -0.270828,0.190664 -0.393666,0.235715 -0.669676,0.376692 -0.276009,0.140977 -0.603208,0.3082 -1.004512,0.502256 -0.802609,0.388113 -1.808666,0.879291 -2.804265,1.339351 -0.9956,0.46006 -1.973439,0.886032 -2.720556,1.213786 -0.373558,0.163876 -0.678686,0.321024 -0.920803,0.418547 -0.121064,0.04877 -0.227295,0.08919 -0.334838,0.125564 -0.05378,0.01819 -0.10692,0.01868 -0.209273,0.04185 -0.05118,0.01165 -0.111769,0.03477 -0.251129,0.04185 -0.06969,0.0035 -0.178033,0.02872 -0.334837,0 -0.07841,-0.01436 -0.292387,-0.12531 -0.292983,-0.125565 -5.96e-4,-2.59e-4 -0.418179,-0.250758 -0.418547,-0.251128 -7.17e-4,-7.18e-4 -0.156056,-0.202618 -0.209274,-0.292983 -0.05321,-0.09037 -0.09899,-0.172231 -0.125564,-0.251128 -0.05313,-0.157793 -0.03773,-0.278215 -0.04185,-0.376692 -0.0083,-0.196953 0.02249,-0.293663 0.04185,-0.376692 0.03875,-0.166059 0.05131,-0.261631 0.08371,-0.334838 0.06481,-0.146415 0.137621,-0.253878 0.209273,-0.376692 0.143304,-0.245628 0.340576,-0.500299 0.544111,-0.79524 1.377791,-1.996671 2.588105,-4.69399 3.013539,-6.613042 0.254968,-1.150181 0.05095,-3.444492 -0.125564,-3.850633 -0.243321,-0.559872 -0.896098,-1.12378 -1.339351,-1.255641 -0.419914,-0.124934 -2.670094,-0.192779 -5.482965,0.125564 -3.481176,0.393968 -5.511366,0.4712 -7.868684,0.292983 -5.27632,-0.398878 -8.920183,-1.301834 -12.849393,-3.222812 -1.018883,-0.498144 -1.712177,-0.860872 -2.302008,-1.381205 -0.589832,-0.520332 -0.964801,-1.210502 -1.213787,-1.883461 -0.231628,-0.625994 -0.413823,-1.238472 -0.502256,-1.757898 -0.04421,-0.259712 -0.05826,-0.450643 -0.04185,-0.753384 0.0082,-0.151371 -0.01004,-0.329838 0.125564,-0.627821 0.114193,-0.25091 0.603525,-0.584844 1.088222,-0.71153 -0.299638,-0.21045 -0.56972,-0.402675 -0.795239,-0.585965 -0.126153,-0.102528 -0.258098,-0.172991 -0.376692,-0.292983 -0.05929,-0.06 -0.126247,-0.135101 -0.209274,-0.251128 -0.08302,-0.116028 -0.251128,-0.238945 -0.251128,-0.837094 0,-0.381936 0.04546,-0.419954 0.08371,-0.585966 0.03825,-0.166013 0.06605,-0.368892 0.125564,-0.585966 0.119016,-0.434148 0.281203,-0.967603 0.460401,-1.548624 0.358396,-1.162042 0.802901,-2.439407 1.130077,-3.306521 0.78426,-2.078562 1.478241,-3.555927 2.385718,-4.729581 0.907477,-1.173654 2.017444,-1.981998 3.390231,-2.636846 2.928834,-1.397128 6.133589,-2.339633 11.84488,-3.641359 2.712748,-0.575997 5.495759,-1.195329 8.329085,-1.548624 0.786485,-0.09607 1.485035,0.505463 1.50677,1.297495 l 0.04185,1.674188 c 5.758707,-1.718275 11.081084,-2.964395 16.82559,-3.557649 1.762104,-0.181998 5.289824,-0.253132 8.580213,-0.251128 z" />
      <path
         style="opacity:0.3;fill:#000000;stroke-width:1.33935034"
         id="path3889"
         d="M 89.036895,41.787308 87.37526,71.459931 c -3.748961,-0.0033 -6.930482,1.370209 -9.775437,4.225613 -0.638378,0.64072 -2.029822,2.158336 -3.094576,3.371997 -1.064765,1.213636 -2.098221,2.322792 -2.297602,2.46317 -0.559404,0.393825 -8.159295,3.874152 -8.253609,3.779685 -0.04583,-0.04593 0.2236,-0.530376 0.601984,-1.078688 1.48099,-2.146226 2.736698,-4.910709 3.217495,-7.079492 0.32891,-1.483734 0.238711,-3.67358 -0.195013,-4.671515 -0.406062,-0.934333 -1.271803,-1.723654 -2.187373,-1.99602 -0.980726,-0.291777 -3.121431,-0.274157 -5.994171,0.05096 -3.445392,0.389917 -5.350073,0.464761 -7.621946,0.293004 -5.173868,-0.391133 -8.560837,-1.242021 -12.352821,-3.09591 -1.981756,-0.968906 -2.4031,-1.342899 -2.831729,-2.501405 -0.408714,-1.104581 -0.602601,-2.161647 -0.394238,-2.161647 0.07372,0 0.769633,0.299287 1.547271,0.666764 2.917978,1.3789 5.423181,1.991668 7.647397,1.872853 2.312199,-0.123515 6.099323,-1.393502 10.593592,-3.554611 l 2.047518,-0.985275 1.67019,-4.000491 -1.559987,0.972489 c -2.56619,1.704034 -6.716192,3.744211 -9.245547,4.544133 -3.864146,1.222038 -6.939421,1.062649 -10.050966,-0.522361 -1.096723,-0.558657 -3.153951,-1.970679 -3.153951,-2.165895 0,-0.367966 1.100162,-3.944376 1.71263,-5.567598 1.53159,-4.059248 2.575607,-5.412549 5.09967,-6.61658 2.802231,-1.336734 5.890456,-2.294419 11.56859,-3.588589 2.714718,-0.576415 5.443315,-1.134346 8.19848,-1.477895 l 0.06784,3.363503 c 6.418989,-1.996244 12.035293,-3.315873 18.253673,-3.958066 1.606887,-0.165965 5.178464,-0.256805 8.444341,-0.254816 z m -42.531209,6.888373 c -2.073662,-0.0052 -4.052455,1.060904 -5.209897,2.989778 -1.973579,3.289044 -0.35574,7.561959 3.336204,8.807947 2.436487,0.822293 5.338041,-0.160408 6.81229,-2.306038 1.210009,-1.761026 1.412898,-4.034597 0.534128,-5.941324 -0.49932,-1.083438 -1.687707,-2.365169 -2.653704,-2.858116 -0.911455,-0.465171 -1.876431,-0.689849 -2.819021,-0.692247 z m 0.06784,1.758205 c 0.971767,0.02056 1.961934,0.381586 2.797805,1.138148 1.276229,1.155054 1.686085,3.243893 0.94958,4.83715 -0.604671,1.308116 -1.749916,2.210766 -3.086101,2.429183 -1.894797,0.30976 -3.689761,-0.574136 -4.476511,-2.208343 -0.538166,-1.117932 -0.634031,-1.885093 -0.364567,-2.938814 0.534881,-2.091611 2.324639,-3.296635 4.179794,-3.257324 z m -0.991962,2.161635 c -0.720374,0 -1.587155,0.450314 -1.695659,0.883334 -0.147411,0.588442 0.05206,0.994915 0.62315,1.286797 0.881854,0.450722 2.015359,0.323192 2.679147,-0.301512 0.818345,-0.770204 -0.126207,-1.868619 -1.606638,-1.868619 z" />
      <path
         style="fill:url(#linearGradient3913);fill-opacity:1;stroke-width:1.33935034"
         id="Geeko"
         d="m 89.036895,40.447957 c 0.01953,-5.27e-4 -1.661635,29.672624 -1.661635,29.672624 -3.748961,-0.0033 -6.930482,1.370209 -9.775437,4.225613 -0.638378,0.640719 -2.029822,2.158336 -3.094576,3.371996 -1.064765,1.213637 -2.098221,2.322793 -2.297602,2.46317 -0.559404,0.393825 -8.159295,3.874153 -8.253609,3.779686 -0.04583,-0.04593 0.2236,-0.530376 0.601984,-1.078689 1.48099,-2.146226 2.736698,-4.910708 3.217495,-7.079491 0.32891,-1.483734 0.238711,-3.67358 -0.195013,-4.671515 -0.406062,-0.934334 -1.271803,-1.723654 -2.187373,-1.996021 -0.980726,-0.291776 -3.121431,-0.274157 -5.994171,0.05096 -3.445392,0.389917 -5.350073,0.464761 -7.621946,0.293004 -5.173868,-0.391133 -8.560837,-1.242021 -12.352821,-3.09591 -1.981756,-0.968906 -2.4031,-1.3429 -2.831729,-2.501406 -0.408714,-1.104581 -0.602601,-2.161647 -0.394238,-2.161647 0.07372,0 0.769633,0.299287 1.547271,0.666765 2.917978,1.3789 5.423181,1.991668 7.647397,1.872852 2.312199,-0.123514 6.099323,-1.393501 10.593592,-3.55461 l 2.047518,-0.985276 1.67019,-4.000491 -1.559987,0.972489 c -2.56619,1.704034 -6.716192,3.744212 -9.245547,4.544134 -3.864146,1.222038 -6.939421,1.062648 -10.050966,-0.522362 -1.096723,-0.558656 -3.153951,-1.970679 -3.153951,-2.165894 0,-0.367967 1.100162,-3.944376 1.71263,-5.567598 1.53159,-4.059248 2.575607,-5.412549 5.09967,-6.61658 2.802231,-1.336735 5.890456,-2.29442 11.56859,-3.58859 2.714718,-0.576415 5.443315,-1.134345 8.19848,-1.477894 l 0.06784,3.363503 c 6.418989,-1.996244 12.035293,-3.315873 18.253673,-3.958066 1.606887,-0.165966 5.178464,-0.256806 8.444341,-0.254817 z M 46.505686,47.33633 c -2.073662,-0.0052 -4.052455,1.060905 -5.209897,2.989779 -1.973579,3.289044 -0.35574,7.561959 3.336204,8.807947 2.436487,0.822293 5.338041,-0.160409 6.81229,-2.306039 1.210009,-1.761026 1.412898,-4.034596 0.534128,-5.941323 -0.49932,-1.083438 -1.687707,-2.36517 -2.653704,-2.858116 -0.911455,-0.465172 -1.876431,-0.689849 -2.819021,-0.692248 z m 0.06784,1.758206 c 0.971767,0.02056 1.961934,0.381586 2.797805,1.138148 1.276229,1.155054 1.686085,3.243893 0.94958,4.837149 -0.604671,1.308117 -1.749916,2.210767 -3.086101,2.429184 -1.894797,0.30976 -3.689761,-0.574137 -4.476511,-2.208344 -0.538166,-1.117931 -0.634031,-1.885092 -0.364567,-2.938813 0.534881,-2.091611 2.324639,-3.296636 4.179794,-3.257324 z m -0.991962,2.161635 c -0.720374,0 -1.587155,0.450314 -1.695659,0.883334 -0.147411,0.588442 0.05206,0.994915 0.62315,1.286797 0.881854,0.450722 2.015359,0.323192 2.679147,-0.301512 0.818345,-0.770204 -0.126207,-1.868619 -1.606638,-1.868619 z" />
      <path
         style="fill:#ffffff;fill-opacity:1;stroke-width:1.33935034"
         id="path3915"
         d="m 89.056428,40.44743 c -0.01953,1.339878 -4e-5,1.33935 -4e-5,1.33935 -3.265877,-0.002 -6.847762,0.08516 -8.454649,0.251128 -6.218381,0.642193 -11.829661,1.979953 -18.24865,3.976197 l -0.08371,-3.390231 c -2.755166,0.343549 -5.488804,0.930354 -8.203521,1.506769 -5.678135,1.29417 -8.749666,2.220915 -11.551897,3.55765 -2.524062,1.20403 -3.574684,2.553794 -5.106274,6.613042 -0.433633,1.149257 -1.105887,3.244784 -1.464914,4.520308 -0.129544,-0.111983 -0.251128,-0.255623 -0.251128,-0.292983 0,-0.367966 1.103573,-3.943453 1.716042,-5.566675 1.53159,-4.059248 2.582212,-5.409012 5.106274,-6.613043 2.802231,-1.336734 5.873762,-2.263479 11.551897,-3.557649 2.714717,-0.576415 5.448355,-1.163221 8.203521,-1.506769 l 0.08371,3.39023 c 6.418989,-1.996244 12.030269,-3.334003 18.24865,-3.976196 1.606887,-0.165966 5.188772,-0.253117 8.454649,-0.251128 z m -42.48252,8.663923 c 0.971767,0.02056 1.968393,0.373515 2.804265,1.130077 1.026401,0.928946 1.495645,2.457271 1.255641,3.850632 -0.130989,-0.962826 -0.553436,-1.87575 -1.255641,-2.511282 -0.835872,-0.756562 -1.832498,-1.109518 -2.804265,-1.130077 -1.855155,-0.03931 -3.650589,1.131201 -4.18547,3.222812 -0.03398,0.132904 -0.0615,0.251629 -0.08371,0.376692 -0.109078,-0.549843 -0.07443,-1.09763 0.08371,-1.716043 0.534881,-2.091611 2.330315,-3.262123 4.18547,-3.222811 z m 0.585965,4.059905 c 0.389628,0.382269 0.482318,0.882944 0.04186,1.297496 -0.663787,0.624704 -1.796847,0.743705 -2.678701,0.292983 -0.571089,-0.291882 -0.77523,-0.709053 -0.62782,-1.297496 0.02894,-0.115519 0.131417,-0.183879 0.251128,-0.292983 0.0967,0.08834 0.23392,0.178158 0.376692,0.251129 0.863548,0.441365 1.968046,0.340361 2.636846,-0.251129 z m 5.315547,0.837094 c 0.167639,1.435702 -0.197885,2.908749 -1.046367,4.143616 -1.474249,2.14563 -4.343974,3.124301 -6.780462,2.302008 -2.855931,-0.963843 -4.472286,-3.715765 -4.143615,-6.445624 0.245758,2.248976 1.759576,4.301689 4.143615,5.106274 2.436488,0.822293 5.306213,-0.156379 6.780462,-2.302009 0.588403,-0.856352 0.94284,-1.806632 1.046367,-2.804265 z m 7.240863,3.055394 -1.674188,3.976196 -2.05088,1.004513 c -4.494269,2.161109 -8.277041,3.434135 -10.589239,3.557649 -2.224216,0.118814 -4.741432,-0.504561 -7.65941,-1.883461 -0.691499,-0.326772 -1.198977,-0.529528 -1.381205,-0.585966 -0.217189,-0.763294 -0.323692,-1.42306 -0.167419,-1.42306 0.07372,0 0.770986,0.302198 1.548624,0.669676 2.917978,1.3789 5.435194,2.002276 7.65941,1.883461 2.312198,-0.123515 6.09497,-1.396541 10.589239,-3.557649 l 2.05088,-1.004513 0.920804,-2.176445 z m 8.245376,17.578974 c 0.03565,0.85767 -0.0029,1.769415 -0.167419,2.511282 -0.433571,1.955761 -1.513431,4.369388 -2.804264,6.403769 -0.539646,0.230397 -1.02672,0.438227 -1.046368,0.418547 -0.04583,-0.04593 0.249437,-0.53991 0.627821,-1.088222 1.480989,-2.146226 2.742014,-4.904661 3.222811,-7.073445 0.07945,-0.358382 0.135812,-0.757905 0.167419,-1.171931 z" />
      <path
         style="opacity:0.15;fill:#000000;fill-opacity:1;stroke-width:1.33935034"
         id="path3924"
         d="m 46.490198,46.014105 c 0.942589,0.0024 1.934665,0.204504 2.84612,0.669675 0.965997,0.492947 2.137525,1.762682 2.636846,2.84612 0.439385,0.953363 0.594384,2.028531 0.502256,3.055393 -0.07644,-0.582782 -0.251753,-1.172509 -0.502256,-1.716043 -0.499321,-1.083438 -1.670849,-2.353173 -2.636846,-2.84612 -0.911455,-0.465171 -1.903531,-0.667276 -2.84612,-0.669675 -2.073662,-0.0052 -4.03254,1.04281 -5.189983,2.971684 -0.446901,0.744779 -0.699028,1.544756 -0.795239,2.343863 -0.134824,-1.233805 0.09609,-2.51804 0.795239,-3.683214 1.157443,-1.928873 3.116321,-2.976907 5.189983,-2.971683 z m -0.920803,3.892487 c 1.480431,0 2.450679,1.113257 1.632333,1.883461 -0.01378,0.01299 -0.02767,0.02932 -0.04186,0.04185 -0.334271,-0.327956 -0.906867,-0.585966 -1.590478,-0.585966 -0.528193,0 -1.094062,0.286103 -1.42306,0.585966 -0.290119,-0.265041 -0.361686,-0.605035 -0.251128,-1.046367 0.108501,-0.43302 0.953814,-0.878949 1.674188,-0.878949 z m -3.264667,2.804265 c 0.07679,0.38704 0.238078,0.793807 0.460402,1.255641 0.78675,1.634207 2.583656,2.486204 4.478453,2.176444 1.336185,-0.218417 2.492576,-1.119456 3.097248,-2.427572 0.144174,-0.311888 0.234565,-0.623512 0.292983,-0.962658 0.107081,0.787071 0.03828,1.58539 -0.292983,2.302008 -0.604672,1.308117 -1.761063,2.209155 -3.097248,2.427573 -1.894797,0.309759 -3.691703,-0.542238 -4.478453,-2.176445 -0.470289,-0.976931 -0.614277,-1.728481 -0.460402,-2.594991 z m 17.411555,1.674188 -0.753384,1.799752 -0.837094,0.502256 c -2.56619,1.704034 -6.720534,3.762241 -9.249889,4.562163 -3.864146,1.222038 -6.933583,1.040899 -10.045128,-0.544111 -1.096723,-0.558657 -3.139102,-1.981229 -3.139102,-2.176445 0,-0.107443 0.103061,-0.520329 0.251128,-1.046367 0.547351,0.473153 2.001141,1.43172 2.887974,1.883461 3.111545,1.58501 6.180982,1.766149 10.045128,0.544111 2.529355,-0.799921 6.683699,-2.858128 9.249889,-4.562162 z m -23.522341,7.324572 c 0.0082,0 0.144719,0.07668 0.167419,0.08371 0.07239,0.254431 0.107094,0.477238 0.209273,0.753384 0.42863,1.158506 0.864363,1.542376 2.84612,2.511282 3.791983,1.853889 7.173269,2.706115 12.347136,3.097248 2.271874,0.171757 4.172164,0.09693 7.617556,-0.292983 2.87274,-0.325119 5.046351,-0.375485 6.027077,-0.08371 0.915569,0.272366 1.770382,1.074692 2.176444,2.009025 0.325293,0.748452 0.469752,2.185318 0.376692,3.473941 -0.03824,-0.840936 -0.163529,-1.644135 -0.376692,-2.13459 -0.406062,-0.934334 -1.260875,-1.73666 -2.176444,-2.009026 -0.980726,-0.291776 -3.154337,-0.24141 -6.027077,0.08371 -3.445392,0.389917 -5.345682,0.464739 -7.617556,0.292983 -5.173867,-0.391134 -8.555153,-1.24336 -12.347136,-3.097248 -1.981757,-0.968906 -2.41749,-1.352776 -2.84612,-2.511282 -0.408713,-1.104581 -0.585055,-2.176445 -0.376692,-2.176445 z m 51.188298,7.073445 c 0,0 9.374932,1.43139 0,1.33935 -3.748961,-0.0033 -6.949044,1.371921 -9.794,4.227325 -0.638377,0.640719 -2.032493,2.134715 -3.097247,3.348376 -1.064765,1.213636 -2.102628,2.32905 -2.302009,2.469427 -0.559404,0.393825 -8.151062,3.903245 -8.245376,3.808778 -0.04583,-0.04593 0.249437,-0.53991 0.627821,-1.088222 0.145465,-0.210808 0.277948,-0.44809 0.418547,-0.669676 2.050652,-0.875513 6.756146,-3.078452 7.199008,-3.39023 0.199381,-0.140378 1.237244,-1.255791 2.302009,-2.469428 1.064754,-1.21366 2.45887,-2.707656 3.097247,-3.348376 2.844956,-2.855404 6.045039,-4.230673 9.794,-4.227324 z" />
    </g>
    <path
       style="fill:url(#linearGradient2912);fill-opacity:1;fill-rule:nonzero;stroke:none;display:inline"
       id="rect2419"
       d="M 12,6 C 8.676,6 6,8.676 6,12 l 0,72 c 0,3.324 2.676,6 6,6 l 72,0 c 3.324,0 6,-2.676 6,-6 L 90,12 C 90,8.676 87.324,6 84,6 L 12,6 z m 5,7 62,0 c 2.216001,0 4,1.784 4,4 l 0,62 c 10e-7,2.216001 -1.784,4 -4,4 l -62,0 c -2.215999,10e-7 -4,-1.784 -4,-4 l 0,-62 c 0,-2.215999 1.784,-4 4,-4 z" />
    <path
       style="opacity:0.5;fill:url(#linearGradient3188-8);fill-opacity:1;fill-rule:nonzero;stroke:none;display:inline"
       id="rect3728"
       d="M 12,6 C 8.676,6 6,8.676 6,12 l 0,2 0,68 0,2 c 0,0.334721 0.04135,0.6507 0.09375,0.96875 0.0487,0.295596 0.09704,0.596915 0.1875,0.875 0.00988,0.03038 0.020892,0.0636 0.03125,0.09375 0.098865,0.287771 0.2348802,0.547452 0.375,0.8125 0.1445918,0.273507 0.3156161,0.535615 0.5,0.78125 0.1843839,0.245635 0.3737765,0.473472 0.59375,0.6875 0.439947,0.428056 0.94291,0.814526 1.5,1.09375 0.278545,0.139612 0.5734731,0.246947 0.875,0.34375 -0.2562018,-0.100222 -0.4867109,-0.236272 -0.71875,-0.375 -0.00741,-0.0044 -0.023866,0.0045 -0.03125,0 -0.031933,-0.0193 -0.062293,-0.04251 -0.09375,-0.0625 -0.120395,-0.0767 -0.2310226,-0.163513 -0.34375,-0.25 -0.1061728,-0.0808 -0.2132809,-0.161112 -0.3125,-0.25 C 8.4783201,88.557317 8.3087904,88.373362 8.15625,88.1875 8.0486711,88.057245 7.9378561,87.922215 7.84375,87.78125 7.818661,87.74287 7.805304,87.69538 7.78125,87.65625 7.716487,87.553218 7.6510225,87.451733 7.59375,87.34375 7.4927417,87.149044 7.3880752,86.928049 7.3125,86.71875 7.30454,86.69694 7.288911,86.6782 7.28125,86.65625 7.2494249,86.5643 7.2454455,86.469419 7.21875,86.375 7.1884177,86.268382 7.1483606,86.171969 7.125,86.0625 7.0521214,85.720988 7,85.364295 7,85 L 7,83 7,15 7,13 C 7,10.218152 9.2181517,8 12,8 l 2,0 68,0 2,0 c 2.781848,0 5,2.218152 5,5 l 0,2 0,68 0,2 c 0,0.364295 -0.05212,0.720988 -0.125,1.0625 -0.04415,0.206893 -0.08838,0.397658 -0.15625,0.59375 -0.0077,0.02195 -0.0233,0.04069 -0.03125,0.0625 -0.06274,0.173739 -0.138383,0.367449 -0.21875,0.53125 -0.04158,0.0828 -0.07904,0.169954 -0.125,0.25 -0.0546,0.09721 -0.126774,0.18835 -0.1875,0.28125 -0.09411,0.140965 -0.204921,0.275995 -0.3125,0.40625 -0.143174,0.17445 -0.303141,0.346998 -0.46875,0.5 -0.01117,0.0102 -0.01998,0.02115 -0.03125,0.03125 -0.138386,0.125556 -0.285091,0.234436 -0.4375,0.34375 -0.102571,0.07315 -0.204318,0.153364 -0.3125,0.21875 -0.0074,0.0045 -0.02384,-0.0044 -0.03125,0 -0.232039,0.138728 -0.462548,0.274778 -0.71875,0.375 0.301527,-0.0968 0.596455,-0.204138 0.875,-0.34375 0.55709,-0.279224 1.060053,-0.665694 1.5,-1.09375 0.219973,-0.214028 0.409366,-0.441865 0.59375,-0.6875 0.184384,-0.245635 0.355408,-0.507743 0.5,-0.78125 0.14012,-0.265048 0.276135,-0.524729 0.375,-0.8125 0.01041,-0.03078 0.02133,-0.06274 0.03125,-0.09375 0.09046,-0.278085 0.1388,-0.579404 0.1875,-0.875 C 89.95865,84.6507 90,84.334721 90,84 l 0,-2 0,-68 0,-2 C 90,8.676 87.324,6 84,6 L 12,6 z" />
    <path
       style="display:inline;fill:url(#linearGradient3279);fill-opacity:1;fill-rule:nonzero;stroke:none"
       id="rect3425"
       d="m 17,84 c -2.752703,0 -5,-2.247297 -5,-5 V 17 c 0,-2.752703 2.247298,-5 5,-5 h 62 c 2.752703,0 5.000001,2.247297 5,5 v 62 c 0,2.752703 -2.247297,5 -5,5 z m 0,-2 h 62 c 1.679298,0 3,-1.320703 3,-3 V 17 c 10e-7,-1.679297 -1.320703,-3 -3,-3 H 17 c -1.679296,0 -3,1.320703 -3,3 v 62 c 0,1.679297 1.320703,3 3,3 z" />
    <path
       style="opacity:0.2;fill:url(#radialGradient2874);fill-opacity:1;fill-rule:nonzero;stroke:none;display:inline"
       id="path3615"
       d="M 12,90 C 8.676,90 6,87.324 6,84 L 6,82 6,14 6,12 c 0,-0.334721 0.04135,-0.6507 0.09375,-0.96875 0.0487,-0.295596 0.09704,-0.596915 0.1875,-0.875 C 6.29113,10.12587 6.302142,10.09265 6.3125,10.0625 6.411365,9.774729 6.5473802,9.515048 6.6875,9.25 6.8320918,8.976493 7.0031161,8.714385 7.1875,8.46875 7.3718839,8.223115 7.5612765,7.995278 7.78125,7.78125 8.221197,7.353194 8.72416,6.966724 9.28125,6.6875 9.559795,6.547888 9.8547231,6.440553 10.15625,6.34375 9.9000482,6.443972 9.6695391,6.580022 9.4375,6.71875 c -0.00741,0.0044 -0.023866,-0.0045 -0.03125,0 -0.031933,0.0193 -0.062293,0.04251 -0.09375,0.0625 -0.120395,0.0767 -0.2310226,0.163513 -0.34375,0.25 -0.1061728,0.0808 -0.2132809,0.161112 -0.3125,0.25 C 8.4783201,7.442683 8.3087904,7.626638 8.15625,7.8125 8.0486711,7.942755 7.9378561,8.077785 7.84375,8.21875 7.818661,8.25713 7.805304,8.30462 7.78125,8.34375 7.716487,8.446782 7.6510225,8.548267 7.59375,8.65625 7.4927417,8.850956 7.3880752,9.071951 7.3125,9.28125 7.30454,9.30306 7.288911,9.3218 7.28125,9.34375 7.2494249,9.4357 7.2454455,9.530581 7.21875,9.625 7.1884177,9.731618 7.1483606,9.828031 7.125,9.9375 7.0521214,10.279012 7,10.635705 7,11 l 0,2 0,68 0,2 c 0,2.781848 2.2181517,5 5,5 l 2,0 68,0 2,0 c 2.781848,0 5,-2.218152 5,-5 l 0,-2 0,-68 0,-2 C 89,10.635705 88.94788,10.279012 88.875,9.9375 88.83085,9.730607 88.78662,9.539842 88.71875,9.34375 88.71105,9.3218 88.69545,9.30306 88.6875,9.28125 88.62476,9.107511 88.549117,8.913801 88.46875,8.75 88.42717,8.6672 88.38971,8.580046 88.34375,8.5 88.28915,8.40279 88.216976,8.31165 88.15625,8.21875 88.06214,8.077785 87.951329,7.942755 87.84375,7.8125 87.700576,7.63805 87.540609,7.465502 87.375,7.3125 87.36383,7.3023 87.35502,7.29135 87.34375,7.28125 87.205364,7.155694 87.058659,7.046814 86.90625,6.9375 86.803679,6.86435 86.701932,6.784136 86.59375,6.71875 c -0.0074,-0.0045 -0.02384,0.0044 -0.03125,0 -0.232039,-0.138728 -0.462548,-0.274778 -0.71875,-0.375 0.301527,0.0968 0.596455,0.204138 0.875,0.34375 0.55709,0.279224 1.060053,0.665694 1.5,1.09375 0.219973,0.214028 0.409366,0.441865 0.59375,0.6875 0.184384,0.245635 0.355408,0.507743 0.5,0.78125 0.14012,0.265048 0.276135,0.524729 0.375,0.8125 0.01041,0.03078 0.02133,0.06274 0.03125,0.09375 0.09046,0.278085 0.1388,0.579404 0.1875,0.875 C 89.95865,11.3493 90,11.665279 90,12 l 0,2 0,68 0,2 c 0,3.324 -2.676,6 -6,6 l -72,0 z" />
  </g>
  <g
     style="display:none"
     id="layer5">
    <rect
       style="opacity:0.1;fill:url(#linearGradient3613);fill-opacity:1;fill-rule:nonzero;stroke:#ffffff;stroke-width:0.5;stroke-linecap:round;stroke-linejoin:miter;stroke-miterlimit:4;stroke-opacity:1;stroke-dasharray:none;stroke-dashoffset:0;filter:url(#filter3794)"
       id="rect3171"
       clip-path="url(#clipPath3613)"
       y="15"
       x="15"
       ry="12"
       rx="12"
       height="66"
       width="66" />
  </g>
</svg>
