<?xml version="1.0" encoding="UTF-8" standalone="no"?>
<!-- Created with Inkscape (http://www.inkscape.org/) -->

<svg
   xmlns:dc="http://purl.org/dc/elements/1.1/"
   xmlns:cc="http://creativecommons.org/ns#"
   xmlns:rdf="http://www.w3.org/1999/02/22-rdf-syntax-ns#"
   xmlns:svg="http://www.w3.org/2000/svg"
   xmlns="http://www.w3.org/2000/svg"
   xmlns:sodipodi="http://sodipodi.sourceforge.net/DTD/sodipodi-0.dtd"
   xmlns:inkscape="http://www.inkscape.org/namespaces/inkscape"
   id="svg7384"
   height="16"
   width="16"
   version="1.1"
   inkscape:version="0.92.2 2405546, 2018-03-11"
   sodipodi:docname="desktop-symbolic.svg">
  <defs
     id="defs9" />
  <sodipodi:namedview
     pagecolor="#ffffff"
     bordercolor="#666666"
     borderopacity="1"
     objecttolerance="10"
     gridtolerance="10"
     guidetolerance="10"
     inkscape:pageopacity="0"
     inkscape:pageshadow="2"
     inkscape:window-width="1920"
     inkscape:window-height="1011"
     id="namedview7"
     showgrid="false"
     inkscape:zoom="29.5"
     inkscape:cx="-0.15308182"
     inkscape:cy="6.9221132"
     inkscape:window-x="0"
     inkscape:window-y="32"
     inkscape:window-maximized="1"
     inkscape:current-layer="svg7384" />
  <metadata
     id="metadata90">
    <rdf:RDF>
      <cc:Work
         rdf:about="">
        <dc:format>image/svg+xml</dc:format>
        <dc:type
           rdf:resource="http://purl.org/dc/dcmitype/StillImage" />
        <dc:title>Gnome Symbolic Icon Theme</dc:title>
      </cc:Work>
    </rdf:RDF>
  </metadata>
  <title
     id="title9167">Gnome Symbolic Icon Theme</title>
  <path
     style="fill:#bebebe"
     d="M 0.53125 1 C 0.24212 1 0 1.24212 0 1.53125 L 0 15.46875 C 0 15.76725 0.23264 16 0.53125 16 L 15.46875 16 C 15.76735 16 16 15.76735 16 15.46875 L 16 1.59375 C 16 1.26655 15.73334 1 15.40625 1 L 0.53125 1 z M 1.53125 3.328125 L 14.40625 3.328125 C 14.73334 3.328125 15 3.594675 15 3.921875 L 15 14.46875 C 15 14.76735 14.76735 15 14.46875 15 L 1.53125 15 C 1.23264 15 1 14.76725 1 14.46875 L 1 3.859375 C 1 3.570245 1.24212 3.328125 1.53125 3.328125 z "
     id="path5441" />
  <g
     id="layer13"
     transform="translate(379 -515)" />
  <g
     id="layer13-3"
     transform="matrix(0.89213962,0,0,0.94247439,339.12203,-485.45433)"
     style="fill:#000000;fill-opacity:1" />
  <path
     style="opacity:1;fill:#bebebe;fill-opacity:1;stroke:none;stroke-width:4;stroke-miterlimit:4;stroke-dasharray:none;stroke-opacity:1"
     d="M 2,5 4,5 4,7 2,7 Z"
     id="rect4136"
     inkscape:connector-curvature="0" />
  <path
     style="opacity:1;fill:#bebebe;fill-opacity:1;stroke:none;stroke-width:4;stroke-miterlimit:4;stroke-dasharray:none;stroke-opacity:1"
     d="m 2,7.9999995 2,0 L 4,10 2,10 Z"
     id="rect4136-3"
     inkscape:connector-curvature="0" />
  <rect
     style="opacity:0.25;fill:#bebebe;fill-opacity:1;stroke:none;stroke-width:1.68501329;stroke-linejoin:round;stroke-miterlimit:4;stroke-dasharray:none;stroke-dashoffset:0;stroke-opacity:1;paint-order:stroke fill markers"
     id="rect817"
     width="16"
     height="13"
     x="0"
     y="2"
     rx="0"
     ry="0" />
</svg>
