<?xml version="1.0" encoding="UTF-8" standalone="no"?>
<!-- Created with Inkscape (http://www.inkscape.org/) -->

<svg
   xmlns:dc="http://purl.org/dc/elements/1.1/"
   xmlns:cc="http://creativecommons.org/ns#"
   xmlns:rdf="http://www.w3.org/1999/02/22-rdf-syntax-ns#"
   xmlns:svg="http://www.w3.org/2000/svg"
   xmlns="http://www.w3.org/2000/svg"
   xmlns:xlink="http://www.w3.org/1999/xlink"
   xmlns:sodipodi="http://sodipodi.sourceforge.net/DTD/sodipodi-0.dtd"
   xmlns:inkscape="http://www.inkscape.org/namespaces/inkscape"
   width="16px"
   height="16px"
   id="svg8860"
   version="1.1"
   inkscape:version="0.91 r13725"
   sodipodi:docname="folder-remote.svg">
  <defs
     id="defs8862">
    <linearGradient
       inkscape:collect="always"
       xlink:href="#linearGradient3454-2-5-0-3-8"
       id="linearGradient10270-0"
       gradientUnits="userSpaceOnUse"
       gradientTransform="matrix(0.89189031,0,0,0.94046961,3.14398,5.346537)"
       x1="11.350123"
       y1="0.66696572"
       x2="11.350123"
       y2="8.1721792" />
    <linearGradient
       id="linearGradient3454-2-5-0-3-8">
      <stop
         offset="0"
         style="stop-color:#ffffff;stop-opacity:1"
         id="stop3456-4-9-38-1-9" />
      <stop
         offset="0.0097359"
         style="stop-color:#ffffff;stop-opacity:0.23529412"
         id="stop3458-39-80-3-5-6" />
      <stop
         offset="0.99001008"
         style="stop-color:#ffffff;stop-opacity:0.15686275"
         id="stop3460-7-0-2-4-4" />
      <stop
         offset="1"
         style="stop-color:#ffffff;stop-opacity:0.39215687"
         id="stop3462-0-9-8-7-8" />
    </linearGradient>
    <linearGradient
       inkscape:collect="always"
       xlink:href="#linearGradient6129-963-697-142-998-580-273-44-2-2-2"
       id="linearGradient10268-4"
       gradientUnits="userSpaceOnUse"
       gradientTransform="matrix(0.38156409,0,0,0.32896952,-18.24159,0.28216731)"
       x1="76.041"
       y1="49.372032"
       x2="76.041"
       y2="35.430561" />
    <linearGradient
       id="linearGradient6129-963-697-142-998-580-273-44-2-2-2">
      <stop
         id="stop2661-01-6-2-4"
         style="stop-color:#0a0a0a;stop-opacity:0.498"
         offset="0" />
      <stop
         id="stop2663-64-5-5-3"
         style="stop-color:#0a0a0a;stop-opacity:0"
         offset="1" />
    </linearGradient>
    <linearGradient
       inkscape:collect="always"
       xlink:href="#linearGradient4632-0-6-4-4"
       id="linearGradient10262-3"
       gradientUnits="userSpaceOnUse"
       gradientTransform="matrix(0.3101469,0,0,0.30591044,-15.362929,0.46943178)"
       x1="84.30883"
       y1="16.110577"
       x2="84.30883"
       y2="42.923553" />
    <linearGradient
       id="linearGradient4632-0-6-4-4">
      <stop
         style="stop-color:#aacb7d;stop-opacity:1;"
         offset="0"
         id="stop4634-4-4-7-5" />
      <stop
         style="stop-color:#709937;stop-opacity:1;"
         offset="1"
         id="stop4636-3-1-5-4" />
    </linearGradient>
    <linearGradient
       y2="2.0612748"
       x2="-51.786404"
       y1="53.514328"
       x1="-51.786404"
       gradientTransform="matrix(0.31070043,0,0,0.27489387,20.17717,-0.10316268)"
       gradientUnits="userSpaceOnUse"
       id="linearGradient10473-4-0"
       xlink:href="#linearGradient3104-8-8-97-4-6-11-5-5-4-4"
       inkscape:collect="always" />
    <linearGradient
       id="linearGradient3104-8-8-97-4-6-11-5-5-4-4">
      <stop
         offset="0"
         style="stop-color:#000000;stop-opacity:0.32173914"
         id="stop3106-5-4-3-5-0-2-1-0-7-7" />
      <stop
         offset="1"
         style="stop-color:#000000;stop-opacity:0.27826086"
         id="stop3108-4-3-7-8-2-0-7-9-0-6" />
    </linearGradient>
    <linearGradient
       id="linearGradient4346">
      <stop
         id="stop4348"
         style="stop-color:#ffffff;stop-opacity:1"
         offset="0" />
      <stop
         id="stop4350"
         style="stop-color:#d8d8d8;stop-opacity:1"
         offset="1" />
    </linearGradient>
    <linearGradient
       y2="15.385052"
       x2="62.988873"
       y1="11.645091"
       x1="62.988873"
       gradientTransform="matrix(0.33333327,0,0,0.32971018,-17.44063,-0.64784268)"
       gradientUnits="userSpaceOnUse"
       id="linearGradient8858"
       xlink:href="#linearGradient4346"
       inkscape:collect="always" />
    <linearGradient
       id="linearGradient8265-821-176-38-919-66-249">
      <stop
         offset="0"
         style="stop-color:#ffffff;stop-opacity:1"
         id="stop2687" />
      <stop
         offset="1"
         style="stop-color:#ffffff;stop-opacity:0"
         id="stop2689" />
    </linearGradient>
    <linearGradient
       gradientTransform="matrix(0.2966887,0,0,0.3520695,1.971624,1.9075576)"
       y2="24.627615"
       x2="20.054544"
       y1="16.407909"
       x1="18.03083"
       gradientUnits="userSpaceOnUse"
       id="linearGradient2851"
       xlink:href="#linearGradient8265-821-176-38-919-66-249"
       inkscape:collect="always" />
    <linearGradient
       id="linearGradient3390">
      <stop
         offset="0"
         style="stop-color:#51751e;stop-opacity:1"
         id="stop3392" />
      <stop
         offset="1"
         style="stop-color:#51751e;stop-opacity:1"
         id="stop3394" />
    </linearGradient>
    <linearGradient
       gradientTransform="matrix(1.0083043,0,0,1.0006232,-10.500284,-26.477671)"
       gradientUnits="userSpaceOnUse"
       xlink:href="#linearGradient3390"
       id="linearGradient2578"
       y2="4.0514131"
       x2="4.1760364"
       y1="14.992862"
       x1="10.318256" />
    <linearGradient
       id="linearGradient7012-661-145-733-759-865-745-0">
      <stop
         offset="0"
         style="stop-color:#aacb7d;stop-opacity:1"
         id="stop2699-7" />
      <stop
         offset="1"
         style="stop-color:#709937;stop-opacity:1"
         id="stop2701-81" />
    </linearGradient>
    <linearGradient
       gradientTransform="matrix(0.05489342,0.01385132,0.00257263,0.05248166,-11.212261,-26.738461)"
       gradientUnits="userSpaceOnUse"
       xlink:href="#linearGradient7012-661-145-733-759-865-745-0"
       id="linearGradient2576"
       y2="238.3999"
       x2="169.22964"
       y1="58.583481"
       x1="126.69791" />
    <linearGradient
       id="linearGradient3037">
      <stop
         offset="0"
         style="stop-color:#000000;stop-opacity:1"
         id="stop3039" />
      <stop
         offset="1"
         style="stop-color:#000000;stop-opacity:0"
         id="stop3041" />
    </linearGradient>
    <radialGradient
       gradientTransform="matrix(-2.774389,0,0,1.969706,112.7623,-872.8854)"
       gradientUnits="userSpaceOnUse"
       xlink:href="#linearGradient5060"
       id="radialGradient2574"
       fy="486.64789"
       fx="605.71429"
       r="117.14286"
       cy="486.64789"
       cx="605.71429" />
    <linearGradient
       id="linearGradient5060">
      <stop
         offset="0"
         style="stop-color:#000000;stop-opacity:1"
         id="stop5062" />
      <stop
         offset="1"
         style="stop-color:#000000;stop-opacity:0"
         id="stop5064" />
    </linearGradient>
    <radialGradient
       gradientTransform="matrix(2.774389,0,0,1.969706,-1891.633,-872.8854)"
       gradientUnits="userSpaceOnUse"
       xlink:href="#linearGradient5060"
       id="radialGradient2572"
       fy="486.64789"
       fx="605.71429"
       r="117.14286"
       cy="486.64789"
       cx="605.71429" />
    <linearGradient
       id="linearGradient5048-4">
      <stop
         offset="0"
         style="stop-color:#000000;stop-opacity:0"
         id="stop5050-7" />
      <stop
         offset="0.5"
         style="stop-color:#000000;stop-opacity:1"
         id="stop5056-7" />
      <stop
         offset="1"
         style="stop-color:#000000;stop-opacity:0"
         id="stop5052-3" />
    </linearGradient>
    <linearGradient
       gradientTransform="matrix(2.774389,0,0,1.969706,-1892.179,-872.8854)"
       gradientUnits="userSpaceOnUse"
       xlink:href="#linearGradient5048-4"
       id="linearGradient2570"
       y2="609.50507"
       x2="302.85715"
       y1="366.64789"
       x1="302.85715" />
    <linearGradient
       id="linearGradient8265-821-176-38-919-66-249-6"
       inkscape:collect="always">
      <stop
         id="stop2687-92"
         offset="0"
         style="stop-color:#ffffff;stop-opacity:1;" />
      <stop
         id="stop2689-2"
         offset="1"
         style="stop-color:#ffffff;stop-opacity:0;" />
    </linearGradient>
    <linearGradient
       y2="24.627615"
       x2="20.054544"
       y1="16.407909"
       x1="18.03083"
       gradientUnits="userSpaceOnUse"
       id="linearGradient2580-8"
       xlink:href="#linearGradient8265-821-176-38-919-66-249-6"
       inkscape:collect="always" />
    <linearGradient
       inkscape:collect="always"
       id="linearGradient3390-6">
      <stop
         style="stop-color:#51751e;stop-opacity:1"
         offset="0"
         id="stop3392-8" />
      <stop
         style="stop-color:#51751e;stop-opacity:1"
         offset="1"
         id="stop3394-3" />
    </linearGradient>
    <linearGradient
       y2="4.0514131"
       x2="4.1760364"
       y1="14.992862"
       x1="10.318256"
       gradientTransform="matrix(1.0083043,0,0,1.0006232,-10.500284,-26.477671)"
       gradientUnits="userSpaceOnUse"
       id="linearGradient2578-7"
       xlink:href="#linearGradient3390-6"
       inkscape:collect="always" />
    <linearGradient
       id="linearGradient7012-661-145-733-759-865-745-2">
      <stop
         id="stop2699-6"
         offset="0"
         style="stop-color:#aacb7d;stop-opacity:1;" />
      <stop
         id="stop2701-4"
         offset="1"
         style="stop-color:#709937;stop-opacity:1;" />
    </linearGradient>
    <linearGradient
       y2="238.3999"
       x2="169.22964"
       y1="58.583481"
       x1="126.69791"
       gradientTransform="matrix(0.05489342,0.01385132,0.00257263,0.05248166,-11.212261,-26.738461)"
       gradientUnits="userSpaceOnUse"
       id="linearGradient2576-9"
       xlink:href="#linearGradient7012-661-145-733-759-865-745-2"
       inkscape:collect="always" />
    <radialGradient
       r="117.14286"
       fy="486.64789"
       fx="605.71429"
       cy="486.64789"
       cx="605.71429"
       gradientTransform="matrix(-2.774389,0,0,1.969706,112.7623,-872.8854)"
       gradientUnits="userSpaceOnUse"
       id="radialGradient2574-7"
       xlink:href="#linearGradient5060-8"
       inkscape:collect="always" />
    <linearGradient
       inkscape:collect="always"
       id="linearGradient5060-8">
      <stop
         style="stop-color:black;stop-opacity:1;"
         offset="0"
         id="stop5062-7" />
      <stop
         style="stop-color:black;stop-opacity:0;"
         offset="1"
         id="stop5064-8" />
    </linearGradient>
    <radialGradient
       r="117.14286"
       fy="486.64789"
       fx="605.71429"
       cy="486.64789"
       cx="605.71429"
       gradientTransform="matrix(2.774389,0,0,1.969706,-1891.633,-872.8854)"
       gradientUnits="userSpaceOnUse"
       id="radialGradient2572-4"
       xlink:href="#linearGradient5060-8"
       inkscape:collect="always" />
    <linearGradient
       id="linearGradient5048-9">
      <stop
         style="stop-color:black;stop-opacity:0;"
         offset="0"
         id="stop5050-0" />
      <stop
         id="stop5056-95"
         offset="0.5"
         style="stop-color:black;stop-opacity:1;" />
      <stop
         style="stop-color:black;stop-opacity:0;"
         offset="1"
         id="stop5052-4" />
    </linearGradient>
    <linearGradient
       y2="609.50507"
       x2="302.85715"
       y1="366.64789"
       x1="302.85715"
       gradientTransform="matrix(2.774389,0,0,1.969706,-1892.179,-872.8854)"
       gradientUnits="userSpaceOnUse"
       id="linearGradient2570-25"
       xlink:href="#linearGradient5048-9"
       inkscape:collect="always" />
    <linearGradient
       id="linearGradient7012-661-145-733-759-865-745-6">
      <stop
         id="stop2699-0"
         offset="0"
         style="stop-color:#aacb7d;stop-opacity:1;" />
      <stop
         id="stop2701-8"
         offset="1"
         style="stop-color:#709937;stop-opacity:1;" />
    </linearGradient>
    <linearGradient
       id="linearGradient5048-3">
      <stop
         style="stop-color:black;stop-opacity:0;"
         offset="0"
         id="stop5050-1" />
      <stop
         id="stop5056-9"
         offset="0.5"
         style="stop-color:black;stop-opacity:1;" />
      <stop
         style="stop-color:black;stop-opacity:0;"
         offset="1"
         id="stop5052-2" />
    </linearGradient>
    <radialGradient
       r="20.979567"
       fy="8.3021259"
       fx="7.2646537"
       cy="8.3021259"
       cx="7.2646537"
       gradientTransform="matrix(0,0.39034004,-0.50757506,0,24.331601,-0.96297017)"
       gradientUnits="userSpaceOnUse"
       id="radialGradient3476"
       xlink:href="#linearGradient6087-437-184-795-110-662-495"
       inkscape:collect="always" />
    <radialGradient
       r="20.979567"
       fy="8.3021259"
       fx="7.2646537"
       cy="8.3021259"
       cx="7.2646537"
       gradientTransform="matrix(0,1.2079744,-1.6271642,0,26.371748,8.2664685)"
       gradientUnits="userSpaceOnUse"
       id="radialGradient3468"
       xlink:href="#linearGradient6087-437-184-795-110-662-495"
       inkscape:collect="always" />
    <radialGradient
       r="20.979567"
       fy="8.3021259"
       fx="7.2646537"
       cy="8.3021259"
       cx="7.2646537"
       gradientTransform="matrix(0,1.2079744,-1.6271642,0,26.371748,8.2664685)"
       gradientUnits="userSpaceOnUse"
       id="radialGradient3459"
       xlink:href="#linearGradient6087-437-184-795-110-662-495"
       inkscape:collect="always" />
    <inkscape:perspective
       sodipodi:type="inkscape:persp3d"
       inkscape:vp_x="0 : 24 : 1"
       inkscape:vp_y="0 : 1000 : 0"
       inkscape:vp_z="48 : 24 : 1"
       inkscape:persp3d-origin="24 : 16 : 1"
       id="perspective64" />
    <linearGradient
       id="linearGradient3484">
      <stop
         id="stop3486"
         style="stop-color:#bdbdbd;stop-opacity:1"
         offset="0" />
      <stop
         id="stop3488"
         style="stop-color:#d0d0d0;stop-opacity:1"
         offset="1" />
    </linearGradient>
    <radialGradient
       cx="3"
       cy="5.01718"
       r="21"
       fx="3"
       fy="5.01718"
       id="radialGradient2452"
       xlink:href="#linearGradient3484"
       gradientUnits="userSpaceOnUse"
       gradientTransform="matrix(-1.274898e-8,1.7142916,-2.159331,-1.4599595e-8,12.809361,2.8570011)" />
    <linearGradient
       id="linearGradient6404">
      <stop
         id="stop6406"
         style="stop-color:#f9f9f9;stop-opacity:1"
         offset="0" />
      <stop
         id="stop6408"
         style="stop-color:#c9c9c9;stop-opacity:1"
         offset="1" />
    </linearGradient>
    <linearGradient
       x1="62.988873"
       y1="13.182598"
       x2="62.988873"
       y2="16.19013"
       id="linearGradient2450"
       xlink:href="#linearGradient6404"
       gradientUnits="userSpaceOnUse"
       gradientTransform="translate(-50.940898,0)" />
    <linearGradient
       id="linearGradient5048-585">
      <stop
         id="stop2667"
         style="stop-color:#000000;stop-opacity:0"
         offset="0" />
      <stop
         id="stop2669"
         style="stop-color:#000000;stop-opacity:1"
         offset="0.5" />
      <stop
         id="stop2671"
         style="stop-color:#000000;stop-opacity:0"
         offset="1" />
    </linearGradient>
    <linearGradient
       x1="302.85715"
       y1="366.64789"
       x2="302.85715"
       y2="609.50507"
       id="linearGradient2467"
       xlink:href="#linearGradient5048-585"
       gradientUnits="userSpaceOnUse"
       gradientTransform="matrix(0.07938856,0,0,0.02470588,-4.693293,31.941642)" />
    <linearGradient
       id="linearGradient5060-179">
      <stop
         id="stop2675"
         style="stop-color:#000000;stop-opacity:1"
         offset="0" />
      <stop
         id="stop2677"
         style="stop-color:#000000;stop-opacity:0"
         offset="1" />
    </linearGradient>
    <radialGradient
       cx="605.71429"
       cy="486.64789"
       r="117.14286"
       fx="605.71429"
       fy="486.64789"
       id="radialGradient2464"
       xlink:href="#linearGradient5060-179"
       gradientUnits="userSpaceOnUse"
       gradientTransform="matrix(0.03079083,0,0,0.02470588,24.610252,31.941642)" />
    <linearGradient
       id="linearGradient5060-820">
      <stop
         id="stop2681"
         style="stop-color:#000000;stop-opacity:1"
         offset="0" />
      <stop
         id="stop2683"
         style="stop-color:#000000;stop-opacity:0"
         offset="1" />
    </linearGradient>
    <radialGradient
       cx="605.71429"
       cy="486.64789"
       r="117.14286"
       fx="605.71429"
       fy="486.64789"
       id="radialGradient2461"
       xlink:href="#linearGradient5060-820"
       gradientUnits="userSpaceOnUse"
       gradientTransform="matrix(-0.03079083,0,0,0.02470588,23.389748,31.941642)" />
    <linearGradient
       id="linearGradient3390-7">
      <stop
         id="stop3392-3"
         style="stop-color:#51751e;stop-opacity:1"
         offset="0" />
      <stop
         id="stop3394-7"
         style="stop-color:#51751e;stop-opacity:1"
         offset="1" />
    </linearGradient>
    <linearGradient
       x1="82.453476"
       y1="45.114193"
       x2="82.453476"
       y2="16.047026"
       id="linearGradient2443"
       xlink:href="#linearGradient3390-7"
       gradientUnits="userSpaceOnUse"
       gradientTransform="translate(-53.765393,-0.1141929)" />
    <linearGradient
       id="linearGradient7012-661-145-733-759-865-745-1">
      <stop
         id="stop2699-3"
         style="stop-color:#aacb7d;stop-opacity:1"
         offset="0" />
      <stop
         id="stop2701-5"
         style="stop-color:#709937;stop-opacity:1"
         offset="1" />
    </linearGradient>
    <radialGradient
       cx="63.969177"
       cy="14.113381"
       r="23.097054"
       fx="63.969177"
       fy="14.113381"
       id="radialGradient2441"
       xlink:href="#linearGradient7012-661-145-733-759-865-745-1"
       gradientUnits="userSpaceOnUse"
       gradientTransform="matrix(1.5646925,-9.5143002e-8,6.1772287e-8,1.015888,-86.212573,8.1461173)" />
    <linearGradient
       id="linearGradient6129-963-697-142-998-580-273">
      <stop
         id="stop2661"
         style="stop-color:#0a0a0a;stop-opacity:0.498"
         offset="0" />
      <stop
         id="stop2663"
         style="stop-color:#0a0a0a;stop-opacity:0"
         offset="1" />
    </linearGradient>
    <linearGradient
       x1="22.934725"
       y1="49.629246"
       x2="22.809399"
       y2="36.657963"
       id="linearGradient2438"
       xlink:href="#linearGradient6129-963-697-142-998-580-273"
       gradientUnits="userSpaceOnUse"
       gradientTransform="matrix(1.1446925,0,0,0.9977536,-3.4661413,1.0988425)" />
    <linearGradient
       id="linearGradient6087-437-184-795-110-662-495">
      <stop
         id="stop2693"
         style="stop-color:#ffffff;stop-opacity:0.40000001"
         offset="0" />
      <stop
         id="stop2695"
         style="stop-color:#ffffff;stop-opacity:0"
         offset="1" />
    </linearGradient>
    <radialGradient
       cx="7.2646537"
       cy="8.3021259"
       r="20.979567"
       fx="7.2646537"
       fy="8.3021259"
       id="radialGradient2435"
       xlink:href="#linearGradient6087-437-184-795-110-662-495"
       gradientUnits="userSpaceOnUse"
       gradientTransform="matrix(0,1.2079744,-1.6271642,0,26.371748,8.2664685)" />
    <linearGradient
       id="linearGradient8265-821-176-38-919-66-249-5">
      <stop
         id="stop2687-8"
         style="stop-color:#ffffff;stop-opacity:0.2"
         offset="0" />
      <stop
         id="stop2689-5"
         style="stop-color:#ffffff;stop-opacity:0"
         offset="1" />
    </linearGradient>
    <linearGradient
       x1="11.566265"
       y1="22.292103"
       x2="15.214532"
       y2="33.95525"
       id="linearGradient2432"
       xlink:href="#linearGradient8265-821-176-38-919-66-249-5"
       gradientUnits="userSpaceOnUse" />
    <linearGradient
       inkscape:collect="always"
       xlink:href="#linearGradient8265-821-176-38-919-66-249-5"
       id="linearGradient2877"
       gradientUnits="userSpaceOnUse"
       x1="11.566265"
       y1="22.292103"
       x2="15.214532"
       y2="33.95525" />
    <radialGradient
       inkscape:collect="always"
       xlink:href="#linearGradient6087-437-184-795-110-662-495"
       id="radialGradient2880"
       gradientUnits="userSpaceOnUse"
       gradientTransform="matrix(0,1.2079744,-1.6271642,0,26.371748,8.2664685)"
       cx="7.2646537"
       cy="8.3021259"
       fx="7.2646537"
       fy="8.3021259"
       r="20.979567" />
    <linearGradient
       inkscape:collect="always"
       xlink:href="#linearGradient6129-963-697-142-998-580-273"
       id="linearGradient2883"
       gradientUnits="userSpaceOnUse"
       gradientTransform="matrix(1.1446925,0,0,0.9977536,-3.4661413,1.0988425)"
       x1="22.934725"
       y1="49.629246"
       x2="22.809399"
       y2="36.657963" />
    <radialGradient
       inkscape:collect="always"
       xlink:href="#linearGradient7012-661-145-733-759-865-745-1"
       id="radialGradient2886"
       gradientUnits="userSpaceOnUse"
       gradientTransform="matrix(1.5646925,-9.5143002e-8,6.1772287e-8,1.015888,-86.212573,8.1461173)"
       cx="63.969177"
       cy="14.113381"
       fx="63.969177"
       fy="14.113381"
       r="23.097054" />
    <linearGradient
       inkscape:collect="always"
       xlink:href="#linearGradient3390-7"
       id="linearGradient2888"
       gradientUnits="userSpaceOnUse"
       gradientTransform="translate(-53.765393,-0.1141929)"
       x1="82.453476"
       y1="45.114193"
       x2="82.453476"
       y2="16.047026" />
    <radialGradient
       inkscape:collect="always"
       xlink:href="#linearGradient5060-820"
       id="radialGradient2891"
       gradientUnits="userSpaceOnUse"
       gradientTransform="matrix(-0.03079083,0,0,0.02470588,23.389748,31.941642)"
       cx="605.71429"
       cy="486.64789"
       fx="605.71429"
       fy="486.64789"
       r="117.14286" />
    <radialGradient
       inkscape:collect="always"
       xlink:href="#linearGradient5060-179"
       id="radialGradient2894"
       gradientUnits="userSpaceOnUse"
       gradientTransform="matrix(0.03079083,0,0,0.02470588,24.610252,31.941642)"
       cx="605.71429"
       cy="486.64789"
       fx="605.71429"
       fy="486.64789"
       r="117.14286" />
    <linearGradient
       inkscape:collect="always"
       xlink:href="#linearGradient5048-585"
       id="linearGradient2897"
       gradientUnits="userSpaceOnUse"
       gradientTransform="matrix(0.07938856,0,0,0.02470588,-4.693293,31.941642)"
       x1="302.85715"
       y1="366.64789"
       x2="302.85715"
       y2="609.50507" />
    <linearGradient
       inkscape:collect="always"
       xlink:href="#linearGradient6404"
       id="linearGradient2900"
       gradientUnits="userSpaceOnUse"
       gradientTransform="translate(-50.940898,0)"
       x1="62.988873"
       y1="13.182598"
       x2="62.988873"
       y2="16.19013" />
    <radialGradient
       inkscape:collect="always"
       xlink:href="#linearGradient3484"
       id="radialGradient2902"
       gradientUnits="userSpaceOnUse"
       gradientTransform="matrix(-1.274898e-8,1.7142916,-2.159331,-1.4599595e-8,12.809361,2.8570011)"
       cx="3"
       cy="5.01718"
       fx="3"
       fy="5.01718"
       r="21" />
    <linearGradient
       id="linearGradient7012-661-145-733-759-865-745">
      <stop
         id="stop2699"
         offset="0"
         style="stop-color:#aacb7d;stop-opacity:1;" />
      <stop
         id="stop2701"
         offset="1"
         style="stop-color:#709937;stop-opacity:1;" />
    </linearGradient>
    <linearGradient
       id="linearGradient5048">
      <stop
         style="stop-color:black;stop-opacity:0;"
         offset="0"
         id="stop5050" />
      <stop
         id="stop5056"
         offset="0.5"
         style="stop-color:black;stop-opacity:1;" />
      <stop
         style="stop-color:black;stop-opacity:0;"
         offset="1"
         id="stop5052" />
    </linearGradient>
    <linearGradient
       id="linearGradient6991">
      <stop
         id="stop6993"
         offset="0"
         style="stop-color:#d3d7cf;stop-opacity:1" />
      <stop
         id="stop6995"
         offset="1"
         style="stop-color:#ffffff;stop-opacity:1" />
    </linearGradient>
    <linearGradient
       id="linearGradient7340">
      <stop
         id="stop7342"
         offset="0"
         style="stop-color:#2e3436;stop-opacity:1;" />
      <stop
         id="stop7344"
         offset="1"
         style="stop-color:#555753;stop-opacity:1" />
    </linearGradient>
    <linearGradient
       y2="24.627615"
       x2="20.054544"
       y1="16.407909"
       x1="18.03083"
       gradientUnits="userSpaceOnUse"
       id="linearGradient2580"
       xlink:href="#linearGradient8265-821-176-38-919-66-249-9"
       inkscape:collect="always" />
    <linearGradient
       id="linearGradient8265-821-176-38-919-66-249-9"
       inkscape:collect="always">
      <stop
         id="stop2687-85"
         offset="0"
         style="stop-color:#ffffff;stop-opacity:1;" />
      <stop
         id="stop2689-6"
         offset="1"
         style="stop-color:#ffffff;stop-opacity:0;" />
    </linearGradient>
    <linearGradient
       y2="238.3999"
       x2="169.22964"
       y1="58.583481"
       x1="126.69791"
       gradientTransform="matrix(5.4893416e-2,1.3851317e-2,2.572632e-3,5.248166e-2,-11.212261,-26.738461)"
       gradientUnits="userSpaceOnUse"
       id="linearGradient2576-2"
       xlink:href="#linearGradient7012-661-145-733-759-865-745-68"
       inkscape:collect="always" />
    <linearGradient
       id="linearGradient7012-661-145-733-759-865-745-68">
      <stop
         id="stop2699-5"
         offset="0"
         style="stop-color:#aacb7d;stop-opacity:1;" />
      <stop
         id="stop2701-1"
         offset="1"
         style="stop-color:#709937;stop-opacity:1;" />
    </linearGradient>
    <linearGradient
       y2="4.0514131"
       x2="4.1760364"
       y1="14.992862"
       x1="10.318256"
       gradientTransform="matrix(1.0083043,0,0,1.0006232,-10.500284,-26.477671)"
       gradientUnits="userSpaceOnUse"
       id="linearGradient2578-9"
       xlink:href="#linearGradient3390-8"
       inkscape:collect="always" />
    <linearGradient
       inkscape:collect="always"
       id="linearGradient3390-8">
      <stop
         style="stop-color:#51751e;stop-opacity:1"
         offset="0"
         id="stop3392-87" />
      <stop
         style="stop-color:#51751e;stop-opacity:1"
         offset="1"
         id="stop3394-35" />
    </linearGradient>
    <linearGradient
       y2="609.50507"
       x2="302.85715"
       y1="366.64789"
       x1="302.85715"
       gradientTransform="matrix(2.774389,0,0,1.969706,-1892.179,-872.8854)"
       gradientUnits="userSpaceOnUse"
       id="linearGradient2570-9"
       xlink:href="#linearGradient5048-0"
       inkscape:collect="always" />
    <linearGradient
       id="linearGradient5048-0">
      <stop
         style="stop-color:black;stop-opacity:0;"
         offset="0"
         id="stop5050-15" />
      <stop
         id="stop5056-2"
         offset="0.5"
         style="stop-color:black;stop-opacity:1;" />
      <stop
         style="stop-color:black;stop-opacity:0;"
         offset="1"
         id="stop5052-34" />
    </linearGradient>
    <radialGradient
       r="117.14286"
       fy="486.64789"
       fx="605.71429"
       cy="486.64789"
       cx="605.71429"
       gradientTransform="matrix(2.774389,0,0,1.969706,-1891.633,-872.8854)"
       gradientUnits="userSpaceOnUse"
       id="radialGradient2572-3"
       xlink:href="#linearGradient5060-85"
       inkscape:collect="always" />
    <linearGradient
       inkscape:collect="always"
       id="linearGradient5060-85">
      <stop
         style="stop-color:black;stop-opacity:1;"
         offset="0"
         id="stop5062-8" />
      <stop
         style="stop-color:black;stop-opacity:0;"
         offset="1"
         id="stop5064-3" />
    </linearGradient>
    <radialGradient
       r="117.14286"
       fy="486.64789"
       fx="605.71429"
       cy="486.64789"
       cx="605.71429"
       gradientTransform="matrix(-2.774389,0,0,1.969706,112.7623,-872.8854)"
       gradientUnits="userSpaceOnUse"
       id="radialGradient2574-1"
       xlink:href="#linearGradient5060-85"
       inkscape:collect="always" />
    <filter
       style="color-interpolation-filters:sRGB"
       x="-0.11444673"
       y="-1.4149175"
       width="1.2288935"
       height="3.8298349"
       id="filter4180-6">
      <feGaussianBlur
         id="feGaussianBlur4182-7"
         stdDeviation="3.5372897" />
    </filter>
    <radialGradient
       cx="48"
       cy="84"
       r="30"
       fx="48"
       fy="84"
       id="radialGradient4138-5"
       xlink:href="#linearGradient3313"
       gradientUnits="userSpaceOnUse"
       gradientTransform="matrix(1.0666667,0,0,0.06666667,-3.2,77.4)" />
    <linearGradient
       id="linearGradient3313">
      <stop
         id="stop3315"
         style="stop-color:#0f96ff;stop-opacity:1;"
         offset="0" />
      <stop
         id="stop4186"
         style="stop-color:#13bcff;stop-opacity:0.65098041;"
         offset="0.67213112" />
      <stop
         id="stop3317"
         style="stop-color:#0090ff;stop-opacity:0;"
         offset="1" />
    </linearGradient>
    <linearGradient
       x1="46"
       y1="6"
       x2="46"
       y2="78.000145"
       id="linearGradient3179-2"
       xlink:href="#linearGradient4327"
       gradientUnits="userSpaceOnUse" />
    <linearGradient
       id="linearGradient4327">
      <stop
         id="stop4329"
         style="stop-color:#f0f0f0;stop-opacity:1"
         offset="0" />
      <stop
         id="stop4331"
         style="stop-color:#b4b4b4;stop-opacity:1"
         offset="1" />
    </linearGradient>
    <linearGradient
       x1="18.742928"
       y1="8.046936"
       x2="109.1929"
       y2="68.516502"
       id="linearGradient3551-2"
       xlink:href="#linearGradient3220"
       gradientUnits="userSpaceOnUse"
       gradientTransform="matrix(1,0,0,-1,0,84)" />
    <linearGradient
       id="linearGradient3220">
      <stop
         id="stop3222"
         style="stop-color:#ffffff;stop-opacity:1"
         offset="0" />
      <stop
         id="stop3224"
         style="stop-color:#bfbfbf;stop-opacity:0"
         offset="1" />
    </linearGradient>
    <linearGradient
       x1="6"
       y1="75.5"
       x2="45.219246"
       y2="75.5"
       id="linearGradient3454-9"
       xlink:href="#linearGradient3104-8-8-97-4-6-11-5-5-4-4"
       gradientUnits="userSpaceOnUse"
       gradientTransform="matrix(-1,0,0,1,96,-2)" />
    <linearGradient
       x1="15.656256"
       y1="69.394279"
       x2="46.594883"
       y2="39.82095"
       id="linearGradient3781-3"
       xlink:href="#linearGradient3220"
       gradientUnits="userSpaceOnUse"
       gradientTransform="matrix(1.1165614,0,0,1.1165614,0.8046986,-5.6759082)" />
    <clipPath
       id="clipPath3785-6">
      <rect
         width="84"
         height="72"
         rx="6"
         ry="6"
         x="6"
         y="6"
         id="rect3787-0"
         style="fill:#ffffff;fill-opacity:1;fill-rule:nonzero;stroke:none" />
    </clipPath>
    <filter
       style="color-interpolation-filters:sRGB"
       x="-0.12267826"
       y="-0.17991199"
       width="1.2453564"
       height="1.3598239"
       id="filter3829-6">
      <feGaussianBlur
         id="feGaussianBlur3831-2"
         stdDeviation="3.5487715" />
    </filter>
    <linearGradient
       x1="36.357143"
       y1="6"
       x2="36.357143"
       y2="63.893143"
       id="linearGradient3188-6"
       xlink:href="#linearGradient8265-821-176-38-919-66-249"
       gradientUnits="userSpaceOnUse" />
    <linearGradient
       x1="6"
       y1="77.09375"
       x2="32.030617"
       y2="77.09375"
       id="linearGradient3287-1"
       xlink:href="#linearGradient3273"
       gradientUnits="userSpaceOnUse"
       gradientTransform="matrix(-1,0,0,1,96.030615,0)" />
    <linearGradient
       id="linearGradient3273">
      <stop
         id="stop3275"
         style="stop-color:#7a7a7a;stop-opacity:1"
         offset="0" />
      <stop
         id="stop3281"
         style="stop-color:#f9f9f9;stop-opacity:1"
         offset="0.14636412" />
      <stop
         id="stop3283"
         style="stop-color:#c9c9c9;stop-opacity:1"
         offset="0.37253973" />
      <stop
         id="stop3277"
         style="stop-color:#dedede;stop-opacity:0"
         offset="1" />
    </linearGradient>
    <linearGradient
       x1="6"
       y1="77.09375"
       x2="32"
       y2="77.09375"
       id="linearGradient3279-0"
       xlink:href="#linearGradient3322"
       gradientUnits="userSpaceOnUse" />
    <linearGradient
       id="linearGradient3322">
      <stop
         id="stop3324"
         style="stop-color:#7a7a7a;stop-opacity:1"
         offset="0" />
      <stop
         id="stop3326"
         style="stop-color:#f9f9f9;stop-opacity:1"
         offset="0.2032043" />
      <stop
         id="stop3328"
         style="stop-color:#c9c9c9;stop-opacity:1"
         offset="0.42969123" />
      <stop
         id="stop3330"
         style="stop-color:#dedede;stop-opacity:0"
         offset="1" />
    </linearGradient>
    <linearGradient
       x1="48"
       y1="77.09375"
       x2="48"
       y2="90"
       id="linearGradient3460-9"
       xlink:href="#linearGradient3104-8-8-97-4-6-11-5-5-4-4"
       gradientUnits="userSpaceOnUse" />
    <linearGradient
       x1="43.05357"
       y1="80.14286"
       x2="43.05357"
       y2="82.00309"
       id="linearGradient4196-2"
       xlink:href="#linearGradient3104-8-8-97-4-6-11-5-5-4-4"
       gradientUnits="userSpaceOnUse" />
    <linearGradient
       x1="45.447727"
       y1="92.539597"
       x2="45.447727"
       y2="7.0165396"
       id="ButtonShadow-0"
       gradientUnits="userSpaceOnUse"
       gradientTransform="matrix(1.0058652,0,0,0.994169,100,0)">
      <stop
         id="stop3750-8"
         style="stop-color:#000000;stop-opacity:1"
         offset="0" />
      <stop
         id="stop3752-5"
         style="stop-color:#000000;stop-opacity:0.58823532"
         offset="1" />
    </linearGradient>
    <linearGradient
       x1="32.251034"
       y1="6.1317081"
       x2="32.251034"
       y2="90.238609"
       id="linearGradient3721-7"
       xlink:href="#ButtonShadow-0"
       gradientUnits="userSpaceOnUse"
       gradientTransform="translate(0,-97)" />
    <filter
       style="color-interpolation-filters:sRGB"
       x="-0.11444673"
       y="-1.4149175"
       width="1.2288935"
       height="3.8298349"
       id="filter4180-6-3">
      <feGaussianBlur
         id="feGaussianBlur4182-7-6"
         stdDeviation="3.5372897" />
    </filter>
    <radialGradient
       cx="48"
       cy="84"
       r="30"
       fx="48"
       fy="84"
       id="radialGradient4138-5-7"
       xlink:href="#linearGradient3313"
       gradientUnits="userSpaceOnUse"
       gradientTransform="matrix(1.0666667,0,0,0.06666667,-3.2,77.4)" />
    <linearGradient
       x1="15.656256"
       y1="69.394279"
       x2="46.594883"
       y2="39.82095"
       id="linearGradient4492"
       xlink:href="#linearGradient3220"
       gradientUnits="userSpaceOnUse"
       gradientTransform="matrix(1.1165614,0,0,1.1165614,0.8046986,-5.6759082)" />
    <clipPath
       id="clipPath3785-6-2">
      <rect
         width="84"
         height="72"
         rx="6"
         ry="6"
         x="6"
         y="6"
         id="rect3787-0-7"
         style="fill:#ffffff;fill-opacity:1;fill-rule:nonzero;stroke:none" />
    </clipPath>
    <filter
       style="color-interpolation-filters:sRGB"
       x="-0.12267826"
       y="-0.17991199"
       width="1.2453564"
       height="1.3598239"
       id="filter3829-6-0">
      <feGaussianBlur
         id="feGaussianBlur3831-2-9"
         stdDeviation="3.5487715" />
    </filter>
    <linearGradient
       x1="48"
       y1="77.09375"
       x2="48"
       y2="90"
       id="linearGradient4498"
       xlink:href="#linearGradient3104-8-8-97-4-6-11-5-5-4-4"
       gradientUnits="userSpaceOnUse" />
    <linearGradient
       x1="43.05357"
       y1="80.14286"
       x2="43.05357"
       y2="82.00309"
       id="linearGradient4500"
       xlink:href="#linearGradient3104-8-8-97-4-6-11-5-5-4-4"
       gradientUnits="userSpaceOnUse" />
    <linearGradient
       inkscape:collect="always"
       xlink:href="#ButtonShadow-0"
       id="linearGradient4659"
       gradientUnits="userSpaceOnUse"
       gradientTransform="matrix(1.0238095,0,0,1.0119048,-1.1428571,-98.071429)"
       x1="32.251034"
       y1="6.1317081"
       x2="32.251034"
       y2="90.238609" />
    <linearGradient
       inkscape:collect="always"
       xlink:href="#ButtonShadow-0"
       id="linearGradient4661"
       gradientUnits="userSpaceOnUse"
       gradientTransform="matrix(1.0238095,0,0,1.0119048,-1.1428571,-98.071429)"
       x1="32.251034"
       y1="6.1317081"
       x2="32.251034"
       y2="90.238609" />
    <linearGradient
       inkscape:collect="always"
       xlink:href="#ButtonShadow-0"
       id="linearGradient4663"
       gradientUnits="userSpaceOnUse"
       gradientTransform="matrix(1.0238095,0,0,1.0119048,-1.1428571,-98.071429)"
       x1="32.251034"
       y1="6.1317081"
       x2="32.251034"
       y2="90.238609" />
    <linearGradient
       inkscape:collect="always"
       xlink:href="#ButtonShadow-0"
       id="linearGradient4726"
       gradientUnits="userSpaceOnUse"
       gradientTransform="matrix(1.0238095,0,0,1.0119048,-1.1428571,-98.071429)"
       x1="32.251034"
       y1="6.1317081"
       x2="32.251034"
       y2="90.238609" />
    <linearGradient
       x1="32.251034"
       y1="6.1317081"
       x2="32.251034"
       y2="90.238609"
       id="linearGradient4506"
       xlink:href="#ButtonShadow-0"
       gradientUnits="userSpaceOnUse"
       gradientTransform="translate(0,-97)" />
  </defs>
  <sodipodi:namedview
     id="base"
     pagecolor="#cecece"
     bordercolor="#666666"
     borderopacity="1.0"
     inkscape:pageopacity="1"
     inkscape:pageshadow="2"
     inkscape:zoom="31.392433"
     inkscape:cx="-3.0799113"
     inkscape:cy="5.7546745"
     inkscape:current-layer="layer1"
     showgrid="true"
     inkscape:grid-bbox="true"
     inkscape:document-units="px"
     inkscape:window-width="1920"
     inkscape:window-height="1011"
     inkscape:window-x="0"
     inkscape:window-y="32"
     inkscape:window-maximized="1"
     inkscape:snap-bbox="true">
    <inkscape:grid
       type="xygrid"
       id="grid3010"
       empspacing="5"
       visible="true"
       enabled="true"
       snapvisiblegridlinesonly="true" />
  </sodipodi:namedview>
  <metadata
     id="metadata8865">
    <rdf:RDF>
      <cc:Work
         rdf:about="">
        <dc:format>image/svg+xml</dc:format>
        <dc:type
           rdf:resource="http://purl.org/dc/dcmitype/StillImage" />
        <dc:title />
      </cc:Work>
    </rdf:RDF>
  </metadata>
  <g
     id="layer1"
     inkscape:label="Layer 1"
     inkscape:groupmode="layer">
    <path
       inkscape:connector-curvature="0"
       style="color:#000000;fill:url(#linearGradient8858);fill-opacity:1;fill-rule:nonzero;stroke:none;stroke-width:0.99992168;marker:none;visibility:visible;display:inline;overflow:visible;enable-background:accumulate"
       d="m 2.02332,1.976667 0,1 -1,0 0,4 14,0 0,-4 -7,0 0,-1 -6,0 z"
       id="rect4170-0" />
    <path
       inkscape:connector-curvature="0"
       style="opacity:0.8;color:#000000;fill:none;stroke:url(#linearGradient10473-4-0);stroke-width:1;stroke-linecap:butt;stroke-linejoin:miter;stroke-miterlimit:4;stroke-opacity:1;stroke-dasharray:none;stroke-dashoffset:0;marker:none;visibility:visible;display:inline;overflow:visible;enable-background:accumulate"
       d="m 15.52332,4 0,-1.273333 c 0,-0.1385 -0.1115,-0.25 -0.25,-0.25 l -6.75,0 0,-0.71875 c 0,-0.1385 -0.1115,-0.25 -0.25,-0.25 l -6.5,0 c -0.1385,0 -0.25,0.1115 -0.25,0.25 l 0,0.71875 -0.75,0 c -0.1385,0 -0.25,0.1115 -0.25,0.25 L 0.52332,4"
       id="rect4170"
       sodipodi:nodetypes="csscsssscssc" />
    <path
       d="M 1.0557148,5 C 1.7603563,5 14.453608,5.0283083 15,5.0283083 15,5.5824641 14.97349,13.995151 14.94194,13.995151 10.047812,14.011096 2.4250446,13.982609 1,13.982609 1,12.936754 1.0557334,7.15233 1.0557334,5.000009 z"
       inkscape:connector-curvature="0"
       id="rect3086"
       style="color:#000000;fill:url(#linearGradient10262-3);fill-opacity:1;fill-rule:nonzero;stroke:none;stroke-width:1;marker:none;visibility:visible;display:inline;overflow:visible;enable-background:accumulate" />
    <path
       d="m 0.08698,3.976647 c 0.8053,0 15.31189,0.0341 15.93634,0.0341 0,0.67729 -0.0303,10.95971 -0.0663,10.95971 -5.5933,0.02 -14.30504,-0.0148 -15.93366,-0.0148 0,-1.2783 0.0636,-8.34831 0.0636,-10.97898 z"
       inkscape:connector-curvature="0"
       id="rect3086-1"
       style="opacity:0.4;color:#000000;fill:url(#linearGradient10268-4);fill-opacity:1;fill-rule:nonzero;stroke:none;stroke-width:1;marker:none;visibility:visible;display:inline;overflow:visible;enable-background:accumulate" />
    <path
       d="m 1.57504,5.476667 c 0.65431,0 12.44092,0.0251 12.94828,0.0251 0,0.49259 -0.0246,7.97055 -0.0539,7.97055 -4.54455,0.0142 -11.62285,-0.0111 -12.9461,-0.0111 0,-0.92965 0.0517,-6.07138 0.0517,-7.98455 z"
       inkscape:connector-curvature="0"
       id="rect3086-9"
       style="opacity:0.5;color:#000000;fill:none;stroke:url(#linearGradient10270-0);stroke-width:1.00000012;stroke-linecap:round;stroke-linejoin:miter;stroke-miterlimit:4;stroke-opacity:1;stroke-dasharray:none;stroke-dashoffset:0;marker:none;visibility:visible;display:inline;overflow:visible;enable-background:accumulate" />
    <path
       d="m 0.55988,4.453367 c 0.75732,0 14.39951,0.0316 14.98675,0.0316 0,0.6186 -0.0285,10.00962 -0.0624,10.00962 -5.26001,0.0178 -13.45265,-0.014 -14.98423,-0.014 0,-1.16748 0.0599,-7.62459 0.0599,-10.02721 z"
       inkscape:connector-curvature="0"
       id="rect3086-0"
       style="opacity:0.3;color:#000000;fill:none;stroke:#000000;stroke-width:1;stroke-linecap:round;stroke-linejoin:round;stroke-miterlimit:4;stroke-opacity:1;stroke-dasharray:none;stroke-dashoffset:0;marker:none;visibility:visible;display:inline;overflow:visible;enable-background:accumulate" />
    <g
       transform="matrix(0.10981469,0,0,0.10981469,2.9469355,6.0061083)"
       id="layer6"
       style="display:inline">
      <path
         inkscape:connector-curvature="0"
         d="m 12,-95.03125 c -5.5110903,0 -10.03125,4.52016 -10.03125,10.03125 l 0,71 c 0,5.5110902 4.5201598,10.03125 10.03125,10.03125 l 72,0 c 5.51109,0 10.03125,-4.5201597 10.03125,-10.03125 l 0,-71 c 0,-5.51109 -4.52016,-10.03125 -10.03125,-10.03125 l -72,0 z"
         transform="scale(1,-1)"
         id="path3786"
         style="display:inline;opacity:0.07999998;fill:url(#linearGradient4659);fill-opacity:1;fill-rule:nonzero;stroke:none" />
      <path
         inkscape:connector-curvature="0"
         d="m 12,-94.03125 c -4.971633,0 -9.03125,4.059617 -9.03125,9.03125 l 0,71 c 0,4.9716329 4.0596171,9.03125 9.03125,9.03125 l 72,0 c 4.971633,0 9.03125,-4.059617 9.03125,-9.03125 l 0,-71 c 0,-4.971633 -4.059617,-9.03125 -9.03125,-9.03125 l -72,0 z"
         transform="scale(1,-1)"
         id="path3778"
         style="display:inline;opacity:0.1;fill:url(#linearGradient4661);fill-opacity:1;fill-rule:nonzero;stroke:none" />
      <path
         inkscape:connector-curvature="0"
         d="m 12,-93 c -4.4091333,0 -8,3.590867 -8,8 l 0,71 c 0,4.4091333 3.5908667,8 8,8 l 72,0 c 4.409133,0 8,-3.5908667 8,-8 l 0,-71 c 0,-4.409133 -3.590867,-8 -8,-8 l -72,0 z"
         transform="scale(1,-1)"
         id="path3770"
         style="display:inline;opacity:0.2;fill:url(#linearGradient4663);fill-opacity:1;fill-rule:nonzero;stroke:none" />
      <rect
         width="86"
         height="85"
         rx="7"
         ry="7"
         x="5"
         y="-92"
         transform="scale(1,-1)"
         id="rect3723"
         style="display:inline;opacity:0.3;fill:url(#linearGradient4726);fill-opacity:1;fill-rule:nonzero;stroke:none" />
      <rect
         width="84"
         height="84"
         rx="6"
         ry="6"
         x="6"
         y="-91"
         transform="scale(1,-1)"
         id="rect3716"
         style="display:inline;opacity:0.45;fill:url(#linearGradient3721-7);fill-opacity:1;fill-rule:nonzero;stroke:none" />
    </g>
    <g
       transform="matrix(0.10981469,0,0,0.10981469,2.9469355,6.0061083)"
       id="layer1-3">
      <path
         d="M 12,6 C 8.676,6 6,8.676 6,12 l 0,2 0,68 0,2 c 0,0.334721 0.04135,0.6507 0.09375,0.96875 0.0487,0.295596 0.09704,0.596915 0.1875,0.875 0.00988,0.03038 0.020892,0.0636 0.03125,0.09375 0.098865,0.287771 0.2348802,0.547452 0.375,0.8125 0.1445918,0.273507 0.3156161,0.535615 0.5,0.78125 0.1843839,0.245635 0.3737765,0.473472 0.59375,0.6875 0.439947,0.428056 0.94291,0.814526 1.5,1.09375 0.278545,0.139612 0.5734731,0.246947 0.875,0.34375 -0.2562018,-0.100222 -0.4867109,-0.236272 -0.71875,-0.375 -0.00741,-0.0044 -0.023866,0.0045 -0.03125,0 -0.031933,-0.0193 -0.062293,-0.04251 -0.09375,-0.0625 -0.120395,-0.0767 -0.2310226,-0.163513 -0.34375,-0.25 -0.1061728,-0.0808 -0.2132809,-0.161112 -0.3125,-0.25 C 8.4783201,88.557317 8.3087904,88.373362 8.15625,88.1875 8.0486711,88.057245 7.9378561,87.922215 7.84375,87.78125 7.818661,87.74287 7.805304,87.69538 7.78125,87.65625 7.716487,87.553218 7.6510225,87.451733 7.59375,87.34375 7.4927417,87.149044 7.3880752,86.928049 7.3125,86.71875 7.30454,86.69694 7.288911,86.6782 7.28125,86.65625 7.2494249,86.5643 7.2454455,86.469419 7.21875,86.375 7.1884177,86.268382 7.1483606,86.171969 7.125,86.0625 7.0521214,85.720988 7,85.364295 7,85 L 7,83 7,15 7,13 C 7,10.218152 9.2181517,8 12,8 l 2,0 68,0 2,0 c 2.781848,0 5,2.218152 5,5 l 0,2 0,68 0,2 c 0,0.364295 -0.05212,0.720988 -0.125,1.0625 -0.04415,0.206893 -0.08838,0.397658 -0.15625,0.59375 -0.0077,0.02195 -0.0233,0.04069 -0.03125,0.0625 -0.06274,0.173739 -0.138383,0.367449 -0.21875,0.53125 -0.04158,0.0828 -0.07904,0.169954 -0.125,0.25 -0.0546,0.09721 -0.126774,0.18835 -0.1875,0.28125 -0.09411,0.140965 -0.204921,0.275995 -0.3125,0.40625 -0.143174,0.17445 -0.303141,0.346998 -0.46875,0.5 -0.01117,0.0102 -0.01998,0.02115 -0.03125,0.03125 -0.138386,0.125556 -0.285091,0.234436 -0.4375,0.34375 -0.102571,0.07315 -0.204318,0.153364 -0.3125,0.21875 -0.0074,0.0045 -0.02384,-0.0044 -0.03125,0 -0.232039,0.138728 -0.462548,0.274778 -0.71875,0.375 0.301527,-0.0968 0.596455,-0.204138 0.875,-0.34375 0.55709,-0.279224 1.060053,-0.665694 1.5,-1.09375 0.219973,-0.214028 0.409366,-0.441865 0.59375,-0.6875 0.184384,-0.245635 0.355408,-0.507743 0.5,-0.78125 0.14012,-0.265048 0.276135,-0.524729 0.375,-0.8125 0.01041,-0.03078 0.02133,-0.06274 0.03125,-0.09375 0.09046,-0.278085 0.1388,-0.579404 0.1875,-0.875 C 89.95865,84.6507 90,84.334721 90,84 l 0,-2 0,-68 0,-2 C 90,8.676 87.324,6 84,6 L 12,6 Z"
         inkscape:connector-curvature="0"
         id="rect3728"
         style="opacity:0.5;fill:url(#linearGradient3188-6);fill-opacity:1;fill-rule:nonzero;stroke:none" />
      <path
         d="M 90,64.1875 90,84 c 0,3.324 -2.676,6 -6,6 L 12,90 C 8.676,90 6,87.324 6,84 l 0,-19.8125 84,0 z"
         inkscape:connector-curvature="0"
         id="rect3243"
         style="fill:#cacaca;fill-opacity:1;fill-rule:nonzero;stroke:none" />
      <path
         d="m 6,73 0,1 c 0,3.324 2.676,6 6,6 l 72,0 c 3.324,0 6,-2.676 6,-6 l 0,-1 c 0,3.324 -2.676,6 -6,6 L 12,79 C 8.676,79 6,76.324 6,73 Z"
         inkscape:connector-curvature="0"
         id="path3309"
         style="fill:#999999;fill-opacity:1;fill-rule:nonzero;stroke:none" />
      <path
         d="m 90.030615,64.1875 0,19.8125 c 0,3.324 -2.676,6 -6,6 L 64,90 l 0,-25.8125 26.030615,0 z"
         inkscape:connector-curvature="0"
         id="path3285"
         style="opacity:0.8;fill:url(#linearGradient3287-1);fill-opacity:1;fill-rule:nonzero;stroke:none" />
      <path
         d="M 6,64.1875 6,84 c 0,3.324 2.676,6 6,6 l 20,0 0,-25.8125 -26,0 z"
         inkscape:connector-curvature="0"
         id="path3263"
         style="opacity:0.8;fill:url(#linearGradient3279-0);fill-opacity:1;fill-rule:nonzero;stroke:none" />
      <path
         d="M 90,64.1875 90,84 c 0,3.324 -2.676,6 -6,6 L 12,90 C 8.676,90 6,87.324 6,84 l 0,-19.8125 84,0 z"
         inkscape:connector-curvature="0"
         id="path3299"
         style="opacity:0.2;fill:url(#linearGradient3460-9);fill-opacity:1;fill-rule:nonzero;stroke:none" />
      <path
         d="m 6,74 0,6 c 0,3.324 2.676,6 6,6 l 72,0 c 3.324,0 6,-2.676 6,-6 l 0,-6 c 0,3.324 -2.676,6 -6,6 L 12,80 C 8.676,80 6,77.324 6,74 Z"
         inkscape:connector-curvature="0"
         id="path3298"
         style="fill:#252525;fill-opacity:1;fill-rule:nonzero;stroke:none" />
      <path
         d="m 6,80 0,1 c 0,3.324 2.676,6 6,6 l 72,0 c 3.324,0 6,-2.676 6,-6 l 0,-1 c 0,3.324 -2.676,6 -6,6 L 12,86 C 8.676,86 6,83.324 6,80 Z"
         inkscape:connector-curvature="0"
         id="path3304"
         style="fill:#ececec;fill-opacity:1;fill-rule:nonzero;stroke:none" />
      <path
         d="m 6,74 0,2 c 0,3.324 2.676,6 6,6 l 72,0 c 3.324,0 6,-2.676 6,-6 l 0,-2 c 0,3.324 -2.676,6 -6,6 L 12,80 C 8.676,80 6,77.324 6,74 Z"
         inkscape:connector-curvature="0"
         id="path4132"
         style="fill:url(#linearGradient4196-2);fill-opacity:1;fill-rule:nonzero;stroke:none" />
    </g>
    <g
       transform="matrix(0.10981469,0,0,0.10981469,2.9469355,6.0061083)"
       id="layer3"
       style="display:inline">
      <rect
         width="84"
         height="70"
         rx="6"
         ry="6"
         x="6"
         y="6"
         id="rect3171"
         style="fill:url(#linearGradient3179-2);fill-opacity:1;fill-rule:nonzero;stroke:none" />
      <path
         d="M 12,76 C 8.676,76 6,73.324 6,70 L 6,12 C 6,8.676 8.676,6 12,6 l 72,0 c 3.324,0 6,2.676 6,6 l 0,58 c 0,3.324 -2.676,6 -6,6 l -72,0 z m 0,-2 72,0 c 2.781848,0 5,-2.195392 5,-4.9375 l 0,-57.125 C 89,9.195393 86.781848,6.999999 84,7 L 12,7 C 9.2181517,7 7,9.195389 7,11.9375 l 0,57.125 C 7,71.804608 9.2181517,74 12,74 Z"
         inkscape:connector-curvature="0"
         id="rect3213"
         style="opacity:0.7;fill:url(#linearGradient3551-2);fill-opacity:1;fill-rule:nonzero;stroke:none" />
      <path
         d="m 90,70 0,1 c 0,3.324 -2.676,6 -6,6 L 12,77 C 8.676,77 6,74.324 6,71 l 0,-1 c 0,2.984862 2.152831,5.43487 5,5.90625 C 11.326884,75.971636 11.652269,76 12,76 l 72,0 c 0.166304,0 0.337194,-0.01811 0.5,-0.03125 0.04161,-0.0041 0.08371,0.0051 0.125,0 C 84.752873,75.95584 84.874673,75.927 85,75.90625 87.847169,75.43487 90,72.984862 90,70 Z"
         inkscape:connector-curvature="0"
         id="path3443"
         style="opacity:0.1;fill:url(#linearGradient3454-9);fill-opacity:1;fill-rule:nonzero;stroke:none" />
      <path
         d="M 72.785673,73.316552 C 37.497632,71.660468 32.655921,60.569503 56.214438,35.565764 29.558784,43.997531 16.947902,55.85465 7.5798689,63.939487 -2.370079,72.601777 6.9889853,83.779979 17.934257,82.851623 c 11.343001,-0.0075 45.801874,-2.097861 54.851416,-9.535071 z"
         inkscape:connector-curvature="0"
         transform="translate(0,-2)"
         clip-path="url(#clipPath3785-6-2)"
         id="path3295"
         style="opacity:0.3;fill:url(#linearGradient3781-3);fill-opacity:1;fill-rule:evenodd;stroke:none;filter:url(#filter3829-6-0)" />
    </g>
    <g
       transform="matrix(0.10981469,0,0,0.10981469,2.9469355,6.0061083)"
       id="layer5"
       style="display:inline">
      <rect
         width="74.178574"
         height="5.9999933"
         rx="6.7435069"
         ry="5.9999933"
         x="10.910714"
         y="80.000008"
         id="rect3323"
         style="display:inline;opacity:1;fill:#00c7ff;fill-opacity:1;fill-rule:nonzero;stroke:none;filter:url(#filter4180-6-3)" />
      <rect
         width="64"
         height="4"
         rx="5.818182"
         ry="4"
         x="16"
         y="81"
         id="rect3311"
         style="display:inline;opacity:1;fill:url(#radialGradient4138-5-7);fill-opacity:1;fill-rule:nonzero;stroke:none" />
    </g>
    <g
       style="fill:#2e5d4b;fill-opacity:1"
       id="layer6-3"
       transform="matrix(0.10981469,0,0,0.10981469,2.9469355,4.6884481)">
      <path
         inkscape:connector-curvature="0"
         style="opacity:0.9;fill:#2e5d4b;fill-opacity:1;stroke:none"
         id="path3717"
         d="M 48,32 C 37.25126,32 26.51351,36.11149 18.3125,44.3125 L 23.25,49.25 c 13.66835,-13.66835 35.83165,-13.66835 49.5,0 l 4.9375,-4.9375 C 69.48649,36.11149 58.74874,32 48,32 Z m 0,14 c -7.16583,0 -14.34516,2.72016 -19.8125,8.1875 l 4.96875,4.96875 c 8.20101,-8.20101 21.48649,-8.20101 29.6875,0 L 67.8125,54.1875 C 62.34516,48.72016 55.16582,46 48,46 Z m 0,14 c -3.58291,0 -7.17258,1.36008 -9.90625,4.09375 L 48,74 57.90625,64.09375 C 55.17258,61.36008 51.58291,60 48,60 Z" />
      <path
         inkscape:connector-curvature="0"
         style="opacity:0.25;fill:#2e5d4b;fill-opacity:1;stroke:none"
         id="path3920"
         d="M 48,32 C 37.25126,32 26.51351,36.11149 18.3125,44.3125 L 23.25,49.25 c 13.66835,-13.66835 35.83165,-13.66835 49.5,0 l 4.9375,-4.9375 C 69.48649,36.11149 58.74874,32 48,32 Z m 0,1.9375 c 9.634016,0 19.191168,3.585307 26.8125,10.5 L 72.625,46.625 c -14.004357,-12.590034 -35.245643,-12.590034 -49.25,0 L 21.1875,44.4375 C 28.808832,37.522807 38.365984,33.9375 48,33.9375 Z M 48,46 c -7.16583,0 -14.34516,2.72016 -19.8125,8.1875 l 4.96875,4.96875 c 8.20101,-8.20101 21.48649,-8.20101 29.6875,0 L 67.8125,54.1875 C 62.34516,48.72016 55.16582,46 48,46 Z m 0,1.9375 c 6.055974,0 12.063379,2.183175 16.9375,6.375 l -2.21875,2.21875 c -8.505192,-7.1633 -20.932308,-7.1633 -29.4375,0 L 31.0625,54.3125 C 35.93662,50.120674 41.944017,47.9375 48,47.9375 Z M 48,60 c -3.58291,0 -7.17258,1.36008 -9.90625,4.09375 L 48,74 57.90625,64.09375 C 55.17258,61.36008 51.58291,60 48,60 Z m 0,1.9375 c 2.450727,0 4.791706,0.957137 6.875,2.4375 L 48,71.25 41.125,64.375 C 43.208294,62.894637 45.549273,61.9375 48,61.9375 Z" />
      <path
         inkscape:connector-curvature="0"
         style="opacity:0.5;fill:#2e5d4b;fill-opacity:1;stroke:none"
         id="path3907"
         d="M 48,32 C 37.25126,32 26.51351,36.11149 18.3125,44.3125 L 23.25,49.25 c 13.66835,-13.66835 35.83165,-13.66835 49.5,0 l 4.9375,-4.9375 C 69.48649,36.11149 58.74874,32 48,32 Z m 0,1.03125 c 10.164734,0 20.283568,3.822257 28.1875,11.34375 l -3.5,3.5 c -13.860522,-13.096513 -35.514478,-13.096513 -49.375,0 l -3.5,-3.5 C 27.716432,36.853507 37.835266,33.03125 48,33.03125 Z M 48,46 c -7.16583,0 -14.34516,2.72016 -19.8125,8.1875 l 4.96875,4.96875 c 8.20101,-8.20101 21.48649,-8.20101 29.6875,0 L 67.8125,54.1875 C 62.34516,48.72016 55.16582,46 48,46 Z m 0,1.03125 c 6.583583,0 13.146038,2.430754 18.3125,7.21875 l -3.53125,3.53125 c -8.381706,-7.634738 -21.180794,-7.634738 -29.5625,0 L 29.6875,54.25 C 34.853961,49.462004 41.416407,47.03125 48,47.03125 Z M 48,60 c -3.58291,0 -7.17258,1.36008 -9.90625,4.09375 L 48,74 57.90625,64.09375 C 55.17258,61.36008 51.58291,60 48,60 Z m 0,1.03125 c 2.999513,0 5.98577,1.060256 8.40625,3.125 L 48,72.5625 39.59375,64.15625 c 2.42048,-2.064744 5.406737,-3.125 8.40625,-3.125 z" />
      <path
         inkscape:connector-curvature="0"
         style="fill:#2e5d4b;fill-opacity:1;stroke:none"
         id="path3898"
         d="M 48,32 C 37.25126,32 26.51351,36.11149 18.3125,44.3125 l 0.5,0.5 C 26.946568,36.942243 37.470531,33 48,33 c 10.529469,0 21.053432,3.942243 29.1875,11.8125 l 0.5,-0.5 C 69.48649,36.11149 58.74874,32 48,32 Z m 0,14 c -7.16583,0 -14.34516,2.72016 -19.8125,8.1875 l 0.5,0.5 C 34.08716,49.552139 41.054605,47 48,47 c 6.945385,0 13.91284,2.552139 19.3125,7.6875 l 0.5,-0.5 C 62.34516,48.72016 55.16582,46 48,46 Z m 0,14 c -3.58291,0 -7.17258,1.36008 -9.90625,4.09375 L 38.625,64.625 C 41.286187,62.2184 44.637743,61 48,61 c 3.362257,0 6.713813,1.2184 9.375,3.625 l 0.53125,-0.53125 C 55.17258,61.36008 51.58291,60 48,60 Z" />
      <path
         inkscape:connector-curvature="0"
         style="opacity:0.05;fill:#2e5d4b;fill-opacity:1;stroke:none"
         id="path3942"
         d="m 48,30 c -11.258055,0 -22.51257,4.32507 -31.09375,12.90625 -0.0015,0.0015 -0.06111,0.06096 -0.0625,0.0625 -0.0014,0.0015 -0.06119,0.09215 -0.0625,0.09375 -0.0013,0.0016 -0.06127,0.06083 -0.0625,0.0625 -0.0012,0.0017 -0.06135,0.09203 -0.0625,0.09375 -0.0012,0.0017 -0.06143,0.06072 -0.0625,0.0625 -0.0011,0.0018 -0.03027,0.09192 -0.03125,0.09375 -9.77e-4,0.0018 -0.06161,0.09188 -0.0625,0.09375 -8.86e-4,0.0019 -0.03046,0.09183 -0.03125,0.09375 -7.93e-4,0.0019 -0.03055,0.0918 -0.03125,0.09375 -6.98e-4,0.002 -0.03065,0.06052 -0.03125,0.0625 -6.01e-4,0.002 -0.03075,0.09174 -0.03125,0.09375 -5.03e-4,0.002 -0.03085,0.122967 -0.03125,0.125 -4.04e-4,0.002 3.04e-4,0.0917 0,0.09375 -3.04e-4,0.0021 -0.03105,0.09169 -0.03125,0.09375 -2.03e-4,0.0021 1.02e-4,0.09168 0,0.09375 -1.02e-4,0.0021 0,0.09168 0,0.09375 0,0.0021 -1.02e-4,0.09168 0,0.09375 1.02e-4,0.0021 -2.03e-4,0.09169 0,0.09375 2.03e-4,0.0021 0.03095,0.0917 0.03125,0.09375 3.04e-4,0.0021 -4.04e-4,0.09172 0,0.09375 4.04e-4,0.002 0.03075,0.122989 0.03125,0.125 5.03e-4,0.002 0.03065,0.09177 0.03125,0.09375 6.01e-4,0.002 0.03055,0.06055 0.03125,0.0625 6.98e-4,0.002 0.03046,0.09183 0.03125,0.09375 7.93e-4,0.0019 0.03036,0.09188 0.03125,0.09375 8.86e-4,0.0019 0.06152,0.09192 0.0625,0.09375 9.77e-4,0.0018 0.03018,0.09197 0.03125,0.09375 0.0011,0.0018 0.06135,0.06078 0.0625,0.0625 0.0012,0.0017 0.06127,0.09208 0.0625,0.09375 0.0012,0.0017 0.06119,0.0609 0.0625,0.0625 0.0013,0.0016 0.06111,0.09221 0.0625,0.09375 0.0014,0.0015 0.06104,0.06103 0.0625,0.0625 l 4.9375,4.9375 c 0.0015,0.0015 0.06096,0.06111 0.0625,0.0625 0.0015,0.0014 0.09215,0.06119 0.09375,0.0625 0.0016,0.0013 0.06083,0.06127 0.0625,0.0625 0.0017,0.0012 0.09203,0.06135 0.09375,0.0625 0.0017,0.0012 0.06072,0.06144 0.0625,0.0625 0.0018,0.0011 0.09192,0.03027 0.09375,0.03125 0.0018,9.77e-4 0.09188,0.06161 0.09375,0.0625 0.0019,8.86e-4 0.09183,0.03046 0.09375,0.03125 0.0019,7.93e-4 0.0918,0.03055 0.09375,0.03125 0.002,6.98e-4 0.06052,0.03065 0.0625,0.03125 0.002,6.01e-4 0.09174,0.03075 0.09375,0.03125 0.002,5.03e-4 0.122967,0.03085 0.125,0.03125 0.002,4.04e-4 0.0917,-3.04e-4 0.09375,0 0.0021,3.04e-4 0.09169,0.03105 0.09375,0.03125 0.0021,2.03e-4 0.09168,-1.02e-4 0.09375,0 0.0021,1.02e-4 0.09168,0 0.09375,0 0.0021,0 0.09168,1.02e-4 0.09375,0 0.0021,-1.02e-4 0.09169,2.03e-4 0.09375,0 0.0021,-2.03e-4 0.0917,-0.03095 0.09375,-0.03125 0.0021,-3.04e-4 0.09172,4.04e-4 0.09375,0 0.002,-4.04e-4 0.122989,-0.03075 0.125,-0.03125 0.002,-5.03e-4 0.09177,-0.03065 0.09375,-0.03125 0.002,-6.01e-4 0.06055,-0.03055 0.0625,-0.03125 0.002,-6.98e-4 0.09183,-0.03046 0.09375,-0.03125 0.0019,-7.93e-4 0.09188,-0.03036 0.09375,-0.03125 0.0019,-8.86e-4 0.09192,-0.06152 0.09375,-0.0625 0.0018,-9.77e-4 0.09197,-0.03019 0.09375,-0.03125 0.0018,-0.0011 0.06078,-0.06135 0.0625,-0.0625 0.0017,-0.0012 0.09208,-0.06127 0.09375,-0.0625 0.0017,-0.0012 0.0609,-0.06119 0.0625,-0.0625 0.0016,-0.0013 0.09221,-0.06111 0.09375,-0.0625 0.0015,-0.0014 0.06103,-0.06103 0.0625,-0.0625 12.906109,-12.906109 33.781391,-12.906109 46.6875,0 0.0015,0.0015 0.06096,0.06111 0.0625,0.0625 0.0015,0.0014 0.09215,0.06119 0.09375,0.0625 0.0016,0.0013 0.06083,0.06127 0.0625,0.0625 0.0017,0.0012 0.09203,0.06135 0.09375,0.0625 0.0017,0.0012 0.06072,0.06144 0.0625,0.0625 0.0018,0.0011 0.09192,0.03027 0.09375,0.03125 0.0018,9.77e-4 0.09188,0.06161 0.09375,0.0625 0.0019,8.86e-4 0.09183,0.03046 0.09375,0.03125 0.0019,7.93e-4 0.0918,0.03055 0.09375,0.03125 0.002,6.98e-4 0.06052,0.03065 0.0625,0.03125 0.002,6.01e-4 0.09174,0.03075 0.09375,0.03125 0.002,5.03e-4 0.122967,0.03085 0.125,0.03125 0.002,4.04e-4 0.0917,-3.04e-4 0.09375,0 0.0021,3.04e-4 0.09169,0.03105 0.09375,0.03125 0.0021,2.03e-4 0.09168,-1.02e-4 0.09375,0 0.0021,1.02e-4 0.09168,0 0.09375,0 0.0021,0 0.09168,1.02e-4 0.09375,0 0.0021,-1.02e-4 0.09169,2.03e-4 0.09375,0 0.0021,-2.03e-4 0.0917,-0.03095 0.09375,-0.03125 0.0021,-3.04e-4 0.09172,4.04e-4 0.09375,0 0.002,-4.04e-4 0.122989,-0.03075 0.125,-0.03125 0.002,-5.03e-4 0.09177,-0.03065 0.09375,-0.03125 0.002,-6.01e-4 0.06055,-0.03055 0.0625,-0.03125 0.002,-6.98e-4 0.09183,-0.03046 0.09375,-0.03125 0.0019,-7.93e-4 0.09188,-0.03036 0.09375,-0.03125 0.0019,-8.86e-4 0.09192,-0.06152 0.09375,-0.0625 0.0018,-9.77e-4 0.09197,-0.03019 0.09375,-0.03125 0.0018,-0.0011 0.06078,-0.06135 0.0625,-0.0625 0.0017,-0.0012 0.09208,-0.06127 0.09375,-0.0625 0.0017,-0.0012 0.0609,-0.06119 0.0625,-0.0625 0.0016,-0.0013 0.09221,-0.06111 0.09375,-0.0625 0.0015,-0.0014 0.06103,-0.06103 0.0625,-0.0625 l 4.9375,-4.9375 c 0.0015,-0.0015 0.06111,-0.06096 0.0625,-0.0625 0.0014,-0.0015 0.06119,-0.09215 0.0625,-0.09375 0.0013,-0.0016 0.06127,-0.06083 0.0625,-0.0625 0.0012,-0.0017 0.06135,-0.09203 0.0625,-0.09375 0.0012,-0.0017 0.06144,-0.06072 0.0625,-0.0625 0.0011,-0.0018 0.03027,-0.09192 0.03125,-0.09375 9.77e-4,-0.0018 0.06161,-0.09188 0.0625,-0.09375 8.86e-4,-0.0019 0.03046,-0.09183 0.03125,-0.09375 7.93e-4,-0.0019 0.03055,-0.0918 0.03125,-0.09375 6.98e-4,-0.002 0.03065,-0.06052 0.03125,-0.0625 6.01e-4,-0.002 0.03075,-0.09174 0.03125,-0.09375 5.03e-4,-0.002 0.03085,-0.122967 0.03125,-0.125 4.04e-4,-0.002 -3.04e-4,-0.0917 0,-0.09375 3.04e-4,-0.0021 0.03105,-0.09169 0.03125,-0.09375 2.03e-4,-0.0021 -1.02e-4,-0.09168 0,-0.09375 1.02e-4,-0.0021 0,-0.09168 0,-0.09375 0,-0.0021 1.02e-4,-0.09168 0,-0.09375 -1.02e-4,-0.0021 2.03e-4,-0.09169 0,-0.09375 -2.03e-4,-0.0021 -0.03095,-0.0917 -0.03125,-0.09375 -3.04e-4,-0.0021 4.04e-4,-0.09172 0,-0.09375 -4.04e-4,-0.002 -0.03075,-0.122989 -0.03125,-0.125 -5.03e-4,-0.002 -0.03065,-0.09177 -0.03125,-0.09375 -6.01e-4,-0.002 -0.03055,-0.06055 -0.03125,-0.0625 -6.98e-4,-0.002 -0.03046,-0.09183 -0.03125,-0.09375 -7.93e-4,-0.0019 -0.03036,-0.09188 -0.03125,-0.09375 -8.86e-4,-0.0019 -0.06152,-0.09192 -0.0625,-0.09375 -9.77e-4,-0.0018 -0.03019,-0.09197 -0.03125,-0.09375 -0.0011,-0.0018 -0.06135,-0.06078 -0.0625,-0.0625 -0.0012,-0.0017 -0.06127,-0.09208 -0.0625,-0.09375 -0.0012,-0.0017 -0.06119,-0.0609 -0.0625,-0.0625 -0.0013,-0.0016 -0.06111,-0.09221 -0.0625,-0.09375 -0.0014,-0.0015 -0.06104,-0.06103 -0.0625,-0.0625 C 70.51257,34.32507 59.258055,30 48,30 Z m 0,2 c 10.74874,0 21.48649,4.11149 29.6875,12.3125 L 72.75,49.25 C 59.08165,35.58165 36.91835,35.58165 23.25,49.25 L 18.3125,44.3125 C 26.51351,36.11149 37.25126,32 48,32 Z m 0,12 c -7.671436,0 -15.367651,2.930151 -21.21875,8.78125 -0.0015,0.0015 -0.06111,0.06096 -0.0625,0.0625 -0.0014,0.0015 -0.06119,0.09215 -0.0625,0.09375 -0.0013,0.0016 -0.06127,0.06083 -0.0625,0.0625 -0.0012,0.0017 -0.06135,0.09203 -0.0625,0.09375 -0.0012,0.0017 -0.06143,0.06072 -0.0625,0.0625 -0.0011,0.0018 -0.03027,0.09192 -0.03125,0.09375 -9.77e-4,0.0018 -0.06161,0.09188 -0.0625,0.09375 -8.86e-4,0.0019 -0.03046,0.09183 -0.03125,0.09375 -7.93e-4,0.0019 -0.03055,0.0918 -0.03125,0.09375 -6.98e-4,0.002 -0.03065,0.06052 -0.03125,0.0625 -6.01e-4,0.002 -0.03075,0.09174 -0.03125,0.09375 -5.03e-4,0.002 -0.03085,0.122967 -0.03125,0.125 -4.04e-4,0.002 3.04e-4,0.0917 0,0.09375 -3.04e-4,0.0021 -0.03105,0.09169 -0.03125,0.09375 -2.03e-4,0.0021 1.02e-4,0.09168 0,0.09375 -1.02e-4,0.0021 0,0.09168 0,0.09375 0,0.0021 -1.02e-4,0.09168 0,0.09375 1.02e-4,0.0021 -2.03e-4,0.09169 0,0.09375 2.03e-4,0.0021 0.03095,0.0917 0.03125,0.09375 3.04e-4,0.0021 -4.04e-4,0.09172 0,0.09375 4.04e-4,0.002 0.03075,0.122989 0.03125,0.125 5.03e-4,0.002 0.03065,0.09177 0.03125,0.09375 6.01e-4,0.002 0.03055,0.06055 0.03125,0.0625 6.98e-4,0.002 0.03046,0.09183 0.03125,0.09375 7.93e-4,0.0019 0.03036,0.09188 0.03125,0.09375 8.86e-4,0.0019 0.06152,0.09192 0.0625,0.09375 9.77e-4,0.0018 0.03018,0.09197 0.03125,0.09375 0.0011,0.0018 0.06135,0.06078 0.0625,0.0625 0.0012,0.0017 0.06127,0.09208 0.0625,0.09375 0.0012,0.0017 0.06119,0.0609 0.0625,0.0625 0.0013,0.0016 0.06111,0.09221 0.0625,0.09375 0.0014,0.0015 0.06104,0.06103 0.0625,0.0625 L 31.75,60.5625 c 0.0015,0.0015 0.06096,0.06111 0.0625,0.0625 0.0015,0.0014 0.09215,0.06119 0.09375,0.0625 0.0016,0.0013 0.06083,0.06127 0.0625,0.0625 0.0017,0.0012 0.09203,0.06135 0.09375,0.0625 0.0017,0.0012 0.06072,0.06144 0.0625,0.0625 0.0018,0.0011 0.09192,0.03027 0.09375,0.03125 0.0018,9.77e-4 0.09188,0.06161 0.09375,0.0625 0.0019,8.86e-4 0.09183,0.03046 0.09375,0.03125 0.0019,7.93e-4 0.0918,0.03055 0.09375,0.03125 0.002,6.98e-4 0.06052,0.03065 0.0625,0.03125 0.002,6.01e-4 0.09174,0.03075 0.09375,0.03125 0.002,5.03e-4 0.122967,0.03085 0.125,0.03125 0.002,4.04e-4 0.0917,-3.04e-4 0.09375,0 0.0021,3.04e-4 0.09169,0.03105 0.09375,0.03125 0.0021,2.03e-4 0.09168,-1.02e-4 0.09375,0 0.0021,1.02e-4 0.09168,0 0.09375,0 0.0021,0 0.09168,1.02e-4 0.09375,0 0.0021,-1.02e-4 0.09169,2.03e-4 0.09375,0 0.0021,-2.03e-4 0.0917,-0.03095 0.09375,-0.03125 0.0021,-3.04e-4 0.09172,4.04e-4 0.09375,0 0.002,-4.04e-4 0.122989,-0.03075 0.125,-0.03125 0.002,-5.03e-4 0.09177,-0.03065 0.09375,-0.03125 0.002,-6.01e-4 0.06055,-0.03055 0.0625,-0.03125 0.002,-6.98e-4 0.09183,-0.03046 0.09375,-0.03125 0.0019,-7.93e-4 0.09188,-0.03036 0.09375,-0.03125 0.0019,-8.86e-4 0.09192,-0.06152 0.09375,-0.0625 0.0018,-9.77e-4 0.09197,-0.03019 0.09375,-0.03125 0.0018,-0.0011 0.06078,-0.06135 0.0625,-0.0625 0.0017,-0.0012 0.09208,-0.06127 0.09375,-0.0625 0.0017,-0.0012 0.0609,-0.06119 0.0625,-0.0625 0.0016,-0.0013 0.09221,-0.06111 0.09375,-0.0625 0.0015,-0.0014 0.06103,-0.06103 0.0625,-0.0625 7.439906,-7.439906 19.435094,-7.439906 26.875,0 0.0015,0.0015 0.06096,0.06111 0.0625,0.0625 0.0015,0.0014 0.09215,0.06119 0.09375,0.0625 0.0016,0.0013 0.06083,0.06127 0.0625,0.0625 0.0017,0.0012 0.09203,0.06135 0.09375,0.0625 0.0017,0.0012 0.06072,0.06144 0.0625,0.0625 0.0018,0.0011 0.09192,0.03027 0.09375,0.03125 0.0018,9.77e-4 0.09188,0.06161 0.09375,0.0625 0.0019,8.86e-4 0.09183,0.03046 0.09375,0.03125 0.0019,7.93e-4 0.0918,0.03055 0.09375,0.03125 0.002,6.98e-4 0.06052,0.03065 0.0625,0.03125 0.002,6.01e-4 0.09174,0.03075 0.09375,0.03125 0.002,5.03e-4 0.122967,0.03085 0.125,0.03125 0.002,4.04e-4 0.0917,-3.04e-4 0.09375,0 0.0021,3.04e-4 0.09169,0.03105 0.09375,0.03125 0.0021,2.03e-4 0.09168,-1.02e-4 0.09375,0 0.0021,1.02e-4 0.09168,0 0.09375,0 0.0021,0 0.09168,1.02e-4 0.09375,0 0.0021,-1.02e-4 0.09169,2.03e-4 0.09375,0 0.0021,-2.03e-4 0.0917,-0.03095 0.09375,-0.03125 0.0021,-3.04e-4 0.09172,4.04e-4 0.09375,0 0.002,-4.04e-4 0.122989,-0.03075 0.125,-0.03125 0.002,-5.03e-4 0.09177,-0.03065 0.09375,-0.03125 0.002,-6.01e-4 0.06055,-0.03055 0.0625,-0.03125 0.002,-6.98e-4 0.09183,-0.03046 0.09375,-0.03125 0.0019,-7.93e-4 0.09188,-0.03036 0.09375,-0.03125 0.0019,-8.86e-4 0.09192,-0.06152 0.09375,-0.0625 0.0018,-9.77e-4 0.09197,-0.03019 0.09375,-0.03125 0.0018,-0.0011 0.06078,-0.06135 0.0625,-0.0625 0.0017,-0.0012 0.09208,-0.06127 0.09375,-0.0625 0.0017,-0.0012 0.0609,-0.06119 0.0625,-0.0625 0.0016,-0.0013 0.09221,-0.06111 0.09375,-0.0625 0.0015,-0.0014 0.06103,-0.06103 0.0625,-0.0625 l 4.96875,-4.96875 c 0.0015,-0.0015 0.06111,-0.06096 0.0625,-0.0625 0.0014,-0.0015 0.06119,-0.09215 0.0625,-0.09375 0.0013,-0.0016 0.06127,-0.06083 0.0625,-0.0625 0.0012,-0.0017 0.06135,-0.09203 0.0625,-0.09375 0.0012,-0.0017 0.06144,-0.06072 0.0625,-0.0625 0.0011,-0.0018 0.03027,-0.09192 0.03125,-0.09375 9.77e-4,-0.0018 0.06161,-0.09188 0.0625,-0.09375 8.86e-4,-0.0019 0.03046,-0.09183 0.03125,-0.09375 7.93e-4,-0.0019 0.03055,-0.0918 0.03125,-0.09375 6.98e-4,-0.002 0.03065,-0.06052 0.03125,-0.0625 6.01e-4,-0.002 0.03075,-0.09174 0.03125,-0.09375 5.03e-4,-0.002 0.03085,-0.122967 0.03125,-0.125 4.04e-4,-0.002 -3.04e-4,-0.0917 0,-0.09375 3.04e-4,-0.0021 0.03105,-0.09169 0.03125,-0.09375 2.03e-4,-0.0021 -1.02e-4,-0.09168 0,-0.09375 1.02e-4,-0.0021 0,-0.09168 0,-0.09375 0,-0.0021 1.02e-4,-0.09168 0,-0.09375 -1.02e-4,-0.0021 2.03e-4,-0.09169 0,-0.09375 -2.03e-4,-0.0021 -0.03095,-0.0917 -0.03125,-0.09375 -3.04e-4,-0.0021 4.04e-4,-0.09172 0,-0.09375 -4.04e-4,-0.002 -0.03075,-0.122989 -0.03125,-0.125 -5.03e-4,-0.002 -0.03065,-0.09177 -0.03125,-0.09375 -6.01e-4,-0.002 -0.03055,-0.06055 -0.03125,-0.0625 -6.98e-4,-0.002 -0.03046,-0.09183 -0.03125,-0.09375 -7.93e-4,-0.0019 -0.03036,-0.09188 -0.03125,-0.09375 -8.86e-4,-0.0019 -0.06152,-0.09192 -0.0625,-0.09375 -9.77e-4,-0.0018 -0.03019,-0.09197 -0.03125,-0.09375 -0.0011,-0.0018 -0.06135,-0.06078 -0.0625,-0.0625 -0.0012,-0.0017 -0.06127,-0.09208 -0.0625,-0.09375 -0.0012,-0.0017 -0.06119,-0.0609 -0.0625,-0.0625 -0.0013,-0.0016 -0.06111,-0.09221 -0.0625,-0.09375 -0.0014,-0.0015 -0.06104,-0.06103 -0.0625,-0.0625 C 63.367651,46.930151 55.671427,44 48,44 Z m 0,2 c 7.16582,0 14.34516,2.72016 19.8125,8.1875 l -4.96875,4.96875 c -8.20101,-8.20101 -21.48649,-8.20101 -29.6875,0 L 28.1875,54.1875 C 33.65484,48.72016 40.83417,46 48,46 Z m 0,12 c -4.089027,0 -8.194979,1.569979 -11.3125,4.6875 -0.0015,0.0015 -0.06111,0.06096 -0.0625,0.0625 -0.0014,0.0015 -0.06119,0.09215 -0.0625,0.09375 -0.0013,0.0016 -0.06127,0.06083 -0.0625,0.0625 -0.0012,0.0017 -0.06135,0.09203 -0.0625,0.09375 -0.0012,0.0017 -0.06144,0.06072 -0.0625,0.0625 -0.0011,0.0018 -0.03027,0.09192 -0.03125,0.09375 -9.77e-4,0.0018 -0.06161,0.09188 -0.0625,0.09375 -8.86e-4,0.0019 -0.03046,0.09183 -0.03125,0.09375 -7.93e-4,0.0019 -0.03055,0.0918 -0.03125,0.09375 -6.98e-4,0.002 -0.03065,0.06052 -0.03125,0.0625 -6.01e-4,0.002 -0.03075,0.09174 -0.03125,0.09375 -5.03e-4,0.002 -0.03085,0.122967 -0.03125,0.125 -4.04e-4,0.002 3.04e-4,0.0917 0,0.09375 -3.04e-4,0.0021 -0.03105,0.09169 -0.03125,0.09375 -2.03e-4,0.0021 1.02e-4,0.09168 0,0.09375 -1.02e-4,0.0021 0,0.09168 0,0.09375 0,0.0021 -1.02e-4,0.09168 0,0.09375 1.02e-4,0.0021 -2.03e-4,0.09169 0,0.09375 2.03e-4,0.0021 0.03095,0.0917 0.03125,0.09375 3.04e-4,0.0021 -4.04e-4,0.09172 0,0.09375 4.04e-4,0.002 0.03075,0.122989 0.03125,0.125 5.03e-4,0.002 0.03065,0.09177 0.03125,0.09375 6.01e-4,0.002 0.03055,0.06055 0.03125,0.0625 6.98e-4,0.002 0.03046,0.09183 0.03125,0.09375 7.93e-4,0.0019 0.03036,0.09188 0.03125,0.09375 8.86e-4,0.0019 0.06152,0.09192 0.0625,0.09375 9.77e-4,0.0018 0.03019,0.09197 0.03125,0.09375 0.0011,0.0018 0.06135,0.06078 0.0625,0.0625 0.0012,0.0017 0.06127,0.09208 0.0625,0.09375 0.0012,0.0017 0.06119,0.0609 0.0625,0.0625 0.0013,0.0016 0.06111,0.09221 0.0625,0.09375 0.0014,0.0015 0.06103,0.06103 0.0625,0.0625 l 9.90625,9.90625 c 0.0015,0.0015 0.06096,0.06111 0.0625,0.0625 0.0015,0.0014 0.09215,0.06119 0.09375,0.0625 0.0016,0.0013 0.06083,0.06127 0.0625,0.0625 0.0017,0.0012 0.09203,0.06135 0.09375,0.0625 0.0017,0.0012 0.06072,0.06144 0.0625,0.0625 0.0018,0.0011 0.09192,0.03027 0.09375,0.03125 0.0018,9.77e-4 0.09188,0.06161 0.09375,0.0625 0.0019,8.86e-4 0.09183,0.03046 0.09375,0.03125 0.0019,7.93e-4 0.0918,0.03055 0.09375,0.03125 0.002,6.98e-4 0.06052,0.03065 0.0625,0.03125 0.002,6.01e-4 0.09174,0.03075 0.09375,0.03125 0.002,5.03e-4 0.122967,0.03085 0.125,0.03125 0.002,4.04e-4 0.0917,-3.04e-4 0.09375,0 0.0021,3.04e-4 0.09169,0.03105 0.09375,0.03125 0.0021,2.03e-4 0.09168,-1.02e-4 0.09375,0 0.0021,1.02e-4 0.09168,0 0.09375,0 0.0021,0 0.09168,1.02e-4 0.09375,0 0.0021,-1.02e-4 0.09169,2.03e-4 0.09375,0 0.0021,-2.03e-4 0.0917,-0.03095 0.09375,-0.03125 0.0021,-3.04e-4 0.09172,4.04e-4 0.09375,0 0.002,-4.04e-4 0.122989,-0.03075 0.125,-0.03125 0.002,-5.03e-4 0.09177,-0.03065 0.09375,-0.03125 0.002,-6.01e-4 0.06055,-0.03055 0.0625,-0.03125 0.002,-6.98e-4 0.09183,-0.03046 0.09375,-0.03125 0.0019,-7.93e-4 0.09188,-0.03036 0.09375,-0.03125 0.0019,-8.86e-4 0.09192,-0.06152 0.09375,-0.0625 0.0018,-9.77e-4 0.09197,-0.03019 0.09375,-0.03125 0.0018,-0.0011 0.06078,-0.06135 0.0625,-0.0625 0.0017,-0.0012 0.09208,-0.06127 0.09375,-0.0625 0.0017,-0.0012 0.0609,-0.06119 0.0625,-0.0625 0.0016,-0.0013 0.09221,-0.06111 0.09375,-0.0625 0.0015,-0.0014 0.06103,-0.06104 0.0625,-0.0625 L 59.3125,65.5 c 0.0015,-0.0015 0.06111,-0.06096 0.0625,-0.0625 0.0014,-0.0015 0.06119,-0.09215 0.0625,-0.09375 0.0013,-0.0016 0.06127,-0.06083 0.0625,-0.0625 0.0012,-0.0017 0.06135,-0.09203 0.0625,-0.09375 0.0012,-0.0017 0.06144,-0.06072 0.0625,-0.0625 0.0011,-0.0018 0.03027,-0.09192 0.03125,-0.09375 9.77e-4,-0.0018 0.06161,-0.09188 0.0625,-0.09375 8.86e-4,-0.0019 0.03046,-0.09183 0.03125,-0.09375 7.93e-4,-0.0019 0.03055,-0.0918 0.03125,-0.09375 6.98e-4,-0.002 0.03065,-0.06052 0.03125,-0.0625 6.01e-4,-0.002 0.03075,-0.09174 0.03125,-0.09375 5.03e-4,-0.002 0.03085,-0.122967 0.03125,-0.125 4.04e-4,-0.002 -3.04e-4,-0.0917 0,-0.09375 3.04e-4,-0.0021 0.03105,-0.09169 0.03125,-0.09375 2.03e-4,-0.0021 -1.02e-4,-0.09168 0,-0.09375 1.02e-4,-0.0021 0,-0.09168 0,-0.09375 0,-0.0021 1.02e-4,-0.09168 0,-0.09375 -1.02e-4,-0.0021 2.03e-4,-0.09169 0,-0.09375 -2.03e-4,-0.0021 -0.03095,-0.0917 -0.03125,-0.09375 -3.04e-4,-0.0021 4.04e-4,-0.09172 0,-0.09375 -4.04e-4,-0.002 -0.03075,-0.122989 -0.03125,-0.125 C 59.843247,63.59175 59.8131,63.50198 59.8125,63.5 59.811899,63.498 59.78195,63.43945 59.78125,63.4375 59.780552,63.4355 59.75079,63.34567 59.75,63.34375 59.749207,63.34185 59.71964,63.25187 59.71875,63.25 59.717864,63.2481 59.65723,63.15808 59.65625,63.15625 59.655273,63.15445 59.62606,63.06428 59.625,63.0625 59.6239,63.0607 59.56365,63.00172 59.5625,63 59.5613,62.9983 59.50123,62.90792 59.5,62.90625 59.4988,62.90455 59.43881,62.84535 59.4375,62.84375 59.4362,62.84215 59.37639,62.75154 59.375,62.75 59.3736,62.7485 59.31397,62.68897 59.3125,62.6875 56.194979,59.569979 52.089027,58 48,58 Z m 0,2 c 3.58291,0 7.17258,1.36008 9.90625,4.09375 L 48,74 38.09375,64.09375 C 40.82742,61.36008 44.41709,60 48,60 Z" />
      <path
         inkscape:connector-curvature="0"
         style="opacity:0.1;fill:#2e5d4b;fill-opacity:1;stroke:none"
         id="path3938"
         d="m 48,30.9375 c -11.019358,0 -22.034387,4.221887 -30.4375,12.625 a 1.0613296,1.0613296 0 0 0 0,1.5 L 22.5,50 A 1.0613296,1.0613296 0 0 0 24,50 C 37.262758,36.737242 58.737242,36.737242 72,50 a 1.0613296,1.0613296 0 0 0 1.5,0 l 4.9375,-4.9375 a 1.0613296,1.0613296 0 0 0 0,-1.5 C 70.034387,35.159387 59.019358,30.9375 48,30.9375 Z M 48,32 c 10.74874,0 21.48649,4.11149 29.6875,12.3125 L 72.75,49.25 C 59.08165,35.58165 36.91835,35.58165 23.25,49.25 L 18.3125,44.3125 C 26.51351,36.11149 37.25126,32 48,32 Z m 0,12.9375 c -7.434391,0 -14.891151,2.828651 -20.5625,8.5 a 1.0613296,1.0613296 0 0 0 0,1.5 l 4.96875,4.96875 a 1.0613296,1.0613296 0 0 0 1.5,0 c 7.7958,-7.7958 20.3917,-7.7958 28.1875,0 a 1.0613296,1.0613296 0 0 0 1.5,0 L 68.5625,54.9375 a 1.0613296,1.0613296 0 0 0 0,-1.5 C 62.891151,47.766151 55.434382,44.9375 48,44.9375 Z M 48,46 c 7.16582,0 14.34516,2.72016 19.8125,8.1875 l -4.96875,4.96875 c -8.20101,-8.20101 -21.48649,-8.20101 -29.6875,0 L 28.1875,54.1875 C 33.65484,48.72016 40.83417,46 48,46 Z m 0,12.9375 c -3.851472,0 -7.718571,1.468571 -10.65625,4.40625 a 1.0613296,1.0613296 0 0 0 0,1.5 L 47.25,74.75 a 1.0613296,1.0613296 0 0 0 1.5,0 l 9.90625,-9.90625 a 1.0613296,1.0613296 0 0 0 0,-1.5 C 55.718571,60.406071 51.851472,58.9375 48,58.9375 Z M 48,60 c 3.58291,0 7.17258,1.36008 9.90625,4.09375 L 48,74 38.09375,64.09375 C 40.82742,61.36008 44.41709,60 48,60 Z" />
      <path
         inkscape:connector-curvature="0"
         style="opacity:0.2;fill:#2e5d4b;fill-opacity:1;stroke:none"
         id="path3975-5"
         d="m 48,39 c -8.957912,0 -17.915825,3.415825 -24.75,10.25 l -4.4375,-4.4375 c -0.169388,0.163894 -0.332702,0.332702 -0.5,0.5 L 23.25,50.25 c 13.66835,-13.66835 35.83165,-13.66835 49.5,0 l 4.9375,-4.9375 c -0.167298,-0.167298 -0.330612,-0.336106 -0.5,-0.5 L 72.75,49.25 C 65.915825,42.415825 56.957912,39 48,39 Z m 0,14 c -5.371623,0 -10.743245,2.055745 -14.84375,6.15625 L 28.6875,54.6875 c -0.171376,0.162988 -0.331814,0.331814 -0.5,0.5 l 4.96875,4.96875 c 8.20101,-8.20101 21.48649,-8.20101 29.6875,0 L 67.8125,55.1875 c -0.168186,-0.168186 -0.328624,-0.337012 -0.5,-0.5 l -4.46875,4.46875 C 58.743245,55.055745 53.371623,53 48,53 Z m -9.375,11.625 c -0.174644,0.157936 -0.362898,0.300398 -0.53125,0.46875 L 48,75 57.90625,65.09375 C 57.737898,64.925398 57.549644,64.782936 57.375,64.625 L 48,74 38.625,64.625 Z" />
    </g>
  </g>
</svg>
