<?xml version="1.0" encoding="UTF-8" standalone="no"?>
<!-- Created with Inkscape (http://www.inkscape.org/) -->

<svg
   xmlns:dc="http://purl.org/dc/elements/1.1/"
   xmlns:cc="http://creativecommons.org/ns#"
   xmlns:rdf="http://www.w3.org/1999/02/22-rdf-syntax-ns#"
   xmlns:svg="http://www.w3.org/2000/svg"
   xmlns="http://www.w3.org/2000/svg"
   xmlns:xlink="http://www.w3.org/1999/xlink"
   xmlns:sodipodi="http://sodipodi.sourceforge.net/DTD/sodipodi-0.dtd"
   xmlns:inkscape="http://www.inkscape.org/namespaces/inkscape"
   width="128"
   height="128"
   id="svg26392"
   version="1.1"
   inkscape:version="0.91 r13725"
   sodipodi:docname="folder-publicshare.svg">
  <defs
     id="defs26394">
    <linearGradient
       inkscape:collect="always"
       xlink:href="#linearGradient8272"
       id="linearGradient5891"
       gradientUnits="userSpaceOnUse"
       gradientTransform="matrix(2.6658408,0,0,2.7170994,-143.33283,-69.198823)"
       x1="97.538795"
       y1="16.962049"
       x2="97.538795"
       y2="44.260689" />
    <linearGradient
       id="linearGradient8272">
      <stop
         offset="0"
         style="stop-color:#ffffff;stop-opacity:1"
         id="stop8274" />
      <stop
         offset="0.0221225"
         style="stop-color:#ffffff;stop-opacity:0.23529412"
         id="stop8276" />
      <stop
         offset="0.97909725"
         style="stop-color:#ffffff;stop-opacity:0.15686275"
         id="stop8278" />
      <stop
         offset="1"
         style="stop-color:#ffffff;stop-opacity:0.39215687"
         id="stop8280" />
    </linearGradient>
    <linearGradient
       inkscape:collect="always"
       xlink:href="#linearGradient6129-963-697-142-998-580-273"
       id="linearGradient5887"
       gradientUnits="userSpaceOnUse"
       gradientTransform="matrix(3.036796,0,0,2.6909701,-8.8831134,-65.364613)"
       x1="22.934725"
       y1="49.629246"
       x2="22.934725"
       y2="36.599415" />
    <linearGradient
       id="linearGradient6129-963-697-142-998-580-273">
      <stop
         id="stop2661"
         style="stop-color:#0a0a0a;stop-opacity:0.498"
         offset="0" />
      <stop
         id="stop2663"
         style="stop-color:#0a0a0a;stop-opacity:0"
         offset="1" />
    </linearGradient>
    <linearGradient
       inkscape:collect="always"
       xlink:href="#linearGradient4632-0-6-4"
       id="linearGradient5883"
       gradientUnits="userSpaceOnUse"
       gradientTransform="matrix(1,0,0,1.0266674,147,-70.186593)"
       x1="-91"
       y1="43.999817"
       x2="-91"
       y2="119.05979" />
    <linearGradient
       id="linearGradient4632-0-6-4">
      <stop
         style="stop-color:#aacb7d;stop-opacity:1;"
         offset="0"
         id="stop4634-4-4-7" />
      <stop
         style="stop-color:#709937;stop-opacity:1;"
         offset="1"
         id="stop4636-3-1-5" />
    </linearGradient>
    <linearGradient
       inkscape:collect="always"
       xlink:href="#linearGradient5048-585"
       id="linearGradient5875"
       gradientUnits="userSpaceOnUse"
       gradientTransform="matrix(0.2134205,0,0,0.06641689,-13.147881,75.518568)"
       x1="302.85715"
       y1="366.64789"
       x2="302.85715"
       y2="609.50507" />
    <linearGradient
       id="linearGradient5048-585">
      <stop
         id="stop2667"
         style="stop-color:#000000;stop-opacity:0"
         offset="0" />
      <stop
         id="stop2669"
         style="stop-color:#000000;stop-opacity:1"
         offset="0.5" />
      <stop
         id="stop2671"
         style="stop-color:#000000;stop-opacity:0"
         offset="1" />
    </linearGradient>
    <radialGradient
       inkscape:collect="always"
       xlink:href="#linearGradient5060-179"
       id="radialGradient5877"
       gradientUnits="userSpaceOnUse"
       gradientTransform="matrix(0.08277507,0,0,0.06641689,65.628912,75.518568)"
       cx="605.71429"
       cy="486.64789"
       fx="605.71429"
       fy="486.64789"
       r="117.14286" />
    <linearGradient
       id="linearGradient5060-179">
      <stop
         id="stop2675"
         style="stop-color:#000000;stop-opacity:1"
         offset="0" />
      <stop
         id="stop2677"
         style="stop-color:#000000;stop-opacity:0"
         offset="1" />
    </linearGradient>
    <radialGradient
       inkscape:collect="always"
       xlink:href="#linearGradient5060-820"
       id="radialGradient5879"
       gradientUnits="userSpaceOnUse"
       gradientTransform="matrix(-0.08277505,0,0,0.06641689,62.347829,75.518568)"
       cx="605.71429"
       cy="486.64789"
       fx="605.71429"
       fy="486.64789"
       r="117.14286" />
    <linearGradient
       id="linearGradient5060-820">
      <stop
         id="stop2681"
         style="stop-color:#000000;stop-opacity:1"
         offset="0" />
      <stop
         id="stop2683"
         style="stop-color:#000000;stop-opacity:0"
         offset="1" />
    </linearGradient>
    <linearGradient
       inkscape:collect="always"
       xlink:href="#linearGradient9235"
       id="linearGradient5873"
       gradientUnits="userSpaceOnUse"
       gradientTransform="matrix(2.6658408,0,0,2.6469079,-143.33283,-66.049513)"
       x1="97.538795"
       y1="8.8103228"
       x2="97.538795"
       y2="44.260689" />
    <linearGradient
       id="linearGradient9235">
      <stop
         id="stop9237"
         style="stop-color:#ffffff;stop-opacity:1"
         offset="0" />
      <stop
         id="stop9239"
         style="stop-color:#ffffff;stop-opacity:0.23529412"
         offset="0.1088333" />
      <stop
         id="stop9241"
         style="stop-color:#ffffff;stop-opacity:0.15686275"
         offset="0.97909725" />
      <stop
         id="stop9243"
         style="stop-color:#ffffff;stop-opacity:0.39215687"
         offset="1" />
    </linearGradient>
    <linearGradient
       inkscape:collect="always"
       xlink:href="#linearGradient3104-8-8-97-4-6-11-5-5-1-0"
       id="linearGradient5869"
       gradientUnits="userSpaceOnUse"
       gradientTransform="matrix(2.1683519,0,0,2.2464645,141.9485,-68.590473)"
       x1="-51.786404"
       y1="53.514328"
       x2="-51.786404"
       y2="3.6336823" />
    <linearGradient
       id="linearGradient3104-8-8-97-4-6-11-5-5-1-0">
      <stop
         offset="0"
         style="stop-color:#000000;stop-opacity:0.32173914"
         id="stop3106-5-4-3-5-0-2-1-0-1-2" />
      <stop
         offset="1"
         style="stop-color:#000000;stop-opacity:0.27826086"
         id="stop3108-4-3-7-8-2-0-7-9-4-9" />
    </linearGradient>
    <linearGradient
       id="linearGradient6404-7-5">
      <stop
         id="stop6406-1-8"
         style="stop-color:#f9f9f9;stop-opacity:1"
         offset="0" />
      <stop
         id="stop6408-9-6"
         style="stop-color:#c9c9c9;stop-opacity:1"
         offset="1" />
    </linearGradient>
    <linearGradient
       y2="16.997795"
       x2="62.988873"
       y1="14.090554"
       x1="62.988873"
       gradientTransform="matrix(2.7209303,0,0,2.6722576,-117.2202,-66.213873)"
       gradientUnits="userSpaceOnUse"
       id="linearGradient26390"
       xlink:href="#linearGradient6404-7-5"
       inkscape:collect="always" />
    <linearGradient
       gradientUnits="userSpaceOnUse"
       y2="55.16185"
       x2="59.568542"
       y1="-20.055233"
       x1="59.568542"
       id="linearGradient3828"
       xlink:href="#linearGradient7012-661-145-733-759-865-745"
       inkscape:collect="always" />
    <radialGradient
       inkscape:collect="always"
       xlink:href="#linearGradient5060-820-5"
       id="radialGradient3371"
       gradientUnits="userSpaceOnUse"
       gradientTransform="matrix(-0.08277505,0,0,0.06641689,62.347829,75.518568)"
       cx="605.71429"
       cy="486.64789"
       fx="605.71429"
       fy="486.64789"
       r="117.14286" />
    <linearGradient
       id="linearGradient5060-820-5">
      <stop
         offset="0"
         style="stop-color:#000000;stop-opacity:1"
         id="stop2681-9" />
      <stop
         offset="1"
         style="stop-color:#000000;stop-opacity:0"
         id="stop2683-2" />
    </linearGradient>
    <linearGradient
       id="linearGradient5060-179-6">
      <stop
         offset="0"
         style="stop-color:#000000;stop-opacity:1"
         id="stop2675-1" />
      <stop
         offset="1"
         style="stop-color:#000000;stop-opacity:0"
         id="stop2677-9" />
    </linearGradient>
    <radialGradient
       gradientTransform="matrix(0.08277507,0,0,0.06641689,65.628912,75.518568)"
       gradientUnits="userSpaceOnUse"
       xlink:href="#linearGradient5060-179-6"
       id="radialGradient2486"
       fy="486.64789"
       fx="605.71429"
       r="117.14286"
       cy="486.64789"
       cx="605.71429" />
    <linearGradient
       id="linearGradient5048-585-6">
      <stop
         offset="0"
         style="stop-color:#000000;stop-opacity:0"
         id="stop2667-2" />
      <stop
         offset="0.5"
         style="stop-color:#000000;stop-opacity:1"
         id="stop2669-8" />
      <stop
         offset="1"
         style="stop-color:#000000;stop-opacity:0"
         id="stop2671-2" />
    </linearGradient>
    <linearGradient
       gradientTransform="matrix(0.2134205,0,0,0.06641689,-13.147881,75.518568)"
       gradientUnits="userSpaceOnUse"
       xlink:href="#linearGradient5048-585-6"
       id="linearGradient2484"
       y2="609.50507"
       x2="302.85715"
       y1="366.64789"
       x1="302.85715" />
    <linearGradient
       id="linearGradient3484">
      <stop
         offset="0"
         style="stop-color:#bdbdbd;stop-opacity:1"
         id="stop3486" />
      <stop
         offset="1"
         style="stop-color:#d0d0d0;stop-opacity:1"
         id="stop3488" />
    </linearGradient>
    <radialGradient
       r="21"
       fy="5.01718"
       fx="3"
       cy="5.01718"
       cx="3"
       gradientTransform="matrix(0,4.5810288,-7.2733208,0,40.564727,-55.579236)"
       gradientUnits="userSpaceOnUse"
       id="radialGradient2448"
       xlink:href="#linearGradient3484"
       inkscape:collect="always" />
    <linearGradient
       id="linearGradient6404">
      <stop
         offset="0"
         style="stop-color:#f9f9f9;stop-opacity:1"
         id="stop6406" />
      <stop
         offset="1"
         style="stop-color:#c9c9c9;stop-opacity:1"
         id="stop6408" />
    </linearGradient>
    <linearGradient
       y2="17.324797"
       x2="62.988873"
       y1="12.724592"
       x1="62.988873"
       gradientTransform="matrix(2.7209303,0,0,2.6722576,-139.90895,-63.213879)"
       gradientUnits="userSpaceOnUse"
       id="linearGradient2446"
       xlink:href="#linearGradient6404"
       inkscape:collect="always" />
    <linearGradient
       id="linearGradient3390">
      <stop
         offset="0"
         style="stop-color:#51751e;stop-opacity:1"
         id="stop3392" />
      <stop
         offset="1"
         style="stop-color:#51751e;stop-opacity:1"
         id="stop3394" />
    </linearGradient>
    <linearGradient
       y2="7.6327758"
       x2="82.453476"
       y1="45.114193"
       x1="82.453476"
       gradientTransform="matrix(2.6658408,0,0,2.6469079,-143.33284,-63.049513)"
       gradientUnits="userSpaceOnUse"
       id="linearGradient2443"
       xlink:href="#linearGradient3390"
       inkscape:collect="always" />
    <linearGradient
       id="linearGradient7012-661-145-733-759-865-745">
      <stop
         offset="0"
         style="stop-color:#aacb7d;stop-opacity:1"
         id="stop2699" />
      <stop
         offset="1"
         style="stop-color:#709937;stop-opacity:1"
         id="stop2701" />
    </linearGradient>
    <linearGradient
       id="linearGradient6129-963-697-142-998-580-273-0">
      <stop
         offset="0"
         style="stop-color:#0a0a0a;stop-opacity:0.498"
         id="stop2661-9" />
      <stop
         offset="1"
         style="stop-color:#0a0a0a;stop-opacity:0"
         id="stop2663-4" />
    </linearGradient>
    <linearGradient
       y2="36.599415"
       x2="22.934725"
       y1="49.629246"
       x1="22.934725"
       gradientTransform="matrix(3.036796,0,0,2.6219687,-8.883109,-59.329533)"
       gradientUnits="userSpaceOnUse"
       id="linearGradient2438"
       xlink:href="#linearGradient6129-963-697-142-998-580-273-0"
       inkscape:collect="always" />
    <linearGradient
       id="linearGradient6087-437-184-795-110-662-495">
      <stop
         offset="0"
         style="stop-color:#ffffff;stop-opacity:0.40000001"
         id="stop2693" />
      <stop
         offset="1"
         style="stop-color:#ffffff;stop-opacity:0"
         id="stop2695" />
    </linearGradient>
    <radialGradient
       r="61"
       fy="14.298984"
       fx="32.264069"
       cy="14.298984"
       cx="32.264069"
       gradientTransform="matrix(0,1.1019148,-1.5096234,0,53.85015,-54.743061)"
       gradientUnits="userSpaceOnUse"
       id="radialGradient2435"
       xlink:href="#linearGradient6087-437-184-795-110-662-495"
       inkscape:collect="always" />
    <linearGradient
       id="linearGradient8265-821-176-38-919-66-249">
      <stop
         offset="0"
         style="stop-color:#ffffff;stop-opacity:0.2"
         id="stop2687" />
      <stop
         offset="1"
         style="stop-color:#ffffff;stop-opacity:0"
         id="stop2689" />
    </linearGradient>
    <linearGradient
       y2="33.95525"
       x2="15.214532"
       y1="22.292103"
       x1="11.566265"
       gradientTransform="matrix(2.6482074,0,0,2.640269,0.43155844,-62.206239)"
       gradientUnits="userSpaceOnUse"
       id="linearGradient2432"
       xlink:href="#linearGradient8265-821-176-38-919-66-249"
       inkscape:collect="always" />
    <linearGradient
       id="linearGradient3341-9">
      <stop
         id="stop3343-0"
         style="stop-color:#ffffff;stop-opacity:1"
         offset="0" />
      <stop
         id="stop3345-3"
         style="stop-color:#ffffff;stop-opacity:0"
         offset="1" />
    </linearGradient>
    <linearGradient
       id="linearGradient6954">
      <stop
         id="stop6960"
         style="stop-color:#f5f5f5;stop-opacity:1"
         offset="0" />
      <stop
         id="stop6962"
         style="stop-color:#d2d2d2;stop-opacity:1"
         offset="1" />
    </linearGradient>
    <linearGradient
       id="linearGradient5060">
      <stop
         id="stop5062"
         style="stop-color:#000000;stop-opacity:1"
         offset="0" />
      <stop
         id="stop5064"
         style="stop-color:#000000;stop-opacity:0"
         offset="1" />
    </linearGradient>
    <linearGradient
       id="linearGradient3341-1">
      <stop
         id="stop3343-01"
         style="stop-color:#ffffff;stop-opacity:1"
         offset="0" />
      <stop
         id="stop3345-37"
         style="stop-color:#ffffff;stop-opacity:0"
         offset="1" />
    </linearGradient>
    <filter
       style="color-interpolation-filters:sRGB"
       id="filter4005">
      <feGaussianBlur
         id="feGaussianBlur4007"
         stdDeviation="0.83447898" />
    </filter>
    <linearGradient
       x1="127.99561"
       y1="272.01312"
       x2="127.99561"
       y2="39.990356"
       id="linearGradient3124"
       xlink:href="#linearGradient5044"
       gradientUnits="userSpaceOnUse"
       gradientTransform="matrix(0.28151335,0,0,-0.275835,8.246504,17.030886)" />
    <linearGradient
       x1="12.80275"
       y1="3.7361259"
       x2="12.80275"
       y2="16.759111"
       id="linearGradient5044"
       gradientUnits="userSpaceOnUse"
       gradientTransform="matrix(0.8458416,0,0,1.0765258,-1.4962477,-3.0220357)">
      <stop
         id="stop5046"
         style="stop-color:#6cffdf;stop-opacity:1"
         offset="0" />
      <stop
         id="stop5048"
         style="stop-color:#49dbc2;stop-opacity:1"
         offset="1" />
    </linearGradient>
  </defs>
  <sodipodi:namedview
     id="base"
     pagecolor="#ffffff"
     bordercolor="#666666"
     borderopacity="1.0"
     inkscape:pageopacity="0.0"
     inkscape:pageshadow="2"
     inkscape:zoom="0.48613593"
     inkscape:cx="529.86587"
     inkscape:cy="-256.48976"
     inkscape:current-layer="layer1-3"
     showgrid="true"
     inkscape:document-units="px"
     inkscape:grid-bbox="true"
     inkscape:window-width="1920"
     inkscape:window-height="1011"
     inkscape:window-x="0"
     inkscape:window-y="32"
     inkscape:window-maximized="1" />
  <metadata
     id="metadata26397">
    <rdf:RDF>
      <cc:Work
         rdf:about="">
        <dc:format>image/svg+xml</dc:format>
        <dc:type
           rdf:resource="http://purl.org/dc/dcmitype/StillImage" />
        <dc:title />
      </cc:Work>
    </rdf:RDF>
  </metadata>
  <g
     id="layer1"
     inkscape:label="Layer 1"
     inkscape:groupmode="layer"
     transform="translate(0,64)">
    <path
       inkscape:connector-curvature="0"
       style="color:#000000;fill:url(#linearGradient26390);fill-opacity:1;fill-rule:nonzero;stroke:none;stroke-width:1.00000012;marker:none;visibility:visible;display:inline;overflow:visible;enable-background:accumulate"
       d="m 12.999997,-42.968593 c -1.108,0 -2,0.892 -2,2 l 0,5.96875 -3.0000004,0 c -1.108,0 -2,0.892 -2,2 l 0,11 c 0,1.108 0.892,2 2,2 l 112.0000034,0 c 1.108,0 2,-0.892 2,-2 l 0,-11 c 0,-1.108 -0.892,-2 -2,-2 l -62.999999,0 0,-5.96875 c 0,-1.108 -0.892,-2 -2,-2 l -42.000004,0 z"
       id="rect8678-4" />
    <path
       d="m 13.662787,-43.499683 c -1.87818,0.0205 -3.16279,0.9143 -3.16279,2.67225 l 0,5.32743 c -0.9606004,0 -1.4771004,-0.003 -2.1044004,0 -1.67856,0.008 -2.87762,0.94491 -2.87762,2.83298 0.0936,27.4976499 -0.018,28.9219399 -0.018,31.2565499 3.90581,0 117.0000034,-9.8866399 117.0000034,-14.1422999 l 0,-17.14209 c 0,-1.75796 -1.15786,-2.82564 -3.03605,-2.80514 l -61.963949,0 0,-5.19887 c 0,-1.75795 -1.18743,-2.80081 -2.94827,-2.80081 l -40.888944,0 z"
       inkscape:connector-curvature="0"
       id="path3468"
       style="opacity:0.8;color:#000000;fill:none;stroke:url(#linearGradient5869);stroke-width:1;stroke-linecap:butt;stroke-linejoin:miter;stroke-miterlimit:4;stroke-opacity:1;stroke-dasharray:none;stroke-dashoffset:0;marker:none;visibility:visible;display:inline;overflow:visible;enable-background:accumulate" />
    <path
       style="color:#000000;fill:none;stroke:url(#linearGradient5873);stroke-width:0.99999982;stroke-linecap:round;stroke-linejoin:round;stroke-miterlimit:4;stroke-opacity:1;stroke-dasharray:none;stroke-dashoffset:0;marker:none;visibility:visible;display:inline;overflow:visible;enable-background:accumulate"
       d="m 13.499997,-42.499843 c -1.108,0 -2,0.892 -2,2 l 0,6 -3.0000004,0 c -1.108,0 -2,0.892 -2,2 l 0,11 c 0,1.108 0.892,2 2,2 l 111.0000034,0 c 1.108,0 2,-0.892 2,-2 l 0,-11 c 0,-1.108 -0.892,-2 -2,-2 l -62.999999,0 0,-6 c 0,-1.108 -0.892,-2 -2,-2 l -41.000004,0 z"
       id="rect8678"
       inkscape:connector-curvature="0" />
    <g
       transform="matrix(1.0027339,0,0,0.9919518,-0.16331336,-57.066403)"
       id="g2479">
      <rect
         width="103.05159"
         height="16.129816"
         x="12.462574"
         y="99.870178"
         id="rect4173"
         style="opacity:0.3;fill:url(#linearGradient5875);fill-opacity:1;fill-rule:nonzero;stroke:none;stroke-width:1;marker:none;visibility:visible;display:inline;overflow:visible" />
      <path
         d="m 115.51417,99.870734 c 0,0 0,16.128926 0,16.128926 4.26271,0.0304 10.30516,-3.61367 10.30516,-8.0655 0,-4.45183 -4.75687,-8.063426 -10.30516,-8.063426 z"
         inkscape:connector-curvature="0"
         id="path5058"
         style="opacity:0.3;fill:url(#radialGradient5877);fill-opacity:1;fill-rule:nonzero;stroke:none;stroke-width:1;marker:none;visibility:visible;display:inline;overflow:visible" />
      <path
         d="m 12.462574,99.870734 c 0,0 0,16.128926 0,16.128926 -4.2627113,0.0304 -10.3051588,-3.61367 -10.3051588,-8.0655 0,-4.45183 4.7568636,-8.063426 10.3051588,-8.063426 z"
         inkscape:connector-curvature="0"
         id="path5018"
         style="opacity:0.3;fill:url(#radialGradient5879);fill-opacity:1;fill-rule:nonzero;stroke:none;stroke-width:1;marker:none;visibility:visible;display:inline;overflow:visible" />
    </g>
    <path
       d="m 6.2499966,-24.500053 115.4999934,0.001 c 1.66861,0 2.75001,1.18375 2.75001,2.65543 l -2.71648,71.78068 c 0.0386,1.86211 -0.55015,2.60044 -2.48884,2.56139 L 9.3616366,52.451747 c -1.66859,0 -3.35116,-1.09895 -3.35116,-2.57064 l -2.51048,-71.72469 c 0,-1.47169 1.0814,-2.65647 2.75,-2.65647 z"
       inkscape:connector-curvature="0"
       id="path3369"
       style="fill:url(#linearGradient5883);fill-opacity:1;fill-rule:nonzero;stroke:none;stroke-width:0.99999982;marker:none;visibility:visible;display:inline;overflow:visible;enable-background:accumulate" />
    <path
       d="m 5.7727166,-25.000063 116.4545434,0.001 c 1.6824,0 2.77274,1.19912 2.77274,2.68993 l -2.73893,72.7129 c 0.0389,1.88629 -0.5547,2.63421 -2.50941,2.59465 L 8.9100766,52.951017 c -1.68238,0 -3.37885,-1.11323 -3.37885,-2.60404 l -2.53123,-72.65607 c 0,-1.4908 1.09034,-2.69097 2.77272,-2.69097 z"
       inkscape:connector-curvature="0"
       id="path6127"
       style="opacity:0.4;fill:url(#linearGradient5887);fill-opacity:1;stroke:none" />
    <path
       style="opacity:0.5;fill:none;stroke:url(#linearGradient5891);stroke-width:0.99999988;stroke-linecap:round;stroke-linejoin:round;stroke-miterlimit:4;stroke-opacity:1;stroke-dasharray:none;stroke-dashoffset:0;marker:none;visibility:visible;display:inline;overflow:visible;enable-background:accumulate"
       d="m 6.2499966,-23.499853 c -2.84882,0.29656 -1.40933,3.76689 -1.63989,5.72017 0.78584,22.5479499 1.57466,45.09583 2.35864,67.64381 1.18868,2.48974 4.4300904,1.28205 6.6383204,1.57433 35.235146,0.0205 70.470294,0.0412 105.705433,0.0617 2.566,-0.16531 1.15721,-3.81803 1.65357,-5.65555 0.85465,-22.56949 2.54292,-67.57135 2.54292,-67.57135 0,-1.16209 -0.77992,-1.7731 -2.20738,-1.7731 -37.089309,0 -77.962299,0 -115.0516134,0 z"
       id="path8263"
       inkscape:connector-curvature="0"
       sodipodi:nodetypes="cccccccccc" />
    <path
       d="m 6.2499966,-24.500053 115.4999934,0.001 c 1.66861,0 2.75001,1.18375 2.75001,2.65543 l -2.71648,71.78068 c 0.0386,1.86211 -0.55015,2.60044 -2.48884,2.56139 L 9.3616366,52.451747 c -1.66859,0 -3.35116,-1.09895 -3.35116,-2.57064 l -2.51048,-71.72469 c 0,-1.47169 1.0814,-2.65647 2.75,-2.65647 z"
       inkscape:connector-curvature="0"
       id="path3369-7"
       style="opacity:0.3;fill:none;stroke:#000000;stroke-width:0.99999982;stroke-linecap:round;stroke-linejoin:round;stroke-miterlimit:4;stroke-opacity:1;stroke-dasharray:none;stroke-dashoffset:0;marker:none;visibility:visible;display:inline;overflow:visible;enable-background:accumulate" />
    <g
       style="display:inline"
       transform="translate(27.274234,51.261567)"
       id="layer1-3">
      <path
         d="m 59.79864,5.9974857 c -5.6742,0.00414 -10.933433,-4.8040888 -11.003651,-10.5715207 -0.09199,-3.2975323 -0.975179,-6.90651 -3.902173,-8.827802 -4.333422,-3.495849 -10.262945,-0.0088 -14.861385,-2.763148 -4.978974,-2.479804 -7.480273,-8.941045 -5.173463,-14.066915 1.842488,-4.488265 6.763455,-7.390008 11.598549,-6.76383 3.426934,0.420038 7.304309,0.03167 9.719042,-2.720878 3.848455,-3.686254 1.339407,-9.82422 4.733489,-13.763769 3.694832,-5.098588 11.700814,-6.05486 16.442351,-1.878229 4.836408,3.78184 5.285503,11.682747 0.882001,15.968468 -2.61078,2.899856 -6.679023,3.842686 -10.443476,3.338653 -3.820409,-0.570067 -8.006979,0.977426 -9.922896,4.458021 -1.807279,3.765186 -1.792007,8.665886 0.641449,12.155133 2.113192,2.867512 5.844675,3.960633 9.281447,3.490967 3.764453,-0.504035 7.832686,0.438802 10.443476,3.338643 4.285937,4.1819954 3.998136,11.8229478 -0.563592,15.6914036 C 65.54728,5.0185287 62.666277,6.067629 59.79864,5.9974857 Z"
         inkscape:connector-curvature="0"
         id="path3998"
         style="color:#000000;display:inline;overflow:visible;visibility:visible;opacity:0.2;fill:none;stroke:#ffffff;stroke-width:4;stroke-miterlimit:4;stroke-dasharray:none;marker:none;filter:url(#filter4005);enable-background:accumulate" />
      <path
         d="m 59.79864,5.9974857 c -2.523146,-0.0537 -5.047828,-0.931008 -7.108212,-2.67215 -6.626141,-5.59948 -1.479549,-11.417204 -7.257767,-16.3001257 -5.778211,-4.882929 -10.898062,0.953379 -17.524207,-4.646097 l 0,-0.0086 c -1.471703,-1.243676 -2.533653,-2.783677 -3.175822,-4.447838 -0.0043,-0.01085 -0.0046,-0.02353 -0.0088,-0.03449 -0.129321,-0.338426 -0.239828,-0.678158 -0.334295,-1.02576 -0.04193,-0.154327 -0.08812,-0.309725 -0.123172,-0.465472 -0.0039,-0.01702 -0.0051,-0.03467 -0.0088,-0.05173 -0.07224,-0.328492 -0.125676,-0.658256 -0.167147,-0.991283 -3.64e-4,-0.0028 3.38e-4,-0.0057 0,-0.0086 -0.0022,-0.01735 -0.0067,-0.03437 -0.0088,-0.05172 -0.01845,-0.155118 -0.03226,-0.309754 -0.04399,-0.46547 -0.009,-0.117079 -0.02122,-0.236206 -0.02639,-0.353414 -0.0025,-0.05966 -0.0072,-0.121308 -0.0088,-0.181017 -5.65e-4,-0.01988 4.49e-4,-0.04044 0,-0.06034 -0.0032,-0.156237 -0.0033,-0.309149 0,-0.465472 0.0015,-0.07997 0.0054,-0.161458 0.0088,-0.241357 0.0053,-0.117203 0.01741,-0.236332 0.02639,-0.353413 0.01336,-0.173419 0.0311,-0.344308 0.0528,-0.51719 3.39e-4,-0.0028 -3.65e-4,-0.0057 0,-0.0086 0.04146,-0.333027 0.09492,-0.662789 0.167149,-0.991282 0.0038,-0.01718 0.005,-0.03456 0.0088,-0.05171 0.03556,-0.15669 0.08051,-0.310011 0.123172,-0.465472 0.09447,-0.3476 0.204972,-0.687333 0.334296,-1.02576 0.0043,-0.01099 0.0046,-0.02341 0.0088,-0.03449 0.642167,-1.664161 1.704119,-3.204163 3.175822,-4.44784 l 0,-0.0086 c 6.626144,-5.599476 11.745996,0.236832 17.524206,-4.646097 5.778218,-4.882923 0.631626,-10.700646 7.257768,-16.300126 4.709482,-3.979862 11.817455,-3.459503 15.879143,1.154956 4.061689,4.614456 3.539407,11.579055 -1.17004,15.558818 -6.626144,5.599473 -11.745991,-0.245448 -17.524206,4.637476 -2.918927,2.466666 -3.046801,5.178196 -3.31658,7.973356 0.269779,2.795159 0.397653,5.506689 3.31658,7.973355 5.778215,4.882926 10.898062,-0.961997 17.524206,4.637476 4.709447,3.9797067 5.231729,10.9443047 1.17004,15.5587627 -2.284697,2.595633 -5.526856,3.896254 -8.770901,3.82721 z"
         inkscape:connector-curvature="0"
         id="path3984-0-3-4-7"
         style="color:#000000;display:inline;overflow:visible;visibility:visible;fill:url(#linearGradient3124);fill-opacity:1;fill-rule:evenodd;stroke:none;stroke-width:1;marker:none;enable-background:accumulate" />
      <path
         d="m 59.78125,16 c -2.522624,0.05246 -5.033352,0.94631 -7.09375,2.6875 -6.626142,5.59948 -1.471782,11.398327 -7.25,16.28125 -5.77821,4.882929 -10.905106,-0.943226 -17.53125,4.65625 -1.471703,1.243677 -2.545333,2.804589 -3.1875,4.46875 -0.0042,0.01108 0.0043,0.02026 0,0.03125 -0.129324,0.338427 -0.24928,0.6524 -0.34375,1 -0.04266,0.155461 -0.05819,0.31206 -0.09375,0.46875 -0.0038,0.01715 -0.02745,0.04532 -0.03125,0.0625 -0.07223,0.328493 -0.11479,0.666973 -0.15625,1 -0.0217,0.172882 -0.04914,0.357831 -0.0625,0.53125 -0.009,0.117081 -0.02595,0.226547 -0.03125,0.34375 -0.0034,0.0799 0.0015,0.17003 0,0.25 -0.0033,0.156323 -0.0032,0.281263 0,0.4375 4.49e-4,0.0199 -5.65e-4,0.04262 0,0.0625 0.0016,0.05971 -0.0025,0.12784 0,0.1875 0.0052,0.117208 0.02225,0.257921 0.03125,0.375 0.01173,0.155716 0.04405,0.282382 0.0625,0.4375 0.0021,0.01735 -0.0022,0.04515 0,0.0625 0.04147,0.333027 0.08401,0.671508 0.15625,1 0.0037,0.01706 0.02735,0.04548 0.03125,0.0625 0.03505,0.155747 0.05182,0.314423 0.09375,0.46875 0.09447,0.347602 0.214429,0.661574 0.34375,1 0.0042,0.01096 -0.0043,0.05165 0,0.0625 0.642169,1.664161 1.715797,3.193824 3.1875,4.4375 6.626145,5.599476 11.753039,-0.226679 17.53125,4.65625 5.778218,4.882922 0.623859,10.68177 7.25,16.28125 2.060384,1.741142 4.601854,2.6338 7.125,2.6875 3.244045,0.06904 6.465303,-1.248117 8.75,-3.84375 C 72.624189,71.541792 72.115697,64.604707 67.40625,60.625 60.780106,55.025527 55.653215,60.851676 49.875,55.96875 46.956073,53.502084 46.832279,50.795159 46.5625,48 46.832279,45.20484 46.956073,42.497916 49.875,40.03125 55.653215,35.148326 60.780106,40.974473 67.40625,35.375 72.115697,31.395237 72.624189,24.458206 68.5625,19.84375 66.2778,17.248117 63.024624,15.932555 59.78125,16 Z m 0.0625,2 c 0.296258,-0.0063 0.579045,0.0097 0.875,0.03125 2.366901,0.172501 4.668633,1.25316 6.34375,3.15625 3.345475,3.80077 2.914355,9.374795 -0.96875,12.65625 -2.854641,2.412336 -4.86884,2.268921 -7.65625,2.125 -2.78741,-0.143921 -6.460189,-0.354462 -9.875,2.53125 -3.452094,2.917224 -3.736504,6.582435 -4,9.3125 a 2.0133797,2.0133797 0 0 0 0,0.375 c 0.263496,2.730064 0.547906,6.395276 4,9.3125 3.414811,2.885713 7.08759,2.675171 9.875,2.53125 2.78741,-0.143921 4.801609,-0.287336 7.65625,2.125 3.883083,3.28139 4.31422,8.855484 0.96875,12.65625 C 65.174707,76.957213 62.514887,78.056851 59.84375,78 57.766355,77.955787 55.696105,77.214555 54,75.78125 c -2.854824,-2.412495 -2.992484,-4.349261 -3.25,-7.0625 -0.257516,-2.713239 -0.585398,-6.333218 -4,-9.21875 -3.41481,-2.885715 -7.087589,-2.675172 -9.875,-2.53125 -2.787411,0.143922 -4.801609,0.287337 -7.65625,-2.125 -1.199398,-1.013562 -2.071048,-2.239511 -2.59375,-3.5625 -0.0078,-0.02551 -0.02667,-0.04778 -0.03125,-0.0625 a 2.0133797,2.0133797 0 0 0 0,-0.03125 c -0.0011,-0.0035 2.2e-5,-0.03119 0,-0.03125 -0.129303,-0.338379 -0.219441,-0.585069 -0.28125,-0.8125 0.01401,0.05156 0.0067,-0.06768 -0.0625,-0.375 -0.01504,-0.06562 -0.01717,-0.01016 -0.03125,-0.0625 -0.0066,-0.03057 0.0064,-0.0037 0,-0.03125 -0.04329,-0.204392 -0.08527,-0.462209 -0.125,-0.78125 -0.0031,-0.03742 0.006,-0.01271 0,-0.0625 C 26.05791,48.729958 26.02832,48.648549 26.03125,48.6875 26.016779,48.499255 25.999694,48.368064 26,48.375 c 0.004,0.09639 0.0052,0.03651 0,-0.15625 0.0026,0.09203 0.0028,0.09153 0,-0.03125 -0.0028,-0.135127 -0.0028,-0.242164 0,-0.375 0.0036,-0.19052 0.0028,-0.253938 0,-0.1875 -9.05e-4,0.02002 0.0148,-0.06674 0.03125,-0.28125 0.0056,-0.07223 0.03678,-0.232576 0.0625,-0.4375 0.0397,-0.318914 0.08169,-0.576745 0.125,-0.78125 0.0017,-0.008 -0.0017,-0.02347 0,-0.03125 0.01395,-0.05315 0.01652,0.004 0.03125,-0.0625 0.07164,-0.315658 0.07815,-0.432037 0.0625,-0.375 0.06182,-0.227463 0.151955,-0.474148 0.28125,-0.8125 0.0063,-0.01616 -0.0058,-0.01517 0,-0.03125 0.523063,-1.355507 1.418904,-2.637027 2.625,-3.65625 2.854641,-2.412337 4.868839,-2.268922 7.65625,-2.125 2.787411,0.143922 6.460191,0.354466 9.875,-2.53125 3.414602,-2.885533 3.742484,-6.505511 4,-9.21875 0.257516,-2.713239 0.395175,-4.650005 3.25,-7.0625 C 55.699257,18.782752 57.769947,18.044444 59.84375,18 Z"
         inkscape:connector-curvature="0"
         transform="translate(0,-74)"
         id="path3969"
         style="color:#000000;display:inline;overflow:visible;visibility:visible;opacity:0.1;fill:#000000;fill-opacity:1;fill-rule:evenodd;stroke:none;stroke-width:1;marker:none;enable-background:accumulate" />
      <path
         d="m 59.78125,-58 c -5.662928,0.01345 -10.914051,4.820467 -10.98567,10.578316 -0.0889,3.294597 -0.974011,6.898702 -3.897945,8.81751 -4.334974,3.49632 -10.268174,0.0172 -14.868174,2.772935 -4.868288,2.421988 -7.382017,8.642181 -5.310711,13.706239 1.68149,4.682529 6.794348,7.761291 11.738742,7.122525 3.428663,-0.416247 7.306808,-0.02666 9.722844,2.726309 3.846398,3.680402 1.334172,9.811908 4.726029,13.745641 3.654855,5.021904 11.523066,6.086214 16.278238,2.011269 4.77389,-3.616827 5.5272,-11.250021 1.435107,-15.662824 -2.483102,-2.990968 -6.496599,-4.274365 -10.297058,-3.78975 -3.383872,0.445882 -7.141753,-0.255149 -9.416972,-2.995385 -2.782005,-3.306958 -2.836969,-8.263969 -1.290374,-12.133194 1.6839,-3.577263 5.799993,-5.481792 9.649689,-4.981394 3.731801,0.465633 7.835151,-0.124496 10.570447,-2.924803 4.567149,-4.005152 4.580424,-11.800653 0.05976,-15.845829 C 65.749161,-56.925099 62.760941,-58.071689 59.78125,-58 Z m 0.03125,1.09375 c 5.851014,-0.302207 11.190368,5.28018 10.315289,11.139206 -0.569304,5.318409 -5.932878,9.460027 -11.230387,8.668028 -3.736379,-0.441264 -7.945749,0.08687 -10.567951,3.063145 -3.304114,3.606153 -3.502658,9.272874 -1.681401,13.624316 1.824426,3.980956 6.396388,6.103068 10.655113,5.588976 3.269353,-0.374588 6.886575,-0.105495 9.384337,2.291329 4.37411,3.430019 4.6754,10.588743 0.634475,14.395244 C 63.422754,6.079146 56.112831,5.803655 52.385008,1.509272 48.507497,-2.162794 51.00991,-8.296087 47.654536,-12.253494 45.23238,-15.594578 40.862423,-16.645972 36.9375,-16.125 c -3.991221,0.616982 -8.183442,-1.163783 -10.319063,-4.62928 -2.864974,-4.304582 -1.492002,-10.627173 2.851957,-13.435829 3.257851,-2.659739 7.561012,-1.350918 11.356046,-1.697717 4.732978,-0.412559 8.62656,-4.621714 8.853001,-9.343535 0.187977,-3.250931 0.663109,-6.866095 3.448022,-8.995609 1.814651,-1.653343 4.227801,-2.633828 6.685037,-2.67928 z"
         inkscape:connector-curvature="0"
         id="path3965"
         style="color:#000000;display:inline;overflow:visible;visibility:visible;opacity:0.2;fill:#000000;fill-opacity:1;fill-rule:evenodd;stroke:none;stroke-width:1;marker:none;enable-background:accumulate" />
      <path
         d="m 59.78125,16 c -2.522624,0.05246 -5.033352,0.94631 -7.09375,2.6875 -6.626142,5.59948 -1.471782,11.398327 -7.25,16.28125 -5.77821,4.882929 -10.905106,-0.943226 -17.53125,4.65625 -1.471703,1.243677 -2.545333,2.804589 -3.1875,4.46875 -0.0042,0.01108 0.0043,0.02026 0,0.03125 -0.129324,0.338427 -0.24928,0.6524 -0.34375,1 -0.04266,0.155461 -0.05819,0.31206 -0.09375,0.46875 -0.0038,0.01715 -0.02745,0.04532 -0.03125,0.0625 -0.07223,0.328493 -0.11479,0.666973 -0.15625,1 -0.0217,0.172882 -0.04914,0.357831 -0.0625,0.53125 -0.009,0.117081 -0.02595,0.226547 -0.03125,0.34375 -0.0034,0.0799 0.0015,0.17003 0,0.25 -0.0033,0.156323 -0.0032,0.281263 0,0.4375 4.49e-4,0.0199 -5.65e-4,0.04262 0,0.0625 0.0016,0.05971 -0.0025,0.12784 0,0.1875 0.0061,-0.09653 0.02389,-0.185282 0.03125,-0.28125 0.01336,-0.173419 0.0408,-0.358368 0.0625,-0.53125 0.04146,-0.333027 0.08402,-0.671507 0.15625,-1 0.0038,-0.01718 0.02745,-0.04535 0.03125,-0.0625 0.03556,-0.15669 0.05109,-0.313289 0.09375,-0.46875 0.09447,-0.3476 0.214426,-0.661573 0.34375,-1 0.0043,-0.01099 -0.0042,-0.02017 0,-0.03125 0.642167,-1.664161 1.715797,-3.225073 3.1875,-4.46875 6.626144,-5.599476 11.75304,0.226679 17.53125,-4.65625 5.778218,-4.882923 0.623858,-10.68177 7.25,-16.28125 4.709482,-3.979862 11.813312,-3.458209 15.875,1.15625 1.717066,1.950746 2.610152,4.299806 2.71875,6.6875 0.126117,-2.716756 -0.762504,-5.465023 -2.71875,-7.6875 C 66.2778,17.248117 63.024624,15.932555 59.78125,16 Z M 46.625,48.5 c -0.01599,0.169087 -0.04612,0.33026 -0.0625,0.5 0.269779,2.795159 0.393573,5.502084 3.3125,7.96875 5.778215,4.882926 10.905106,-0.943223 17.53125,4.65625 2.441219,2.062946 3.739265,4.919801 3.875,7.84375 0.148288,-3.260348 -1.156457,-6.546451 -3.875,-8.84375 C 60.780106,55.025527 55.653215,60.851676 49.875,55.96875 47.130707,53.64966 46.872545,51.117979 46.625,48.5 Z"
         inkscape:connector-curvature="0"
         transform="translate(0,-74)"
         id="path3980"
         style="color:#000000;display:inline;overflow:visible;visibility:visible;opacity:0.3;fill:#000000;fill-opacity:1;fill-rule:evenodd;stroke:none;stroke-width:1;marker:none;enable-background:accumulate" />
      <path
         d="m 71.28125,27.53125 c -0.135735,2.923956 -1.433781,5.780774 -3.875,7.84375 C 60.780106,40.974473 55.653215,35.148326 49.875,40.03125 46.956073,42.497916 46.832279,45.20484 46.5625,48 c 0.01614,0.167229 0.04675,0.333404 0.0625,0.5 0.247367,-2.615321 0.508329,-5.151876 3.25,-7.46875 5.778215,-4.882924 10.905106,0.943223 17.53125,-4.65625 2.718543,-2.297331 4.023288,-5.583397 3.875,-8.84375 z M 24,48.53125 c -0.0034,0.0799 0.0015,0.17003 0,0.25 -0.0033,0.156323 -0.0032,0.281263 0,0.4375 4.49e-4,0.0199 -5.65e-4,0.04262 0,0.0625 0.0016,0.05971 -0.0025,0.12784 0,0.1875 0.0052,0.117208 0.02225,0.257921 0.03125,0.375 0.01173,0.155716 0.04405,0.282382 0.0625,0.4375 0.0021,0.01735 -0.0022,0.04515 0,0.0625 0.04147,0.333027 0.08401,0.671508 0.15625,1 0.0037,0.01706 0.02735,0.04548 0.03125,0.0625 0.03505,0.155747 0.05182,0.314423 0.09375,0.46875 0.09447,0.347602 0.214429,0.661574 0.34375,1 0.0042,0.01096 -0.0043,0.05165 0,0.0625 0.642169,1.664161 1.715797,3.193824 3.1875,4.4375 6.626145,5.599476 11.753039,-0.226679 17.53125,4.65625 5.778218,4.882922 0.623859,10.68177 7.25,16.28125 2.060384,1.741142 4.601854,2.6338 7.125,2.6875 3.244045,0.06904 6.465303,-1.248117 8.75,-3.84375 1.956246,-2.222478 2.844867,-4.97075 2.71875,-7.6875 -0.108598,2.387689 -1.001684,4.736753 -2.71875,6.6875 -2.284697,2.595633 -5.505955,3.912794 -8.75,3.84375 -2.523146,-0.0537 -5.064616,-0.946358 -7.125,-2.6875 -6.626141,-5.59948 -1.471782,-11.398328 -7.25,-16.28125 -5.778211,-4.882929 -10.905105,0.943226 -17.53125,-4.65625 -1.471703,-1.243676 -2.545331,-2.773339 -3.1875,-4.4375 -0.0043,-0.01085 0.0042,-0.05154 0,-0.0625 -0.129321,-0.338426 -0.249283,-0.652398 -0.34375,-1 -0.04193,-0.154327 -0.0587,-0.313003 -0.09375,-0.46875 -0.0039,-0.01702 -0.02755,-0.04544 -0.03125,-0.0625 -0.07224,-0.328492 -0.114779,-0.666973 -0.15625,-1 -0.0022,-0.01735 0.0021,-0.04515 0,-0.0625 -0.01845,-0.155118 -0.05077,-0.281784 -0.0625,-0.4375 C 24.02375,48.74605 24.00603,48.629497 24,48.53125 Z"
         inkscape:connector-curvature="0"
         transform="translate(0,-74)"
         id="path3989"
         style="color:#000000;display:inline;overflow:visible;visibility:visible;opacity:0.5;fill:#ffffff;fill-opacity:1;fill-rule:evenodd;stroke:none;stroke-width:1;marker:none;enable-background:accumulate" />
    </g>
  </g>
</svg>
