<?xml version="1.0" encoding="UTF-8" standalone="no"?>
<svg
   xmlns:dc="http://purl.org/dc/elements/1.1/"
   xmlns:cc="http://creativecommons.org/ns#"
   xmlns:rdf="http://www.w3.org/1999/02/22-rdf-syntax-ns#"
   xmlns:svg="http://www.w3.org/2000/svg"
   xmlns="http://www.w3.org/2000/svg"
   xmlns:xlink="http://www.w3.org/1999/xlink"
   xmlns:sodipodi="http://sodipodi.sourceforge.net/DTD/sodipodi-0.dtd"
   xmlns:inkscape="http://www.inkscape.org/namespaces/inkscape"
   id="svg9481"
   height="128"
   width="128"
   version="1.0"
   sodipodi:docname="user-desktop.svg"
   inkscape:version="0.92.2 2405546, 2018-03-11">
  <sodipodi:namedview
     pagecolor="#ffffff"
     bordercolor="#666666"
     borderopacity="1"
     objecttolerance="10"
     gridtolerance="10"
     guidetolerance="10"
     inkscape:pageopacity="0"
     inkscape:pageshadow="2"
     inkscape:window-width="1920"
     inkscape:window-height="1011"
     id="namedview64"
     showgrid="false"
     inkscape:zoom="3.6875"
     inkscape:cx="65.591078"
     inkscape:cy="80.499581"
     inkscape:window-x="0"
     inkscape:window-y="32"
     inkscape:window-maximized="1"
     inkscape:current-layer="svg9481" />
  <metadata
     id="metadata54">
    <rdf:RDF>
      <cc:Work
         rdf:about="">
        <dc:format>image/svg+xml</dc:format>
        <dc:type
           rdf:resource="http://purl.org/dc/dcmitype/StillImage" />
        <dc:title />
      </cc:Work>
    </rdf:RDF>
  </metadata>
  <defs
     id="defs9483">
    <linearGradient
       id="linearGradient878">
      <stop
         id="stop874"
         style="stop-color:#434a4a;stop-opacity:1"
         offset="0" />
      <stop
         id="stop876"
         style="stop-color:#353b3d;stop-opacity:1"
         offset="1" />
    </linearGradient>
    <linearGradient
       id="linearGradient5048-7">
      <stop
         offset="0"
         style="stop-color:#000000;stop-opacity:0"
         id="stop5050-5" />
      <stop
         offset="0.5"
         style="stop-color:#000000;stop-opacity:1"
         id="stop5056-9" />
      <stop
         offset="1"
         style="stop-color:#000000;stop-opacity:0"
         id="stop5052-6" />
    </linearGradient>
    <linearGradient
       id="linearGradient5060-6">
      <stop
         offset="0"
         style="stop-color:#000000;stop-opacity:1"
         id="stop5062-3" />
      <stop
         offset="1"
         style="stop-color:#000000;stop-opacity:0"
         id="stop5064-1" />
    </linearGradient>
    <linearGradient
       id="linearGradient3332-412-419-652-471-761-410-156-661-505">
      <stop
         offset="0"
         style="stop-color:#466c1a;stop-opacity:1"
         id="stop8032" />
      <stop
         offset="1"
         style="stop-color:#929c78;stop-opacity:1"
         id="stop8034" />
    </linearGradient>
    <linearGradient
       id="linearGradient2867-449-88-871-390-598-476-591-434-148-895-534-212-357-729">
      <stop
         offset="0"
         style="stop-color:#20ee8f;stop-opacity:1"
         id="stop8022" />
      <stop
         offset="1"
         style="stop-color:#00927c;stop-opacity:1"
         id="stop8028" />
    </linearGradient>
    <linearGradient
       id="linearGradient8265-821-176-38-919-66-249">
      <stop
         offset="0"
         style="stop-color:#ffffff;stop-opacity:1"
         id="stop2687" />
      <stop
         offset="1"
         style="stop-color:#ffffff;stop-opacity:0"
         id="stop2689" />
    </linearGradient>
    <linearGradient
       id="linearGradient3282">
      <stop
         offset="0"
         style="stop-color:#000000;stop-opacity:1"
         id="stop3284" />
      <stop
         offset="1"
         style="stop-color:#000000;stop-opacity:0"
         id="stop3286" />
    </linearGradient>
    <linearGradient
       id="linearGradient3958">
      <stop
         offset="0"
         style="stop-color:#262626;stop-opacity:1"
         id="stop3960" />
      <stop
         offset="1"
         style="stop-color:#303030;stop-opacity:1"
         id="stop3962" />
    </linearGradient>
    <linearGradient
       id="linearGradient2446-733-45">
      <stop
         offset="0"
         style="stop-color:#fafafa;stop-opacity:1"
         id="stop3793" />
      <stop
         offset="1"
         style="stop-color:#c5c5c5;stop-opacity:1"
         id="stop3795" />
    </linearGradient>
    <linearGradient
       id="linearGradient2238">
      <stop
         offset="0"
         style="stop-color:#ffffff;stop-opacity:1"
         id="stop2240" />
      <stop
         offset="1"
         style="stop-color:#ffffff;stop-opacity:0"
         id="stop2242" />
    </linearGradient>
    <linearGradient
       gradientTransform="matrix(2.6420597,0,0,2.4848291,0.5873493,11.863829)"
       gradientUnits="userSpaceOnUse"
       xlink:href="#linearGradient2238"
       id="linearGradient3308"
       y2="43.810863"
       x2="12.578789"
       y1="2.9137428"
       x1="12.578789" />
    <linearGradient
       gradientTransform="matrix(2.1910236,0,0,1.7591838,-6.608807,8.1210008)"
       gradientUnits="userSpaceOnUse"
       xlink:href="#linearGradient3958"
       id="linearGradient3311"
       y2="16.323294"
       x2="33.579403"
       y1="5.7086449"
       x1="33.579403" />
    <linearGradient
       gradientTransform="matrix(2.6888891,0,0,2.6669522,-0.5333398,-0.5038536)"
       gradientUnits="userSpaceOnUse"
       xlink:href="#linearGradient3958"
       id="linearGradient3313"
       y2="14"
       x2="16.91585"
       y1="7.0006418"
       x1="16.91585" />
    <linearGradient
       gradientTransform="matrix(2.6081214,0,0,0.9360169,1.4228412,27.349641)"
       gradientUnits="userSpaceOnUse"
       xlink:href="#linearGradient3282"
       id="linearGradient3316"
       y2="13.523027"
       x2="24.682861"
       y1="9.2416716"
       x1="24.682861" />
    <linearGradient
       gradientTransform="matrix(2.6122449,0,0,2.7868791,1.3061199,3.3658151)"
       gradientUnits="userSpaceOnUse"
       xlink:href="#linearGradient8265-821-176-38-919-66-249"
       id="linearGradient3319"
       y2="24.627615"
       x2="20.054544"
       y1="15.298182"
       x1="16.626165" />
    <radialGradient
       gradientTransform="matrix(-4.8906066e-8,-2.8514561,3.7557195,0,96.173997,156.12002)"
       gradientUnits="userSpaceOnUse"
       xlink:href="#linearGradient2867-449-88-871-390-598-476-591-434-148-895-534-212-357-729"
       id="radialGradient3322"
       fy="-2.0644982"
       fx="26.616697"
       r="23"
       cy="-2.0644982"
       cx="26.616697" />
    <linearGradient
       gradientTransform="matrix(2.5745574,0,0,2.4174817,2.2106631,10.950807)"
       gradientUnits="userSpaceOnUse"
       xlink:href="#linearGradient3332-412-419-652-471-761-410-156-661-505"
       id="linearGradient3324"
       y2="2.8764627"
       x2="10.014208"
       y1="44.960102"
       x1="10.014208" />
    <radialGradient
       gradientTransform="matrix(-0.144583,0,0,5.3529403e-2,105.13447,91.373542)"
       gradientUnits="userSpaceOnUse"
       xlink:href="#linearGradient5060-6"
       id="radialGradient3327"
       fy="486.64789"
       fx="605.71429"
       r="117.14286"
       cy="486.64789"
       cx="605.71429" />
    <radialGradient
       gradientTransform="matrix(0.1445831,0,0,5.3529403e-2,22.86553,91.373542)"
       gradientUnits="userSpaceOnUse"
       xlink:href="#linearGradient5060-6"
       id="radialGradient3330"
       fy="486.64789"
       fx="605.71429"
       r="117.14286"
       cy="486.64789"
       cx="605.71429" />
    <linearGradient
       gradientTransform="matrix(0.1905325,0,0,5.3529403e-2,-4.8639063,91.373542)"
       gradientUnits="userSpaceOnUse"
       xlink:href="#linearGradient5048-7"
       id="linearGradient3333"
       y2="609.50507"
       x2="302.85715"
       y1="366.64789"
       x1="302.85715" />
    <linearGradient
       x1="302.85715"
       y1="366.64789"
       x2="302.85715"
       y2="609.50507"
       id="linearGradient3333-9"
       xlink:href="#linearGradient5048-7"
       gradientUnits="userSpaceOnUse"
       gradientTransform="matrix(0.13396817,0,0,0.03763786,-100.85366,71.033841)" />
    <radialGradient
       cx="605.71429"
       cy="486.64789"
       r="117.14286"
       fx="605.71429"
       fy="486.64789"
       id="radialGradient3330-8"
       xlink:href="#linearGradient5060-6"
       gradientUnits="userSpaceOnUse"
       gradientTransform="matrix(0.10166,0,0,0.03763786,-81.356404,71.033841)" />
    <radialGradient
       cx="605.71429"
       cy="486.64789"
       r="117.14286"
       fx="605.71429"
       fy="486.64789"
       id="radialGradient3327-2"
       xlink:href="#linearGradient5060-6"
       gradientUnits="userSpaceOnUse"
       gradientTransform="matrix(-0.10165993,0,0,0.03763786,-23.511064,71.033841)" />
    <radialGradient
       cx="26.616697"
       cy="-2.0644982"
       r="23"
       fx="26.616697"
       fy="-2.0644982"
       id="radialGradient3322-5"
       xlink:href="#linearGradient4562"
       gradientUnits="userSpaceOnUse"
       gradientTransform="matrix(-3.438708e-8,-2.0049302,2.6407404,0,-29.811394,116.5587)" />
    <linearGradient
       id="linearGradient4562">
      <stop
         offset="0"
         style="stop-color:#c5f2ac;stop-opacity:1"
         id="stop4558" />
      <stop
         offset="1"
         style="stop-color:#63a851;stop-opacity:1"
         id="stop4560" />
    </linearGradient>
    <linearGradient
       x1="24.682861"
       y1="9.2416716"
       x2="24.682861"
       y2="13.523027"
       id="linearGradient3316-2"
       xlink:href="#linearGradient5060-6"
       gradientUnits="userSpaceOnUse"
       gradientTransform="matrix(1.8338355,0,0,0.65813693,-96.433304,26.017031)" />
    <linearGradient
       x1="33.579403"
       y1="5.7086449"
       x2="33.579403"
       y2="16.323294"
       id="linearGradient3311-7"
       xlink:href="#linearGradient878"
       gradientUnits="userSpaceOnUse"
       gradientTransform="matrix(1.5405636,0,0,1.2369262,-102.08055,12.496891)" />
    <linearGradient
       x1="16.91585"
       y1="7.0006418"
       x2="16.91585"
       y2="14"
       id="linearGradient3313-0"
       xlink:href="#linearGradient3958"
       gradientUnits="userSpaceOnUse"
       gradientTransform="matrix(1.8906253,0,0,1.8752009,-97.808744,6.4325409)" />
    <linearGradient
       x1="12.578789"
       y1="2.9137428"
       x2="12.578789"
       y2="43.810863"
       id="linearGradient3308-8"
       xlink:href="#linearGradient8265-821-176-38-919-66-249"
       gradientUnits="userSpaceOnUse"
       gradientTransform="matrix(1.8576984,0,0,1.7471456,-97.020754,15.128561)" />
    <linearGradient
       x1="32.891998"
       y1="8.059"
       gradientTransform="matrix(0.50114176,0,0,0.51016186,7.7191177,66.410353)"
       x2="36.358002"
       gradientUnits="userSpaceOnUse"
       y2="5.4565001"
       id="linearGradient3225-9">
      <stop
         offset="0"
         style="stop-color:#f0f0f0;stop-opacity:1"
         id="stop8591-2" />
      <stop
         offset="1"
         style="stop-color:#b0b0b0;stop-opacity:1"
         id="stop8593-2" />
    </linearGradient>
    <radialGradient
       cx="48"
       cy="90.171875"
       r="42"
       fx="48"
       fy="90.171875"
       id="radialGradient3619-6-8"
       xlink:href="#linearGradient8265-821-176-38-919-66-249"
       gradientUnits="userSpaceOnUse"
       gradientTransform="matrix(0.21542103,0,0,0.18613898,10.290891,66.251443)" />
    <linearGradient
       x1="7.3709002"
       y1="51.470146"
       x2="23.76619"
       y2="51.433136"
       id="linearGradient3748-3"
       xlink:href="#linearGradient3742"
       gradientUnits="userSpaceOnUse"
       gradientTransform="matrix(0,-0.23732725,0.18613898,0,11.696431,84.459908)" />
    <linearGradient
       id="linearGradient3742">
      <stop
         id="stop3744"
         style="stop-color:#676f7d;stop-opacity:1"
         offset="0" />
      <stop
         id="stop3746"
         style="stop-color:#818791;stop-opacity:1"
         offset="1" />
    </linearGradient>
    <linearGradient
       xlink:href="#linearGradient8265-821-176-38-919-66-249"
       id="linearGradient2015-3-2"
       gradientUnits="userSpaceOnUse"
       x1="36.357143"
       y1="6"
       x2="36.357143"
       y2="63.893143"
       gradientTransform="matrix(0.1861391,0,0,0.18690386,11.696426,66.278846)" />
    <linearGradient
       x1="48"
       y1="90"
       x2="48"
       y2="5.9877172"
       id="linearGradient3617-6-9"
       xlink:href="#ButtonColor-7"
       gradientUnits="userSpaceOnUse"
       gradientTransform="matrix(0.18613899,0,0,0.186139,11.696426,66.283436)" />
    <linearGradient
       x1="10.31979"
       y1="21"
       x2="10.31979"
       y2="0.99929649"
       id="ButtonColor-7"
       gradientUnits="userSpaceOnUse">
      <stop
         id="stop3189"
         style="stop-color:#e0e0e0;stop-opacity:1"
         offset="0" />
      <stop
         id="stop3191"
         style="stop-color:#f0f0f0;stop-opacity:1"
         offset="1" />
    </linearGradient>
    <linearGradient
       gradientTransform="matrix(0.88394566,0,0,-0.88394572,10.163169,89.361561)"
       gradientUnits="userSpaceOnUse"
       xlink:href="#ButtonShadow-0"
       id="linearGradient3780-9"
       y2="90.238609"
       x2="32.251034"
       y1="6.1317081"
       x1="32.251034" />
    <linearGradient
       gradientTransform="matrix(1.0058652,0,0,0.994169,100,0)"
       gradientUnits="userSpaceOnUse"
       id="ButtonShadow-0"
       y2="7.0165396"
       x2="45.447727"
       y1="92.539597"
       x1="45.447727">
      <stop
         offset="0"
         style="stop-color:#000000;stop-opacity:1"
         id="stop3750-8" />
      <stop
         offset="1"
         style="stop-color:#000000;stop-opacity:0.58823532"
         id="stop3752-5-4" />
    </linearGradient>
    <linearGradient
       x1="32.891998"
       y1="8.059"
       gradientTransform="matrix(0.50114176,0,0,0.51016186,7.7191177,43.282907)"
       x2="36.358002"
       gradientUnits="userSpaceOnUse"
       y2="5.4565001"
       id="linearGradient3225">
      <stop
         offset="0"
         style="stop-color:#f0f0f0;stop-opacity:1"
         id="stop8591" />
      <stop
         offset="1"
         style="stop-color:#b0b0b0;stop-opacity:1"
         id="stop8593" />
    </linearGradient>
    <radialGradient
       cx="48"
       cy="90.171875"
       r="42"
       fx="48"
       fy="90.171875"
       id="radialGradient3619-6"
       xlink:href="#linearGradient8265-821-176-38-919-66-249"
       gradientUnits="userSpaceOnUse"
       gradientTransform="matrix(0.21542103,0,0,0.18613898,10.290891,43.123997)" />
    <linearGradient
       x1="7.3709002"
       y1="51.470146"
       x2="23.76619"
       y2="51.433136"
       id="linearGradient3748"
       xlink:href="#linearGradient3742"
       gradientUnits="userSpaceOnUse"
       gradientTransform="matrix(0,-0.23732725,0.18613898,0,11.696431,61.332461)" />
    <linearGradient
       xlink:href="#linearGradient8265-821-176-38-919-66-249"
       id="linearGradient2015-3"
       gradientUnits="userSpaceOnUse"
       x1="36.357143"
       y1="6"
       x2="36.357143"
       y2="63.893143"
       gradientTransform="matrix(0.1861391,0,0,0.18690386,11.696426,43.1514)" />
    <linearGradient
       x1="48"
       y1="90"
       x2="48"
       y2="5.9877172"
       id="linearGradient3617-6"
       xlink:href="#ButtonColor-7"
       gradientUnits="userSpaceOnUse"
       gradientTransform="matrix(0.18613899,0,0,0.186139,11.696426,43.15599)" />
    <linearGradient
       inkscape:collect="always"
       xlink:href="#ButtonShadow-0"
       id="linearGradient1006"
       gradientUnits="userSpaceOnUse"
       gradientTransform="matrix(0.88394566,0,0,-0.88394572,10.163169,89.361561)"
       x1="32.251034"
       y1="6.1317081"
       x2="32.251034"
       y2="90.238609" />
  </defs>
  <g
     transform="matrix(1.4222222,0,0,1.4222222,138.57242,-9.6523346)"
     id="g4245">
    <rect
       style="display:inline;overflow:visible;visibility:visible;opacity:0.3;fill:url(#linearGradient3333-9);fill-opacity:1;fill-rule:nonzero;stroke:none;stroke-width:1;marker:none"
       id="rect2512-2"
       y="84.833672"
       x="-84.777489"
       height="9.140626"
       width="64.687508" />
    <path
       style="display:inline;overflow:visible;visibility:visible;opacity:0.3;fill:url(#radialGradient3330-8);fill-opacity:1;fill-rule:nonzero;stroke:none;stroke-width:1;marker:none"
       id="path2514-9"
       d="m -20.089984,84.834001 c 0,0 0,9.1401 0,9.1401 5.23523,0.0172 12.6562601,-2.04782 12.6562501,-4.57064 0,-2.52281 -5.8421401,-4.56946 -12.6562501,-4.56946 z" />
    <path
       style="display:inline;overflow:visible;visibility:visible;opacity:0.3;fill:url(#radialGradient3327-2);fill-opacity:1;fill-rule:nonzero;stroke:none;stroke-width:1;marker:none"
       id="path2516-1"
       d="m -84.777484,84.834001 c 0,0 0,9.1401 0,9.1401 -5.23524,0.0172 -12.65625,-2.04782 -12.65625,-4.57064 0,-2.52281 5.84213,-4.56946 12.65625,-4.56946 z" />
    <rect
       style="fill:url(#radialGradient3322-5);fill-opacity:1;fill-rule:evenodd;stroke:#505050;stroke-width:0.70462477;stroke-linecap:round;stroke-linejoin:round;stroke-miterlimit:4;stroke-dasharray:none;stroke-dashoffset:0;stroke-opacity:1"
       id="rect2573-2"
       y="20.498505"
       x="-94.972054"
       ry="4.9218755"
       rx="4.9218755"
       height="69.60788"
       width="85.07663" />
    <rect
       style="display:inline;overflow:visible;visibility:visible;opacity:0.2;fill:url(#linearGradient3316-2);fill-opacity:1;fill-rule:evenodd;stroke:none;stroke-width:1.00000012;stroke-linecap:butt;stroke-linejoin:miter;stroke-miterlimit:4;stroke-dasharray:none;stroke-dashoffset:0;stroke-opacity:1;marker:none;marker-start:none;marker-mid:none;marker-end:none"
       id="rect1436-7"
       y="32.099312"
       x="-94.621239"
       ry="0"
       rx="0"
       height="2.8125002"
       width="84.375" />
    <path
       style="display:inline;overflow:visible;visibility:visible;fill:url(#linearGradient3311-7);fill-opacity:1;fill-rule:evenodd;stroke:url(#linearGradient3313-0);stroke-width:0.70312506;stroke-linecap:butt;stroke-linejoin:miter;stroke-miterlimit:4;stroke-dasharray:none;stroke-dashoffset:0;stroke-opacity:1;marker:none;marker-start:none;marker-mid:none;marker-end:none"
       id="rect2311-0"
       d="m -89.300924,20.497751 c 0,0 74.37007,0.0161 74.37007,0.0161 2.95868,0 5.0361801,2.36498 5.0361801,4.98199 0,0 0,6.2519 0,6.2519 0,0 -85.0781301,0 -85.0781301,0 0,0 0,-6.2519 0,-6.2519 0,-2.7894 2.28536,-4.9981 5.67188,-4.9981 z" />
    <rect
       style="opacity:0.4;fill:none;fill-opacity:1;fill-rule:evenodd;stroke:url(#linearGradient3308-8);stroke-width:0.70574868;stroke-linecap:round;stroke-linejoin:round;stroke-miterlimit:4;stroke-dasharray:none;stroke-dashoffset:0;stroke-opacity:1"
       id="rect2601-9"
       y="21.202225"
       x="-94.268364"
       ry="4.21875"
       rx="4.21875"
       height="68.200493"
       width="83.669258" />
    <rect
       style="display:inline;overflow:visible;visibility:visible;opacity:0.68399999;fill:#1a1a1a;fill-opacity:1;fill-rule:nonzero;stroke:#000000;stroke-width:0.70312524;stroke-linecap:butt;stroke-linejoin:miter;stroke-miterlimit:4;stroke-dasharray:none;stroke-dashoffset:0;stroke-opacity:1;marker:none;marker-start:none;marker-mid:none;marker-end:none;enable-background:accumulate"
       id="rect9439-3"
       y="76.747734"
       x="-81.613426"
       ry="0"
       rx="0"
       height="13.359377"
       width="58.359383" />
    <path
       id="rect2429-6"
       d="m -82.316544,90.458691 c 0,0 0,-14.41407 0,-14.41407 0,0 59.76562,0 59.76562,0 0,0 0,14.41407 0,14.41407"
       style="display:inline;overflow:visible;visibility:visible;opacity:0.2;fill:none;fill-opacity:1;fill-rule:nonzero;stroke:#ffffff;stroke-width:0.70312524;stroke-linecap:butt;stroke-linejoin:miter;stroke-miterlimit:4;stroke-dasharray:none;stroke-dashoffset:0;stroke-opacity:1;marker:none;marker-start:none;marker-mid:none;marker-end:none;enable-background:accumulate" />
  </g>
  <path
     inkscape:connector-curvature="0"
     d="m 15.16656,28.078927 a 2.8821942,2.8821942 0 1 1 -5.764388,0 2.8821942,2.8821942 0 1 1 5.764388,0 z"
     id="path4371"
     style="color:#000000;display:inline;overflow:visible;visibility:visible;opacity:0.7;fill:#ffffff;fill-opacity:1;fill-rule:nonzero;stroke:none;stroke-width:2.8821938;marker:none;enable-background:accumulate" />
  <path
     inkscape:connector-curvature="0"
     d="m 117.15795,27.691389 a 2.8821938,2.8821938 0 1 1 -5.76438,0 2.8821938,2.8821938 0 1 1 5.76438,0 z"
     id="path4371-2"
     style="color:#000000;display:inline;overflow:visible;visibility:visible;opacity:0.7;fill:#ffffff;fill-opacity:1;fill-rule:nonzero;stroke:none;stroke-width:2.8821938;marker:none;enable-background:accumulate" />
  <path
     inkscape:connector-curvature="0"
     d="m 109.77014,27.691389 a 2.882195,2.882195 0 1 1 -5.76439,0 2.882195,2.882195 0 1 1 5.76439,0 z"
     id="path4371-0"
     style="color:#000000;display:inline;overflow:visible;visibility:visible;opacity:0.7;fill:#ffffff;fill-opacity:1;fill-rule:nonzero;stroke:none;stroke-width:2.8821938;marker:none;enable-background:accumulate" />
  <path
     inkscape:connector-curvature="0"
     d="m 102.38208,27.691389 a 2.8821938,2.8821938 0 1 1 -5.764383,0 2.8821938,2.8821938 0 1 1 5.764383,0 z"
     id="path4371-6"
     style="color:#000000;display:inline;overflow:visible;visibility:visible;opacity:0.7;fill:#ffffff;fill-opacity:1;fill-rule:nonzero;stroke:none;stroke-width:2.8821938;marker:none;enable-background:accumulate" />
  <text
     xml:space="preserve"
     style="font-style:normal;font-weight:normal;font-size:57.64387512px;line-height:1.25;font-family:sans-serif;letter-spacing:0px;word-spacing:0px;opacity:0.7;fill:#ffffff;fill-opacity:1;stroke:none;stroke-width:1.4410969"
     x="50.715054"
     y="30.457289"
     id="text1267"><tspan
       sodipodi:role="line"
       id="tspan1265"
       x="50.715054"
       y="30.457289"
       style="font-style:normal;font-variant:normal;font-weight:500;font-stretch:normal;font-size:7.68585062px;font-family:Ubuntu;-inkscape-font-specification:'Ubuntu Medium';fill:#ffffff;fill-opacity:1;stroke-width:1.4410969">18:30</tspan></text>
  <g
     transform="matrix(0.22464152,0,0,0.22464152,8.8175178,42.068103)"
     id="layer5"
     style="display:inline">
    <path
       inkscape:connector-curvature="0"
       style="display:inline;opacity:0.62999998;fill:url(#linearGradient1006);fill-opacity:1;fill-rule:nonzero;stroke:none;stroke-width:0.86845267"
       d="m 21.510559,84.057885 h 62.16399 c 3.34823,0 6.04372,-2.727212 6.04372,-6.114824 V 38.904982 L 60.619729,9.8064506 h -39.10917 c -3.34822,0 -6.04372,2.7272114 -6.04372,6.1148244 v 62.021786 c 0,3.387612 2.6955,6.114824 6.04372,6.114824 z"
       id="rect3723" />
  </g>
  <path
     inkscape:connector-curvature="0"
     style="opacity:1;fill:url(#linearGradient3617-6);fill-opacity:1;fill-rule:nonzero;stroke:none;stroke-width:0.186139"
     d="m 13.930095,44.272821 h 8.487936 l 6.030906,6.030905 v 8.487939 c 0,0.618724 -0.498105,1.116832 -1.116835,1.116832 H 13.930095 c -0.618728,0 -1.116834,-0.498108 -1.116834,-1.116832 v -13.40201 c 0,-0.618726 0.498106,-1.116834 1.116834,-1.116834 z"
     id="rect2419-1" />
  <path
     inkscape:connector-curvature="0"
     d="m 13.930095,44.272821 c -0.618724,0 -1.116834,0.500154 -1.116834,1.121424 v 0.373808 12.262728 c 0.861362,1.817726 0.223017,1.293121 0.186139,0.186902 v -12.20228 -0.37381 c 0,-0.519938 0.412887,-0.93452 0.930695,-0.93452 h 0.372281 7.743388 0.372279 l 5.844763,5.788144 v 0.37381 7.348656 c -0.523925,1.374703 0.186131,1.557038 0.186131,-0.186903 v -7.348658 -0.373809 l -6.030902,-6.035492 z"
     id="rect3728-7"
     style="opacity:1;fill:url(#linearGradient2015-3);fill-opacity:1;fill-rule:nonzero;stroke:none;stroke-width:0.18652111" />
  <path
     inkscape:connector-curvature="0"
     d="m 20.238039,44.273139 c 1.381037,0 0.540984,6.207679 0.540984,6.207679 0,0 7.671401,-0.812539 7.671401,1.730585 0,-0.619487 -0.0015,-1.907677 -0.0015,-1.907677 l -6.03093,-6.030904 z"
     style="opacity:0.2;fill:#000000;fill-opacity:1;fill-rule:evenodd;stroke-width:0.41508955"
     id="path4474-3-5" />
  <path
     inkscape:connector-curvature="0"
     d="m 12.813265,58.484533 c 0,0.788878 0.498107,1.423965 1.116834,1.423965 h 13.402007 c 0.618727,0 1.116834,-0.635087 1.116834,-1.423965 V 55.738508 H 12.813265 Z"
     id="rect3736"
     style="color:#000000;display:inline;overflow:visible;visibility:visible;opacity:1;fill:url(#linearGradient3748);fill-opacity:1;fill-rule:nonzero;stroke:none;stroke-width:0.31527081;marker:none;enable-background:accumulate" />
  <path
     inkscape:connector-curvature="0"
     d="m 13.930099,59.908498 c -0.618727,0 -1.116834,-0.500154 -1.116834,-1.121424 v -0.434242 c 0.0076,-2.272586 0.186138,-2.321047 0.186138,-0.186915 v 0.373808 c 0,0.519938 0.412885,0.934519 0.930696,0.934519 h 0.372279 12.657444 0.37228 c 0.517811,0 0.930695,-0.414581 0.930695,-0.934519 v -0.373808 c 0.01827,-2.53361 0.186143,-1.666637 0.186143,0.186904 v 0.434243 c -4e-6,0.62128 -0.498112,1.121434 -1.116838,1.121434 z"
     id="path3615-2"
     style="opacity:0.2;fill:url(#radialGradient3619-6);fill-opacity:1;fill-rule:nonzero;stroke:none;stroke-width:0.18652104" />
  <path
     inkscape:connector-curvature="0"
     d="m 20.751412,44.272822 c 1.305665,0 0.506232,5.750527 0.506232,5.750527 0,0 2.545723,-0.303025 4.607934,-0.04212 1.403891,0.177615 2.583701,0.616578 2.583701,1.590416 0,-0.585678 -3.39e-4,-1.267918 -3.39e-4,-1.267918 l -6.030905,-6.030903 z"
     style="opacity:0.2;fill:#000000;fill-opacity:1;fill-rule:evenodd;stroke-width:0.392436"
     id="path4474-3" />
  <path
     inkscape:connector-curvature="0"
     d="m 21.367512,44.276599 c 1.230202,0 0.443112,5.312057 0.443112,5.312057 0,0 6.640097,-0.815774 6.640097,1.449593 0,-0.551826 -0.0018,-0.734523 -0.0018,-0.734523 l -6.030913,-6.030904 z"
     style="fill:url(#linearGradient3225);fill-rule:evenodd;stroke-width:0.36975393"
     id="path4474" />
  <g
     transform="matrix(0.22464152,0,0,0.22464152,8.8175178,65.19555)"
     id="layer5-8"
     style="display:inline">
    <path
       inkscape:connector-curvature="0"
       style="display:inline;opacity:0.62999998;fill:url(#linearGradient3780-9);fill-opacity:1;fill-rule:nonzero;stroke:none;stroke-width:0.86845267"
       d="m 21.510559,84.057885 h 62.16399 c 3.34823,0 6.04372,-2.727212 6.04372,-6.114824 V 38.904982 L 60.619729,9.8064506 h -39.10917 c -3.34822,0 -6.04372,2.7272114 -6.04372,6.1148244 v 62.021786 c 0,3.387612 2.6955,6.114824 6.04372,6.114824 z"
       id="rect3723-4" />
  </g>
  <path
     inkscape:connector-curvature="0"
     style="opacity:1;fill:url(#linearGradient3617-6-9);fill-opacity:1;fill-rule:nonzero;stroke:none;stroke-width:0.186139"
     d="m 13.930095,67.400267 h 8.487936 l 6.030906,6.030905 v 8.48794 c 0,0.618725 -0.498105,1.116833 -1.116835,1.116833 H 13.930095 c -0.618728,0 -1.116834,-0.498108 -1.116834,-1.116833 V 68.517101 c 0,-0.618726 0.498106,-1.116834 1.116834,-1.116834 z"
     id="rect2419-1-5" />
  <path
     inkscape:connector-curvature="0"
     d="m 13.930095,67.400267 c -0.618724,0 -1.116834,0.500154 -1.116834,1.121424 v 0.373808 12.26273 c 0.861362,1.817726 0.223017,1.293121 0.186139,0.186902 V 69.14285 68.769039 c 0,-0.519937 0.412887,-0.93452 0.930695,-0.93452 h 0.372281 7.743388 0.372279 l 5.844763,5.788144 v 0.37381 7.348658 c -0.523925,1.374702 0.186131,1.557038 0.186131,-0.186904 v -7.348659 -0.373809 l -6.030902,-6.035492 z"
     id="rect3728-7-0"
     style="opacity:1;fill:url(#linearGradient2015-3-2);fill-opacity:1;fill-rule:nonzero;stroke:none;stroke-width:0.18652111" />
  <path
     inkscape:connector-curvature="0"
     d="m 20.238039,67.400586 c 1.381037,0 0.540984,6.207678 0.540984,6.207678 0,0 7.671401,-0.812539 7.671401,1.730585 0,-0.619486 -0.0015,-1.907677 -0.0015,-1.907677 l -6.03093,-6.030903 z"
     style="opacity:0.2;fill:#000000;fill-opacity:1;fill-rule:evenodd;stroke-width:0.41508955"
     id="path4474-3-5-3" />
  <path
     inkscape:connector-curvature="0"
     d="m 12.813265,81.611981 c 0,0.788877 0.498107,1.423965 1.116834,1.423965 h 13.402007 c 0.618727,0 1.116834,-0.635088 1.116834,-1.423965 V 78.865955 H 12.813265 Z"
     id="rect3736-6"
     style="color:#000000;display:inline;overflow:visible;visibility:visible;opacity:1;fill:url(#linearGradient3748-3);fill-opacity:1;fill-rule:nonzero;stroke:none;stroke-width:0.31527081;marker:none;enable-background:accumulate" />
  <path
     inkscape:connector-curvature="0"
     d="m 13.930099,83.035946 c -0.618727,0 -1.116834,-0.500154 -1.116834,-1.121424 V 81.48028 c 0.0076,-2.272587 0.186138,-2.321049 0.186138,-0.186915 v 0.373808 c 0,0.519937 0.412885,0.934519 0.930696,0.934519 h 0.372279 12.657444 0.37228 c 0.517811,0 0.930695,-0.414582 0.930695,-0.934519 v -0.373808 c 0.01827,-2.533612 0.186143,-1.666639 0.186143,0.186904 v 0.434242 c -4e-6,0.621281 -0.498112,1.121435 -1.116838,1.121435 z"
     id="path3615-2-1"
     style="opacity:0.2;fill:url(#radialGradient3619-6-8);fill-opacity:1;fill-rule:nonzero;stroke:none;stroke-width:0.18652104" />
  <path
     inkscape:connector-curvature="0"
     d="m 20.751412,67.400269 c 1.305665,0 0.506232,5.750526 0.506232,5.750526 0,0 2.545723,-0.303025 4.607934,-0.04212 1.403891,0.177615 2.583701,0.616578 2.583701,1.590416 0,-0.585678 -3.39e-4,-1.267917 -3.39e-4,-1.267917 L 22.418035,67.40027 Z"
     style="opacity:0.2;fill:#000000;fill-opacity:1;fill-rule:evenodd;stroke-width:0.392436"
     id="path4474-3-0" />
  <path
     inkscape:connector-curvature="0"
     d="m 21.367512,67.404045 c 1.230202,0 0.443112,5.312058 0.443112,5.312058 0,0 6.640097,-0.815775 6.640097,1.449593 0,-0.551827 -0.0018,-0.734524 -0.0018,-0.734524 l -6.030913,-6.030903 z"
     style="fill:url(#linearGradient3225-9);fill-rule:evenodd;stroke-width:0.36975393"
     id="path4474-6" />
</svg>
