<?xml version="1.0" encoding="UTF-8" standalone="no"?>
<!-- Created with Inkscape (http://www.inkscape.org/) -->

<svg
   xmlns:dc="http://purl.org/dc/elements/1.1/"
   xmlns:cc="http://creativecommons.org/ns#"
   xmlns:rdf="http://www.w3.org/1999/02/22-rdf-syntax-ns#"
   xmlns:svg="http://www.w3.org/2000/svg"
   xmlns="http://www.w3.org/2000/svg"
   xmlns:xlink="http://www.w3.org/1999/xlink"
   xmlns:sodipodi="http://sodipodi.sourceforge.net/DTD/sodipodi-0.dtd"
   xmlns:inkscape="http://www.inkscape.org/namespaces/inkscape"
   width="48px"
   height="48px"
   id="svg21169"
   version="1.1"
   inkscape:version="0.91 r13725"
   sodipodi:docname="folder-publicshare.svg">
  <defs
     id="defs21171">
    <linearGradient
       inkscape:collect="always"
       xlink:href="#linearGradient3454-2-8-6-1-1-8-0-6-7-3-1"
       id="linearGradient3381-56-2-7-5-0-8-0-0-4-6-1"
       gradientUnits="userSpaceOnUse"
       gradientTransform="matrix(0.89189031,0,0,1.0580283,3.1206609,5.3536023)"
       x1="42.470848"
       y1="11.952797"
       x2="42.470848"
       y2="35.581654" />
    <linearGradient
       id="linearGradient3454-2-8-6-1-1-8-0-6-7-3-1">
      <stop
         offset="0"
         style="stop-color:#ffffff;stop-opacity:1"
         id="stop3456-4-7-9-4-0-3-6-2-9-6-7" />
      <stop
         offset="0.0097359"
         style="stop-color:#ffffff;stop-opacity:0.23529412"
         id="stop3458-39-0-8-61-3-8-9-0-4-7-1" />
      <stop
         offset="0.99001008"
         style="stop-color:#ffffff;stop-opacity:0.15686275"
         id="stop3460-7-5-4-1-6-6-6-2-1-4-0" />
      <stop
         offset="1"
         style="stop-color:#ffffff;stop-opacity:0.39215687"
         id="stop3462-0-5-6-6-2-1-6-0-3-1-3" />
    </linearGradient>
    <linearGradient
       inkscape:collect="always"
       xlink:href="#linearGradient6129-963-697-142-998-580-273-0-8-4-9-0-0-0-1-3-6"
       id="linearGradient3072-0-3-0-7-4-8-7-3-6-5"
       gradientUnits="userSpaceOnUse"
       gradientTransform="matrix(1.1446925,0,0,0.9977536,-3.4660853,1.0988278)"
       x1="22.934725"
       y1="49.629246"
       x2="22.809399"
       y2="36.657963" />
    <linearGradient
       id="linearGradient6129-963-697-142-998-580-273-0-8-4-9-0-0-0-1-3-6">
      <stop
         id="stop2661-3-02-4-8-0-4-3-4-7-9"
         style="stop-color:#0a0a0a;stop-opacity:0.498"
         offset="0" />
      <stop
         id="stop2663-2-8-06-2-4-6-4-3-8-8"
         style="stop-color:#0a0a0a;stop-opacity:0"
         offset="1" />
    </linearGradient>
    <linearGradient
       inkscape:collect="always"
       xlink:href="#linearGradient4632-0-6-4"
       id="linearGradient4638-4-6-8-9-9-5-8-7-2-3"
       x1="35.792694"
       y1="17.118193"
       x2="35.792694"
       y2="43.761127"
       gradientUnits="userSpaceOnUse"
       gradientTransform="matrix(1,0,0,1.0357143,1.4680025e-5,-1.5891022)" />
    <linearGradient
       id="linearGradient4632-0-6-4">
      <stop
         style="stop-color:#aacb7d;stop-opacity:1;"
         offset="0"
         id="stop4634-4-4-7" />
      <stop
         style="stop-color:#709937;stop-opacity:1;"
         offset="1"
         id="stop4636-3-1-5" />
    </linearGradient>
    <radialGradient
       inkscape:collect="always"
       xlink:href="#linearGradient5060-820-9-0-7-1-7-7-1-6-6-0"
       id="radialGradient3080-2-3-9-9-8-8-9-6-1-3"
       gradientUnits="userSpaceOnUse"
       gradientTransform="matrix(-0.03079083,0,0,0.02470588,23.389815,31.941628)"
       cx="605.71429"
       cy="486.64789"
       fx="605.71429"
       fy="486.64789"
       r="117.14286" />
    <linearGradient
       id="linearGradient5060-820-9-0-7-1-7-7-1-6-6-0">
      <stop
         id="stop2681-5-4-3-6-3-8-2-6-8-6"
         style="stop-color:#000000;stop-opacity:1"
         offset="0" />
      <stop
         id="stop2683-8-6-9-4-6-6-2-9-6-6"
         style="stop-color:#000000;stop-opacity:0"
         offset="1" />
    </linearGradient>
    <linearGradient
       id="linearGradient5060-179-2-0-3-6-2-2-8-9-8-8">
      <stop
         id="stop2675-9-9-4-1-4-4-9-5-7-2"
         style="stop-color:#000000;stop-opacity:1"
         offset="0" />
      <stop
         id="stop2677-1-7-2-6-1-8-3-8-0-8"
         style="stop-color:#000000;stop-opacity:0"
         offset="1" />
    </linearGradient>
    <linearGradient
       inkscape:collect="always"
       xlink:href="#linearGradient5048-585-4-0-56-2-5-2-1-1-6-8"
       id="linearGradient3086-4-4-0-5-5-7-4-8-7-0"
       gradientUnits="userSpaceOnUse"
       gradientTransform="matrix(0.07938856,0,0,0.02470588,-4.6932853,31.941628)"
       x1="302.85715"
       y1="366.64789"
       x2="302.85715"
       y2="609.50507" />
    <linearGradient
       id="linearGradient5048-585-4-0-56-2-5-2-1-1-6-8">
      <stop
         id="stop2667-5-0-7-4-7-7-2-4-6-2"
         style="stop-color:#000000;stop-opacity:0"
         offset="0" />
      <stop
         id="stop2669-4-1-8-0-6-9-3-7-4-6"
         style="stop-color:#000000;stop-opacity:1"
         offset="0.5" />
      <stop
         id="stop2671-2-6-3-2-0-6-0-0-8-2"
         style="stop-color:#000000;stop-opacity:0"
         offset="1" />
    </linearGradient>
    <linearGradient
       inkscape:collect="always"
       xlink:href="#linearGradient4507-9-2-2-3-6-9-9-4-9-0"
       id="linearGradient3381-5-5-29-4-6-5-0-4-9-2-5"
       gradientUnits="userSpaceOnUse"
       gradientTransform="matrix(0.89189031,0,0,1.0580283,3.1207147,5.3535878)"
       x1="21.37039"
       y1="4.2476678"
       x2="21.37039"
       y2="34.143417" />
    <linearGradient
       id="linearGradient4507-9-2-2-3-6-9-9-4-9-0">
      <stop
         id="stop4509-9-8-4-2-3-4-5-1-6-1"
         style="stop-color:#ffffff;stop-opacity:1"
         offset="0" />
      <stop
         id="stop4511-7-50-2-1-3-9-4-5-9-8"
         style="stop-color:#ffffff;stop-opacity:0.23529412"
         offset="0.07395859" />
      <stop
         id="stop4513-2-0-2-9-2-6-2-6-3-0"
         style="stop-color:#ffffff;stop-opacity:0.15686275"
         offset="0.99001008" />
      <stop
         id="stop4515-3-9-8-6-6-0-7-5-8-6"
         style="stop-color:#ffffff;stop-opacity:0.39215687"
         offset="1" />
    </linearGradient>
    <linearGradient
       inkscape:collect="always"
       xlink:href="#linearGradient4646-6-91-5-0-5-8-4-9-9-6"
       id="linearGradient3089-5-2-9-8-6-8-0-7-1-8-7-4"
       gradientUnits="userSpaceOnUse"
       gradientTransform="translate(-50.94088,-1.2229149e-5)"
       x1="62.988873"
       y1="13"
       x2="62.988873"
       y2="16" />
    <linearGradient
       id="linearGradient4646-6-91-5-0-5-8-4-9-9-6">
      <stop
         offset="0"
         style="stop-color:#f9f9f9;stop-opacity:1"
         id="stop4648-2-4-6-6-8-7-1-1-7-5" />
      <stop
         offset="1"
         style="stop-color:#d8d8d8;stop-opacity:1"
         id="stop4650-3-8-5-3-4-5-7-4-8-2" />
    </linearGradient>
    <linearGradient
       id="linearGradient3104-8-8-97-4-6-2-0-1-4-0-5-8-3-5-7">
      <stop
         offset="0"
         style="stop-color:#000000;stop-opacity:0.32173914"
         id="stop3106-5-4-3-5-0-1-61-9-2-7-3-3-1-3-4" />
      <stop
         offset="1"
         style="stop-color:#000000;stop-opacity:0.27826086"
         id="stop3108-4-3-7-8-2-4-01-9-9-0-6-4-4-0-4" />
    </linearGradient>
    <linearGradient
       y2="3.6336823"
       x2="-51.786404"
       y1="53.514328"
       x1="-51.786404"
       gradientTransform="matrix(0.80749834,0,0,0.83374395,106.8767,-0.06985223)"
       gradientUnits="userSpaceOnUse"
       id="linearGradient21167"
       xlink:href="#linearGradient3104-8-8-97-4-6-2-0-1-4-0-5-8-3-5-7"
       inkscape:collect="always" />
    <linearGradient
       gradientUnits="userSpaceOnUse"
       y2="44.347122"
       x2="22.355932"
       y1="16.268967"
       x1="22.355932"
       id="linearGradient3907"
       xlink:href="#linearGradient7012-661-145-733-759-865-745"
       inkscape:collect="always" />
    <radialGradient
       r="21"
       fy="5.01718"
       fx="3"
       cy="5.01718"
       cx="3"
       gradientTransform="matrix(-1.274898e-8,1.7142916,-2.159331,-1.4599595e-8,12.809361,2.8570011)"
       gradientUnits="userSpaceOnUse"
       id="radialGradient3137"
       xlink:href="#linearGradient3484"
       inkscape:collect="always" />
    <linearGradient
       y2="16.19013"
       x2="62.988873"
       y1="13.182598"
       x1="62.988873"
       gradientTransform="translate(-50.940898,0)"
       gradientUnits="userSpaceOnUse"
       id="linearGradient3135"
       xlink:href="#linearGradient6404"
       inkscape:collect="always" />
    <linearGradient
       y2="609.50507"
       x2="302.85715"
       y1="366.64789"
       x1="302.85715"
       gradientTransform="matrix(0.07938856,0,0,0.02470588,-4.693293,31.941642)"
       gradientUnits="userSpaceOnUse"
       id="linearGradient3132"
       xlink:href="#linearGradient5048-585"
       inkscape:collect="always" />
    <radialGradient
       r="117.14286"
       fy="486.64789"
       fx="605.71429"
       cy="486.64789"
       cx="605.71429"
       gradientTransform="matrix(0.03079083,0,0,0.02470588,24.610252,31.941642)"
       gradientUnits="userSpaceOnUse"
       id="radialGradient3129"
       xlink:href="#linearGradient5060-179"
       inkscape:collect="always" />
    <radialGradient
       r="117.14286"
       fy="486.64789"
       fx="605.71429"
       cy="486.64789"
       cx="605.71429"
       gradientTransform="matrix(-0.03079083,0,0,0.02470588,23.389748,31.941642)"
       gradientUnits="userSpaceOnUse"
       id="radialGradient3126"
       xlink:href="#linearGradient5060-820"
       inkscape:collect="always" />
    <linearGradient
       y2="16.047026"
       x2="82.453476"
       y1="45.114193"
       x1="82.453476"
       gradientTransform="translate(-53.765393,-0.1141929)"
       gradientUnits="userSpaceOnUse"
       id="linearGradient3123"
       xlink:href="#linearGradient3390"
       inkscape:collect="always" />
    <linearGradient
       y2="36.657963"
       x2="22.809399"
       y1="49.629246"
       x1="22.934725"
       gradientTransform="matrix(1.1446925,0,0,0.9977536,-3.4661413,1.0988425)"
       gradientUnits="userSpaceOnUse"
       id="linearGradient3118"
       xlink:href="#linearGradient6129-963-697-142-998-580-273"
       inkscape:collect="always" />
    <radialGradient
       r="20.979567"
       fy="8.3021259"
       fx="7.2646537"
       cy="8.3021259"
       cx="7.2646537"
       gradientTransform="matrix(0,1.2079744,-1.6271642,0,26.371748,8.2664685)"
       gradientUnits="userSpaceOnUse"
       id="radialGradient3115"
       xlink:href="#linearGradient6087-437-184-795-110-662-495"
       inkscape:collect="always" />
    <linearGradient
       y2="33.95525"
       x2="15.214532"
       y1="22.292103"
       x1="11.566265"
       gradientUnits="userSpaceOnUse"
       id="linearGradient3112"
       xlink:href="#linearGradient8265-821-176-38-919-66-249"
       inkscape:collect="always" />
    <linearGradient
       y2="33.95525"
       x2="15.214532"
       y1="22.292103"
       x1="11.566265"
       gradientUnits="userSpaceOnUse"
       id="linearGradient3109"
       xlink:href="#linearGradient8265-821-176-38-919-66-249"
       inkscape:collect="always" />
    <radialGradient
       r="20.979567"
       fy="8.3021259"
       fx="7.2646537"
       cy="8.3021259"
       cx="7.2646537"
       gradientTransform="matrix(0,1.2079744,-1.6271642,0,26.371748,8.2664685)"
       gradientUnits="userSpaceOnUse"
       id="radialGradient3107"
       xlink:href="#linearGradient6087-437-184-795-110-662-495"
       inkscape:collect="always" />
    <linearGradient
       y2="36.657963"
       x2="22.809399"
       y1="49.629246"
       x1="22.934725"
       gradientTransform="matrix(1.1446925,0,0,0.9977536,-3.4661413,1.0988425)"
       gradientUnits="userSpaceOnUse"
       id="linearGradient3105"
       xlink:href="#linearGradient6129-963-697-142-998-580-273"
       inkscape:collect="always" />
    <linearGradient
       y2="16.047026"
       x2="82.453476"
       y1="45.114193"
       x1="82.453476"
       gradientTransform="translate(-53.765393,-0.1141929)"
       gradientUnits="userSpaceOnUse"
       id="linearGradient3103"
       xlink:href="#linearGradient3390"
       inkscape:collect="always" />
    <radialGradient
       r="23.097054"
       fy="14.113381"
       fx="63.969177"
       cy="14.113381"
       cx="63.969177"
       gradientTransform="matrix(1.5646925,-9.5143002e-8,6.1772287e-8,1.015888,-86.212573,8.1461173)"
       gradientUnits="userSpaceOnUse"
       id="radialGradient3101"
       xlink:href="#linearGradient7012-661-145-733-759-865-745"
       inkscape:collect="always" />
    <radialGradient
       r="117.14286"
       fy="486.64789"
       fx="605.71429"
       cy="486.64789"
       cx="605.71429"
       gradientTransform="matrix(-0.03079083,0,0,0.02470588,23.389748,31.941642)"
       gradientUnits="userSpaceOnUse"
       id="radialGradient3099"
       xlink:href="#linearGradient5060-820"
       inkscape:collect="always" />
    <radialGradient
       r="117.14286"
       fy="486.64789"
       fx="605.71429"
       cy="486.64789"
       cx="605.71429"
       gradientTransform="matrix(0.03079083,0,0,0.02470588,24.610252,31.941642)"
       gradientUnits="userSpaceOnUse"
       id="radialGradient3097"
       xlink:href="#linearGradient5060-179"
       inkscape:collect="always" />
    <linearGradient
       y2="609.50507"
       x2="302.85715"
       y1="366.64789"
       x1="302.85715"
       gradientTransform="matrix(0.07938856,0,0,0.02470588,-4.693293,31.941642)"
       gradientUnits="userSpaceOnUse"
       id="linearGradient3095"
       xlink:href="#linearGradient5048-585"
       inkscape:collect="always" />
    <radialGradient
       r="21"
       fy="5.01718"
       fx="3"
       cy="5.01718"
       cx="3"
       gradientTransform="matrix(-1.274898e-8,1.7142916,-2.159331,-1.4599595e-8,12.809361,2.8570011)"
       gradientUnits="userSpaceOnUse"
       id="radialGradient3093"
       xlink:href="#linearGradient3484"
       inkscape:collect="always" />
    <linearGradient
       y2="16.19013"
       x2="62.988873"
       y1="13.182598"
       x1="62.988873"
       gradientTransform="translate(-50.940898,0)"
       gradientUnits="userSpaceOnUse"
       id="linearGradient3091"
       xlink:href="#linearGradient6404"
       inkscape:collect="always" />
    <linearGradient
       gradientTransform="matrix(0.5410937,0,0,0.603279,16.767194,16.55961)"
       gradientUnits="userSpaceOnUse"
       xlink:href="#linearGradient3341"
       id="linearGradient2517"
       y2="27.956825"
       x2="29.999992"
       y1="5.7028165"
       x1="29.999992" />
    <linearGradient
       id="linearGradient3341">
      <stop
         offset="0"
         style="stop-color:#ffffff;stop-opacity:1"
         id="stop3343" />
      <stop
         offset="1"
         style="stop-color:#ffffff;stop-opacity:0"
         id="stop3345" />
    </linearGradient>
    <radialGradient
       gradientTransform="matrix(1.3038704,-4.7098302e-7,1.8183369e-7,0.3072442,-6.11612,26.803347)"
       gradientUnits="userSpaceOnUse"
       xlink:href="#linearGradient5060"
       id="radialGradient2520"
       fy="33.1875"
       fx="30"
       r="4.6875"
       cy="33.1875"
       cx="30" />
    <linearGradient
       id="linearGradient5060">
      <stop
         offset="0"
         style="stop-color:#000000;stop-opacity:1"
         id="stop5062" />
      <stop
         offset="1"
         style="stop-color:#000000;stop-opacity:0"
         id="stop5064" />
    </linearGradient>
    <linearGradient
       gradientTransform="matrix(0.75,0,0,0.6521739,9.7500044,17.226089)"
       gradientUnits="userSpaceOnUse"
       xlink:href="#linearGradient5060"
       id="linearGradient2523"
       y2="38.599998"
       x2="43"
       y1="39"
       x1="38" />
    <linearGradient
       gradientTransform="matrix(0.75,0,0,0.6521739,11.250004,17.226089)"
       gradientUnits="userSpaceOnUse"
       xlink:href="#linearGradient5060"
       id="linearGradient2526"
       y2="37.4375"
       x2="17"
       y1="39"
       x1="22" />
    <radialGradient
       gradientTransform="matrix(0.9841231,-0.08459387,0.07687018,1.0112316,3.9614759,12.655281)"
       gradientUnits="userSpaceOnUse"
       xlink:href="#linearGradient6954"
       id="radialGradient2529"
       fy="12.31301"
       fx="26.375898"
       r="8"
       cy="12.31301"
       cx="26.375898" />
    <linearGradient
       id="linearGradient6954">
      <stop
         offset="0"
         style="stop-color:#f5f5f5;stop-opacity:1"
         id="stop6960" />
      <stop
         offset="1"
         style="stop-color:#d2d2d2;stop-opacity:1"
         id="stop6962" />
    </linearGradient>
    <linearGradient
       gradientTransform="matrix(0.6551745,0,0,0.6818225,16.047376,-11.09122)"
       gradientUnits="userSpaceOnUse"
       xlink:href="#linearGradient3341"
       id="linearGradient2534"
       y2="83.733253"
       x2="24.348665"
       y1="57.333424"
       x1="24.348665" />
    <radialGradient
       gradientTransform="matrix(0.8891139,0,0,0.2643979,7.3850515,29.359857)"
       gradientUnits="userSpaceOnUse"
       xlink:href="#linearGradient6954"
       id="radialGradient2537"
       fy="28.659998"
       fx="24.999998"
       r="16"
       cy="28.659998"
       cx="24.999998" />
    <radialGradient
       gradientTransform="matrix(0.5714286,0,0,0.1666667,14.714283,37.583334)"
       gradientUnits="userSpaceOnUse"
       xlink:href="#linearGradient5060"
       id="radialGradient2542"
       fy="41.5"
       fx="32"
       r="21"
       cy="41.5"
       cx="32" />
    <linearGradient
       gradientTransform="translate(-50.940898,0)"
       gradientUnits="userSpaceOnUse"
       xlink:href="#linearGradient6404"
       id="linearGradient2450"
       y2="16.19013"
       x2="62.988873"
       y1="13.182598"
       x1="62.988873" />
    <linearGradient
       id="linearGradient6404">
      <stop
         offset="0"
         style="stop-color:#f9f9f9;stop-opacity:1"
         id="stop6406" />
      <stop
         offset="1"
         style="stop-color:#c9c9c9;stop-opacity:1"
         id="stop6408" />
    </linearGradient>
    <radialGradient
       gradientTransform="matrix(-1.274898e-8,1.7142916,-2.159331,-1.4599595e-8,12.809361,2.8570011)"
       gradientUnits="userSpaceOnUse"
       xlink:href="#linearGradient3484"
       id="radialGradient2452"
       fy="5.01718"
       fx="3"
       r="21"
       cy="5.01718"
       cx="3" />
    <linearGradient
       id="linearGradient3484">
      <stop
         offset="0"
         style="stop-color:#bdbdbd;stop-opacity:1"
         id="stop3486" />
      <stop
         offset="1"
         style="stop-color:#d0d0d0;stop-opacity:1"
         id="stop3488" />
    </linearGradient>
    <linearGradient
       gradientTransform="matrix(0.07938856,0,0,0.02470588,-4.693293,31.941642)"
       gradientUnits="userSpaceOnUse"
       xlink:href="#linearGradient5048-585"
       id="linearGradient2467"
       y2="609.50507"
       x2="302.85715"
       y1="366.64789"
       x1="302.85715" />
    <linearGradient
       id="linearGradient5048-585">
      <stop
         offset="0"
         style="stop-color:#000000;stop-opacity:0"
         id="stop2667" />
      <stop
         offset="0.5"
         style="stop-color:#000000;stop-opacity:1"
         id="stop2669" />
      <stop
         offset="1"
         style="stop-color:#000000;stop-opacity:0"
         id="stop2671" />
    </linearGradient>
    <radialGradient
       gradientTransform="matrix(0.03079083,0,0,0.02470588,24.610252,31.941642)"
       gradientUnits="userSpaceOnUse"
       xlink:href="#linearGradient5060-179"
       id="radialGradient2464"
       fy="486.64789"
       fx="605.71429"
       r="117.14286"
       cy="486.64789"
       cx="605.71429" />
    <linearGradient
       id="linearGradient5060-179">
      <stop
         offset="0"
         style="stop-color:#000000;stop-opacity:1"
         id="stop2675" />
      <stop
         offset="1"
         style="stop-color:#000000;stop-opacity:0"
         id="stop2677" />
    </linearGradient>
    <radialGradient
       gradientTransform="matrix(-0.03079083,0,0,0.02470588,23.389748,31.941642)"
       gradientUnits="userSpaceOnUse"
       xlink:href="#linearGradient5060-820"
       id="radialGradient2461"
       fy="486.64789"
       fx="605.71429"
       r="117.14286"
       cy="486.64789"
       cx="605.71429" />
    <linearGradient
       id="linearGradient5060-820">
      <stop
         offset="0"
         style="stop-color:#000000;stop-opacity:1"
         id="stop2681" />
      <stop
         offset="1"
         style="stop-color:#000000;stop-opacity:0"
         id="stop2683" />
    </linearGradient>
    <radialGradient
       gradientTransform="matrix(1.5646925,-9.5143002e-8,6.1772287e-8,1.015888,-86.212573,8.1461173)"
       gradientUnits="userSpaceOnUse"
       xlink:href="#linearGradient7012-661-145-733-759-865-745"
       id="radialGradient2441"
       fy="14.113381"
       fx="63.969177"
       r="23.097054"
       cy="14.113381"
       cx="63.969177" />
    <linearGradient
       id="linearGradient7012-661-145-733-759-865-745">
      <stop
         offset="0"
         style="stop-color:#aacb7d;stop-opacity:1"
         id="stop2699" />
      <stop
         offset="1"
         style="stop-color:#709937;stop-opacity:1"
         id="stop2701" />
    </linearGradient>
    <linearGradient
       gradientTransform="translate(-53.765393,-0.1141929)"
       gradientUnits="userSpaceOnUse"
       xlink:href="#linearGradient3390"
       id="linearGradient2443"
       y2="16.047026"
       x2="82.453476"
       y1="45.114193"
       x1="82.453476" />
    <linearGradient
       id="linearGradient3390">
      <stop
         offset="0"
         style="stop-color:#51751e;stop-opacity:1"
         id="stop3392" />
      <stop
         offset="1"
         style="stop-color:#51751e;stop-opacity:1"
         id="stop3394" />
    </linearGradient>
    <linearGradient
       gradientTransform="matrix(1.1446925,0,0,0.9977536,-3.4661413,1.0988425)"
       gradientUnits="userSpaceOnUse"
       xlink:href="#linearGradient6129-963-697-142-998-580-273"
       id="linearGradient2438"
       y2="36.657963"
       x2="22.809399"
       y1="49.629246"
       x1="22.934725" />
    <linearGradient
       id="linearGradient6129-963-697-142-998-580-273">
      <stop
         offset="0"
         style="stop-color:#0a0a0a;stop-opacity:0.498"
         id="stop2661" />
      <stop
         offset="1"
         style="stop-color:#0a0a0a;stop-opacity:0"
         id="stop2663" />
    </linearGradient>
    <radialGradient
       gradientTransform="matrix(0,1.2079744,-1.6271642,0,26.371748,8.2664685)"
       gradientUnits="userSpaceOnUse"
       xlink:href="#linearGradient6087-437-184-795-110-662-495"
       id="radialGradient2435"
       fy="8.3021259"
       fx="7.2646537"
       r="20.979567"
       cy="8.3021259"
       cx="7.2646537" />
    <linearGradient
       id="linearGradient6087-437-184-795-110-662-495">
      <stop
         offset="0"
         style="stop-color:#ffffff;stop-opacity:0.40000001"
         id="stop2693" />
      <stop
         offset="1"
         style="stop-color:#ffffff;stop-opacity:0"
         id="stop2695" />
    </linearGradient>
    <linearGradient
       gradientUnits="userSpaceOnUse"
       xlink:href="#linearGradient8265-821-176-38-919-66-249"
       id="linearGradient2432"
       y2="33.95525"
       x2="15.214532"
       y1="22.292103"
       x1="11.566265" />
    <linearGradient
       id="linearGradient8265-821-176-38-919-66-249">
      <stop
         offset="0"
         style="stop-color:#ffffff;stop-opacity:0.2"
         id="stop2687" />
      <stop
         offset="1"
         style="stop-color:#ffffff;stop-opacity:0"
         id="stop2689" />
    </linearGradient>
    <inkscape:perspective
       id="perspective84"
       inkscape:persp3d-origin="24 : 16 : 1"
       inkscape:vp_z="48 : 24 : 1"
       inkscape:vp_y="0 : 1000 : 0"
       inkscape:vp_x="0 : 24 : 1"
       sodipodi:type="inkscape:persp3d" />
    <linearGradient
       x1="127.99561"
       y1="272.01312"
       x2="127.99561"
       y2="39.990356"
       id="linearGradient3124"
       xlink:href="#linearGradient5044"
       gradientUnits="userSpaceOnUse"
       gradientTransform="matrix(0.11797692,0,0,-0.11559723,11.726259,50.471669)" />
    <linearGradient
       x1="12.80275"
       y1="3.7361259"
       x2="12.80275"
       y2="16.759111"
       id="linearGradient5044"
       gradientUnits="userSpaceOnUse"
       gradientTransform="matrix(0.8458416,0,0,1.0765258,-1.4962477,-3.0220357)">
      <stop
         id="stop5046"
         style="stop-color:#6cffdf;stop-opacity:1"
         offset="0" />
      <stop
         id="stop5048"
         style="stop-color:#49dbc2;stop-opacity:1"
         offset="1" />
    </linearGradient>
    <filter
       style="color-interpolation-filters:sRGB"
       id="filter4005">
      <feGaussianBlur
         id="feGaussianBlur4007"
         stdDeviation="0.83447898" />
    </filter>
  </defs>
  <sodipodi:namedview
     id="base"
     pagecolor="#ffffff"
     bordercolor="#666666"
     borderopacity="1.0"
     inkscape:pageopacity="0.0"
     inkscape:pageshadow="2"
     inkscape:zoom="7"
     inkscape:cx="-19.345714"
     inkscape:cy="24"
     inkscape:current-layer="layer1"
     showgrid="true"
     inkscape:grid-bbox="true"
     inkscape:document-units="px"
     inkscape:window-width="1920"
     inkscape:window-height="1011"
     inkscape:window-x="0"
     inkscape:window-y="32"
     inkscape:window-maximized="1" />
  <metadata
     id="metadata21174">
    <rdf:RDF>
      <cc:Work
         rdf:about="">
        <dc:format>image/svg+xml</dc:format>
        <dc:type
           rdf:resource="http://purl.org/dc/dcmitype/StillImage" />
        <dc:title />
      </cc:Work>
    </rdf:RDF>
  </metadata>
  <g
     id="layer1"
     inkscape:label="Layer 1"
     inkscape:groupmode="layer">
    <path
       inkscape:connector-curvature="0"
       style="opacity:0.8;color:#000000;fill:none;stroke:url(#linearGradient21167);stroke-width:1;stroke-linecap:butt;stroke-linejoin:miter;stroke-miterlimit:4;stroke-opacity:1;stroke-dasharray:none;stroke-dashoffset:0;marker:none;visibility:visible;display:inline;overflow:visible;enable-background:accumulate"
       d="m 5.5000147,8.4999878 c -0.554,0 -1,0.446 -1,1 l 0,2.0000002 -1,0 c -0.554,0 -1,0.446 -1,1 l 0,6 c 0,0.554 0.446,1 1,1 l 40.9999903,0 c 0.554,0 1,-0.446 1,-1 l 0,-6 c 0,-0.554 -0.446,-1 -1,-1 l -22.99999,0 0,-2.0000002 c 0,-0.554 -0.446,-1 -1,-1 l -15.0000003,0 z"
       id="rect4251-0-0-1-1-9-5-2-3-2-5-9" />
    <path
       inkscape:connector-curvature="0"
       style="color:#000000;fill:url(#linearGradient3089-5-2-9-8-6-8-0-7-1-8-7-4);fill-opacity:1;fill-rule:nonzero;stroke:none;stroke-width:0.99992168;marker:none;visibility:visible;display:inline;overflow:visible;enable-background:accumulate"
       d="m 5.5000147,8.9999878 c -0.277,0 -0.5,0.223 -0.5,0.5 l 0,2.5000002 -1.5,0 c -0.277,0 -0.5,0.223 -0.5,0.5 l 0,6 c 0,0.277 0.223,0.5 0.5,0.5 l 40.9999903,0 c 0.277,0 0.5,-0.223 0.5,-0.5 l 0,-6 c 0,-0.277 -0.223,-0.5 -0.5,-0.5 l -23.49999,0 0,-2.5000002 c 0,-0.277 -0.223,-0.5 -0.5,-0.5 l -15.0000003,0 z"
       id="rect4251-4-7-62-4-4-9-2-5-6-0" />
    <path
       inkscape:connector-curvature="0"
       style="color:#000000;fill:none;stroke:url(#linearGradient3381-5-5-29-4-6-5-0-4-9-2-5);stroke-width:1;stroke-linecap:round;stroke-linejoin:round;stroke-miterlimit:4;stroke-opacity:1;stroke-dasharray:none;stroke-dashoffset:0;marker:none;visibility:visible;display:inline;overflow:visible;enable-background:accumulate"
       d="m 5.5000147,9.4999878 0,3.0000002 -2,0 0,7 40.9999903,0 0,-7 -23.99999,0 0,-3.0000002 -15.0000003,0 z"
       id="rect4251-9-9-0-05-2-0-5-9-2-3-8" />
    <rect
       style="opacity:0.3;fill:url(#linearGradient3086-4-4-0-5-5-7-4-8-7-0);fill-opacity:1;fill-rule:nonzero;stroke:none;stroke-width:1;marker:none;visibility:visible;display:inline;overflow:visible"
       id="rect4173-6-7-7-3-5-1-4-5-7-0"
       y="41"
       x="4.8333807"
       height="6.0000005"
       width="38.333332" />
    <path
       style="opacity:0.3;fill:url(#radialGradient3080-2-3-9-9-8-8-9-6-1-3);fill-opacity:1;fill-rule:nonzero;stroke:none;stroke-width:1;marker:none;visibility:visible;display:inline;overflow:visible"
       id="path5018-8-1-1-6-9-4-9-7-5-7"
       inkscape:connector-curvature="0"
       d="m 4.8333147,41.000198 c 0,0 0,5.99967 0,5.99967 -1.5856,0.0113 -3.8333,-1.34422 -3.8333,-3.00022 0,-1.656 1.7695,-2.99945 3.8333,-2.99945 z" />
    <path
       style="fill:url(#linearGradient4638-4-6-8-9-9-5-8-7-2-3);fill-opacity:1;stroke:none"
       id="path3388-1-43-0-7-6-2-7-8-5-7"
       inkscape:connector-curvature="0"
       d="m 2.1626147,15.500178 c -1.0723,0.12829 -0.4996,1.45416 -0.5851,2.19974 0.1245,0.48182 0.9275,26.17643 0.9275,26.17643 0,0.7414 0.3517,0.61579 1.2429,0.61579 13.1886003,0 27.7725903,0 40.9610903,0 0.9601,0.0231 0.7572,0.0121 0.7572,-0.62748 0,0 0.993,-27.35421 1.0285,-27.7811 0,-0.44949 0.09,-0.58338 -0.4732,-0.58338 -14.084,0 -29.77479,0 -43.8588903,0 z"
       sodipodi:nodetypes="ccsscccsc" />
    <path
       style="opacity:0.4;fill:url(#linearGradient3072-0-3-0-7-4-8-7-3-6-5);fill-opacity:1;stroke:none"
       id="path6127-7-1-6-4-8-5-0-8-2-3"
       inkscape:connector-curvature="0"
       d="m 2.0582147,16.065138 43.8964903,4e-4 c 0.6342,0 1.0452,0.44461 1.0452,0.99737 l -1.0324,26.96037 c 0.015,0.6994 -0.2091,0.97671 -0.9459,0.96204 l -41.7807903,-0.0176 c -0.6341,0 -1.2736,-0.41276 -1.2736,-0.96551 l -0.9541,-26.93932 c 0,-0.55276 0.411,-0.99775 1.0451,-0.99775 z" />
    <path
       sodipodi:type="inkscape:offset"
       inkscape:radius="-1.0151105"
       inkscape:original="M 2.15625 16.5 C 1.0839484 16.623862 1.6479947 17.905133 1.5625 18.625 C 1.6869357 19.090206 2.5 43.90625 2.5 43.90625 C 2.5 44.622082 2.8587963 44.5 3.75 44.5 L 44.71875 44.5 C 45.67883 44.52232 45.46875 44.492483 45.46875 43.875 C 45.46875 43.875 46.464479 17.474672 46.5 17.0625 C 46.5 16.628509 46.594572 16.5 46.03125 16.5 L 2.15625 16.5 z "
       style="opacity:0.5;color:#000000;fill:none;stroke:url(#linearGradient3381-56-2-7-5-0-8-0-0-4-6-1);stroke-width:0.98133707;stroke-linecap:round;stroke-linejoin:miter;stroke-miterlimit:4;stroke-opacity:1;stroke-dasharray:none;stroke-dashoffset:0;marker:none;visibility:visible;display:inline;overflow:visible;enable-background:accumulate"
       id="path4587-4-6-3-0-1-2-6-8-9-5"
       d="m 2.5,17.5 c 0.016793,0.176427 0.022163,0.517935 0.03125,0.875 0.023112,0.08641 0.025524,0.05923 0.03125,0.09375 0.011058,0.06665 0.027034,0.138257 0.03125,0.1875 0.0064,0.07474 -0.00668,0.173042 0,0.28125 0.013352,0.216416 0.045306,0.510844 0.0625,0.875 0.034388,0.728313 0.078083,1.708883 0.125,2.90625 0.093834,2.394734 0.2030642,5.55569 0.3125,8.6875 C 3.3060459,37.481691 3.4883163,43.143759 3.5,43.5 c 0.1225025,0.0036 0.071108,0 0.25,0 l 40.71875,0 c 0.0124,-0.328836 0.253182,-6.426721 0.5,-12.90625 0.126691,-3.325928 0.245386,-6.68527 0.34375,-9.21875 0.04918,-1.26674 0.09434,-2.331501 0.125,-3.09375 0.01322,-0.328618 0.02246,-0.572975 0.03125,-0.78125 L 2.5,17.5 z"
       transform="matrix(1,0,0,1.0383977,1.4680025e-5,-1.6703722)" />
    <path
       style="opacity:0.3;fill:none;stroke:#000000;stroke-width:1;stroke-linecap:round;stroke-linejoin:round;stroke-miterlimit:4;stroke-opacity:1;stroke-dashoffset:0"
       id="path3388-1-43-0-7-6-2-7-8-5-7-1"
       inkscape:connector-curvature="0"
       d="m 2.1626147,15.500178 c -1.0723,0.12829 -0.4996,1.45416 -0.5851,2.19974 0.1245,0.48182 0.9275,26.17643 0.9275,26.17643 0,0.7414 0.3517,0.61579 1.2429,0.61579 13.1886003,0 27.7725903,0 40.9610903,0 0.9601,0.0231 0.7572,0.0121 0.7572,-0.62748 0,0 0.993,-27.35421 1.0285,-27.7811 0,-0.44949 0.09,-0.58338 -0.4732,-0.58338 -14.084,0 -29.77479,0 -43.8588903,0 z"
       sodipodi:nodetypes="ccsscccsc" />
    <path
       d="M 11.878071,66.272039 C 6.2038709,66.276179 0.9446379,61.46795 0.8744199,55.700518 c -0.09199,-3.297532 -0.975179,-6.90651 -3.902173,-8.827802 -4.333422,-3.495849 -10.2629449,-0.0088 -14.8613849,-2.763148 -4.978974,-2.479804 -7.480273,-8.941045 -5.173463,-14.066915 1.842488,-4.488265 6.763455,-7.390008 11.598549,-6.76383 3.4269339,0.420038 7.3043089,0.03167 9.7190419,-2.720878 3.848455,-3.686254 1.339407,-9.82422 4.733489,-13.7637687 C 6.6833109,1.6955881 14.689293,0.7393161 19.43083,4.9159471 c 4.836408,3.7818402 5.285503,11.6827469 0.882001,15.9684679 -2.61078,2.899856 -6.679023,3.842686 -10.4434761,3.338653 -3.820409,-0.570067 -8.006979,0.977426 -9.922896,4.458021 -1.807279,3.765186 -1.792007,8.665886 0.641449,12.155133 2.113192,2.867512 5.844675,3.960633 9.281447,3.490967 3.7644531,-0.504035 7.8326861,0.438802 10.4434761,3.338643 4.285937,4.181995 3.998136,11.822948 -0.563592,15.691403 -2.122528,1.935847 -5.003531,2.984947 -7.871168,2.914804 z"
       inkscape:connector-curvature="0"
       id="path3998"
       style="color:#000000;display:inline;overflow:visible;visibility:visible;opacity:0.2;fill:none;stroke:#ffffff;stroke-width:4;stroke-miterlimit:4;stroke-dasharray:none;marker:none;filter:url(#filter4005);enable-background:accumulate"
       transform="matrix(0.4190811,0,0,0.4190811,28.35291,18.074421)" />
    <path
       d="m 33.330786,45.847776 c -1.057404,-0.02249 -2.115451,-0.390167 -2.978918,-1.119845 -2.776892,-2.346636 -0.62005,-4.784737 -3.041591,-6.831075 -2.421541,-2.046344 -4.567173,0.399541 -7.344066,-1.947091 l 0,-0.004 c -0.616762,-0.521198 -1.061806,-1.166586 -1.330929,-1.864004 -0.0014,-0.0044 -0.0015,-0.0098 -0.004,-0.01448 -0.05421,-0.141823 -0.100511,-0.2842 -0.140097,-0.429872 -0.01758,-0.06469 -0.03696,-0.129799 -0.05164,-0.195073 -0.0013,-0.0072 -0.0017,-0.0145 -0.004,-0.02169 -0.03026,-0.137666 -0.05268,-0.275866 -0.07007,-0.41543 -1.52e-4,-0.0014 1.4e-4,-0.0019 0,-0.004 -0.0014,-0.0072 -0.0027,-0.01446 -0.004,-0.02169 -0.0075,-0.06501 -0.01354,-0.129817 -0.01843,-0.195072 -0.004,-0.04904 -0.009,-0.09899 -0.01109,-0.14811 -0.0013,-0.02503 -0.0028,-0.05083 -0.004,-0.07587 -2.34e-4,-0.0083 1.9e-4,-0.01695 0,-0.02529 -0.0013,-0.06548 -0.0013,-0.129558 0,-0.195068 0.0014,-0.03352 0.0019,-0.06768 0.004,-0.101151 0.0019,-0.04911 0.0072,-0.09904 0.01109,-0.148109 0.0053,-0.07269 0.01302,-0.144294 0.02211,-0.216746 1.43e-4,-0.0014 -1.51e-4,-0.0019 0,-0.004 0.01739,-0.139566 0.03979,-0.277763 0.07006,-0.415429 0.0013,-0.0072 0.0016,-0.01449 0.004,-0.02168 0.01489,-0.06565 0.03376,-0.129917 0.05162,-0.195068 0.0396,-0.145673 0.08591,-0.288049 0.1401,-0.429877 0.0015,-0.0045 0.0015,-0.0098 0.004,-0.01449 0.269119,-0.697417 0.714163,-1.342803 1.330927,-1.864005 l 0,-0.004 c 2.776944,-2.346451 4.922579,0.09943 7.344113,-1.94691 2.421779,-2.0455 0.26494,-4.483598 3.041831,-6.830235 1.973577,-1.668174 4.952394,-1.4501 6.654572,0.483733 1.702177,1.933831 1.483297,4.85256 -0.490342,6.520408 -2.77689,2.346629 -4.922523,-0.102869 -7.344063,1.943474 -1.223269,1.033736 -1.276858,2.170087 -1.389917,3.341481 0.113059,1.171403 0.166648,2.307754 1.389917,3.341487 2.42154,2.046343 4.567173,-0.403154 7.344063,1.943478 1.973639,1.66782 2.192519,4.586551 0.490342,6.520385 -0.957474,1.087779 -2.316202,1.632845 -3.67572,1.603909 z"
       inkscape:connector-curvature="0"
       id="path3984-0-3-4-7"
       style="color:#000000;display:inline;overflow:visible;visibility:visible;fill:url(#linearGradient3124);fill-opacity:1;fill-rule:evenodd;stroke:none;stroke-width:1;marker:none;enable-background:accumulate" />
    <path
       d="m 33.323496,19.02764 c -1.057183,0.022 -2.109381,0.396582 -2.972856,1.12628 -2.77689,2.346639 -0.616796,4.776822 -3.038337,6.823165 -2.421539,2.046341 -4.57012,-0.39529 -7.347015,1.951342 -0.616764,0.521206 -1.066699,1.175352 -1.335823,1.872771 -0.0014,0.0045 0.0015,0.0086 0,0.01305 -0.05422,0.141829 -0.104464,0.27341 -0.14406,0.419082 -0.01785,0.06515 -0.02436,0.130781 -0.03931,0.196441 -0.0013,0.0072 -0.0115,0.01899 -0.01304,0.02619 -0.03027,0.137667 -0.04811,0.279517 -0.06548,0.419083 -0.0092,0.07244 -0.0206,0.14996 -0.0262,0.222636 -0.004,0.04903 -0.01089,0.09494 -0.01306,0.144059 -0.0013,0.0335 0.0014,0.07123 0,0.104772 -0.0013,0.06551 -0.0013,0.117868 0,0.183348 1.93e-4,0.0083 -2.31e-4,0.01785 0,0.02617 0.0014,0.02503 -0.0013,0.05358 0,0.07857 0.0018,0.04911 0.0094,0.108086 0.01306,0.157153 0.0047,0.06527 0.01845,0.11834 0.0262,0.183346 0.0013,0.0072 -0.0014,0.0189 0,0.02618 0.0174,0.139567 0.03523,0.281421 0.06548,0.419083 0.0014,0.0072 0.01145,0.01908 0.01304,0.02618 0.01466,0.06528 0.02173,0.131769 0.03931,0.196446 0.03961,0.145673 0.08987,0.277251 0.14406,0.419078 0.0014,0.0045 -0.0014,0.02164 0,0.02619 0.269125,0.697415 0.719059,1.338467 1.335823,1.85967 2.776895,2.346631 4.925476,-0.09501 7.347015,1.951343 2.421541,2.046343 0.261448,4.476528 3.038337,6.82317 0.863468,0.72968 1.928552,1.103776 2.985953,1.126286 1.359517,0.02893 2.709486,-0.523055 3.666962,-1.610836 1.702174,-1.933859 1.489077,-4.841059 -0.484565,-6.508879 -2.776892,-2.346641 -4.925473,0.09499 -7.347014,-1.951356 -1.223268,-1.033731 -1.275149,-2.168154 -1.388207,-3.339551 0.113058,-1.171398 0.164939,-2.305818 1.388207,-3.339553 2.421541,-2.046349 4.570122,0.395278 7.347014,-1.951354 1.973642,-1.667869 2.186739,-4.575048 0.484565,-6.50888 -0.957477,-1.087776 -2.320821,-1.639105 -3.680059,-1.610837 z m 0.02619,0.838162 c 0.124159,-0.0019 0.242669,0.004 0.366695,0.01304 0.991923,0.07229 1.956534,0.525177 2.658548,1.322727 1.402024,1.592826 1.22135,3.928798 -0.405987,5.303993 -1.196324,1.010964 -2.040437,0.950864 -3.208591,0.89055 -1.168152,-0.06033 -2.707346,-0.148548 -4.138427,1.060798 -1.446709,1.222553 -1.5659,2.758573 -1.676326,3.902697 a 0.84376949,0.84376949 0 0 0 0,0.157151 c 0.110426,1.144116 0.229617,2.680138 1.676326,3.902692 1.431081,1.209348 2.970275,1.121115 4.138423,1.060801 1.168153,-0.06034 2.012267,-0.120416 3.208589,0.890549 1.627329,1.375169 1.808011,3.711165 0.405987,5.303992 -0.791138,0.898809 -1.905817,1.35965 -3.025241,1.335822 -0.8706,-0.01854 -1.738202,-0.329171 -2.449008,-0.929841 -1.196402,-1.011034 -1.254093,-1.822695 -1.362013,-2.959764 -0.10792,-1.137067 -0.24533,-2.654129 -1.676325,-3.8634 -1.431084,-1.209351 -2.970271,-1.121115 -4.138423,-1.0608 -1.168152,0.06033 -2.012266,0.120417 -3.208593,-0.890547 -0.502643,-0.424766 -0.867937,-0.938536 -1.086992,-1.492976 -0.0032,-0.01067 -0.01121,-0.02001 -0.01307,-0.02619 a 0.84376949,0.84376949 0 0 0 0,-0.01304 c -0.0011,-0.0013 1.2e-5,-0.01304 0,-0.01305 -0.05421,-0.141813 -0.09196,-0.245191 -0.117864,-0.340504 0.0056,0.0216 0.0026,-0.02837 -0.02618,-0.157158 -0.0064,-0.02748 -0.0072,-0.0042 -0.01304,-0.0262 -0.0026,-0.01274 0.0024,-0.0013 0,-0.01306 -0.01815,-0.08566 -0.03574,-0.193702 -0.05241,-0.327409 -0.0013,-0.01568 0.002,-0.005 0,-0.02618 -0.01502,-0.126265 -0.02737,-0.160384 -0.02619,-0.14406 -0.0061,-0.07889 -0.01326,-0.133871 -0.01305,-0.130965 0.0014,0.0404 0.0018,0.01534 0,-0.06546 0.0014,0.03851 0.0014,0.03838 0,-0.01308 -0.0013,-0.05663 -0.0013,-0.101484 0,-0.157154 0.0014,-0.07983 0.0014,-0.106421 0,-0.07857 -3.78e-4,0.0084 0.0063,-0.02796 0.01305,-0.117863 0.0019,-0.03027 0.0154,-0.09747 0.02619,-0.183351 0.01664,-0.133648 0.03422,-0.241701 0.05241,-0.327405 0.0013,-0.0034 -0.0013,-0.0098 0,-0.01307 0.0055,-0.0223 0.007,0.0013 0.01304,-0.02617 0.03002,-0.132288 0.03275,-0.181058 0.02618,-0.157153 0.02589,-0.09532 0.06367,-0.19871 0.117864,-0.340505 0.0023,-0.0068 -0.0019,-0.0065 0,-0.01304 0.219207,-0.568065 0.594638,-1.105128 1.100089,-1.532263 1.196328,-1.010967 2.04044,-0.950864 3.208593,-0.890552 1.168149,0.06033 2.707343,0.148553 4.138424,-1.060797 1.431005,-1.209201 1.568413,-2.726266 1.676333,-3.863333 0.107927,-1.136999 0.165617,-1.948663 1.362019,-2.959695 0.712135,-0.601771 1.579922,-0.911183 2.449014,-0.929808 z"
       inkscape:connector-curvature="0"
       id="path3969"
       style="color:#000000;display:inline;overflow:visible;visibility:visible;opacity:0.1;fill:#000000;fill-opacity:1;fill-rule:evenodd;stroke:none;stroke-width:1;marker:none;enable-background:accumulate" />
    <path
       d="m 33.323496,19.027641 c -2.373225,0.0053 -4.573871,2.020164 -4.603887,4.433172 -0.03727,1.380703 -0.408187,2.891117 -1.633552,3.695254 -1.816707,1.465242 -4.303195,0.0072 -6.230974,1.162082 -2.040209,1.015011 -3.093662,3.621775 -2.225618,5.744027 0.704682,1.96236 2.847384,3.252611 4.919487,2.984915 1.436888,-0.174442 3.062144,-0.01119 4.074658,1.142543 1.611953,1.542389 0.559127,4.111987 1.980591,5.76054 1.531681,2.104583 4.829102,2.550613 6.821902,0.842887 2.000645,-1.515746 2.316343,-4.714673 0.601423,-6.563996 -1.040617,-1.253457 -2.722596,-1.791304 -4.3153,-1.588211 -1.418117,0.186857 -2.992974,-0.106928 -3.946475,-1.25531 -1.165887,-1.385885 -1.18892,-3.463274 -0.54077,-5.084795 0.705689,-1.499165 2.430666,-2.297311 4.044,-2.087606 1.56393,0.195139 3.283566,-0.05218 4.429877,-1.225728 1.914006,-1.678488 1.919571,-4.945431 0.02504,-6.640686 -0.899366,-0.868615 -2.151678,-1.349131 -3.40041,-1.319088 z m 0.01311,0.458371 c 2.452048,-0.12665 4.689674,2.212822 4.322942,4.668231 -0.238585,2.228845 -2.486358,3.964517 -4.706444,3.6326 -1.565845,-0.184919 -3.329912,0.03641 -4.428827,1.283713 -1.384692,1.511266 -1.467898,3.886083 -0.704644,5.709694 0.764583,1.668341 2.680606,2.557676 4.465356,2.342235 1.370126,-0.156985 2.886031,-0.04423 3.932799,0.960251 1.833107,1.437455 1.959371,4.437539 0.265894,6.032773 -1.634099,1.766488 -4.697546,1.651037 -6.259806,-0.148656 -1.624991,-1.538895 -0.576278,-4.109242 -1.982451,-5.767717 -1.015083,-1.400183 -2.846449,-1.840803 -4.491308,-1.622474 -1.672646,0.258567 -3.429528,-0.487719 -4.324522,-1.940043 -1.200659,-1.80397 -0.625275,-4.453646 1.1952,-5.630703 1.365302,-1.114646 3.168678,-0.566145 4.759104,-0.711481 1.983501,-0.172897 3.615227,-1.936872 3.710124,-3.915698 0.07878,-1.362404 0.277897,-2.877453 1.445,-3.769887 0.760486,-0.692887 1.771791,-1.103791 2.801572,-1.122838 z"
       inkscape:connector-curvature="0"
       id="path3965"
       style="color:#000000;display:inline;overflow:visible;visibility:visible;opacity:0.2;fill:#000000;fill-opacity:1;fill-rule:evenodd;stroke:none;stroke-width:1;marker:none;enable-background:accumulate" />
    <path
       d="m 33.323496,19.02764 c -1.057183,0.022 -2.109381,0.396582 -2.972856,1.12628 -2.77689,2.346639 -0.616796,4.776822 -3.038337,6.823165 -2.421539,2.046341 -4.57012,-0.39529 -7.347015,1.951342 -0.616764,0.521206 -1.066699,1.175352 -1.335823,1.872771 -0.0014,0.0045 0.0015,0.0086 0,0.01305 -0.05422,0.141829 -0.104464,0.27341 -0.14406,0.419082 -0.01785,0.06515 -0.02436,0.130781 -0.03931,0.196441 -0.0013,0.0072 -0.0115,0.01899 -0.01304,0.02619 -0.03027,0.137667 -0.04811,0.279517 -0.06548,0.419083 -0.0092,0.07244 -0.0206,0.14996 -0.0262,0.222636 -0.004,0.04903 -0.01089,0.09494 -0.01306,0.144059 -0.0013,0.0335 0.0014,0.07123 0,0.104772 -0.0013,0.06551 -0.0013,0.117868 0,0.183348 1.93e-4,0.0083 -2.31e-4,0.01785 0,0.02617 0.0014,0.02503 -0.0013,0.05358 0,0.07857 0.0021,-0.04043 0.01004,-0.07764 0.01306,-0.11787 0.0053,-0.07268 0.0171,-0.150185 0.0262,-0.222641 0.01739,-0.139561 0.03523,-0.281412 0.06548,-0.419079 0.0014,-0.0072 0.01149,-0.01904 0.01304,-0.02619 0.01488,-0.06567 0.02139,-0.131293 0.03931,-0.196441 0.03961,-0.145676 0.08987,-0.277255 0.14406,-0.419084 0.0015,-0.0045 -0.0014,-0.0085 0,-0.01305 0.269124,-0.697421 0.719059,-1.351569 1.335823,-1.872771 2.776895,-2.346638 4.925476,0.095 7.347015,-1.951347 2.421541,-2.046345 0.261447,-4.47653 3.038337,-6.823166 1.973655,-1.66788 4.95074,-1.449264 6.652915,0.484569 0.719586,0.817515 1.093864,1.801964 1.139375,2.8026 0.05286,-1.138542 -0.319549,-2.29029 -1.139375,-3.221689 -0.957477,-1.087775 -2.320821,-1.6391 -3.680059,-1.610836 z m -5.513535,13.620136 c -0.0067,0.07089 -0.01934,0.138407 -0.02618,0.209538 0.11306,1.171402 0.164941,2.305824 1.388206,3.339555 2.421541,2.046342 4.570124,-0.395291 7.347016,1.951348 1.023067,0.864542 1.567055,2.061792 1.623941,3.287167 0.06214,-1.36635 -0.484651,-2.743496 -1.623942,-3.70625 -2.77689,-2.346634 -4.925475,0.095 -7.347015,-1.951347 -1.150081,-0.971887 -1.258273,-2.032868 -1.362013,-3.130011 z"
       inkscape:connector-curvature="0"
       id="path3980"
       style="color:#000000;display:inline;overflow:visible;visibility:visible;opacity:0.3;fill:#000000;fill-opacity:1;fill-rule:evenodd;stroke:none;stroke-width:1;marker:none;enable-background:accumulate" />
    <path
       d="m 38.14293,23.860167 c -0.05688,1.225377 -0.600872,2.422617 -1.62394,3.287171 -2.776892,2.346633 -4.925473,-0.095 -7.347014,1.951348 -1.223268,1.033728 -1.275149,2.168146 -1.388207,3.339551 0.0068,0.07007 0.01958,0.13972 0.02619,0.209539 0.10367,-1.096033 0.213032,-2.159055 1.362014,-3.130013 2.421542,-2.046341 4.570126,0.395287 7.347017,-1.951345 1.139282,-0.96277 1.686079,-2.339895 1.623934,-3.706251 z m -19.814679,8.800706 c -0.0014,0.03349 0.0013,0.07123 0,0.10477 -0.0014,0.0655 -0.0014,0.11787 0,0.183347 1.89e-4,0.0084 -2.36e-4,0.01785 0,0.02619 0.0013,0.02502 -0.0014,0.05358 0,0.07857 0.0018,0.04912 0.0094,0.108093 0.01307,0.157156 0.0047,0.06527 0.01847,0.118342 0.02619,0.183345 0.0014,0.0072 -0.0013,0.01889 0,0.02619 0.01738,0.139565 0.03522,0.281414 0.06548,0.41908 0.0013,0.0072 0.01144,0.01912 0.01308,0.02617 0.01467,0.06527 0.02172,0.13177 0.0393,0.196444 0.0396,0.145674 0.08987,0.277256 0.144053,0.419081 0.0014,0.0045 -0.0014,0.02163 0,0.02619 0.269124,0.697418 0.719061,1.338468 1.335827,1.859669 2.776889,2.346636 4.925474,-0.095 7.347016,1.951348 2.42154,2.046342 0.261447,4.476525 3.038336,6.823161 0.863468,0.729685 1.92855,1.103779 2.985953,1.126282 1.359519,0.0289 2.709488,-0.523061 3.666962,-1.610841 0.819828,-0.931414 1.192233,-2.083159 1.139381,-3.221699 -0.0455,1.000632 -0.41979,1.985078 -1.13938,2.802599 -0.957477,1.087786 -2.307446,1.639781 -3.666964,1.610848 -1.057467,-0.02248 -2.122549,-0.396595 -2.986018,-1.126274 -2.77689,-2.346636 -0.616795,-4.776827 -3.038336,-6.823165 -2.421538,-2.046344 -4.570126,0.395291 -7.347015,-1.951349 -0.616767,-0.521195 -1.066701,-1.16225 -1.335822,-1.859666 -0.0015,-0.0044 0.0014,-0.02159 0,-0.02619 -0.05421,-0.141825 -0.104468,-0.273407 -0.144058,-0.419078 -0.01757,-0.06469 -0.02461,-0.131174 -0.03931,-0.196444 -0.0013,-0.0072 -0.01154,-0.01905 -0.01306,-0.02619 -0.03028,-0.137665 -0.04811,-0.279517 -0.06549,-0.419085 -0.0013,-0.0072 0.0013,-0.0189 0,-0.02618 -0.0076,-0.06502 -0.02127,-0.118091 -0.02618,-0.183346 -0.0029,-0.04095 -0.01057,-0.08979 -0.01305,-0.130965 z"
       inkscape:connector-curvature="0"
       id="path3989"
       style="color:#000000;display:inline;overflow:visible;visibility:visible;opacity:0.5;fill:#ffffff;fill-opacity:1;fill-rule:evenodd;stroke:none;stroke-width:1;marker:none;enable-background:accumulate" />
  </g>
</svg>
