<?xml version="1.0" encoding="UTF-8" standalone="no"?>
<!-- Created with Inkscape (http://www.inkscape.org/) -->

<svg
   xmlns:dc="http://purl.org/dc/elements/1.1/"
   xmlns:cc="http://creativecommons.org/ns#"
   xmlns:rdf="http://www.w3.org/1999/02/22-rdf-syntax-ns#"
   xmlns:svg="http://www.w3.org/2000/svg"
   xmlns="http://www.w3.org/2000/svg"
   xmlns:xlink="http://www.w3.org/1999/xlink"
   xmlns:sodipodi="http://sodipodi.sourceforge.net/DTD/sodipodi-0.dtd"
   xmlns:inkscape="http://www.inkscape.org/namespaces/inkscape"
   width="48px"
   height="48px"
   id="svg18720"
   version="1.1"
   inkscape:version="0.91 r13725"
   sodipodi:docname="folder-remote.svg">
  <defs
     id="defs18722">
    <linearGradient
       inkscape:collect="always"
       xlink:href="#linearGradient3454-2-8-6-1"
       id="linearGradient3381-56-2-7-5"
       gradientUnits="userSpaceOnUse"
       gradientTransform="matrix(0.89189031,0,0,1.0580283,3.1206609,5.3536023)"
       x1="42.470848"
       y1="11.952797"
       x2="42.470848"
       y2="35.581654" />
    <linearGradient
       id="linearGradient3454-2-8-6-1">
      <stop
         offset="0"
         style="stop-color:#ffffff;stop-opacity:1"
         id="stop3456-4-7-9-4" />
      <stop
         offset="0.0097359"
         style="stop-color:#ffffff;stop-opacity:0.23529412"
         id="stop3458-39-0-8-61" />
      <stop
         offset="0.99001008"
         style="stop-color:#ffffff;stop-opacity:0.15686275"
         id="stop3460-7-5-4-1" />
      <stop
         offset="1"
         style="stop-color:#ffffff;stop-opacity:0.39215687"
         id="stop3462-0-5-6-6" />
    </linearGradient>
    <linearGradient
       inkscape:collect="always"
       xlink:href="#linearGradient6129-963-697-142-998-580-273-0-8-4"
       id="linearGradient3072-0-3-0"
       gradientUnits="userSpaceOnUse"
       gradientTransform="matrix(1.1446925,0,0,0.9977536,-3.4661379,1.0988391)"
       x1="22.934725"
       y1="49.629246"
       x2="22.809399"
       y2="36.657963" />
    <linearGradient
       id="linearGradient6129-963-697-142-998-580-273-0-8-4">
      <stop
         id="stop2661-3-02-4"
         style="stop-color:#0a0a0a;stop-opacity:0.498"
         offset="0" />
      <stop
         id="stop2663-2-8-06"
         style="stop-color:#0a0a0a;stop-opacity:0"
         offset="1" />
    </linearGradient>
    <linearGradient
       inkscape:collect="always"
       xlink:href="#linearGradient4632-0-6-4"
       id="linearGradient4638-4-6-8"
       x1="35.792694"
       y1="17.118193"
       x2="35.792694"
       y2="43.761127"
       gradientUnits="userSpaceOnUse"
       gradientTransform="matrix(1,0,0,1.0357143,2.0849371e-6,-1.5890909)" />
    <linearGradient
       id="linearGradient4632-0-6-4">
      <stop
         style="stop-color:#aacb7d;stop-opacity:1;"
         offset="0"
         id="stop4634-4-4-7" />
      <stop
         style="stop-color:#709937;stop-opacity:1;"
         offset="1"
         id="stop4636-3-1-5" />
    </linearGradient>
    <linearGradient
       id="linearGradient5060-820-9-0-7">
      <stop
         id="stop2681-5-4-3"
         style="stop-color:#000000;stop-opacity:1"
         offset="0" />
      <stop
         id="stop2683-8-6-9"
         style="stop-color:#000000;stop-opacity:0"
         offset="1" />
    </linearGradient>
    <linearGradient
       id="linearGradient5060-179-2-0-3">
      <stop
         id="stop2675-9-9-4"
         style="stop-color:#000000;stop-opacity:1"
         offset="0" />
      <stop
         id="stop2677-1-7-2"
         style="stop-color:#000000;stop-opacity:0"
         offset="1" />
    </linearGradient>
    <linearGradient
       id="linearGradient5048-585-4-0-56">
      <stop
         id="stop2667-5-0-7"
         style="stop-color:#000000;stop-opacity:0"
         offset="0" />
      <stop
         id="stop2669-4-1-8"
         style="stop-color:#000000;stop-opacity:1"
         offset="0.5" />
      <stop
         id="stop2671-2-6-3"
         style="stop-color:#000000;stop-opacity:0"
         offset="1" />
    </linearGradient>
    <linearGradient
       inkscape:collect="always"
       xlink:href="#linearGradient4507-9-2-2"
       id="linearGradient3381-5-5-29-4"
       gradientUnits="userSpaceOnUse"
       gradientTransform="matrix(0.89189031,0,0,1.0580283,3.1206621,5.3535991)"
       x1="21.37039"
       y1="4.2476678"
       x2="21.37039"
       y2="34.143417" />
    <linearGradient
       id="linearGradient4507-9-2-2">
      <stop
         id="stop4509-9-8-4"
         style="stop-color:#ffffff;stop-opacity:1"
         offset="0" />
      <stop
         id="stop4511-7-50-2"
         style="stop-color:#ffffff;stop-opacity:0.23529412"
         offset="0.07395859" />
      <stop
         id="stop4513-2-0-2"
         style="stop-color:#ffffff;stop-opacity:0.15686275"
         offset="0.99001008" />
      <stop
         id="stop4515-3-9-8"
         style="stop-color:#ffffff;stop-opacity:0.39215687"
         offset="1" />
    </linearGradient>
    <linearGradient
       inkscape:collect="always"
       xlink:href="#linearGradient4646-6-91-5"
       id="linearGradient3089-5-2-9-8-6"
       gradientUnits="userSpaceOnUse"
       gradientTransform="translate(-50.940899,-8.5052491e-7)"
       x1="62.988873"
       y1="13"
       x2="62.988873"
       y2="16" />
    <linearGradient
       id="linearGradient4646-6-91-5">
      <stop
         offset="0"
         style="stop-color:#f9f9f9;stop-opacity:1"
         id="stop4648-2-4-6" />
      <stop
         offset="1"
         style="stop-color:#d8d8d8;stop-opacity:1"
         id="stop4650-3-8-5" />
    </linearGradient>
    <linearGradient
       id="linearGradient3104-8-8-97-4-6-2-0-1">
      <stop
         offset="0"
         style="stop-color:#000000;stop-opacity:0.32173914"
         id="stop3106-5-4-3-5-0-1-61-9" />
      <stop
         offset="1"
         style="stop-color:#000000;stop-opacity:0.27826086"
         id="stop3108-4-3-7-8-2-4-01-9" />
    </linearGradient>
    <linearGradient
       y2="3.6336823"
       x2="-51.786404"
       y1="53.514328"
       x1="-51.786404"
       gradientTransform="matrix(0.80749834,0,0,0.83374395,106.87672,-0.06984085)"
       gradientUnits="userSpaceOnUse"
       id="linearGradient18718"
       xlink:href="#linearGradient3104-8-8-97-4-6-2-0-1"
       inkscape:collect="always" />
    <linearGradient
       gradientUnits="userSpaceOnUse"
       y2="44.35017"
       x2="21.949152"
       y1="16.472357"
       x1="21.949152"
       id="linearGradient3901"
       xlink:href="#linearGradient7012-661-145-733-759-865-745"
       inkscape:collect="always" />
    <radialGradient
       gradientTransform="matrix(-1.274898e-8,1.7142916,-2.159331,-1.4599595e-8,12.809361,2.8570011)"
       gradientUnits="userSpaceOnUse"
       xlink:href="#linearGradient3484"
       id="radialGradient2456"
       fy="5.01718"
       fx="3"
       r="21"
       cy="5.01718"
       cx="3" />
    <linearGradient
       gradientTransform="translate(-50.940898,0)"
       gradientUnits="userSpaceOnUse"
       xlink:href="#linearGradient6404"
       id="linearGradient2454"
       y2="16.19013"
       x2="62.988873"
       y1="13.182598"
       x1="62.988873" />
    <linearGradient
       gradientTransform="matrix(7.9388558e-2,0,0,2.4705883e-2,-4.693293,31.941642)"
       gradientUnits="userSpaceOnUse"
       xlink:href="#linearGradient5048-585"
       id="linearGradient2451"
       y2="609.50507"
       x2="302.85715"
       y1="366.64789"
       x1="302.85715" />
    <radialGradient
       gradientTransform="matrix(3.0790832e-2,0,0,2.4705883e-2,24.610252,31.941642)"
       gradientUnits="userSpaceOnUse"
       xlink:href="#linearGradient5060-179"
       id="radialGradient2448"
       fy="486.64789"
       fx="605.71429"
       r="117.14286"
       cy="486.64789"
       cx="605.71429" />
    <radialGradient
       gradientTransform="matrix(-3.0790825e-2,0,0,2.4705883e-2,23.389748,31.941642)"
       gradientUnits="userSpaceOnUse"
       xlink:href="#linearGradient5060-820"
       id="radialGradient2445"
       fy="486.64789"
       fx="605.71429"
       r="117.14286"
       cy="486.64789"
       cx="605.71429" />
    <linearGradient
       gradientTransform="translate(-53.765393,-0.1141929)"
       gradientUnits="userSpaceOnUse"
       xlink:href="#linearGradient3390"
       id="linearGradient2442"
       y2="16.047026"
       x2="82.453476"
       y1="45.114193"
       x1="82.453476" />
    <radialGradient
       gradientTransform="matrix(1.5646925,-9.5143002e-8,6.1772287e-8,1.015888,-86.212573,8.1461173)"
       gradientUnits="userSpaceOnUse"
       xlink:href="#linearGradient7012-661-145-733-759-865-745"
       id="radialGradient2440"
       fy="14.113381"
       fx="63.969177"
       r="23.097054"
       cy="14.113381"
       cx="63.969177" />
    <linearGradient
       gradientTransform="matrix(1.1446925,0,0,0.9977536,-3.4661413,1.0988425)"
       gradientUnits="userSpaceOnUse"
       xlink:href="#linearGradient6129-963-697-142-998-580-273"
       id="linearGradient2437"
       y2="36.657963"
       x2="22.809399"
       y1="49.629246"
       x1="22.934725" />
    <radialGradient
       gradientTransform="matrix(0,1.2079744,-1.6271642,0,26.371748,8.2664685)"
       gradientUnits="userSpaceOnUse"
       xlink:href="#linearGradient6087-437-184-795-110-662-495"
       id="radialGradient2434"
       fy="8.3021259"
       fx="7.2646537"
       r="20.979567"
       cy="8.3021259"
       cx="7.2646537" />
    <linearGradient
       gradientUnits="userSpaceOnUse"
       xlink:href="#linearGradient8265-821-176-38-919-66-249"
       id="linearGradient2431"
       y2="33.95525"
       x2="15.214532"
       y1="22.292103"
       x1="11.566265" />
    <linearGradient
       id="linearGradient8265-821-176-38-919-66-249">
      <stop
         offset="0"
         style="stop-color:#ffffff;stop-opacity:0.2"
         id="stop2687" />
      <stop
         offset="1"
         style="stop-color:#ffffff;stop-opacity:0"
         id="stop2689" />
    </linearGradient>
    <linearGradient
       id="linearGradient6087-437-184-795-110-662-495">
      <stop
         offset="0"
         style="stop-color:#ffffff;stop-opacity:0.40000001"
         id="stop2693" />
      <stop
         offset="1"
         style="stop-color:#ffffff;stop-opacity:0"
         id="stop2695" />
    </linearGradient>
    <linearGradient
       id="linearGradient6129-963-697-142-998-580-273">
      <stop
         offset="0"
         style="stop-color:#0a0a0a;stop-opacity:0.498"
         id="stop2661" />
      <stop
         offset="1"
         style="stop-color:#0a0a0a;stop-opacity:0"
         id="stop2663" />
    </linearGradient>
    <linearGradient
       id="linearGradient7012-661-145-733-759-865-745">
      <stop
         offset="0"
         style="stop-color:#aacb7d;stop-opacity:1"
         id="stop2699" />
      <stop
         offset="1"
         style="stop-color:#709937;stop-opacity:1"
         id="stop2701" />
    </linearGradient>
    <linearGradient
       id="linearGradient3390">
      <stop
         offset="0"
         style="stop-color:#51751e;stop-opacity:1"
         id="stop3392" />
      <stop
         offset="1"
         style="stop-color:#51751e;stop-opacity:1"
         id="stop3394" />
    </linearGradient>
    <linearGradient
       id="linearGradient5060-820">
      <stop
         offset="0"
         style="stop-color:#000000;stop-opacity:1"
         id="stop2681" />
      <stop
         offset="1"
         style="stop-color:#000000;stop-opacity:0"
         id="stop2683" />
    </linearGradient>
    <linearGradient
       id="linearGradient5060-179">
      <stop
         offset="0"
         style="stop-color:#000000;stop-opacity:1"
         id="stop2675" />
      <stop
         offset="1"
         style="stop-color:#000000;stop-opacity:0"
         id="stop2677" />
    </linearGradient>
    <linearGradient
       id="linearGradient5048-585">
      <stop
         offset="0"
         style="stop-color:#000000;stop-opacity:0"
         id="stop2667" />
      <stop
         offset="0.5"
         style="stop-color:#000000;stop-opacity:1"
         id="stop2669" />
      <stop
         offset="1"
         style="stop-color:#000000;stop-opacity:0"
         id="stop2671" />
    </linearGradient>
    <linearGradient
       id="linearGradient6404">
      <stop
         offset="0"
         style="stop-color:#f9f9f9;stop-opacity:1"
         id="stop6406" />
      <stop
         offset="1"
         style="stop-color:#c9c9c9;stop-opacity:1"
         id="stop6408" />
    </linearGradient>
    <linearGradient
       id="linearGradient3484">
      <stop
         offset="0"
         style="stop-color:#bdbdbd;stop-opacity:1"
         id="stop3486" />
      <stop
         offset="1"
         style="stop-color:#d0d0d0;stop-opacity:1"
         id="stop3488" />
    </linearGradient>
    <linearGradient
       gradientTransform="matrix(-0.5248057,0,0,0.5248057,29.704143,23.052725)"
       gradientUnits="userSpaceOnUse"
       xlink:href="#linearGradient7812"
       id="linearGradient2917"
       y2="34.5625"
       x2="-7.78125"
       y1="32.4375"
       x1="-6.40625" />
    <linearGradient
       id="linearGradient7812">
      <stop
         offset="0"
         style="stop-color:#000000;stop-opacity:1"
         id="stop7814" />
      <stop
         offset="1"
         style="stop-color:#000000;stop-opacity:0"
         id="stop7816" />
    </linearGradient>
    <linearGradient
       gradientTransform="matrix(-0.5904064,0,0,0.6122733,31.868967,5.1382633)"
       gradientUnits="userSpaceOnUse"
       xlink:href="#linearGradient7269"
       id="linearGradient2920"
       y2="55.000004"
       x2="-4.1097827"
       y1="58.807774"
       x1="-4.1097827" />
    <linearGradient
       id="linearGradient7269">
      <stop
         offset="0"
         style="stop-color:#ffffff;stop-opacity:1"
         id="stop7271" />
      <stop
         offset="1"
         style="stop-color:#d3d7cf;stop-opacity:1"
         id="stop7273" />
    </linearGradient>
    <linearGradient
       gradientTransform="matrix(-0.5248057,0,0,0.5248057,40.200257,23.052725)"
       gradientUnits="userSpaceOnUse"
       xlink:href="#linearGradient7660"
       id="linearGradient2923"
       y2="42.9375"
       x2="42.123722"
       y1="38.3125"
       x1="41.1875" />
    <linearGradient
       id="linearGradient7660">
      <stop
         offset="0"
         style="stop-color:#ffffff;stop-opacity:1"
         id="stop7662" />
      <stop
         offset="1"
         style="stop-color:#ffffff;stop-opacity:0"
         id="stop7664" />
    </linearGradient>
    <linearGradient
       gradientTransform="matrix(-0.5248057,0,0,0.5248057,40.200257,23.052725)"
       gradientUnits="userSpaceOnUse"
       xlink:href="#linearGradient7652-827"
       id="linearGradient2926"
       y2="45.0625"
       x2="38.875"
       y1="40.3125"
       x1="37.625" />
    <linearGradient
       id="linearGradient7652-827">
      <stop
         offset="0"
         style="stop-color:#dbdbdb;stop-opacity:1"
         id="stop3225" />
      <stop
         offset="1"
         style="stop-color:#a0a0a0;stop-opacity:0"
         id="stop3227" />
    </linearGradient>
    <linearGradient
       gradientTransform="matrix(-0.5248057,0,0,0.5248057,40.200257,23.052725)"
       gradientUnits="userSpaceOnUse"
       xlink:href="#linearGradient7576-259"
       id="linearGradient2928"
       y2="46.5625"
       x2="40.125"
       y1="40.625"
       x1="38.75" />
    <linearGradient
       id="linearGradient7576-259">
      <stop
         offset="0"
         style="stop-color:#787878;stop-opacity:1"
         id="stop3231" />
      <stop
         offset="1"
         style="stop-color:#6c6c6c;stop-opacity:0"
         id="stop3233" />
    </linearGradient>
    <linearGradient
       gradientTransform="matrix(-0.5864288,0,0,0.5858254,42.306003,17.818634)"
       gradientUnits="userSpaceOnUse"
       xlink:href="#linearGradient7340"
       id="linearGradient2607"
       y2="26.204767"
       x2="32.8125"
       y1="21"
       x1="32.8125" />
    <linearGradient
       id="linearGradient7340">
      <stop
         offset="0"
         style="stop-color:#2e3436;stop-opacity:1"
         id="stop7342" />
      <stop
         offset="1"
         style="stop-color:#555753;stop-opacity:1"
         id="stop7344" />
    </linearGradient>
    <linearGradient
       gradientTransform="matrix(-0.5248057,0,0,0.5248057,39.675451,19.379085)"
       gradientUnits="userSpaceOnUse"
       xlink:href="#linearGradient7430"
       id="linearGradient2609"
       y2="16"
       x2="29"
       y1="29"
       x1="28.875" />
    <linearGradient
       id="linearGradient7430">
      <stop
         offset="0"
         style="stop-color:#ffffff;stop-opacity:1"
         id="stop7432" />
      <stop
         offset="1"
         style="stop-color:#ffffff;stop-opacity:0"
         id="stop7434" />
    </linearGradient>
    <linearGradient
       gradientUnits="userSpaceOnUse"
       xlink:href="#linearGradient7422"
       id="linearGradient2619"
       y2="24.6875"
       x2="30.3125"
       y1="27.313059"
       x1="30.3125" />
    <linearGradient
       id="linearGradient7422">
      <stop
         offset="0"
         style="stop-color:#edd400;stop-opacity:1"
         id="stop7424" />
      <stop
         offset="1"
         style="stop-color:#edd400;stop-opacity:0"
         id="stop7426" />
    </linearGradient>
    <linearGradient
       gradientUnits="userSpaceOnUse"
       xlink:href="#linearGradient7422"
       id="linearGradient2611"
       y2="24.6875"
       x2="30.3125"
       y1="27.313059"
       x1="30.3125" />
    <linearGradient
       gradientUnits="userSpaceOnUse"
       xlink:href="#linearGradient7422"
       id="linearGradient2613"
       y2="24.6875"
       x2="30.3125"
       y1="27.313059"
       x1="30.3125" />
    <linearGradient
       gradientUnits="userSpaceOnUse"
       xlink:href="#linearGradient7422"
       id="linearGradient2615"
       y2="24.6875"
       x2="30.3125"
       y1="27.313059"
       x1="30.3125" />
    <linearGradient
       gradientUnits="userSpaceOnUse"
       xlink:href="#linearGradient7422"
       id="linearGradient2617"
       y2="24.6875"
       x2="30.3125"
       y1="27.313059"
       x1="30.3125" />
    <linearGradient
       gradientTransform="matrix(-0.5248057,0,0,0.5398003,31.803366,9.8576022)"
       gradientUnits="userSpaceOnUse"
       xlink:href="#linearGradient7277"
       id="linearGradient2939"
       y2="59.444622"
       x2="-3.5355339"
       y1="55.866562"
       x1="-3.5355339" />
    <linearGradient
       id="linearGradient7277">
      <stop
         offset="0"
         style="stop-color:#555753;stop-opacity:1"
         id="stop7279" />
      <stop
         offset="1"
         style="stop-color:#d3d7cf;stop-opacity:1"
         id="stop7281" />
    </linearGradient>
    <linearGradient
       gradientTransform="matrix(-0.5248057,0,0,0.5248057,31.803366,10.457388)"
       gradientUnits="userSpaceOnUse"
       xlink:href="#linearGradient7186"
       id="linearGradient2942"
       y2="51.812416"
       x2="-5.96875"
       y1="52.875"
       x1="-5.96875" />
    <linearGradient
       id="linearGradient7186">
      <stop
         offset="0"
         style="stop-color:#888a85;stop-opacity:1"
         id="stop7188" />
      <stop
         offset="1"
         style="stop-color:#ffffff;stop-opacity:1"
         id="stop7190" />
    </linearGradient>
    <linearGradient
       gradientTransform="matrix(-0.5248057,0,0,0.5248057,31.803366,10.457388)"
       gradientUnits="userSpaceOnUse"
       xlink:href="#linearGradient7245"
       id="linearGradient2945"
       y2="49.458408"
       x2="0.26516503"
       y1="50.51907"
       x1="-5.0823302" />
    <linearGradient
       id="linearGradient7245">
      <stop
         offset="0"
         style="stop-color:#eeeeec;stop-opacity:1"
         id="stop7247" />
      <stop
         offset="1"
         style="stop-color:#ffffff;stop-opacity:1"
         id="stop7249" />
    </linearGradient>
    <linearGradient
       gradientTransform="matrix(-0.5248057,0,0,0.5248057,31.803366,10.457388)"
       gradientUnits="userSpaceOnUse"
       xlink:href="#linearGradient7237"
       id="linearGradient2948"
       y2="50.563263"
       x2="0.88388348"
       y1="52.640388"
       x1="-4.6845822" />
    <linearGradient
       id="linearGradient7237">
      <stop
         offset="0"
         style="stop-color:#eeeeec;stop-opacity:1"
         id="stop7239" />
      <stop
         offset="1"
         style="stop-color:#babdb6;stop-opacity:1"
         id="stop7241" />
    </linearGradient>
    <linearGradient
       gradientTransform="matrix(-0.5248057,0,0,0.5248057,31.803366,10.457388)"
       gradientUnits="userSpaceOnUse"
       xlink:href="#linearGradient7257"
       id="linearGradient2954"
       y2="54"
       x2="-3.3587573"
       y1="51.137787"
       x1="-1.9887378" />
    <linearGradient
       id="linearGradient7257">
      <stop
         offset="0"
         style="stop-color:#000000;stop-opacity:1"
         id="stop7259" />
      <stop
         offset="1"
         style="stop-color:#000000;stop-opacity:0"
         id="stop7261" />
    </linearGradient>
    <linearGradient
       gradientUnits="userSpaceOnUse"
       xlink:href="#linearGradient7263"
       id="linearGradient7555"
       y2="54.415817"
       x2="0.82206726"
       y1="55.219357"
       x1="1.6256078" />
    <linearGradient
       id="linearGradient7263">
      <stop
         offset="0"
         style="stop-color:#adb0a8;stop-opacity:1"
         id="stop7265" />
      <stop
         offset="1"
         style="stop-color:#ffffff;stop-opacity:1"
         id="stop7267" />
    </linearGradient>
    <linearGradient
       gradientTransform="matrix(0.9642856,0,0,0.9722222,-0.2500008,1.6944444)"
       gradientUnits="userSpaceOnUse"
       xlink:href="#linearGradient7269"
       id="linearGradient7557"
       y2="54.707691"
       x2="-4.2208939"
       y1="59.878922"
       x1="-4.2208939" />
    <linearGradient
       gradientTransform="matrix(1.1874999,0,0,1.2,-17.281253,21.899998)"
       gradientUnits="userSpaceOnUse"
       xlink:href="#linearGradient6991"
       id="linearGradient2621"
       y2="-6.5683565"
       x2="-11.005972"
       y1="25.357235"
       x1="-7.975069" />
    <linearGradient
       id="linearGradient6991">
      <stop
         offset="0"
         style="stop-color:#d3d7cf;stop-opacity:1"
         id="stop6993" />
      <stop
         offset="1"
         style="stop-color:#ffffff;stop-opacity:1"
         id="stop6995" />
    </linearGradient>
    <linearGradient
       gradientUnits="userSpaceOnUse"
       xlink:href="#linearGradient7438"
       id="linearGradient2623"
       y2="18.937717"
       x2="-5.5098634"
       y1="3.7545938"
       x1="-7.8516631" />
    <linearGradient
       id="linearGradient7438">
      <stop
         offset="0"
         style="stop-color:#ffffff;stop-opacity:1"
         id="stop7440" />
      <stop
         offset="1"
         style="stop-color:#ffffff;stop-opacity:0"
         id="stop7442" />
    </linearGradient>
    <radialGradient
       gradientTransform="matrix(-0.6066716,0,0,0.4034938,40.981818,26.354263)"
       gradientUnits="userSpaceOnUse"
       xlink:href="#linearGradient7822"
       id="radialGradient2963"
       fy="34.785942"
       fx="14.363107"
       r="8.7946405"
       cy="34.785942"
       cx="14.363107" />
    <linearGradient
       id="linearGradient7822">
      <stop
         offset="0"
         style="stop-color:#000000;stop-opacity:1"
         id="stop7824" />
      <stop
         offset="1"
         style="stop-color:#000000;stop-opacity:0"
         id="stop7826" />
    </linearGradient>
    <filter
       style="color-interpolation-filters:sRGB"
       x="-0.11444673"
       y="-1.4149175"
       width="1.2288935"
       height="3.8298349"
       id="filter4180-6">
      <feGaussianBlur
         id="feGaussianBlur4182-7"
         stdDeviation="3.5372897" />
    </filter>
    <radialGradient
       cx="48"
       cy="84"
       r="30"
       fx="48"
       fy="84"
       id="radialGradient4138-5"
       xlink:href="#linearGradient3313"
       gradientUnits="userSpaceOnUse"
       gradientTransform="matrix(1.0666667,0,0,0.06666667,-3.2,77.4)" />
    <linearGradient
       id="linearGradient3313">
      <stop
         id="stop3315"
         style="stop-color:#0f96ff;stop-opacity:1;"
         offset="0" />
      <stop
         id="stop4186"
         style="stop-color:#13bcff;stop-opacity:0.65098041;"
         offset="0.67213112" />
      <stop
         id="stop3317"
         style="stop-color:#0090ff;stop-opacity:0;"
         offset="1" />
    </linearGradient>
    <linearGradient
       x1="46"
       y1="6"
       x2="46"
       y2="78.000145"
       id="linearGradient3179-2"
       xlink:href="#linearGradient4327"
       gradientUnits="userSpaceOnUse" />
    <linearGradient
       id="linearGradient4327">
      <stop
         id="stop4329"
         style="stop-color:#f0f0f0;stop-opacity:1"
         offset="0" />
      <stop
         id="stop4331"
         style="stop-color:#b4b4b4;stop-opacity:1"
         offset="1" />
    </linearGradient>
    <linearGradient
       x1="18.742928"
       y1="8.046936"
       x2="109.1929"
       y2="68.516502"
       id="linearGradient3551-2"
       xlink:href="#linearGradient3220"
       gradientUnits="userSpaceOnUse"
       gradientTransform="matrix(1,0,0,-1,0,84)" />
    <linearGradient
       id="linearGradient3220">
      <stop
         id="stop3222"
         style="stop-color:#ffffff;stop-opacity:1"
         offset="0" />
      <stop
         id="stop3224"
         style="stop-color:#bfbfbf;stop-opacity:0"
         offset="1" />
    </linearGradient>
    <linearGradient
       x1="6"
       y1="75.5"
       x2="45.219246"
       y2="75.5"
       id="linearGradient3454-9"
       xlink:href="#linearGradient5060-820-9-0-7"
       gradientUnits="userSpaceOnUse"
       gradientTransform="matrix(-1,0,0,1,96,-2)" />
    <linearGradient
       x1="15.656256"
       y1="69.394279"
       x2="46.594883"
       y2="39.82095"
       id="linearGradient3781-3"
       xlink:href="#linearGradient3220"
       gradientUnits="userSpaceOnUse"
       gradientTransform="matrix(1.1165614,0,0,1.1165614,0.8046986,-5.6759082)" />
    <clipPath
       id="clipPath3785-6">
      <rect
         width="84"
         height="72"
         rx="6"
         ry="6"
         x="6"
         y="6"
         id="rect3787-0"
         style="fill:#ffffff;fill-opacity:1;fill-rule:nonzero;stroke:none" />
    </clipPath>
    <filter
       style="color-interpolation-filters:sRGB"
       x="-0.12267826"
       y="-0.17991199"
       width="1.2453564"
       height="1.3598239"
       id="filter3829-6">
      <feGaussianBlur
         id="feGaussianBlur3831-2"
         stdDeviation="3.5487715" />
    </filter>
    <linearGradient
       x1="36.357143"
       y1="6"
       x2="36.357143"
       y2="63.893143"
       id="linearGradient3188-6"
       xlink:href="#linearGradient8265-821-176-38-919-66-249"
       gradientUnits="userSpaceOnUse" />
    <linearGradient
       x1="6"
       y1="77.09375"
       x2="32.030617"
       y2="77.09375"
       id="linearGradient3287-1"
       xlink:href="#linearGradient3273"
       gradientUnits="userSpaceOnUse"
       gradientTransform="matrix(-1,0,0,1,96.030615,0)" />
    <linearGradient
       id="linearGradient3273">
      <stop
         id="stop3275"
         style="stop-color:#7a7a7a;stop-opacity:1"
         offset="0" />
      <stop
         id="stop3281"
         style="stop-color:#f9f9f9;stop-opacity:1"
         offset="0.14636412" />
      <stop
         id="stop3283"
         style="stop-color:#c9c9c9;stop-opacity:1"
         offset="0.37253973" />
      <stop
         id="stop3277"
         style="stop-color:#dedede;stop-opacity:0"
         offset="1" />
    </linearGradient>
    <linearGradient
       x1="6"
       y1="77.09375"
       x2="32"
       y2="77.09375"
       id="linearGradient3279-0"
       xlink:href="#linearGradient3322"
       gradientUnits="userSpaceOnUse" />
    <linearGradient
       id="linearGradient3322">
      <stop
         id="stop3324"
         style="stop-color:#7a7a7a;stop-opacity:1"
         offset="0" />
      <stop
         id="stop3326"
         style="stop-color:#f9f9f9;stop-opacity:1"
         offset="0.2032043" />
      <stop
         id="stop3328"
         style="stop-color:#c9c9c9;stop-opacity:1"
         offset="0.42969123" />
      <stop
         id="stop3330"
         style="stop-color:#dedede;stop-opacity:0"
         offset="1" />
    </linearGradient>
    <linearGradient
       x1="48"
       y1="77.09375"
       x2="48"
       y2="90"
       id="linearGradient3460-9"
       xlink:href="#linearGradient5060-820-9-0-7"
       gradientUnits="userSpaceOnUse" />
    <linearGradient
       x1="43.05357"
       y1="80.14286"
       x2="43.05357"
       y2="82.00309"
       id="linearGradient4196-2"
       xlink:href="#linearGradient5060-820-9-0-7"
       gradientUnits="userSpaceOnUse" />
    <linearGradient
       x1="32.251034"
       y1="6.1317081"
       x2="32.251034"
       y2="90.238609"
       id="linearGradient3122-2"
       xlink:href="#ButtonShadow-0"
       gradientUnits="userSpaceOnUse"
       gradientTransform="matrix(1.0238095,0,0,1.0119048,-1.1428571,-98.071429)" />
    <linearGradient
       x1="45.447727"
       y1="92.539597"
       x2="45.447727"
       y2="7.0165396"
       id="ButtonShadow-0"
       gradientUnits="userSpaceOnUse"
       gradientTransform="matrix(1.0058652,0,0,0.994169,100,0)">
      <stop
         id="stop3750-8"
         style="stop-color:#000000;stop-opacity:1"
         offset="0" />
      <stop
         id="stop3752-5"
         style="stop-color:#000000;stop-opacity:0.58823532"
         offset="1" />
    </linearGradient>
    <linearGradient
       x1="32.251034"
       y1="6.1317081"
       x2="32.251034"
       y2="90.238609"
       id="linearGradient3721-7"
       xlink:href="#ButtonShadow-0"
       gradientUnits="userSpaceOnUse"
       gradientTransform="translate(0,-97)" />
    <linearGradient
       inkscape:collect="always"
       xlink:href="#ButtonShadow-0"
       id="linearGradient4508"
       gradientUnits="userSpaceOnUse"
       gradientTransform="matrix(1.0238095,0,0,1.0119048,-1.1428571,-98.071429)"
       x1="32.251034"
       y1="6.1317081"
       x2="32.251034"
       y2="90.238609" />
    <linearGradient
       inkscape:collect="always"
       xlink:href="#ButtonShadow-0"
       id="linearGradient4510"
       gradientUnits="userSpaceOnUse"
       gradientTransform="matrix(1.0238095,0,0,1.0119048,-1.1428571,-98.071429)"
       x1="32.251034"
       y1="6.1317081"
       x2="32.251034"
       y2="90.238609" />
    <linearGradient
       inkscape:collect="always"
       xlink:href="#ButtonShadow-0"
       id="linearGradient4512"
       gradientUnits="userSpaceOnUse"
       gradientTransform="matrix(1.0238095,0,0,1.0119048,-1.1428571,-98.071429)"
       x1="32.251034"
       y1="6.1317081"
       x2="32.251034"
       y2="90.238609" />
  </defs>
  <sodipodi:namedview
     id="base"
     pagecolor="#ffffff"
     bordercolor="#666666"
     borderopacity="1.0"
     inkscape:pageopacity="0.0"
     inkscape:pageshadow="2"
     inkscape:zoom="7"
     inkscape:cx="11.066327"
     inkscape:cy="24"
     inkscape:current-layer="layer1"
     showgrid="true"
     inkscape:grid-bbox="true"
     inkscape:document-units="px"
     inkscape:window-width="1920"
     inkscape:window-height="1011"
     inkscape:window-x="0"
     inkscape:window-y="32"
     inkscape:window-maximized="1" />
  <metadata
     id="metadata18725">
    <rdf:RDF>
      <cc:Work
         rdf:about="">
        <dc:format>image/svg+xml</dc:format>
        <dc:type
           rdf:resource="http://purl.org/dc/dcmitype/StillImage" />
        <dc:title />
      </cc:Work>
    </rdf:RDF>
  </metadata>
  <g
     id="layer1"
     inkscape:label="Layer 1"
     inkscape:groupmode="layer">
    <path
       inkscape:connector-curvature="0"
       style="opacity:0.8;color:#000000;fill:none;stroke:url(#linearGradient18718);stroke-width:1;stroke-linecap:butt;stroke-linejoin:miter;stroke-miterlimit:4;stroke-opacity:1;stroke-dasharray:none;stroke-dashoffset:0;marker:none;visibility:visible;display:inline;overflow:visible;enable-background:accumulate"
       d="m 5.5000021,8.4999991 c -0.554,0 -1,0.446 -1,1 l 0,1.9999999 -1,0 c -0.554,0 -1,0.446 -1,1 l 0,6 c 0,0.554 0.446,1 1,1 l 40.9999999,0 c 0.554,0 1,-0.446 1,-1 l 0,-6 c 0,-0.554 -0.446,-1 -1,-1 l -23,0 0,-1.9999999 c 0,-0.554 -0.446,-1 -1,-1 l -14.9999999,0 z"
       id="rect4251-0-0-1-1" />
    <path
       inkscape:connector-curvature="0"
       style="color:#000000;fill:url(#linearGradient3089-5-2-9-8-6);fill-opacity:1;fill-rule:nonzero;stroke:none;stroke-width:0.99992168;marker:none;visibility:visible;display:inline;overflow:visible;enable-background:accumulate"
       d="m 5.5000021,8.9999991 c -0.277,0 -0.5,0.223 -0.5,0.5 l 0,2.4999999 -1.5,0 c -0.277,0 -0.5,0.223 -0.5,0.5 l 0,6 c 0,0.277 0.223,0.5 0.5,0.5 l 40.9999999,0 c 0.277,0 0.5,-0.223 0.5,-0.5 l 0,-6 c 0,-0.277 -0.223,-0.5 -0.5,-0.5 l -23.5,0 0,-2.4999999 c 0,-0.277 -0.223,-0.5 -0.5,-0.5 l -14.9999999,0 z"
       id="rect4251-4-7-62" />
    <path
       inkscape:connector-curvature="0"
       style="color:#000000;fill:none;stroke:url(#linearGradient3381-5-5-29-4);stroke-width:1;stroke-linecap:round;stroke-linejoin:round;stroke-miterlimit:4;stroke-opacity:1;stroke-dasharray:none;stroke-dashoffset:0;marker:none;visibility:visible;display:inline;overflow:visible;enable-background:accumulate"
       d="m 5.5000021,9.4999991 0,2.9999999 -2,0 0,7 40.9999999,0 0,-7 -24,0 0,-2.9999999 -14.9999999,0 z"
       id="rect4251-9-9-0-05" />
    <path
       style="fill:url(#linearGradient4638-4-6-8);fill-opacity:1;stroke:none"
       id="path3388-1-43-0"
       inkscape:connector-curvature="0"
       d="m 2.1626121,15.500189 c -1.07231,0.12829 -0.49959,1.45416 -0.58508,2.19974 0.12444,0.48182 0.92748,26.176431 0.92748,26.176431 0,0.7414 0.35172,0.61579 1.24292,0.61579 13.1885599,0 27.7725299,0 40.9610899,0 0.96008,0.0231 0.75718,0.0121 0.75718,-0.62748 0,0 0.99298,-27.354211 1.0285,-27.781101 0,-0.44949 0.0902,-0.58338 -0.47316,-0.58338 -14.08405,0 -29.77488,0 -43.8589299,0 z"
       sodipodi:nodetypes="ccsscccsc" />
    <path
       style="opacity:0.4;fill:url(#linearGradient3072-0-3-0);fill-opacity:1;stroke:none"
       id="path6127-7-1-6"
       inkscape:connector-curvature="0"
       d="m 2.0582421,16.065149 43.8964799,4e-4 c 0.63416,0 1.04515,0.44461 1.04515,0.99737 l -1.03241,26.960371 c 0.0147,0.6994 -0.20909,0.97671 -0.9459,0.96204 L 3.2408421,44.96773 c -0.63416,0 -1.27363,-0.41276 -1.27363,-0.96551 l -0.95412,-26.939321 c 0,-0.55276 0.41099,-0.99775 1.04515,-0.99775 z" />
    <path
       sodipodi:type="inkscape:offset"
       inkscape:radius="-1.0151105"
       inkscape:original="M 2.15625 16.5 C 1.0839484 16.623862 1.6479947 17.905133 1.5625 18.625 C 1.6869357 19.090206 2.5 43.90625 2.5 43.90625 C 2.5 44.622082 2.8587963 44.5 3.75 44.5 L 44.71875 44.5 C 45.67883 44.52232 45.46875 44.492483 45.46875 43.875 C 45.46875 43.875 46.464479 17.474672 46.5 17.0625 C 46.5 16.628509 46.594572 16.5 46.03125 16.5 L 2.15625 16.5 z "
       style="opacity:0.5;color:#000000;fill:none;stroke:url(#linearGradient3381-56-2-7-5);stroke-width:0.98133707;stroke-linecap:round;stroke-linejoin:miter;stroke-miterlimit:4;stroke-opacity:1;stroke-dasharray:none;stroke-dashoffset:0;marker:none;visibility:visible;display:inline;overflow:visible;enable-background:accumulate"
       id="path4587-4-6-3"
       d="m 2.5,17.5 c 0.016793,0.176427 0.022163,0.517935 0.03125,0.875 0.023112,0.08641 0.025524,0.05923 0.03125,0.09375 0.011058,0.06665 0.027034,0.138257 0.03125,0.1875 0.0064,0.07474 -0.00668,0.173042 0,0.28125 0.013352,0.216416 0.045306,0.510844 0.0625,0.875 0.034388,0.728313 0.078083,1.708883 0.125,2.90625 0.093834,2.394734 0.2030642,5.55569 0.3125,8.6875 C 3.3060459,37.481691 3.4883163,43.143759 3.5,43.5 c 0.1225025,0.0036 0.071108,0 0.25,0 l 40.71875,0 c 0.0124,-0.328836 0.253182,-6.426721 0.5,-12.90625 0.126691,-3.325928 0.245386,-6.68527 0.34375,-9.21875 0.04918,-1.26674 0.09434,-2.331501 0.125,-3.09375 0.01322,-0.328618 0.02246,-0.572975 0.03125,-0.78125 L 2.5,17.5 z"
       transform="matrix(1,0,0,1.0383977,2.0849371e-6,-1.6703609)" />
    <path
       style="opacity:0.3;fill:none;stroke:#000000;stroke-width:1;stroke-linecap:round;stroke-linejoin:round;stroke-miterlimit:4;stroke-opacity:1;stroke-dashoffset:0"
       id="path3388-1-43-0-3"
       inkscape:connector-curvature="0"
       d="m 2.1626121,15.500189 c -1.07231,0.12829 -0.49959,1.45416 -0.58508,2.19974 0.12444,0.48182 0.92748,26.176431 0.92748,26.176431 0,0.7414 0.35172,0.61579 1.24292,0.61579 13.1885599,0 27.7725299,0 40.9610899,0 0.96008,0.0231 0.75718,0.0121 0.75718,-0.62748 0,0 0.99298,-27.354211 1.0285,-27.781101 0,-0.44949 0.0902,-0.58338 -0.47316,-0.58338 -14.08405,0 -29.77488,0 -43.8589299,0 z"
       sodipodi:nodetypes="ccsscccsc" />
    <g
       transform="matrix(0.26355525,0,0,0.26355525,16.525346,21.954014)"
       id="layer6"
       style="display:inline">
      <path
         inkscape:connector-curvature="0"
         d="m 12,-95.03125 c -5.5110903,0 -10.03125,4.52016 -10.03125,10.03125 l 0,71 c 0,5.5110902 4.5201598,10.03125 10.03125,10.03125 l 72,0 c 5.51109,0 10.03125,-4.5201597 10.03125,-10.03125 l 0,-71 c 0,-5.51109 -4.52016,-10.03125 -10.03125,-10.03125 l -72,0 z"
         transform="scale(1,-1)"
         id="path3786"
         style="display:inline;opacity:0.07999998;fill:url(#linearGradient4508);fill-opacity:1;fill-rule:nonzero;stroke:none" />
      <path
         inkscape:connector-curvature="0"
         d="m 12,-94.03125 c -4.971633,0 -9.03125,4.059617 -9.03125,9.03125 l 0,71 c 0,4.9716329 4.0596171,9.03125 9.03125,9.03125 l 72,0 c 4.971633,0 9.03125,-4.059617 9.03125,-9.03125 l 0,-71 c 0,-4.971633 -4.059617,-9.03125 -9.03125,-9.03125 l -72,0 z"
         transform="scale(1,-1)"
         id="path3778"
         style="display:inline;opacity:0.1;fill:url(#linearGradient4510);fill-opacity:1;fill-rule:nonzero;stroke:none" />
      <path
         inkscape:connector-curvature="0"
         d="m 12,-93 c -4.4091333,0 -8,3.590867 -8,8 l 0,71 c 0,4.4091333 3.5908667,8 8,8 l 72,0 c 4.409133,0 8,-3.5908667 8,-8 l 0,-71 c 0,-4.409133 -3.590867,-8 -8,-8 l -72,0 z"
         transform="scale(1,-1)"
         id="path3770"
         style="display:inline;opacity:0.2;fill:url(#linearGradient4512);fill-opacity:1;fill-rule:nonzero;stroke:none" />
      <rect
         width="86"
         height="85"
         rx="7"
         ry="7"
         x="5"
         y="-92"
         transform="scale(1,-1)"
         id="rect3723"
         style="display:inline;opacity:0.3;fill:url(#linearGradient3122-2);fill-opacity:1;fill-rule:nonzero;stroke:none" />
      <rect
         width="84"
         height="84"
         rx="6"
         ry="6"
         x="6"
         y="-91"
         transform="scale(1,-1)"
         id="rect3716"
         style="display:inline;opacity:0.45;fill:url(#linearGradient3721-7);fill-opacity:1;fill-rule:nonzero;stroke:none" />
    </g>
    <g
       transform="matrix(0.26355525,0,0,0.26355525,16.525346,21.954014)"
       id="layer1-3">
      <path
         d="M 12,6 C 8.676,6 6,8.676 6,12 l 0,2 0,68 0,2 c 0,0.334721 0.04135,0.6507 0.09375,0.96875 0.0487,0.295596 0.09704,0.596915 0.1875,0.875 0.00988,0.03038 0.020892,0.0636 0.03125,0.09375 0.098865,0.287771 0.2348802,0.547452 0.375,0.8125 0.1445918,0.273507 0.3156161,0.535615 0.5,0.78125 0.1843839,0.245635 0.3737765,0.473472 0.59375,0.6875 0.439947,0.428056 0.94291,0.814526 1.5,1.09375 0.278545,0.139612 0.5734731,0.246947 0.875,0.34375 -0.2562018,-0.100222 -0.4867109,-0.236272 -0.71875,-0.375 -0.00741,-0.0044 -0.023866,0.0045 -0.03125,0 -0.031933,-0.0193 -0.062293,-0.04251 -0.09375,-0.0625 -0.120395,-0.0767 -0.2310226,-0.163513 -0.34375,-0.25 -0.1061728,-0.0808 -0.2132809,-0.161112 -0.3125,-0.25 C 8.4783201,88.557317 8.3087904,88.373362 8.15625,88.1875 8.0486711,88.057245 7.9378561,87.922215 7.84375,87.78125 7.818661,87.74287 7.805304,87.69538 7.78125,87.65625 7.716487,87.553218 7.6510225,87.451733 7.59375,87.34375 7.4927417,87.149044 7.3880752,86.928049 7.3125,86.71875 7.30454,86.69694 7.288911,86.6782 7.28125,86.65625 7.2494249,86.5643 7.2454455,86.469419 7.21875,86.375 7.1884177,86.268382 7.1483606,86.171969 7.125,86.0625 7.0521214,85.720988 7,85.364295 7,85 L 7,83 7,15 7,13 C 7,10.218152 9.2181517,8 12,8 l 2,0 68,0 2,0 c 2.781848,0 5,2.218152 5,5 l 0,2 0,68 0,2 c 0,0.364295 -0.05212,0.720988 -0.125,1.0625 -0.04415,0.206893 -0.08838,0.397658 -0.15625,0.59375 -0.0077,0.02195 -0.0233,0.04069 -0.03125,0.0625 -0.06274,0.173739 -0.138383,0.367449 -0.21875,0.53125 -0.04158,0.0828 -0.07904,0.169954 -0.125,0.25 -0.0546,0.09721 -0.126774,0.18835 -0.1875,0.28125 -0.09411,0.140965 -0.204921,0.275995 -0.3125,0.40625 -0.143174,0.17445 -0.303141,0.346998 -0.46875,0.5 -0.01117,0.0102 -0.01998,0.02115 -0.03125,0.03125 -0.138386,0.125556 -0.285091,0.234436 -0.4375,0.34375 -0.102571,0.07315 -0.204318,0.153364 -0.3125,0.21875 -0.0074,0.0045 -0.02384,-0.0044 -0.03125,0 -0.232039,0.138728 -0.462548,0.274778 -0.71875,0.375 0.301527,-0.0968 0.596455,-0.204138 0.875,-0.34375 0.55709,-0.279224 1.060053,-0.665694 1.5,-1.09375 0.219973,-0.214028 0.409366,-0.441865 0.59375,-0.6875 0.184384,-0.245635 0.355408,-0.507743 0.5,-0.78125 0.14012,-0.265048 0.276135,-0.524729 0.375,-0.8125 0.01041,-0.03078 0.02133,-0.06274 0.03125,-0.09375 0.09046,-0.278085 0.1388,-0.579404 0.1875,-0.875 C 89.95865,84.6507 90,84.334721 90,84 l 0,-2 0,-68 0,-2 C 90,8.676 87.324,6 84,6 L 12,6 Z"
         inkscape:connector-curvature="0"
         id="rect3728"
         style="opacity:0.5;fill:url(#linearGradient3188-6);fill-opacity:1;fill-rule:nonzero;stroke:none" />
      <path
         d="M 90,64.1875 90,84 c 0,3.324 -2.676,6 -6,6 L 12,90 C 8.676,90 6,87.324 6,84 l 0,-19.8125 84,0 z"
         inkscape:connector-curvature="0"
         id="rect3243"
         style="fill:#cacaca;fill-opacity:1;fill-rule:nonzero;stroke:none" />
      <path
         d="m 6,73 0,1 c 0,3.324 2.676,6 6,6 l 72,0 c 3.324,0 6,-2.676 6,-6 l 0,-1 c 0,3.324 -2.676,6 -6,6 L 12,79 C 8.676,79 6,76.324 6,73 Z"
         inkscape:connector-curvature="0"
         id="path3309"
         style="fill:#999999;fill-opacity:1;fill-rule:nonzero;stroke:none" />
      <path
         d="m 90.030615,64.1875 0,19.8125 c 0,3.324 -2.676,6 -6,6 L 64,90 l 0,-25.8125 26.030615,0 z"
         inkscape:connector-curvature="0"
         id="path3285"
         style="opacity:0.8;fill:url(#linearGradient3287-1);fill-opacity:1;fill-rule:nonzero;stroke:none" />
      <path
         d="M 6,64.1875 6,84 c 0,3.324 2.676,6 6,6 l 20,0 0,-25.8125 -26,0 z"
         inkscape:connector-curvature="0"
         id="path3263"
         style="opacity:0.8;fill:url(#linearGradient3279-0);fill-opacity:1;fill-rule:nonzero;stroke:none" />
      <path
         d="M 90,64.1875 90,84 c 0,3.324 -2.676,6 -6,6 L 12,90 C 8.676,90 6,87.324 6,84 l 0,-19.8125 84,0 z"
         inkscape:connector-curvature="0"
         id="path3299"
         style="opacity:0.2;fill:url(#linearGradient3460-9);fill-opacity:1;fill-rule:nonzero;stroke:none" />
      <path
         d="m 6,74 0,6 c 0,3.324 2.676,6 6,6 l 72,0 c 3.324,0 6,-2.676 6,-6 l 0,-6 c 0,3.324 -2.676,6 -6,6 L 12,80 C 8.676,80 6,77.324 6,74 Z"
         inkscape:connector-curvature="0"
         id="path3298"
         style="fill:#252525;fill-opacity:1;fill-rule:nonzero;stroke:none" />
      <path
         d="m 6,80 0,1 c 0,3.324 2.676,6 6,6 l 72,0 c 3.324,0 6,-2.676 6,-6 l 0,-1 c 0,3.324 -2.676,6 -6,6 L 12,86 C 8.676,86 6,83.324 6,80 Z"
         inkscape:connector-curvature="0"
         id="path3304"
         style="fill:#ececec;fill-opacity:1;fill-rule:nonzero;stroke:none" />
      <path
         d="m 6,74 0,2 c 0,3.324 2.676,6 6,6 l 72,0 c 3.324,0 6,-2.676 6,-6 l 0,-2 c 0,3.324 -2.676,6 -6,6 L 12,80 C 8.676,80 6,77.324 6,74 Z"
         inkscape:connector-curvature="0"
         id="path4132"
         style="fill:url(#linearGradient4196-2);fill-opacity:1;fill-rule:nonzero;stroke:none" />
    </g>
    <g
       transform="matrix(0.26355525,0,0,0.26355525,16.525346,21.954014)"
       id="layer3"
       style="display:inline">
      <rect
         width="84"
         height="70"
         rx="6"
         ry="6"
         x="6"
         y="6"
         id="rect3171"
         style="fill:url(#linearGradient3179-2);fill-opacity:1;fill-rule:nonzero;stroke:none" />
      <path
         d="M 12,76 C 8.676,76 6,73.324 6,70 L 6,12 C 6,8.676 8.676,6 12,6 l 72,0 c 3.324,0 6,2.676 6,6 l 0,58 c 0,3.324 -2.676,6 -6,6 l -72,0 z m 0,-2 72,0 c 2.781848,0 5,-2.195392 5,-4.9375 l 0,-57.125 C 89,9.195393 86.781848,6.999999 84,7 L 12,7 C 9.2181517,7 7,9.195389 7,11.9375 l 0,57.125 C 7,71.804608 9.2181517,74 12,74 Z"
         inkscape:connector-curvature="0"
         id="rect3213"
         style="opacity:0.7;fill:url(#linearGradient3551-2);fill-opacity:1;fill-rule:nonzero;stroke:none" />
      <path
         d="m 90,70 0,1 c 0,3.324 -2.676,6 -6,6 L 12,77 C 8.676,77 6,74.324 6,71 l 0,-1 c 0,2.984862 2.152831,5.43487 5,5.90625 C 11.326884,75.971636 11.652269,76 12,76 l 72,0 c 0.166304,0 0.337194,-0.01811 0.5,-0.03125 0.04161,-0.0041 0.08371,0.0051 0.125,0 C 84.752873,75.95584 84.874673,75.927 85,75.90625 87.847169,75.43487 90,72.984862 90,70 Z"
         inkscape:connector-curvature="0"
         id="path3443"
         style="opacity:0.1;fill:url(#linearGradient3454-9);fill-opacity:1;fill-rule:nonzero;stroke:none" />
      <path
         d="M 72.785673,73.316552 C 37.497632,71.660468 32.655921,60.569503 56.214438,35.565764 29.558784,43.997531 16.947902,55.85465 7.5798689,63.939487 -2.370079,72.601777 6.9889853,83.779979 17.934257,82.851623 c 11.343001,-0.0075 45.801874,-2.097861 54.851416,-9.535071 z"
         inkscape:connector-curvature="0"
         transform="translate(0,-2)"
         clip-path="url(#clipPath3785-6)"
         id="path3295"
         style="opacity:0.3;fill:url(#linearGradient3781-3);fill-opacity:1;fill-rule:evenodd;stroke:none;filter:url(#filter3829-6)" />
    </g>
    <g
       transform="matrix(0.26355525,0,0,0.26355525,16.525346,21.954014)"
       id="layer5"
       style="display:inline">
      <rect
         width="74.178574"
         height="5.9999933"
         rx="6.7435069"
         ry="5.9999933"
         x="10.910714"
         y="80.000008"
         id="rect3323"
         style="display:inline;opacity:1;fill:#00c7ff;fill-opacity:1;fill-rule:nonzero;stroke:none;filter:url(#filter4180-6)" />
      <rect
         width="64"
         height="4"
         rx="5.818182"
         ry="4"
         x="16"
         y="81"
         id="rect3311"
         style="display:inline;opacity:1;fill:url(#radialGradient4138-5);fill-opacity:1;fill-rule:nonzero;stroke:none" />
    </g>
    <g
       style="fill:#2e5d4b;fill-opacity:1"
       id="layer6-3"
       transform="matrix(0.26355525,0,0,0.26355525,16.525346,18.79163)">
      <path
         inkscape:connector-curvature="0"
         style="opacity:0.9;fill:#2e5d4b;fill-opacity:1;stroke:none"
         id="path3717"
         d="M 48,32 C 37.25126,32 26.51351,36.11149 18.3125,44.3125 L 23.25,49.25 c 13.66835,-13.66835 35.83165,-13.66835 49.5,0 l 4.9375,-4.9375 C 69.48649,36.11149 58.74874,32 48,32 Z m 0,14 c -7.16583,0 -14.34516,2.72016 -19.8125,8.1875 l 4.96875,4.96875 c 8.20101,-8.20101 21.48649,-8.20101 29.6875,0 L 67.8125,54.1875 C 62.34516,48.72016 55.16582,46 48,46 Z m 0,14 c -3.58291,0 -7.17258,1.36008 -9.90625,4.09375 L 48,74 57.90625,64.09375 C 55.17258,61.36008 51.58291,60 48,60 Z" />
      <path
         inkscape:connector-curvature="0"
         style="opacity:0.25;fill:#2e5d4b;fill-opacity:1;stroke:none"
         id="path3920"
         d="M 48,32 C 37.25126,32 26.51351,36.11149 18.3125,44.3125 L 23.25,49.25 c 13.66835,-13.66835 35.83165,-13.66835 49.5,0 l 4.9375,-4.9375 C 69.48649,36.11149 58.74874,32 48,32 Z m 0,1.9375 c 9.634016,0 19.191168,3.585307 26.8125,10.5 L 72.625,46.625 c -14.004357,-12.590034 -35.245643,-12.590034 -49.25,0 L 21.1875,44.4375 C 28.808832,37.522807 38.365984,33.9375 48,33.9375 Z M 48,46 c -7.16583,0 -14.34516,2.72016 -19.8125,8.1875 l 4.96875,4.96875 c 8.20101,-8.20101 21.48649,-8.20101 29.6875,0 L 67.8125,54.1875 C 62.34516,48.72016 55.16582,46 48,46 Z m 0,1.9375 c 6.055974,0 12.063379,2.183175 16.9375,6.375 l -2.21875,2.21875 c -8.505192,-7.1633 -20.932308,-7.1633 -29.4375,0 L 31.0625,54.3125 C 35.93662,50.120674 41.944017,47.9375 48,47.9375 Z M 48,60 c -3.58291,0 -7.17258,1.36008 -9.90625,4.09375 L 48,74 57.90625,64.09375 C 55.17258,61.36008 51.58291,60 48,60 Z m 0,1.9375 c 2.450727,0 4.791706,0.957137 6.875,2.4375 L 48,71.25 41.125,64.375 C 43.208294,62.894637 45.549273,61.9375 48,61.9375 Z" />
      <path
         inkscape:connector-curvature="0"
         style="opacity:0.5;fill:#2e5d4b;fill-opacity:1;stroke:none"
         id="path3907"
         d="M 48,32 C 37.25126,32 26.51351,36.11149 18.3125,44.3125 L 23.25,49.25 c 13.66835,-13.66835 35.83165,-13.66835 49.5,0 l 4.9375,-4.9375 C 69.48649,36.11149 58.74874,32 48,32 Z m 0,1.03125 c 10.164734,0 20.283568,3.822257 28.1875,11.34375 l -3.5,3.5 c -13.860522,-13.096513 -35.514478,-13.096513 -49.375,0 l -3.5,-3.5 C 27.716432,36.853507 37.835266,33.03125 48,33.03125 Z M 48,46 c -7.16583,0 -14.34516,2.72016 -19.8125,8.1875 l 4.96875,4.96875 c 8.20101,-8.20101 21.48649,-8.20101 29.6875,0 L 67.8125,54.1875 C 62.34516,48.72016 55.16582,46 48,46 Z m 0,1.03125 c 6.583583,0 13.146038,2.430754 18.3125,7.21875 l -3.53125,3.53125 c -8.381706,-7.634738 -21.180794,-7.634738 -29.5625,0 L 29.6875,54.25 C 34.853961,49.462004 41.416407,47.03125 48,47.03125 Z M 48,60 c -3.58291,0 -7.17258,1.36008 -9.90625,4.09375 L 48,74 57.90625,64.09375 C 55.17258,61.36008 51.58291,60 48,60 Z m 0,1.03125 c 2.999513,0 5.98577,1.060256 8.40625,3.125 L 48,72.5625 39.59375,64.15625 c 2.42048,-2.064744 5.406737,-3.125 8.40625,-3.125 z" />
      <path
         inkscape:connector-curvature="0"
         style="fill:#2e5d4b;fill-opacity:1;stroke:none"
         id="path3898"
         d="M 48,32 C 37.25126,32 26.51351,36.11149 18.3125,44.3125 l 0.5,0.5 C 26.946568,36.942243 37.470531,33 48,33 c 10.529469,0 21.053432,3.942243 29.1875,11.8125 l 0.5,-0.5 C 69.48649,36.11149 58.74874,32 48,32 Z m 0,14 c -7.16583,0 -14.34516,2.72016 -19.8125,8.1875 l 0.5,0.5 C 34.08716,49.552139 41.054605,47 48,47 c 6.945385,0 13.91284,2.552139 19.3125,7.6875 l 0.5,-0.5 C 62.34516,48.72016 55.16582,46 48,46 Z m 0,14 c -3.58291,0 -7.17258,1.36008 -9.90625,4.09375 L 38.625,64.625 C 41.286187,62.2184 44.637743,61 48,61 c 3.362257,0 6.713813,1.2184 9.375,3.625 l 0.53125,-0.53125 C 55.17258,61.36008 51.58291,60 48,60 Z" />
      <path
         inkscape:connector-curvature="0"
         style="opacity:0.05;fill:#2e5d4b;fill-opacity:1;stroke:none"
         id="path3942"
         d="m 48,30 c -11.258055,0 -22.51257,4.32507 -31.09375,12.90625 -0.0015,0.0015 -0.06111,0.06096 -0.0625,0.0625 -0.0014,0.0015 -0.06119,0.09215 -0.0625,0.09375 -0.0013,0.0016 -0.06127,0.06083 -0.0625,0.0625 -0.0012,0.0017 -0.06135,0.09203 -0.0625,0.09375 -0.0012,0.0017 -0.06143,0.06072 -0.0625,0.0625 -0.0011,0.0018 -0.03027,0.09192 -0.03125,0.09375 -9.77e-4,0.0018 -0.06161,0.09188 -0.0625,0.09375 -8.86e-4,0.0019 -0.03046,0.09183 -0.03125,0.09375 -7.93e-4,0.0019 -0.03055,0.0918 -0.03125,0.09375 -6.98e-4,0.002 -0.03065,0.06052 -0.03125,0.0625 -6.01e-4,0.002 -0.03075,0.09174 -0.03125,0.09375 -5.03e-4,0.002 -0.03085,0.122967 -0.03125,0.125 -4.04e-4,0.002 3.04e-4,0.0917 0,0.09375 -3.04e-4,0.0021 -0.03105,0.09169 -0.03125,0.09375 -2.03e-4,0.0021 1.02e-4,0.09168 0,0.09375 -1.02e-4,0.0021 0,0.09168 0,0.09375 0,0.0021 -1.02e-4,0.09168 0,0.09375 1.02e-4,0.0021 -2.03e-4,0.09169 0,0.09375 2.03e-4,0.0021 0.03095,0.0917 0.03125,0.09375 3.04e-4,0.0021 -4.04e-4,0.09172 0,0.09375 4.04e-4,0.002 0.03075,0.122989 0.03125,0.125 5.03e-4,0.002 0.03065,0.09177 0.03125,0.09375 6.01e-4,0.002 0.03055,0.06055 0.03125,0.0625 6.98e-4,0.002 0.03046,0.09183 0.03125,0.09375 7.93e-4,0.0019 0.03036,0.09188 0.03125,0.09375 8.86e-4,0.0019 0.06152,0.09192 0.0625,0.09375 9.77e-4,0.0018 0.03018,0.09197 0.03125,0.09375 0.0011,0.0018 0.06135,0.06078 0.0625,0.0625 0.0012,0.0017 0.06127,0.09208 0.0625,0.09375 0.0012,0.0017 0.06119,0.0609 0.0625,0.0625 0.0013,0.0016 0.06111,0.09221 0.0625,0.09375 0.0014,0.0015 0.06104,0.06103 0.0625,0.0625 l 4.9375,4.9375 c 0.0015,0.0015 0.06096,0.06111 0.0625,0.0625 0.0015,0.0014 0.09215,0.06119 0.09375,0.0625 0.0016,0.0013 0.06083,0.06127 0.0625,0.0625 0.0017,0.0012 0.09203,0.06135 0.09375,0.0625 0.0017,0.0012 0.06072,0.06144 0.0625,0.0625 0.0018,0.0011 0.09192,0.03027 0.09375,0.03125 0.0018,9.77e-4 0.09188,0.06161 0.09375,0.0625 0.0019,8.86e-4 0.09183,0.03046 0.09375,0.03125 0.0019,7.93e-4 0.0918,0.03055 0.09375,0.03125 0.002,6.98e-4 0.06052,0.03065 0.0625,0.03125 0.002,6.01e-4 0.09174,0.03075 0.09375,0.03125 0.002,5.03e-4 0.122967,0.03085 0.125,0.03125 0.002,4.04e-4 0.0917,-3.04e-4 0.09375,0 0.0021,3.04e-4 0.09169,0.03105 0.09375,0.03125 0.0021,2.03e-4 0.09168,-1.02e-4 0.09375,0 0.0021,1.02e-4 0.09168,0 0.09375,0 0.0021,0 0.09168,1.02e-4 0.09375,0 0.0021,-1.02e-4 0.09169,2.03e-4 0.09375,0 0.0021,-2.03e-4 0.0917,-0.03095 0.09375,-0.03125 0.0021,-3.04e-4 0.09172,4.04e-4 0.09375,0 0.002,-4.04e-4 0.122989,-0.03075 0.125,-0.03125 0.002,-5.03e-4 0.09177,-0.03065 0.09375,-0.03125 0.002,-6.01e-4 0.06055,-0.03055 0.0625,-0.03125 0.002,-6.98e-4 0.09183,-0.03046 0.09375,-0.03125 0.0019,-7.93e-4 0.09188,-0.03036 0.09375,-0.03125 0.0019,-8.86e-4 0.09192,-0.06152 0.09375,-0.0625 0.0018,-9.77e-4 0.09197,-0.03019 0.09375,-0.03125 0.0018,-0.0011 0.06078,-0.06135 0.0625,-0.0625 0.0017,-0.0012 0.09208,-0.06127 0.09375,-0.0625 0.0017,-0.0012 0.0609,-0.06119 0.0625,-0.0625 0.0016,-0.0013 0.09221,-0.06111 0.09375,-0.0625 0.0015,-0.0014 0.06103,-0.06103 0.0625,-0.0625 12.906109,-12.906109 33.781391,-12.906109 46.6875,0 0.0015,0.0015 0.06096,0.06111 0.0625,0.0625 0.0015,0.0014 0.09215,0.06119 0.09375,0.0625 0.0016,0.0013 0.06083,0.06127 0.0625,0.0625 0.0017,0.0012 0.09203,0.06135 0.09375,0.0625 0.0017,0.0012 0.06072,0.06144 0.0625,0.0625 0.0018,0.0011 0.09192,0.03027 0.09375,0.03125 0.0018,9.77e-4 0.09188,0.06161 0.09375,0.0625 0.0019,8.86e-4 0.09183,0.03046 0.09375,0.03125 0.0019,7.93e-4 0.0918,0.03055 0.09375,0.03125 0.002,6.98e-4 0.06052,0.03065 0.0625,0.03125 0.002,6.01e-4 0.09174,0.03075 0.09375,0.03125 0.002,5.03e-4 0.122967,0.03085 0.125,0.03125 0.002,4.04e-4 0.0917,-3.04e-4 0.09375,0 0.0021,3.04e-4 0.09169,0.03105 0.09375,0.03125 0.0021,2.03e-4 0.09168,-1.02e-4 0.09375,0 0.0021,1.02e-4 0.09168,0 0.09375,0 0.0021,0 0.09168,1.02e-4 0.09375,0 0.0021,-1.02e-4 0.09169,2.03e-4 0.09375,0 0.0021,-2.03e-4 0.0917,-0.03095 0.09375,-0.03125 0.0021,-3.04e-4 0.09172,4.04e-4 0.09375,0 0.002,-4.04e-4 0.122989,-0.03075 0.125,-0.03125 0.002,-5.03e-4 0.09177,-0.03065 0.09375,-0.03125 0.002,-6.01e-4 0.06055,-0.03055 0.0625,-0.03125 0.002,-6.98e-4 0.09183,-0.03046 0.09375,-0.03125 0.0019,-7.93e-4 0.09188,-0.03036 0.09375,-0.03125 0.0019,-8.86e-4 0.09192,-0.06152 0.09375,-0.0625 0.0018,-9.77e-4 0.09197,-0.03019 0.09375,-0.03125 0.0018,-0.0011 0.06078,-0.06135 0.0625,-0.0625 0.0017,-0.0012 0.09208,-0.06127 0.09375,-0.0625 0.0017,-0.0012 0.0609,-0.06119 0.0625,-0.0625 0.0016,-0.0013 0.09221,-0.06111 0.09375,-0.0625 0.0015,-0.0014 0.06103,-0.06103 0.0625,-0.0625 l 4.9375,-4.9375 c 0.0015,-0.0015 0.06111,-0.06096 0.0625,-0.0625 0.0014,-0.0015 0.06119,-0.09215 0.0625,-0.09375 0.0013,-0.0016 0.06127,-0.06083 0.0625,-0.0625 0.0012,-0.0017 0.06135,-0.09203 0.0625,-0.09375 0.0012,-0.0017 0.06144,-0.06072 0.0625,-0.0625 0.0011,-0.0018 0.03027,-0.09192 0.03125,-0.09375 9.77e-4,-0.0018 0.06161,-0.09188 0.0625,-0.09375 8.86e-4,-0.0019 0.03046,-0.09183 0.03125,-0.09375 7.93e-4,-0.0019 0.03055,-0.0918 0.03125,-0.09375 6.98e-4,-0.002 0.03065,-0.06052 0.03125,-0.0625 6.01e-4,-0.002 0.03075,-0.09174 0.03125,-0.09375 5.03e-4,-0.002 0.03085,-0.122967 0.03125,-0.125 4.04e-4,-0.002 -3.04e-4,-0.0917 0,-0.09375 3.04e-4,-0.0021 0.03105,-0.09169 0.03125,-0.09375 2.03e-4,-0.0021 -1.02e-4,-0.09168 0,-0.09375 1.02e-4,-0.0021 0,-0.09168 0,-0.09375 0,-0.0021 1.02e-4,-0.09168 0,-0.09375 -1.02e-4,-0.0021 2.03e-4,-0.09169 0,-0.09375 -2.03e-4,-0.0021 -0.03095,-0.0917 -0.03125,-0.09375 -3.04e-4,-0.0021 4.04e-4,-0.09172 0,-0.09375 -4.04e-4,-0.002 -0.03075,-0.122989 -0.03125,-0.125 -5.03e-4,-0.002 -0.03065,-0.09177 -0.03125,-0.09375 -6.01e-4,-0.002 -0.03055,-0.06055 -0.03125,-0.0625 -6.98e-4,-0.002 -0.03046,-0.09183 -0.03125,-0.09375 -7.93e-4,-0.0019 -0.03036,-0.09188 -0.03125,-0.09375 -8.86e-4,-0.0019 -0.06152,-0.09192 -0.0625,-0.09375 -9.77e-4,-0.0018 -0.03019,-0.09197 -0.03125,-0.09375 -0.0011,-0.0018 -0.06135,-0.06078 -0.0625,-0.0625 -0.0012,-0.0017 -0.06127,-0.09208 -0.0625,-0.09375 -0.0012,-0.0017 -0.06119,-0.0609 -0.0625,-0.0625 -0.0013,-0.0016 -0.06111,-0.09221 -0.0625,-0.09375 -0.0014,-0.0015 -0.06104,-0.06103 -0.0625,-0.0625 C 70.51257,34.32507 59.258055,30 48,30 Z m 0,2 c 10.74874,0 21.48649,4.11149 29.6875,12.3125 L 72.75,49.25 C 59.08165,35.58165 36.91835,35.58165 23.25,49.25 L 18.3125,44.3125 C 26.51351,36.11149 37.25126,32 48,32 Z m 0,12 c -7.671436,0 -15.367651,2.930151 -21.21875,8.78125 -0.0015,0.0015 -0.06111,0.06096 -0.0625,0.0625 -0.0014,0.0015 -0.06119,0.09215 -0.0625,0.09375 -0.0013,0.0016 -0.06127,0.06083 -0.0625,0.0625 -0.0012,0.0017 -0.06135,0.09203 -0.0625,0.09375 -0.0012,0.0017 -0.06143,0.06072 -0.0625,0.0625 -0.0011,0.0018 -0.03027,0.09192 -0.03125,0.09375 -9.77e-4,0.0018 -0.06161,0.09188 -0.0625,0.09375 -8.86e-4,0.0019 -0.03046,0.09183 -0.03125,0.09375 -7.93e-4,0.0019 -0.03055,0.0918 -0.03125,0.09375 -6.98e-4,0.002 -0.03065,0.06052 -0.03125,0.0625 -6.01e-4,0.002 -0.03075,0.09174 -0.03125,0.09375 -5.03e-4,0.002 -0.03085,0.122967 -0.03125,0.125 -4.04e-4,0.002 3.04e-4,0.0917 0,0.09375 -3.04e-4,0.0021 -0.03105,0.09169 -0.03125,0.09375 -2.03e-4,0.0021 1.02e-4,0.09168 0,0.09375 -1.02e-4,0.0021 0,0.09168 0,0.09375 0,0.0021 -1.02e-4,0.09168 0,0.09375 1.02e-4,0.0021 -2.03e-4,0.09169 0,0.09375 2.03e-4,0.0021 0.03095,0.0917 0.03125,0.09375 3.04e-4,0.0021 -4.04e-4,0.09172 0,0.09375 4.04e-4,0.002 0.03075,0.122989 0.03125,0.125 5.03e-4,0.002 0.03065,0.09177 0.03125,0.09375 6.01e-4,0.002 0.03055,0.06055 0.03125,0.0625 6.98e-4,0.002 0.03046,0.09183 0.03125,0.09375 7.93e-4,0.0019 0.03036,0.09188 0.03125,0.09375 8.86e-4,0.0019 0.06152,0.09192 0.0625,0.09375 9.77e-4,0.0018 0.03018,0.09197 0.03125,0.09375 0.0011,0.0018 0.06135,0.06078 0.0625,0.0625 0.0012,0.0017 0.06127,0.09208 0.0625,0.09375 0.0012,0.0017 0.06119,0.0609 0.0625,0.0625 0.0013,0.0016 0.06111,0.09221 0.0625,0.09375 0.0014,0.0015 0.06104,0.06103 0.0625,0.0625 L 31.75,60.5625 c 0.0015,0.0015 0.06096,0.06111 0.0625,0.0625 0.0015,0.0014 0.09215,0.06119 0.09375,0.0625 0.0016,0.0013 0.06083,0.06127 0.0625,0.0625 0.0017,0.0012 0.09203,0.06135 0.09375,0.0625 0.0017,0.0012 0.06072,0.06144 0.0625,0.0625 0.0018,0.0011 0.09192,0.03027 0.09375,0.03125 0.0018,9.77e-4 0.09188,0.06161 0.09375,0.0625 0.0019,8.86e-4 0.09183,0.03046 0.09375,0.03125 0.0019,7.93e-4 0.0918,0.03055 0.09375,0.03125 0.002,6.98e-4 0.06052,0.03065 0.0625,0.03125 0.002,6.01e-4 0.09174,0.03075 0.09375,0.03125 0.002,5.03e-4 0.122967,0.03085 0.125,0.03125 0.002,4.04e-4 0.0917,-3.04e-4 0.09375,0 0.0021,3.04e-4 0.09169,0.03105 0.09375,0.03125 0.0021,2.03e-4 0.09168,-1.02e-4 0.09375,0 0.0021,1.02e-4 0.09168,0 0.09375,0 0.0021,0 0.09168,1.02e-4 0.09375,0 0.0021,-1.02e-4 0.09169,2.03e-4 0.09375,0 0.0021,-2.03e-4 0.0917,-0.03095 0.09375,-0.03125 0.0021,-3.04e-4 0.09172,4.04e-4 0.09375,0 0.002,-4.04e-4 0.122989,-0.03075 0.125,-0.03125 0.002,-5.03e-4 0.09177,-0.03065 0.09375,-0.03125 0.002,-6.01e-4 0.06055,-0.03055 0.0625,-0.03125 0.002,-6.98e-4 0.09183,-0.03046 0.09375,-0.03125 0.0019,-7.93e-4 0.09188,-0.03036 0.09375,-0.03125 0.0019,-8.86e-4 0.09192,-0.06152 0.09375,-0.0625 0.0018,-9.77e-4 0.09197,-0.03019 0.09375,-0.03125 0.0018,-0.0011 0.06078,-0.06135 0.0625,-0.0625 0.0017,-0.0012 0.09208,-0.06127 0.09375,-0.0625 0.0017,-0.0012 0.0609,-0.06119 0.0625,-0.0625 0.0016,-0.0013 0.09221,-0.06111 0.09375,-0.0625 0.0015,-0.0014 0.06103,-0.06103 0.0625,-0.0625 7.439906,-7.439906 19.435094,-7.439906 26.875,0 0.0015,0.0015 0.06096,0.06111 0.0625,0.0625 0.0015,0.0014 0.09215,0.06119 0.09375,0.0625 0.0016,0.0013 0.06083,0.06127 0.0625,0.0625 0.0017,0.0012 0.09203,0.06135 0.09375,0.0625 0.0017,0.0012 0.06072,0.06144 0.0625,0.0625 0.0018,0.0011 0.09192,0.03027 0.09375,0.03125 0.0018,9.77e-4 0.09188,0.06161 0.09375,0.0625 0.0019,8.86e-4 0.09183,0.03046 0.09375,0.03125 0.0019,7.93e-4 0.0918,0.03055 0.09375,0.03125 0.002,6.98e-4 0.06052,0.03065 0.0625,0.03125 0.002,6.01e-4 0.09174,0.03075 0.09375,0.03125 0.002,5.03e-4 0.122967,0.03085 0.125,0.03125 0.002,4.04e-4 0.0917,-3.04e-4 0.09375,0 0.0021,3.04e-4 0.09169,0.03105 0.09375,0.03125 0.0021,2.03e-4 0.09168,-1.02e-4 0.09375,0 0.0021,1.02e-4 0.09168,0 0.09375,0 0.0021,0 0.09168,1.02e-4 0.09375,0 0.0021,-1.02e-4 0.09169,2.03e-4 0.09375,0 0.0021,-2.03e-4 0.0917,-0.03095 0.09375,-0.03125 0.0021,-3.04e-4 0.09172,4.04e-4 0.09375,0 0.002,-4.04e-4 0.122989,-0.03075 0.125,-0.03125 0.002,-5.03e-4 0.09177,-0.03065 0.09375,-0.03125 0.002,-6.01e-4 0.06055,-0.03055 0.0625,-0.03125 0.002,-6.98e-4 0.09183,-0.03046 0.09375,-0.03125 0.0019,-7.93e-4 0.09188,-0.03036 0.09375,-0.03125 0.0019,-8.86e-4 0.09192,-0.06152 0.09375,-0.0625 0.0018,-9.77e-4 0.09197,-0.03019 0.09375,-0.03125 0.0018,-0.0011 0.06078,-0.06135 0.0625,-0.0625 0.0017,-0.0012 0.09208,-0.06127 0.09375,-0.0625 0.0017,-0.0012 0.0609,-0.06119 0.0625,-0.0625 0.0016,-0.0013 0.09221,-0.06111 0.09375,-0.0625 0.0015,-0.0014 0.06103,-0.06103 0.0625,-0.0625 l 4.96875,-4.96875 c 0.0015,-0.0015 0.06111,-0.06096 0.0625,-0.0625 0.0014,-0.0015 0.06119,-0.09215 0.0625,-0.09375 0.0013,-0.0016 0.06127,-0.06083 0.0625,-0.0625 0.0012,-0.0017 0.06135,-0.09203 0.0625,-0.09375 0.0012,-0.0017 0.06144,-0.06072 0.0625,-0.0625 0.0011,-0.0018 0.03027,-0.09192 0.03125,-0.09375 9.77e-4,-0.0018 0.06161,-0.09188 0.0625,-0.09375 8.86e-4,-0.0019 0.03046,-0.09183 0.03125,-0.09375 7.93e-4,-0.0019 0.03055,-0.0918 0.03125,-0.09375 6.98e-4,-0.002 0.03065,-0.06052 0.03125,-0.0625 6.01e-4,-0.002 0.03075,-0.09174 0.03125,-0.09375 5.03e-4,-0.002 0.03085,-0.122967 0.03125,-0.125 4.04e-4,-0.002 -3.04e-4,-0.0917 0,-0.09375 3.04e-4,-0.0021 0.03105,-0.09169 0.03125,-0.09375 2.03e-4,-0.0021 -1.02e-4,-0.09168 0,-0.09375 1.02e-4,-0.0021 0,-0.09168 0,-0.09375 0,-0.0021 1.02e-4,-0.09168 0,-0.09375 -1.02e-4,-0.0021 2.03e-4,-0.09169 0,-0.09375 -2.03e-4,-0.0021 -0.03095,-0.0917 -0.03125,-0.09375 -3.04e-4,-0.0021 4.04e-4,-0.09172 0,-0.09375 -4.04e-4,-0.002 -0.03075,-0.122989 -0.03125,-0.125 -5.03e-4,-0.002 -0.03065,-0.09177 -0.03125,-0.09375 -6.01e-4,-0.002 -0.03055,-0.06055 -0.03125,-0.0625 -6.98e-4,-0.002 -0.03046,-0.09183 -0.03125,-0.09375 -7.93e-4,-0.0019 -0.03036,-0.09188 -0.03125,-0.09375 -8.86e-4,-0.0019 -0.06152,-0.09192 -0.0625,-0.09375 -9.77e-4,-0.0018 -0.03019,-0.09197 -0.03125,-0.09375 -0.0011,-0.0018 -0.06135,-0.06078 -0.0625,-0.0625 -0.0012,-0.0017 -0.06127,-0.09208 -0.0625,-0.09375 -0.0012,-0.0017 -0.06119,-0.0609 -0.0625,-0.0625 -0.0013,-0.0016 -0.06111,-0.09221 -0.0625,-0.09375 -0.0014,-0.0015 -0.06104,-0.06103 -0.0625,-0.0625 C 63.367651,46.930151 55.671427,44 48,44 Z m 0,2 c 7.16582,0 14.34516,2.72016 19.8125,8.1875 l -4.96875,4.96875 c -8.20101,-8.20101 -21.48649,-8.20101 -29.6875,0 L 28.1875,54.1875 C 33.65484,48.72016 40.83417,46 48,46 Z m 0,12 c -4.089027,0 -8.194979,1.569979 -11.3125,4.6875 -0.0015,0.0015 -0.06111,0.06096 -0.0625,0.0625 -0.0014,0.0015 -0.06119,0.09215 -0.0625,0.09375 -0.0013,0.0016 -0.06127,0.06083 -0.0625,0.0625 -0.0012,0.0017 -0.06135,0.09203 -0.0625,0.09375 -0.0012,0.0017 -0.06144,0.06072 -0.0625,0.0625 -0.0011,0.0018 -0.03027,0.09192 -0.03125,0.09375 -9.77e-4,0.0018 -0.06161,0.09188 -0.0625,0.09375 -8.86e-4,0.0019 -0.03046,0.09183 -0.03125,0.09375 -7.93e-4,0.0019 -0.03055,0.0918 -0.03125,0.09375 -6.98e-4,0.002 -0.03065,0.06052 -0.03125,0.0625 -6.01e-4,0.002 -0.03075,0.09174 -0.03125,0.09375 -5.03e-4,0.002 -0.03085,0.122967 -0.03125,0.125 -4.04e-4,0.002 3.04e-4,0.0917 0,0.09375 -3.04e-4,0.0021 -0.03105,0.09169 -0.03125,0.09375 -2.03e-4,0.0021 1.02e-4,0.09168 0,0.09375 -1.02e-4,0.0021 0,0.09168 0,0.09375 0,0.0021 -1.02e-4,0.09168 0,0.09375 1.02e-4,0.0021 -2.03e-4,0.09169 0,0.09375 2.03e-4,0.0021 0.03095,0.0917 0.03125,0.09375 3.04e-4,0.0021 -4.04e-4,0.09172 0,0.09375 4.04e-4,0.002 0.03075,0.122989 0.03125,0.125 5.03e-4,0.002 0.03065,0.09177 0.03125,0.09375 6.01e-4,0.002 0.03055,0.06055 0.03125,0.0625 6.98e-4,0.002 0.03046,0.09183 0.03125,0.09375 7.93e-4,0.0019 0.03036,0.09188 0.03125,0.09375 8.86e-4,0.0019 0.06152,0.09192 0.0625,0.09375 9.77e-4,0.0018 0.03019,0.09197 0.03125,0.09375 0.0011,0.0018 0.06135,0.06078 0.0625,0.0625 0.0012,0.0017 0.06127,0.09208 0.0625,0.09375 0.0012,0.0017 0.06119,0.0609 0.0625,0.0625 0.0013,0.0016 0.06111,0.09221 0.0625,0.09375 0.0014,0.0015 0.06103,0.06103 0.0625,0.0625 l 9.90625,9.90625 c 0.0015,0.0015 0.06096,0.06111 0.0625,0.0625 0.0015,0.0014 0.09215,0.06119 0.09375,0.0625 0.0016,0.0013 0.06083,0.06127 0.0625,0.0625 0.0017,0.0012 0.09203,0.06135 0.09375,0.0625 0.0017,0.0012 0.06072,0.06144 0.0625,0.0625 0.0018,0.0011 0.09192,0.03027 0.09375,0.03125 0.0018,9.77e-4 0.09188,0.06161 0.09375,0.0625 0.0019,8.86e-4 0.09183,0.03046 0.09375,0.03125 0.0019,7.93e-4 0.0918,0.03055 0.09375,0.03125 0.002,6.98e-4 0.06052,0.03065 0.0625,0.03125 0.002,6.01e-4 0.09174,0.03075 0.09375,0.03125 0.002,5.03e-4 0.122967,0.03085 0.125,0.03125 0.002,4.04e-4 0.0917,-3.04e-4 0.09375,0 0.0021,3.04e-4 0.09169,0.03105 0.09375,0.03125 0.0021,2.03e-4 0.09168,-1.02e-4 0.09375,0 0.0021,1.02e-4 0.09168,0 0.09375,0 0.0021,0 0.09168,1.02e-4 0.09375,0 0.0021,-1.02e-4 0.09169,2.03e-4 0.09375,0 0.0021,-2.03e-4 0.0917,-0.03095 0.09375,-0.03125 0.0021,-3.04e-4 0.09172,4.04e-4 0.09375,0 0.002,-4.04e-4 0.122989,-0.03075 0.125,-0.03125 0.002,-5.03e-4 0.09177,-0.03065 0.09375,-0.03125 0.002,-6.01e-4 0.06055,-0.03055 0.0625,-0.03125 0.002,-6.98e-4 0.09183,-0.03046 0.09375,-0.03125 0.0019,-7.93e-4 0.09188,-0.03036 0.09375,-0.03125 0.0019,-8.86e-4 0.09192,-0.06152 0.09375,-0.0625 0.0018,-9.77e-4 0.09197,-0.03019 0.09375,-0.03125 0.0018,-0.0011 0.06078,-0.06135 0.0625,-0.0625 0.0017,-0.0012 0.09208,-0.06127 0.09375,-0.0625 0.0017,-0.0012 0.0609,-0.06119 0.0625,-0.0625 0.0016,-0.0013 0.09221,-0.06111 0.09375,-0.0625 0.0015,-0.0014 0.06103,-0.06104 0.0625,-0.0625 L 59.3125,65.5 c 0.0015,-0.0015 0.06111,-0.06096 0.0625,-0.0625 0.0014,-0.0015 0.06119,-0.09215 0.0625,-0.09375 0.0013,-0.0016 0.06127,-0.06083 0.0625,-0.0625 0.0012,-0.0017 0.06135,-0.09203 0.0625,-0.09375 0.0012,-0.0017 0.06144,-0.06072 0.0625,-0.0625 0.0011,-0.0018 0.03027,-0.09192 0.03125,-0.09375 9.77e-4,-0.0018 0.06161,-0.09188 0.0625,-0.09375 8.86e-4,-0.0019 0.03046,-0.09183 0.03125,-0.09375 7.93e-4,-0.0019 0.03055,-0.0918 0.03125,-0.09375 6.98e-4,-0.002 0.03065,-0.06052 0.03125,-0.0625 6.01e-4,-0.002 0.03075,-0.09174 0.03125,-0.09375 5.03e-4,-0.002 0.03085,-0.122967 0.03125,-0.125 4.04e-4,-0.002 -3.04e-4,-0.0917 0,-0.09375 3.04e-4,-0.0021 0.03105,-0.09169 0.03125,-0.09375 2.03e-4,-0.0021 -1.02e-4,-0.09168 0,-0.09375 1.02e-4,-0.0021 0,-0.09168 0,-0.09375 0,-0.0021 1.02e-4,-0.09168 0,-0.09375 -1.02e-4,-0.0021 2.03e-4,-0.09169 0,-0.09375 -2.03e-4,-0.0021 -0.03095,-0.0917 -0.03125,-0.09375 -3.04e-4,-0.0021 4.04e-4,-0.09172 0,-0.09375 -4.04e-4,-0.002 -0.03075,-0.122989 -0.03125,-0.125 C 59.843247,63.59175 59.8131,63.50198 59.8125,63.5 59.811899,63.498 59.78195,63.43945 59.78125,63.4375 59.780552,63.4355 59.75079,63.34567 59.75,63.34375 59.749207,63.34185 59.71964,63.25187 59.71875,63.25 59.717864,63.2481 59.65723,63.15808 59.65625,63.15625 59.655273,63.15445 59.62606,63.06428 59.625,63.0625 59.6239,63.0607 59.56365,63.00172 59.5625,63 59.5613,62.9983 59.50123,62.90792 59.5,62.90625 59.4988,62.90455 59.43881,62.84535 59.4375,62.84375 59.4362,62.84215 59.37639,62.75154 59.375,62.75 59.3736,62.7485 59.31397,62.68897 59.3125,62.6875 56.194979,59.569979 52.089027,58 48,58 Z m 0,2 c 3.58291,0 7.17258,1.36008 9.90625,4.09375 L 48,74 38.09375,64.09375 C 40.82742,61.36008 44.41709,60 48,60 Z" />
      <path
         inkscape:connector-curvature="0"
         style="opacity:0.1;fill:#2e5d4b;fill-opacity:1;stroke:none"
         id="path3938"
         d="m 48,30.9375 c -11.019358,0 -22.034387,4.221887 -30.4375,12.625 a 1.0613296,1.0613296 0 0 0 0,1.5 L 22.5,50 A 1.0613296,1.0613296 0 0 0 24,50 C 37.262758,36.737242 58.737242,36.737242 72,50 a 1.0613296,1.0613296 0 0 0 1.5,0 l 4.9375,-4.9375 a 1.0613296,1.0613296 0 0 0 0,-1.5 C 70.034387,35.159387 59.019358,30.9375 48,30.9375 Z M 48,32 c 10.74874,0 21.48649,4.11149 29.6875,12.3125 L 72.75,49.25 C 59.08165,35.58165 36.91835,35.58165 23.25,49.25 L 18.3125,44.3125 C 26.51351,36.11149 37.25126,32 48,32 Z m 0,12.9375 c -7.434391,0 -14.891151,2.828651 -20.5625,8.5 a 1.0613296,1.0613296 0 0 0 0,1.5 l 4.96875,4.96875 a 1.0613296,1.0613296 0 0 0 1.5,0 c 7.7958,-7.7958 20.3917,-7.7958 28.1875,0 a 1.0613296,1.0613296 0 0 0 1.5,0 L 68.5625,54.9375 a 1.0613296,1.0613296 0 0 0 0,-1.5 C 62.891151,47.766151 55.434382,44.9375 48,44.9375 Z M 48,46 c 7.16582,0 14.34516,2.72016 19.8125,8.1875 l -4.96875,4.96875 c -8.20101,-8.20101 -21.48649,-8.20101 -29.6875,0 L 28.1875,54.1875 C 33.65484,48.72016 40.83417,46 48,46 Z m 0,12.9375 c -3.851472,0 -7.718571,1.468571 -10.65625,4.40625 a 1.0613296,1.0613296 0 0 0 0,1.5 L 47.25,74.75 a 1.0613296,1.0613296 0 0 0 1.5,0 l 9.90625,-9.90625 a 1.0613296,1.0613296 0 0 0 0,-1.5 C 55.718571,60.406071 51.851472,58.9375 48,58.9375 Z M 48,60 c 3.58291,0 7.17258,1.36008 9.90625,4.09375 L 48,74 38.09375,64.09375 C 40.82742,61.36008 44.41709,60 48,60 Z" />
      <path
         inkscape:connector-curvature="0"
         style="opacity:0.2;fill:#2e5d4b;fill-opacity:1;stroke:none"
         id="path3975-5"
         d="m 48,39 c -8.957912,0 -17.915825,3.415825 -24.75,10.25 l -4.4375,-4.4375 c -0.169388,0.163894 -0.332702,0.332702 -0.5,0.5 L 23.25,50.25 c 13.66835,-13.66835 35.83165,-13.66835 49.5,0 l 4.9375,-4.9375 c -0.167298,-0.167298 -0.330612,-0.336106 -0.5,-0.5 L 72.75,49.25 C 65.915825,42.415825 56.957912,39 48,39 Z m 0,14 c -5.371623,0 -10.743245,2.055745 -14.84375,6.15625 L 28.6875,54.6875 c -0.171376,0.162988 -0.331814,0.331814 -0.5,0.5 l 4.96875,4.96875 c 8.20101,-8.20101 21.48649,-8.20101 29.6875,0 L 67.8125,55.1875 c -0.168186,-0.168186 -0.328624,-0.337012 -0.5,-0.5 l -4.46875,4.46875 C 58.743245,55.055745 53.371623,53 48,53 Z m -9.375,11.625 c -0.174644,0.157936 -0.362898,0.300398 -0.53125,0.46875 L 48,75 57.90625,65.09375 C 57.737898,64.925398 57.549644,64.782936 57.375,64.625 L 48,74 38.625,64.625 Z" />
    </g>
  </g>
</svg>
