<?xml version="1.0" encoding="UTF-8" standalone="no"?>
<svg
   xmlns:dc="http://purl.org/dc/elements/1.1/"
   xmlns:cc="http://creativecommons.org/ns#"
   xmlns:rdf="http://www.w3.org/1999/02/22-rdf-syntax-ns#"
   xmlns:svg="http://www.w3.org/2000/svg"
   xmlns="http://www.w3.org/2000/svg"
   xmlns:xlink="http://www.w3.org/1999/xlink"
   version="1.1"
   id="svg20096"
   height="48px"
   width="48px">
  <defs
     id="defs20098">
    <linearGradient
       y2="35.581654"
       x2="42.470848"
       y1="11.952797"
       x1="42.470848"
       gradientTransform="matrix(0.89189031,0,0,1.0580283,3.1206609,5.3536023)"
       gradientUnits="userSpaceOnUse"
       id="linearGradient3381-56-2-7-5-0-8-0-0"
       xlink:href="#linearGradient3454-2-8-6-1-1-8-0-6" />
    <linearGradient
       id="linearGradient3454-2-8-6-1-1-8-0-6">
      <stop
         id="stop3456-4-7-9-4-0-3-6-2"
         style="stop-color:#ffffff;stop-opacity:1"
         offset="0" />
      <stop
         id="stop3458-39-0-8-61-3-8-9-0"
         style="stop-color:#ffffff;stop-opacity:0.23529412"
         offset="0.0097359" />
      <stop
         id="stop3460-7-5-4-1-6-6-6-2"
         style="stop-color:#ffffff;stop-opacity:0.15686275"
         offset="0.99001008" />
      <stop
         id="stop3462-0-5-6-6-2-1-6-0"
         style="stop-color:#ffffff;stop-opacity:0.39215687"
         offset="1" />
    </linearGradient>
    <linearGradient
       y2="36.657963"
       x2="22.809399"
       y1="49.629246"
       x1="22.934725"
       gradientTransform="matrix(1.1446925,0,0,0.9977536,-3.4660851,1.0988289)"
       gradientUnits="userSpaceOnUse"
       id="linearGradient3072-0-3-0-7-4-8-7"
       xlink:href="#linearGradient6129-963-697-142-998-580-273-0-8-4-9-0-0-0" />
    <linearGradient
       id="linearGradient6129-963-697-142-998-580-273-0-8-4-9-0-0-0">
      <stop
         offset="0"
         style="stop-color:#0a0a0a;stop-opacity:0.498"
         id="stop2661-3-02-4-8-0-4-3" />
      <stop
         offset="1"
         style="stop-color:#0a0a0a;stop-opacity:0"
         id="stop2663-2-8-06-2-4-6-4" />
    </linearGradient>
    <linearGradient
       gradientTransform="matrix(1,0,0,1.0357143,1.4880025e-5,-1.5891011)"
       gradientUnits="userSpaceOnUse"
       y2="43.761127"
       x2="35.792694"
       y1="17.118193"
       x1="35.792694"
       id="linearGradient4638-4-6-8-9-9-5-8"
       xlink:href="#linearGradient4632-0-6-4" />
    <linearGradient
       id="linearGradient4632-0-6-4">
      <stop
         id="stop4634-4-4-7"
         offset="0"
         style="stop-color:#aacb7d;stop-opacity:1;" />
      <stop
         id="stop4636-3-1-5"
         offset="1"
         style="stop-color:#709937;stop-opacity:1;" />
    </linearGradient>
    <radialGradient
       r="117.14286"
       fy="486.64789"
       fx="605.71429"
       cy="486.64789"
       cx="605.71429"
       gradientTransform="matrix(-0.03079083,0,0,0.02470588,23.389815,31.941629)"
       gradientUnits="userSpaceOnUse"
       id="radialGradient3080-2-3-9-9-8-8-9"
       xlink:href="#linearGradient5060-820-9-0-7-1-7-7-1" />
    <linearGradient
       id="linearGradient5060-820-9-0-7-1-7-7-1">
      <stop
         offset="0"
         style="stop-color:#000000;stop-opacity:1"
         id="stop2681-5-4-3-6-3-8-2" />
      <stop
         offset="1"
         style="stop-color:#000000;stop-opacity:0"
         id="stop2683-8-6-9-4-6-6-2" />
    </linearGradient>
    <radialGradient
       r="117.14286"
       fy="486.64789"
       fx="605.71429"
       cy="486.64789"
       cx="605.71429"
       gradientTransform="matrix(0.03079083,0,0,0.02470588,24.610215,31.941629)"
       gradientUnits="userSpaceOnUse"
       id="radialGradient3083-4-5-6-4-5-0-5"
       xlink:href="#linearGradient5060-179-2-0-3-6-2-2-8" />
    <linearGradient
       id="linearGradient5060-179-2-0-3-6-2-2-8">
      <stop
         offset="0"
         style="stop-color:#000000;stop-opacity:1"
         id="stop2675-9-9-4-1-4-4-9" />
      <stop
         offset="1"
         style="stop-color:#000000;stop-opacity:0"
         id="stop2677-1-7-2-6-1-8-3" />
    </linearGradient>
    <linearGradient
       y2="609.50507"
       x2="302.85715"
       y1="366.64789"
       x1="302.85715"
       gradientTransform="matrix(0.07938856,0,0,0.02470588,-4.6932851,31.941629)"
       gradientUnits="userSpaceOnUse"
       id="linearGradient3086-4-4-0-5-5-7-4"
       xlink:href="#linearGradient5048-585-4-0-56-2-5-2-1" />
    <linearGradient
       id="linearGradient5048-585-4-0-56-2-5-2-1">
      <stop
         offset="0"
         style="stop-color:#000000;stop-opacity:0"
         id="stop2667-5-0-7-4-7-7-2" />
      <stop
         offset="0.5"
         style="stop-color:#000000;stop-opacity:1"
         id="stop2669-4-1-8-0-6-9-3" />
      <stop
         offset="1"
         style="stop-color:#000000;stop-opacity:0"
         id="stop2671-2-6-3-2-0-6-0" />
    </linearGradient>
    <linearGradient
       y2="34.143417"
       x2="21.37039"
       y1="4.2476678"
       x1="21.37039"
       gradientTransform="matrix(0.89189031,0,0,1.0580283,3.1207247,5.3535889)"
       gradientUnits="userSpaceOnUse"
       id="linearGradient3381-5-5-29-4-6-5-0-4"
       xlink:href="#linearGradient4507-9-2-2-3-6-9-9" />
    <linearGradient
       id="linearGradient4507-9-2-2-3-6-9-9">
      <stop
         offset="0"
         style="stop-color:#ffffff;stop-opacity:1"
         id="stop4509-9-8-4-2-3-4-5" />
      <stop
         offset="0.07395859"
         style="stop-color:#ffffff;stop-opacity:0.23529412"
         id="stop4511-7-50-2-1-3-9-4" />
      <stop
         offset="0.99001008"
         style="stop-color:#ffffff;stop-opacity:0.15686275"
         id="stop4513-2-0-2-9-2-6-2" />
      <stop
         offset="1"
         style="stop-color:#ffffff;stop-opacity:0.39215687"
         id="stop4515-3-9-8-6-6-0-7" />
    </linearGradient>
    <linearGradient
       y2="16"
       x2="62.988873"
       y1="13"
       x1="62.988873"
       gradientTransform="translate(-50.940885,-1.1095734e-5)"
       gradientUnits="userSpaceOnUse"
       id="linearGradient3089-5-2-9-8-6-8-0-7-1"
       xlink:href="#linearGradient4646-6-91-5-0-5-8-4" />
    <linearGradient
       id="linearGradient4646-6-91-5-0-5-8-4">
      <stop
         id="stop4648-2-4-6-6-8-7-1"
         style="stop-color:#f9f9f9;stop-opacity:1"
         offset="0" />
      <stop
         id="stop4650-3-8-5-3-4-5-7"
         style="stop-color:#d8d8d8;stop-opacity:1"
         offset="1" />
    </linearGradient>
    <linearGradient
       id="linearGradient3104-8-8-97-4-6-2-0-1-4-0-5-8">
      <stop
         id="stop3106-5-4-3-5-0-1-61-9-2-7-3-3"
         style="stop-color:#000000;stop-opacity:0.32173914"
         offset="0" />
      <stop
         id="stop3108-4-3-7-8-2-4-01-9-9-0-6-4"
         style="stop-color:#000000;stop-opacity:0.27826086"
         offset="1" />
    </linearGradient>
    <linearGradient
       xlink:href="#linearGradient3104-8-8-97-4-6-2-0-1-4-0-5-8"
       id="linearGradient20094"
       gradientUnits="userSpaceOnUse"
       gradientTransform="matrix(0.80749834,0,0,0.83374395,106.87671,-0.0698511)"
       x1="-51.786404"
       y1="53.514328"
       x2="-51.786404"
       y2="3.6336823" />
    <linearGradient
       xlink:href="#linearGradient7012-661-145-733-759-865-745"
       id="linearGradient3801"
       x1="22.204819"
       y1="16.331524"
       x2="22.204819"
       y2="44.477859"
       gradientUnits="userSpaceOnUse" />
    <linearGradient
       xlink:href="#linearGradient5048-585"
       id="linearGradient2467"
       gradientUnits="userSpaceOnUse"
       gradientTransform="matrix(7.9388558e-2,0,0,2.4705883e-2,-4.693293,31.941642)"
       x1="302.85715"
       y1="366.64789"
       x2="302.85715"
       y2="609.50507" />
    <radialGradient
       xlink:href="#linearGradient5060-179"
       id="radialGradient2464"
       gradientUnits="userSpaceOnUse"
       gradientTransform="matrix(3.0790832e-2,0,0,2.4705883e-2,24.610252,31.941642)"
       cx="605.71429"
       cy="486.64789"
       fx="605.71429"
       fy="486.64789"
       r="117.14286" />
    <radialGradient
       xlink:href="#linearGradient5060-820"
       id="radialGradient2461"
       gradientUnits="userSpaceOnUse"
       gradientTransform="matrix(-3.0790825e-2,0,0,2.4705883e-2,23.389748,31.941642)"
       cx="605.71429"
       cy="486.64789"
       fx="605.71429"
       fy="486.64789"
       r="117.14286" />
    <radialGradient
       xlink:href="#linearGradient3484"
       id="radialGradient2452"
       gradientUnits="userSpaceOnUse"
       gradientTransform="matrix(-1.274898e-8,1.7142916,-2.159331,-1.4599595e-8,12.809361,2.8570011)"
       cx="3"
       cy="5.01718"
       fx="3"
       fy="5.01718"
       r="21" />
    <linearGradient
       xlink:href="#linearGradient6404"
       id="linearGradient2450"
       gradientUnits="userSpaceOnUse"
       gradientTransform="translate(-50.940898,0)"
       x1="62.988873"
       y1="13.182598"
       x2="62.988873"
       y2="16.19013" />
    <linearGradient
       xlink:href="#linearGradient3390"
       id="linearGradient2443"
       gradientUnits="userSpaceOnUse"
       gradientTransform="translate(-53.765393,-0.1141929)"
       x1="82.453476"
       y1="45.114193"
       x2="82.453476"
       y2="16.047026" />
    <linearGradient
       xlink:href="#linearGradient6129-963-697-142-998-580-273"
       id="linearGradient2438"
       gradientUnits="userSpaceOnUse"
       gradientTransform="matrix(1.1446925,0,0,0.9977536,-3.4661413,1.0988425)"
       x1="22.934725"
       y1="49.629246"
       x2="22.809399"
       y2="36.657963" />
    <radialGradient
       xlink:href="#linearGradient6087-437-184-795-110-662-495"
       id="radialGradient2435"
       gradientUnits="userSpaceOnUse"
       gradientTransform="matrix(0,1.2079744,-1.6271642,0,26.371748,8.2664685)"
       cx="7.2646537"
       cy="8.3021259"
       fx="7.2646537"
       fy="8.3021259"
       r="20.979567" />
    <linearGradient
       xlink:href="#linearGradient8265-821-176-38-919-66-249"
       id="linearGradient2432"
       gradientUnits="userSpaceOnUse"
       x1="11.566265"
       y1="22.292103"
       x2="15.214532"
       y2="33.95525" />
    <linearGradient
       id="linearGradient8265-821-176-38-919-66-249">
      <stop
         id="stop2687"
         style="stop-color:#ffffff;stop-opacity:0.2"
         offset="0" />
      <stop
         id="stop2689"
         style="stop-color:#ffffff;stop-opacity:0"
         offset="1" />
    </linearGradient>
    <linearGradient
       id="linearGradient6087-437-184-795-110-662-495">
      <stop
         id="stop2693"
         style="stop-color:#ffffff;stop-opacity:0.40000001"
         offset="0" />
      <stop
         id="stop2695"
         style="stop-color:#ffffff;stop-opacity:0"
         offset="1" />
    </linearGradient>
    <linearGradient
       id="linearGradient6129-963-697-142-998-580-273">
      <stop
         id="stop2661"
         style="stop-color:#0a0a0a;stop-opacity:0.498"
         offset="0" />
      <stop
         id="stop2663"
         style="stop-color:#0a0a0a;stop-opacity:0"
         offset="1" />
    </linearGradient>
    <linearGradient
       id="linearGradient7012-661-145-733-759-865-745">
      <stop
         id="stop2699"
         style="stop-color:#aacb7d;stop-opacity:1;"
         offset="0" />
      <stop
         id="stop2701"
         style="stop-color:#709937;stop-opacity:1;"
         offset="1" />
    </linearGradient>
    <linearGradient
       id="linearGradient3390">
      <stop
         id="stop3392"
         style="stop-color:#51751e;stop-opacity:1;"
         offset="0" />
      <stop
         id="stop3394"
         style="stop-color:#709937;stop-opacity:1;"
         offset="1" />
    </linearGradient>
    <linearGradient
       id="linearGradient5048-585">
      <stop
         id="stop2667"
         style="stop-color:#000000;stop-opacity:0"
         offset="0" />
      <stop
         id="stop2669"
         style="stop-color:#000000;stop-opacity:1"
         offset="0.5" />
      <stop
         id="stop2671"
         style="stop-color:#000000;stop-opacity:0"
         offset="1" />
    </linearGradient>
    <linearGradient
       id="linearGradient5060-179">
      <stop
         id="stop2675"
         style="stop-color:#000000;stop-opacity:1"
         offset="0" />
      <stop
         id="stop2677"
         style="stop-color:#000000;stop-opacity:0"
         offset="1" />
    </linearGradient>
    <linearGradient
       id="linearGradient5060-820">
      <stop
         id="stop2681"
         style="stop-color:#000000;stop-opacity:1"
         offset="0" />
      <stop
         id="stop2683"
         style="stop-color:#000000;stop-opacity:0"
         offset="1" />
    </linearGradient>
    <linearGradient
       id="linearGradient6404">
      <stop
         id="stop6406"
         style="stop-color:#f9f9f9;stop-opacity:1"
         offset="0" />
      <stop
         id="stop6408"
         style="stop-color:#c9c9c9;stop-opacity:1"
         offset="1" />
    </linearGradient>
    <linearGradient
       id="linearGradient3484">
      <stop
         id="stop3486"
         style="stop-color:#bdbdbd;stop-opacity:1"
         offset="0" />
      <stop
         id="stop3488"
         style="stop-color:#d0d0d0;stop-opacity:1"
         offset="1" />
    </linearGradient>
  </defs>
  <metadata
     id="metadata20101">
    <rdf:RDF>
      <cc:Work
         rdf:about="">
        <dc:format>image/svg+xml</dc:format>
        <dc:type
           rdf:resource="http://purl.org/dc/dcmitype/StillImage" />
        <dc:title></dc:title>
      </cc:Work>
    </rdf:RDF>
  </metadata>
  <g
     id="layer1">
    <path
       id="rect4251-0-0-1-1-9-5-2-3"
       d="m 5.5000147,8.4999887 c -0.554,0 -1,0.446 -1,1 l 0,2.0000003 -1,0 c -0.554,0 -1,0.446 -1,1 l 0,6 c 0,0.554 0.446,1 1,1 l 40.9999903,0 c 0.554,0 1,-0.446 1,-1 l 0,-6 c 0,-0.554 -0.446,-1 -1,-1 l -22.99999,0 0,-2.0000003 c 0,-0.554 -0.446,-1 -1,-1 l -15.0000003,0 z"
       style="opacity:0.8;color:#000000;fill:none;stroke:url(#linearGradient20094);stroke-width:1;stroke-linecap:butt;stroke-linejoin:miter;stroke-miterlimit:4;stroke-opacity:1;stroke-dasharray:none;stroke-dashoffset:0;marker:none;visibility:visible;display:inline;overflow:visible;enable-background:accumulate" />
    <path
       id="rect4251-4-7-62-4-4-9-2"
       d="m 5.5000147,8.9999887 c -0.277,0 -0.5,0.223 -0.5,0.5 l 0,2.5000003 -1.5,0 c -0.277,0 -0.5,0.223 -0.5,0.5 l 0,6 c 0,0.277 0.223,0.5 0.5,0.5 l 40.9999903,0 c 0.277,0 0.5,-0.223 0.5,-0.5 l 0,-6 c 0,-0.277 -0.223,-0.5 -0.5,-0.5 l -23.49999,0 0,-2.5000003 c 0,-0.277 -0.223,-0.5 -0.5,-0.5 l -15.0000003,0 z"
       style="color:#000000;fill:url(#linearGradient3089-5-2-9-8-6-8-0-7-1);fill-opacity:1;fill-rule:nonzero;stroke:none;stroke-width:0.99992168;marker:none;visibility:visible;display:inline;overflow:visible;enable-background:accumulate" />
    <path
       id="rect4251-9-9-0-05-2-0-5-9"
       d="m 5.5000147,9.4999887 0,3.0000003 -2,0 0,7 40.9999903,0 0,-7 -23.99999,0 0,-3.0000003 -15.0000003,0 z"
       style="color:#000000;fill:none;stroke:url(#linearGradient3381-5-5-29-4-6-5-0-4);stroke-width:1;stroke-linecap:round;stroke-linejoin:round;stroke-miterlimit:4;stroke-opacity:1;stroke-dasharray:none;stroke-dashoffset:0;marker:none;visibility:visible;display:inline;overflow:visible;enable-background:accumulate" />
    <rect
       width="38.333332"
       height="6.0000005"
       x="4.8333788"
       y="41"
       id="rect4173-6-7-7-3-5-1-4"
       style="opacity:0.3;fill:url(#linearGradient3086-4-4-0-5-5-7-4);fill-opacity:1;fill-rule:nonzero;stroke:none;stroke-width:1;marker:none;visibility:visible;display:inline;overflow:visible" />
    <path
       d="m 43.166705,41.000199 c 0,0 0,5.99967 0,5.99967 1.5856,0.0113 3.8333,-1.34422 3.8333,-3.00022 0,-1.656 -1.7695,-2.99945 -3.8333,-2.99945 z"
       id="path5058-7-9-1-3-0-3-4"
       style="opacity:0.3;fill:url(#radialGradient3083-4-5-6-4-5-0-5);fill-opacity:1;fill-rule:nonzero;stroke:none;stroke-width:1;marker:none;visibility:visible;display:inline;overflow:visible" />
    <path
       d="m 4.8333147,41.000199 c 0,0 0,5.99967 0,5.99967 -1.5856,0.0113 -3.8333,-1.34422 -3.8333,-3.00022 0,-1.656 1.7695,-2.99945 3.8333,-2.99945 z"
       id="path5018-8-1-1-6-9-4-9"
       style="opacity:0.3;fill:url(#radialGradient3080-2-3-9-9-8-8-9);fill-opacity:1;fill-rule:nonzero;stroke:none;stroke-width:1;marker:none;visibility:visible;display:inline;overflow:visible" />
    <path
       d="m 2.1626147,15.500179 c -1.0723,0.12829 -0.4996,1.45416 -0.5851,2.19974 0.1245,0.48182 0.9275,26.17643 0.9275,26.17643 0,0.7414 0.3517,0.61579 1.2429,0.61579 13.1886003,0 27.7726003,0 40.9610903,0 0.9601,0.0231 0.7572,0.0121 0.7572,-0.62748 0,0 0.993,-27.35421 1.0285,-27.7811 0,-0.44949 0.09,-0.58338 -0.4732,-0.58338 -14.08399,0 -29.77479,0 -43.8588903,0 z"
       id="path3388-1-43-0-7-6-2-7"
       style="fill:url(#linearGradient4638-4-6-8-9-9-5-8);fill-opacity:1;stroke:none" />
    <path
       d="m 2.0582147,16.065139 43.8964903,4e-4 c 0.6342,0 1.0452,0.44461 1.0452,0.99737 l -1.0324,26.96037 c 0.015,0.6994 -0.2091,0.97671 -0.9459,0.96204 l -41.7807903,-0.0176 c -0.6341,0 -1.2736,-0.41276 -1.2736,-0.96551 l -0.9541,-26.93932 c 0,-0.55276 0.411,-0.99775 1.0451,-0.99775 z"
       id="path6127-7-1-6-4-8-5-0"
       style="opacity:0.4;fill:url(#linearGradient3072-0-3-0-7-4-8-7);fill-opacity:1;stroke:none" />
    <path
       transform="matrix(1,0,0,1.0383977,1.4880025e-5,-1.6703711)"
       d="m 2.5,17.5 c 0.016793,0.176427 0.022163,0.517935 0.03125,0.875 0.023112,0.08641 0.025524,0.05923 0.03125,0.09375 0.011058,0.06665 0.027034,0.138257 0.03125,0.1875 0.0064,0.07474 -0.00668,0.173042 0,0.28125 0.013352,0.216416 0.045306,0.510844 0.0625,0.875 0.034388,0.728313 0.078083,1.708883 0.125,2.90625 0.093834,2.394734 0.2030642,5.55569 0.3125,8.6875 C 3.3060459,37.481691 3.4883163,43.143759 3.5,43.5 c 0.1225025,0.0036 0.071108,0 0.25,0 l 40.71875,0 c 0.0124,-0.328836 0.253182,-6.426721 0.5,-12.90625 0.126691,-3.325928 0.245386,-6.68527 0.34375,-9.21875 0.04918,-1.26674 0.09434,-2.331501 0.125,-3.09375 0.01322,-0.328618 0.02246,-0.572975 0.03125,-0.78125 L 2.5,17.5 z"
       id="path4587-4-6-3-0-1-2-6"
       style="opacity:0.5;color:#000000;fill:none;stroke:url(#linearGradient3381-56-2-7-5-0-8-0-0);stroke-width:0.98133707;stroke-linecap:round;stroke-linejoin:miter;stroke-miterlimit:4;stroke-opacity:1;stroke-dasharray:none;stroke-dashoffset:0;marker:none;visibility:visible;display:inline;overflow:visible;enable-background:accumulate" />
    <path
       d="m 2.1626147,15.500179 c -1.0723,0.12829 -0.4996,1.45416 -0.5851,2.19974 0.1245,0.48182 0.9275,26.17643 0.9275,26.17643 0,0.7414 0.3517,0.61579 1.2429,0.61579 13.1886003,0 27.7726003,0 40.9610903,0 0.9601,0.0231 0.7572,0.0121 0.7572,-0.62748 0,0 0.993,-27.35421 1.0285,-27.7811 0,-0.44949 0.09,-0.58338 -0.4732,-0.58338 -14.08399,0 -29.77479,0 -43.8588903,0 z"
       id="path3388-1-43-0-7-6-2-7-0"
       style="opacity:0.3;fill:none;stroke:#000000;stroke-width:1;stroke-linecap:round;stroke-linejoin:round;stroke-miterlimit:4;stroke-opacity:1;stroke-dashoffset:0" />
    <path
       style="fill:#4e784b;fill-opacity:1;stroke:none"
       id="path2998"
       d="m 24.407357,20.659714 -11.071422,11.071422 2.142856,2.142865 1.785716,-1.785718 0,8.571431 5.714282,0 0,-4.285714 c 0,-0.791428 0.637146,-1.42857 1.428568,-1.42857 0.791434,0 1.428578,0.637142 1.428578,1.42857 l 0,4.285714 5.714285,0 0,-8.571431 1.785708,1.785718 2.142857,-2.142865 -11.071428,-11.071422 z m 4.285716,1.428567 0,1.071432 2.857147,2.857142 0,-3.928574 -2.857147,0 z" />
  </g>
</svg>
